<svg width="164" height="49" viewBox="0 0 164 49" fill="none" xmlns="http://www.w3.org/2000/svg">
<g clip-path="url(#clip0)">
<path d="M158.172 48.4189H5.92202C2.75854 48.4189 0.183594 45.843 0.183594 42.6897V5.7209C0.183594 2.56643 2.75854 0.000244141 5.92202 0.000244141H158.172C161.334 0.000244141 164 2.56643 164 5.7209V42.6897C164 45.843 161.334 48.4189 158.172 48.4189Z" fill="#A6A6A6"/>
<path d="M162.825 42.691C162.825 45.2523 160.745 47.3271 158.173 47.3271H5.92212C3.35081 47.3271 1.26367 45.2523 1.26367 42.691V5.71977C1.26367 3.15964 3.35081 1.07764 5.92212 1.07764H158.172C160.745 1.07764 162.824 3.15964 162.824 5.71977L162.825 42.691Z" fill="black"/>
<path d="M36.7431 23.9484C36.7079 20.0471 39.9454 18.1491 40.0934 18.0607C38.2599 15.394 35.418 15.0297 34.4193 15.0006C32.0325 14.7501 29.7172 16.4254 28.5013 16.4254C27.2612 16.4254 25.3888 15.0249 23.3708 15.066C20.774 15.106 18.3447 16.6057 17.0123 18.9347C14.2626 23.6833 16.3134 30.6616 18.9478 34.5C20.2656 36.3799 21.8055 38.4788 23.821 38.405C25.7929 38.3239 26.5295 37.1509 28.909 37.1509C31.2668 37.1509 31.9584 38.405 34.014 38.3578C36.1303 38.3239 37.4627 36.4695 38.7344 34.5727C40.2573 32.418 40.8688 30.2961 40.8931 30.1871C40.8434 30.1702 36.7831 28.6244 36.7431 23.9484Z" fill="white"/>
<path d="M32.86 12.4755C33.9205 11.1524 34.6462 9.35247 34.4448 7.52588C32.9097 7.59366 30.9901 8.58504 29.8846 9.87902C28.9066 11.0193 28.0329 12.8882 28.2586 14.6458C29.9829 14.7741 31.7533 13.7779 32.86 12.4755Z" fill="white"/>
<path d="M65.2796 38.135H62.5239L61.0143 33.4033H55.7674L54.3294 38.135H51.6465L56.8449 22.0261H60.0557L65.2796 38.135ZM60.5593 31.4181L59.1942 27.2118C59.0498 26.782 58.7792 25.7701 58.3799 24.1771H58.3314C58.1724 24.8622 57.9164 25.8742 57.5645 27.2118L56.2236 31.4181H60.5593Z" fill="white"/>
<path d="M78.6486 32.1842C78.6486 34.1597 78.1135 35.7212 77.0432 36.8675C76.0846 37.8879 74.8942 38.3975 73.4732 38.3975C71.9394 38.3975 70.8376 37.848 70.1665 36.7489H70.118V42.8678H67.5309V30.3431C67.5309 29.1011 67.4982 27.8265 67.4351 26.5192H69.7103L69.8547 28.3603H69.9032C70.766 26.9731 72.0753 26.2808 73.8324 26.2808C75.206 26.2808 76.3527 26.8218 77.2701 27.9052C78.1899 28.9898 78.6486 30.4157 78.6486 32.1842ZM76.013 32.2786C76.013 31.148 75.7581 30.216 75.2461 29.4824C74.6867 28.7174 73.9355 28.3349 72.9939 28.3349C72.3556 28.3349 71.7756 28.548 71.2574 28.968C70.7381 29.3917 70.3983 29.9448 70.2393 30.63C70.1593 30.9495 70.1192 31.211 70.1192 31.4168V33.3535C70.1192 34.1984 70.3789 34.9114 70.8983 35.4936C71.4176 36.0758 72.0923 36.3664 72.9223 36.3664C73.8967 36.3664 74.6551 35.9911 75.1975 35.243C75.7412 34.4938 76.013 33.506 76.013 32.2786Z" fill="white"/>
<path d="M92.0414 32.1842C92.0414 34.1597 91.5063 35.7212 90.4348 36.8675C89.4774 37.8879 88.287 38.3975 86.866 38.3975C85.3322 38.3975 84.2304 37.848 83.5606 36.7489H83.512V42.8678H80.925V30.3431C80.925 29.1011 80.8922 27.8265 80.8291 26.5192H83.1043L83.2487 28.3603H83.2973C84.1588 26.9731 85.4681 26.2808 87.2264 26.2808C88.5988 26.2808 89.7456 26.8218 90.6654 27.9052C91.5815 28.9898 92.0414 30.4157 92.0414 32.1842ZM89.4058 32.2786C89.4058 31.148 89.1497 30.216 88.6377 29.4824C88.0783 28.7174 87.3296 28.3349 86.3867 28.3349C85.7472 28.3349 85.1684 28.548 84.6491 28.968C84.1297 29.3917 83.7911 29.9448 83.6322 30.63C83.5533 30.9495 83.512 31.211 83.512 31.4168V33.3535C83.512 34.1984 83.7717 34.9114 84.2887 35.4936C84.808 36.0746 85.4827 36.3664 86.3151 36.3664C87.2895 36.3664 88.0479 35.9911 88.5904 35.243C89.134 34.4938 89.4058 33.506 89.4058 32.2786Z" fill="white"/>
<path d="M107.015 33.6175C107.015 34.9877 106.538 36.1026 105.581 36.9632C104.529 37.9037 103.064 38.3734 101.182 38.3734C99.4446 38.3734 98.0516 38.0393 96.9971 37.3699L97.5965 35.2189C98.7323 35.9041 99.9785 36.2478 101.336 36.2478C102.311 36.2478 103.069 36.0275 103.614 35.5893C104.156 35.1512 104.427 34.5629 104.427 33.8293C104.427 33.1757 104.204 32.6249 103.756 32.1783C103.311 31.7316 102.567 31.3164 101.528 30.9327C98.7008 29.8808 97.2883 28.3399 97.2883 26.3135C97.2883 24.9893 97.7834 23.9035 98.7748 23.0586C99.7625 22.2125 101.08 21.79 102.728 21.79C104.198 21.79 105.418 22.0454 106.393 22.5551L105.746 24.6588C104.836 24.165 103.807 23.918 102.655 23.918C101.745 23.918 101.034 24.142 100.525 24.5874C100.094 24.9857 99.8778 25.4711 99.8778 26.046C99.8778 26.6827 100.124 27.2093 100.619 27.6233C101.05 28.0058 101.833 28.4198 102.968 28.8664C104.358 29.4244 105.378 30.0769 106.035 30.825C106.689 31.5706 107.015 32.5039 107.015 33.6175Z" fill="white"/>
<path d="M115.568 28.456H112.717V34.0955C112.717 35.5299 113.219 36.2465 114.226 36.2465C114.689 36.2465 115.072 36.2066 115.376 36.1267L115.447 38.0864C114.937 38.2765 114.266 38.3721 113.435 38.3721C112.413 38.3721 111.615 38.061 111.039 37.44C110.465 36.8179 110.176 35.7744 110.176 34.3086V28.4535H108.477V26.5168H110.176V24.39L112.717 23.625V26.5168H115.568V28.456Z" fill="white"/>
<path d="M128.435 32.2314C128.435 34.0169 127.923 35.4827 126.901 36.629C125.83 37.8092 124.408 38.3975 122.635 38.3975C120.926 38.3975 119.566 37.8322 118.551 36.7017C117.537 35.5711 117.03 34.144 117.03 32.4239C117.03 30.6239 117.552 29.1496 118.599 28.0033C119.644 26.8557 121.054 26.282 122.826 26.282C124.535 26.282 125.91 26.8473 126.947 27.9791C127.94 29.0769 128.435 30.4944 128.435 32.2314ZM125.751 32.3149C125.751 31.2437 125.522 30.3249 125.057 29.5587C124.514 28.6315 123.739 28.1691 122.734 28.1691C121.694 28.1691 120.904 28.6327 120.362 29.5587C119.897 30.3261 119.668 31.2594 119.668 32.3634C119.668 33.4346 119.897 34.3534 120.362 35.1184C120.921 36.0456 121.703 36.508 122.711 36.508C123.699 36.508 124.474 36.0359 125.034 35.0942C125.511 34.3134 125.751 33.385 125.751 32.3149Z" fill="white"/>
<path d="M136.844 28.7888C136.588 28.7416 136.315 28.7174 136.029 28.7174C135.119 28.7174 134.415 29.06 133.92 29.7463C133.489 30.3516 133.273 31.1166 133.273 32.0402V38.1348H130.687L130.711 30.1772C130.711 28.8385 130.679 27.6195 130.614 26.5204H132.868L132.962 28.7428H133.034C133.307 27.979 133.738 27.3641 134.327 26.9029C134.904 26.4878 135.526 26.2808 136.197 26.2808C136.436 26.2808 136.652 26.2977 136.844 26.328V28.7888Z" fill="white"/>
<path d="M148.415 31.7775C148.415 32.2399 148.384 32.6297 148.32 32.9481H140.559C140.589 34.0956 140.964 34.9732 141.685 35.5784C142.339 36.1195 143.185 36.3906 144.223 36.3906C145.373 36.3906 146.421 36.2078 147.364 35.8411L147.769 37.6326C146.667 38.1119 145.367 38.3504 143.866 38.3504C142.06 38.3504 140.643 37.8202 139.611 36.761C138.582 35.7019 138.066 34.2796 138.066 32.4953C138.066 30.7438 138.546 29.2852 139.506 28.1219C140.51 26.88 141.868 26.259 143.577 26.259C145.255 26.259 146.525 26.88 147.388 28.1219C148.071 29.1085 148.415 30.3286 148.415 31.7775ZM145.948 31.1082C145.965 30.3431 145.796 29.6822 145.445 29.1242C144.998 28.4064 144.31 28.0481 143.384 28.0481C142.538 28.0481 141.85 28.3979 141.325 29.1C140.894 29.658 140.638 30.3274 140.559 31.1069H145.948V31.1082Z" fill="white"/>
<path d="M59.7037 12.1161C59.7037 13.5408 59.2754 14.6132 58.4199 15.3335C57.6275 15.998 56.5014 16.3309 55.0428 16.3309C54.3196 16.3309 53.7008 16.2994 53.1826 16.2365V8.45198C53.8585 8.34303 54.5866 8.28735 55.3729 8.28735C56.7623 8.28735 57.8095 8.58876 58.5157 9.19157C59.3069 9.87306 59.7037 10.8475 59.7037 12.1161ZM58.3628 12.1512C58.3628 11.2276 58.1177 10.5195 57.6275 10.0256C57.1373 9.53292 56.4213 9.28599 55.4785 9.28599C55.078 9.28599 54.7371 9.31262 54.4543 9.3683V15.2863C54.6109 15.3105 54.8972 15.3214 55.3134 15.3214C56.2866 15.3214 57.0378 15.0514 57.5668 14.5116C58.0959 13.9717 58.3628 13.1849 58.3628 12.1512Z" fill="white"/>
<path d="M66.813 13.3603C66.813 14.2379 66.5618 14.9569 66.0594 15.521C65.5328 16.1008 64.835 16.3901 63.9638 16.3901C63.1241 16.3901 62.4555 16.1129 61.9567 15.5561C61.4592 15.0005 61.2104 14.2996 61.2104 13.4547C61.2104 12.5711 61.4665 11.846 61.981 11.2831C62.4955 10.7203 63.1872 10.4382 64.0584 10.4382C64.8981 10.4382 65.5728 10.7154 66.0837 11.271C66.5691 11.8109 66.813 12.5081 66.813 13.3603ZM65.4939 13.4015C65.4939 12.8749 65.3799 12.4234 65.153 12.0469C64.886 11.5918 64.5062 11.3642 64.0123 11.3642C63.5015 11.3642 63.1131 11.5918 62.8462 12.0469C62.6181 12.4234 62.5052 12.8822 62.5052 13.4244C62.5052 13.951 62.6193 14.4025 62.8462 14.779C63.1216 15.2341 63.5051 15.4617 64.0002 15.4617C64.4856 15.4617 64.8666 15.2305 65.1408 14.7669C65.3762 14.3831 65.4939 13.928 65.4939 13.4015Z" fill="white"/>
<path d="M76.3465 10.5544L74.5566 16.2606H73.3917L72.6503 13.7828C72.4622 13.1642 72.3093 12.5493 72.1904 11.9392H72.1673C72.0569 12.5662 71.904 13.1799 71.7074 13.7828L70.9199 16.2606H69.7416L68.0586 10.5544H69.3655L70.0122 13.2671C70.1688 13.9086 70.2974 14.5199 70.4006 15.0985H70.4236C70.5183 14.6216 70.6748 14.014 70.8956 13.2792L71.7074 10.5557H72.7437L73.5216 13.2211C73.7096 13.8711 73.8625 14.4969 73.9802 15.0997H74.0154C74.1016 14.5127 74.2314 13.8869 74.4037 13.2211L75.0978 10.5557H76.3465V10.5544Z" fill="white"/>
<path d="M82.9388 16.2608H81.6671V12.9925C81.6671 11.9854 81.2836 11.4819 80.5143 11.4819C80.1369 11.4819 79.8324 11.6199 79.5957 11.8971C79.3615 12.1743 79.2426 12.5011 79.2426 12.8751V16.2596H77.9709V12.1851C77.9709 11.684 77.9551 11.1405 77.9248 10.5522H79.0424L79.1019 11.4443H79.137C79.2851 11.1671 79.5059 10.9384 79.796 10.7556C80.1406 10.5425 80.5264 10.4348 80.9487 10.4348C81.4827 10.4348 81.9268 10.6067 82.2799 10.9517C82.7192 11.3741 82.9388 12.0048 82.9388 12.8424V16.2608Z" fill="white"/>
<path d="M86.4458 16.2606H85.1753V7.93628H86.4458V16.2606Z" fill="white"/>
<path d="M93.9326 13.3603C93.9326 14.2379 93.6814 14.9569 93.179 15.521C92.6524 16.1008 91.9535 16.3901 91.0834 16.3901C90.2425 16.3901 89.5739 16.1129 89.0763 15.5561C88.5788 15.0005 88.3301 14.2996 88.3301 13.4547C88.3301 12.5711 88.5861 11.846 89.1006 11.2831C89.6151 10.7203 90.3068 10.4382 91.1768 10.4382C92.0178 10.4382 92.6912 10.7154 93.2033 11.271C93.6887 11.8109 93.9326 12.5081 93.9326 13.3603ZM92.6123 13.4015C92.6123 12.8749 92.4983 12.4234 92.2714 12.0469C92.0056 11.5918 91.6246 11.3642 91.1319 11.3642C90.6199 11.3642 90.2316 11.5918 89.9658 12.0469C89.7377 12.4234 89.6248 12.8822 89.6248 13.4244C89.6248 13.951 89.7389 14.4025 89.9658 14.779C90.2413 15.2341 90.6247 15.4617 91.1198 15.4617C91.6052 15.4617 91.985 15.2305 92.2592 14.7669C92.4959 14.3831 92.6123 13.928 92.6123 13.4015Z" fill="white"/>
<path d="M100.087 16.2606H98.9453L98.8507 15.6033H98.8155C98.4247 16.1274 97.8678 16.3901 97.1446 16.3901C96.6046 16.3901 96.1677 16.217 95.8389 15.8732C95.5404 15.5609 95.3911 15.1724 95.3911 14.7112C95.3911 14.0139 95.6823 13.4826 96.2684 13.1146C96.8533 12.7466 97.6761 12.5662 98.7354 12.5747V12.4682C98.7354 11.7165 98.3398 11.3412 97.5474 11.3412C96.9832 11.3412 96.4857 11.4829 96.0561 11.7637L95.7976 10.9309C96.3291 10.6029 96.9856 10.4382 97.7598 10.4382C99.2548 10.4382 100.005 11.225 100.005 12.7986V14.9C100.005 15.4701 100.033 15.9241 100.087 16.2606ZM98.7669 14.2996V13.4196C97.3642 13.3954 96.6628 13.7791 96.6628 14.5695C96.6628 14.8673 96.7429 15.09 96.9067 15.2389C97.0705 15.3878 97.2793 15.4617 97.528 15.4617C97.8071 15.4617 98.068 15.3733 98.3058 15.1978C98.5449 15.0211 98.6917 14.7971 98.7463 14.5223C98.7597 14.4606 98.7669 14.3856 98.7669 14.2996Z" fill="white"/>
<path d="M107.314 16.2606H106.185L106.126 15.3443H106.09C105.73 16.0416 105.116 16.3902 104.253 16.3902C103.564 16.3902 102.99 16.1202 102.535 15.5804C102.08 15.0405 101.853 14.3396 101.853 13.479C101.853 12.5554 102.099 11.8073 102.594 11.236C103.074 10.7034 103.661 10.4371 104.36 10.4371C105.128 10.4371 105.666 10.6949 105.971 11.2118H105.996V7.93628H107.269V14.7234C107.269 15.279 107.283 15.791 107.314 16.2606ZM105.996 13.8542V12.9028C105.996 12.7382 105.984 12.605 105.961 12.5034C105.889 12.1983 105.735 11.9417 105.501 11.7347C105.264 11.5277 104.979 11.4236 104.65 11.4236C104.176 11.4236 103.804 11.6113 103.531 11.9877C103.261 12.3642 103.124 12.8447 103.124 13.4318C103.124 13.9959 103.253 14.4534 103.514 14.8057C103.79 15.1809 104.161 15.3685 104.626 15.3685C105.043 15.3685 105.377 15.2124 105.631 14.8989C105.876 14.6096 105.996 14.261 105.996 13.8542Z" fill="white"/>
<path d="M118.189 13.3603C118.189 14.2379 117.938 14.9569 117.436 15.521C116.909 16.1008 116.213 16.3901 115.34 16.3901C114.502 16.3901 113.833 16.1129 113.333 15.5561C112.836 15.0005 112.587 14.2996 112.587 13.4547C112.587 12.5711 112.843 11.846 113.357 11.2831C113.872 10.7203 114.564 10.4382 115.436 10.4382C116.275 10.4382 116.951 10.7154 117.46 11.271C117.946 11.8109 118.189 12.5081 118.189 13.3603ZM116.872 13.4015C116.872 12.8749 116.758 12.4234 116.531 12.0469C116.262 11.5918 115.884 11.3642 115.389 11.3642C114.879 11.3642 114.491 11.5918 114.223 12.0469C113.995 12.4234 113.882 12.8822 113.882 13.4244C113.882 13.951 113.996 14.4025 114.223 14.779C114.498 15.2341 114.882 15.4617 115.377 15.4617C115.862 15.4617 116.244 15.2305 116.519 14.7669C116.753 14.3831 116.872 13.928 116.872 13.4015Z" fill="white"/>
<path d="M125.027 16.2608H123.757V12.9925C123.757 11.9854 123.374 11.4819 122.603 11.4819C122.226 11.4819 121.921 11.6199 121.686 11.8971C121.45 12.1743 121.332 12.5011 121.332 12.8751V16.2596H120.06V12.1851C120.06 11.684 120.045 11.1405 120.015 10.5522H121.131L121.19 11.4443H121.226C121.375 11.1671 121.596 10.9384 121.885 10.7556C122.23 10.5425 122.615 10.4348 123.039 10.4348C123.571 10.4348 124.015 10.6067 124.369 10.9517C124.809 11.3741 125.027 12.0048 125.027 12.8424V16.2608Z" fill="white"/>
<path d="M133.586 11.5046H132.186V14.2766C132.186 14.9811 132.434 15.3333 132.927 15.3333C133.155 15.3333 133.344 15.3139 133.494 15.274L133.526 16.2363C133.275 16.3307 132.945 16.3779 132.539 16.3779C132.036 16.3779 131.646 16.2254 131.363 15.9204C131.079 15.6153 130.938 15.1021 130.938 14.3819V11.5046H130.102V10.5544H130.938V9.50854L132.184 9.1333V10.5532H133.585V11.5046H133.586Z" fill="white"/>
<path d="M140.318 16.2606H139.046V13.0166C139.046 11.9938 138.662 11.4817 137.894 11.4817C137.304 11.4817 136.901 11.7783 136.681 12.3714C136.643 12.4961 136.621 12.6486 136.621 12.8278V16.2594H135.351V7.93628H136.621V11.3752H136.645C137.046 10.7494 137.62 10.4371 138.364 10.4371C138.89 10.4371 139.326 10.609 139.672 10.954C140.102 11.3837 140.318 12.0228 140.318 12.8677V16.2606Z" fill="white"/>
<path d="M147.263 13.1375C147.263 13.365 147.246 13.5563 147.216 13.7124H143.402C143.419 14.2765 143.601 14.7062 143.954 15.004C144.277 15.2703 144.693 15.4035 145.202 15.4035C145.767 15.4035 146.281 15.3139 146.745 15.1335L146.944 16.0148C146.401 16.2496 145.763 16.367 145.024 16.367C144.138 16.367 143.44 16.1067 142.936 15.5862C142.428 15.0657 142.177 14.3673 142.177 13.4909C142.177 12.6303 142.411 11.9137 142.883 11.3424C143.376 10.7323 144.042 10.4272 144.883 10.4272C145.706 10.4272 146.331 10.7323 146.753 11.3424C147.094 11.8265 147.263 12.4257 147.263 13.1375ZM146.049 12.8094C146.059 12.433 145.975 12.1086 145.803 11.835C145.582 11.4828 145.246 11.306 144.791 11.306C144.376 11.306 144.037 11.4779 143.779 11.8229C143.568 12.0977 143.443 12.4257 143.402 12.8094H146.049Z" fill="white"/>
</g>
<defs>
<clipPath id="clip0">
<rect width="163.816" height="48.4186" fill="white" transform="translate(0.183594 0.000244141)"/>
</clipPath>
</defs>
</svg>
