<svg width="320" height="225" viewBox="0 0 320 225" fill="none" xmlns="http://www.w3.org/2000/svg">
<style type="text/css" >
	<![CDATA[
		#blurry-image {
			filter: blur(0px);
			filter:progid:DXImageTransform.Microsoft.Blur(PixelRadius=‘0’);
		}
	]]>
</style>
<mask id="mask0" style="mask-type:alpha" maskUnits="userSpaceOnUse" x="0" y="0" width="320" height="225">
<rect width="320" height="225" fill="#C4C4C4"/>
</mask>
<g mask="url(#mask0)">
<path d="M48.2905 56.6486H48.2407V58.2306V439.769C48.2407 457.382 62.9666 471.582 81.0175 471.582H239.663C257.715 471.582 272.43 457.381 272.43 439.769V58.2306C272.43 40.619 257.715 26.418 239.663 26.418H81.0276C63.5103 26.418 49.1404 39.776 48.2905 56.6486Z" fill="#A4E6CC" stroke="#A4E6CC" stroke-width="3.16409"/>
<mask id="mask1" style="mask-type:alpha" maskUnits="userSpaceOnUse" x="58" y="36" width="203" height="425">
<path d="M241.98 36.8345H220.101C220.101 36.8345 216.911 36.5531 216.629 38.8949C216.347 41.2366 216.911 47.2466 209.021 51.2768C209.021 51.2768 206.575 52.4929 204.512 52.4929C202.449 52.4929 116.14 52.4929 116.14 52.4929C116.14 52.4929 108.159 52.6838 105.059 46.3924C105.059 46.3924 103.087 43.7692 102.896 40.1109C102.896 40.1109 102.986 37.0154 100.832 36.925C98.6788 36.8345 78.3897 36.925 78.3897 36.925C78.3897 36.925 68.3458 37.0155 62.8911 44.714C62.8911 44.714 59.0366 48.5632 58.8554 55.9703C58.6937 62.2324 59.5027 346.95 59.7567 434.822C59.7975 448.969 71.2778 460.374 85.4253 460.374H235.296C249.475 460.374 260.969 448.878 260.966 434.699L260.891 61.3372C260.891 61.3372 262.169 48.6637 255.215 42.7944C248.663 37.2466 244.889 37.0556 241.98 36.8345Z" fill="white"/>
</mask>
<g mask="url(#mask1)">
<g clip-path="url(#clip0)">
<g clip-path="url(#clip1)">
<rect width="204" height="446" transform="translate(59.0005 36)" fill="white"/>
<path d="M75.9046 79.9611L72.6328 76.6893L75.9046 73.4175" stroke="#B5B5B5" stroke-width="0.817946" stroke-linecap="round" stroke-linejoin="round"/>
<path d="M143.466 79.6023V77.5345H144.949C146.205 77.5345 146.903 76.6708 146.903 75.6587C146.903 74.6379 146.214 73.7829 144.949 73.7829H142.227V79.6023H143.466ZM144.783 76.4439H143.466V74.8735H144.783C145.272 74.8735 145.638 75.1701 145.638 75.6587C145.638 76.1386 145.272 76.4439 144.783 76.4439ZM149.455 79.707C150.851 79.707 151.688 78.6949 151.688 77.4909C151.688 76.2956 150.851 75.2835 149.455 75.2835C148.067 75.2835 147.23 76.2956 147.23 77.4909C147.23 78.6949 148.067 79.707 149.455 79.707ZM149.455 78.7211C148.765 78.7211 148.381 78.154 148.381 77.4909C148.381 76.8365 148.765 76.2694 149.455 76.2694C150.144 76.2694 150.536 76.8365 150.536 77.4909C150.536 78.154 150.144 78.7211 149.455 78.7211ZM153.618 79.6023V76.8191C153.801 76.5486 154.29 76.3392 154.656 76.3392C154.779 76.3392 154.883 76.348 154.962 76.3654V75.2835C154.438 75.2835 153.915 75.5889 153.618 75.9641V75.3882H152.51V79.6023H153.618ZM157.068 79.707C157.53 79.707 157.827 79.5848 157.992 79.4365L157.757 78.5989C157.696 78.66 157.539 78.7211 157.373 78.7211C157.129 78.7211 156.989 78.5204 156.989 78.2587V76.3567H157.844V75.3882H156.989V74.2366H155.872V75.3882H155.174V76.3567H155.872V78.5553C155.872 79.3057 156.291 79.707 157.068 79.707ZM160.556 79.707C161.952 79.707 162.79 78.6949 162.79 77.4909C162.79 76.2956 161.952 75.2835 160.556 75.2835C159.169 75.2835 158.332 76.2956 158.332 77.4909C158.332 78.6949 159.169 79.707 160.556 79.707ZM160.556 78.7211C159.867 78.7211 159.483 78.154 159.483 77.4909C159.483 76.8365 159.867 76.2694 160.556 76.2694C161.246 76.2694 161.638 76.8365 161.638 77.4909C161.638 78.154 161.246 78.7211 160.556 78.7211ZM164.973 79.6023V76.3567H165.828V75.3882H164.973V75.1614C164.973 74.7688 165.191 74.5681 165.497 74.5681C165.697 74.5681 165.846 74.6292 165.959 74.7426L166.378 74.0882C166.107 73.8003 165.68 73.6956 165.278 73.6956C164.432 73.6956 163.856 74.2627 163.856 75.1614V75.3882H163.158V76.3567H163.856V79.6023H164.973ZM168.421 79.707C169.817 79.707 170.654 78.6949 170.654 77.4909C170.654 76.2956 169.817 75.2835 168.421 75.2835C167.033 75.2835 166.196 76.2956 166.196 77.4909C166.196 78.6949 167.033 79.707 168.421 79.707ZM168.421 78.7211C167.731 78.7211 167.348 78.154 167.348 77.4909C167.348 76.8365 167.731 76.2694 168.421 76.2694C169.11 76.2694 169.503 76.8365 169.503 77.4909C169.503 78.154 169.11 78.7211 168.421 78.7211ZM172.584 79.6023V73.7829H171.476V79.6023H172.584ZM174.233 74.9345C174.599 74.9345 174.896 74.6379 174.896 74.2715C174.896 73.905 174.599 73.6171 174.233 73.6171C173.875 73.6171 173.57 73.905 173.57 74.2715C173.57 74.6379 173.875 74.9345 174.233 74.9345ZM174.791 79.6023V75.3882H173.683V79.6023H174.791ZM177.844 79.707C179.24 79.707 180.078 78.6949 180.078 77.4909C180.078 76.2956 179.24 75.2835 177.844 75.2835C176.457 75.2835 175.619 76.2956 175.619 77.4909C175.619 78.6949 176.457 79.707 177.844 79.707ZM177.844 78.7211C177.155 78.7211 176.771 78.154 176.771 77.4909C176.771 76.8365 177.155 76.2694 177.844 76.2694C178.533 76.2694 178.926 76.8365 178.926 77.4909C178.926 78.154 178.533 78.7211 177.844 78.7211Z" fill="#333333"/>
<g clip-path="url(#clip2)">
<rect width="204.487" height="23.9931" transform="translate(59.0005 39.6091)" fill="white"/>
<path opacity="0.35" d="M242.007 50.5149C242.007 49.8624 242.536 49.3334 243.188 49.3334H252.276C252.929 49.3334 253.458 49.8624 253.458 50.5149V53.7867C253.458 54.4392 252.929 54.9682 252.276 54.9682H243.188C242.536 54.9682 242.007 54.4392 242.007 53.7867V50.5149Z" stroke="black" stroke-width="0.545298"/>
<path opacity="0.4" d="M254.276 51.0603V53.2415C254.715 53.0568 255 52.627 255 52.1509C255 51.6748 254.715 51.245 254.276 51.0603Z" fill="black"/>
<path d="M242.824 50.8784C242.824 50.4769 243.15 50.1514 243.552 50.1514H251.913C252.314 50.1514 252.64 50.4769 252.64 50.8784V53.4232C252.64 53.8247 252.314 54.1502 251.913 54.1502H243.552C243.15 54.1502 242.824 53.8247 242.824 53.4232V50.8784Z" fill="black"/>
<path fill-rule="evenodd" clip-rule="evenodd" d="M234.825 50.3011C236.034 50.3012 237.196 50.7655 238.072 51.598C238.137 51.6623 238.243 51.6615 238.308 51.5962L238.938 50.96C238.971 50.9269 238.989 50.8821 238.989 50.8354C238.989 50.7888 238.97 50.7441 238.937 50.7114C236.638 48.5086 233.012 48.5086 230.714 50.7114C230.68 50.7441 230.661 50.7887 230.661 50.8354C230.661 50.882 230.679 50.9269 230.712 50.96L231.343 51.5962C231.407 51.6616 231.513 51.6624 231.579 51.598C232.455 50.7654 233.617 50.3011 234.825 50.3011ZM234.825 52.3709C235.489 52.3709 236.129 52.6177 236.622 53.0633C236.688 53.1265 236.793 53.1251 236.858 53.0602L237.488 52.424C237.521 52.3906 237.539 52.3454 237.539 52.2983C237.538 52.2513 237.519 52.2064 237.485 52.1737C235.986 50.7797 233.666 50.7797 232.167 52.1737C232.133 52.2064 232.114 52.2513 232.113 52.2984C232.113 52.3454 232.131 52.3907 232.165 52.424L232.794 53.0602C232.859 53.1251 232.964 53.1265 233.03 53.0633C233.522 52.6179 234.162 52.3712 234.825 52.3709ZM236.087 53.7635C236.088 53.8107 236.069 53.8562 236.035 53.8892L234.946 54.9884C234.914 55.0207 234.871 55.0388 234.825 55.0388C234.78 55.0388 234.736 55.0207 234.705 54.9884L233.615 53.8892C233.582 53.8561 233.563 53.8107 233.564 53.7635C233.565 53.7163 233.585 53.6716 233.62 53.64C234.316 53.0517 235.335 53.0517 236.03 53.64C236.065 53.6717 236.086 53.7163 236.087 53.7635Z" fill="black"/>
<path fill-rule="evenodd" clip-rule="evenodd" d="M227.374 49.2427H226.829C226.528 49.2427 226.284 49.4868 226.284 49.788V54.5139C226.284 54.815 226.528 55.0592 226.829 55.0592H227.374C227.676 55.0592 227.92 54.815 227.92 54.5139V49.788C227.92 49.4868 227.676 49.2427 227.374 49.2427ZM224.284 50.5151H224.83C225.131 50.5151 225.375 50.7592 225.375 51.0604V54.5139C225.375 54.8151 225.131 55.0592 224.83 55.0592H224.284C223.983 55.0592 223.739 54.8151 223.739 54.5139V51.0604C223.739 50.7592 223.983 50.5151 224.284 50.5151ZM222.285 51.7874H221.74C221.439 51.7874 221.194 52.0315 221.194 52.3327V54.5139C221.194 54.815 221.439 55.0592 221.74 55.0592H222.285C222.586 55.0592 222.83 54.815 222.83 54.5139V52.3327C222.83 52.0315 222.586 51.7874 222.285 51.7874ZM219.74 52.878H219.195C218.894 52.878 218.65 53.1221 218.65 53.4233V54.5139C218.65 54.815 218.894 55.0592 219.195 55.0592H219.74C220.041 55.0592 220.286 54.815 220.286 54.5139V53.4233C220.286 53.1221 220.041 52.878 219.74 52.878Z" fill="black"/>
<path d="M79.3514 55.0172C80.8172 55.0172 81.6879 53.8709 81.6879 51.9299C81.6879 51.199 81.5481 50.584 81.2805 50.1087C80.8931 49.3698 80.2261 48.9705 79.3834 48.9705C78.1293 48.9705 77.2427 49.8132 77.2427 50.9954C77.2427 52.1057 78.0415 52.9124 79.1398 52.9124C79.8147 52.9124 80.3619 52.5969 80.6335 52.0497H80.6455C80.6455 52.0497 80.6614 52.0497 80.6654 52.0497C80.6734 52.0497 80.7014 52.0497 80.7014 52.0497C80.7014 53.3677 80.2021 54.1545 79.3594 54.1545C78.8642 54.1545 78.4808 53.8829 78.349 53.4476H77.3226C77.4943 54.3941 78.2971 55.0172 79.3514 55.0172ZM79.3874 52.0937C78.7244 52.0937 78.2531 51.6224 78.2531 50.9634C78.2531 50.3204 78.7484 49.8291 79.3914 49.8291C80.0344 49.8291 80.5296 50.3284 80.5296 50.9794C80.5296 51.6224 80.0464 52.0937 79.3874 52.0937Z" fill="black"/>
<path d="M83.3734 54.9613C83.7529 54.9613 84.0125 54.6897 84.0125 54.3302C84.0125 53.9668 83.7529 53.6992 83.3734 53.6992C82.998 53.6992 82.7344 53.9668 82.7344 54.3302C82.7344 54.6897 82.998 54.9613 83.3734 54.9613ZM83.3734 51.9659C83.7529 51.9659 84.0125 51.6983 84.0125 51.3388C84.0125 50.9754 83.7529 50.7078 83.3734 50.7078C82.998 50.7078 82.7344 50.9754 82.7344 51.3388C82.7344 51.6983 82.998 51.9659 83.3734 51.9659Z" fill="black"/>
<path d="M87.7509 54.8774H88.7374V53.8031H89.5162V52.9324H88.7374V49.1142H87.2836C86.2652 50.6479 85.4544 51.9299 84.9352 52.8845V53.8031H87.7509V54.8774ZM85.8897 52.8964C86.5607 51.7143 87.1598 50.7677 87.711 49.953H87.7669V52.9563H85.8897V52.8964Z" fill="black"/>
<path d="M91.713 54.8774H92.7434V49.1142H91.717L90.2113 50.1686V51.1591L91.6451 50.1526H91.713V54.8774Z" fill="black"/>
</g>
<rect x="70.1794" y="178.387" width="182.129" height="70.3434" rx="1.90854" fill="white" stroke="#EDEDED" stroke-width="0.545298"/>
<path d="M116.402 195.84C118.226 195.84 119.491 194.688 119.491 192.934C119.491 191.181 118.226 190.02 116.402 190.02H114.108V195.84H116.402ZM116.402 194.749H115.346V191.111H116.402C117.597 191.111 118.226 191.905 118.226 192.934C118.226 193.92 117.554 194.749 116.402 194.749ZM123.982 195.84V193.117C123.982 191.905 123.101 191.521 122.141 191.521C121.478 191.521 120.815 191.73 120.3 192.184L120.719 192.926C121.077 192.594 121.495 192.428 121.949 192.428C122.508 192.428 122.874 192.707 122.874 193.135V193.702C122.595 193.37 122.097 193.187 121.539 193.187C120.867 193.187 120.073 193.562 120.073 194.548C120.073 195.491 120.867 195.944 121.539 195.944C122.089 195.944 122.586 195.744 122.874 195.403V195.84H123.982ZM121.984 195.194C121.548 195.194 121.19 194.967 121.19 194.575C121.19 194.164 121.548 193.938 121.984 193.938C122.342 193.938 122.691 194.06 122.874 194.304V194.828C122.691 195.072 122.342 195.194 121.984 195.194ZM129.033 195.84V192.864C129.033 192.044 128.588 191.521 127.664 191.521C126.974 191.521 126.46 191.852 126.189 192.175V191.626H125.081V195.84H126.189V193.004C126.372 192.751 126.713 192.507 127.149 192.507C127.62 192.507 127.925 192.707 127.925 193.292V195.84H129.033ZM133.772 195.84V193.117C133.772 191.905 132.891 191.521 131.931 191.521C131.268 191.521 130.605 191.73 130.09 192.184L130.509 192.926C130.866 192.594 131.285 192.428 131.739 192.428C132.297 192.428 132.664 192.707 132.664 193.135V193.702C132.385 193.37 131.887 193.187 131.329 193.187C130.657 193.187 129.863 193.562 129.863 194.548C129.863 195.491 130.657 195.944 131.329 195.944C131.879 195.944 132.376 195.744 132.664 195.403V195.84H133.772ZM131.774 195.194C131.338 195.194 130.98 194.967 130.98 194.575C130.98 194.164 131.338 193.938 131.774 193.938C132.132 193.938 132.481 194.06 132.664 194.304V194.828C132.481 195.072 132.132 195.194 131.774 195.194ZM138.368 195.84V193.772H139.851C141.108 193.772 141.806 192.908 141.806 191.896C141.806 190.875 141.117 190.02 139.851 190.02H137.129V195.84H138.368ZM139.686 192.681H138.368V191.111H139.686C140.174 191.111 140.541 191.407 140.541 191.896C140.541 192.376 140.174 192.681 139.686 192.681ZM144.383 195.944C145.038 195.944 145.701 195.744 146.12 195.36L145.631 194.644C145.36 194.906 144.863 195.063 144.505 195.063C143.79 195.063 143.363 194.618 143.293 194.086H146.425V193.842C146.425 192.463 145.57 191.521 144.314 191.521C143.031 191.521 142.132 192.507 142.132 193.728C142.132 195.081 143.101 195.944 144.383 195.944ZM145.352 193.336H143.275C143.328 192.917 143.624 192.402 144.314 192.402C145.046 192.402 145.326 192.934 145.352 193.336ZM151.178 195.84V192.864C151.178 192.044 150.733 191.521 149.808 191.521C149.119 191.521 148.604 191.852 148.333 192.175V191.626H147.225V195.84H148.333V193.004C148.517 192.751 148.857 192.507 149.293 192.507C149.764 192.507 150.07 192.707 150.07 193.292V195.84H151.178ZM153.796 195.944C154.965 195.944 155.619 195.36 155.619 194.592C155.619 192.891 153.124 193.414 153.124 192.786C153.124 192.55 153.386 192.367 153.787 192.367C154.302 192.367 154.782 192.585 155.035 192.856L155.48 192.097C155.061 191.765 154.494 191.521 153.778 191.521C152.67 191.521 152.051 192.14 152.051 192.847C152.051 194.505 154.555 193.938 154.555 194.636C154.555 194.897 154.328 195.089 153.848 195.089C153.325 195.089 152.697 194.801 152.391 194.513L151.911 195.29C152.356 195.7 153.063 195.944 153.796 195.944ZM156.985 191.172C157.352 191.172 157.648 190.875 157.648 190.509C157.648 190.142 157.352 189.854 156.985 189.854C156.628 189.854 156.322 190.142 156.322 190.509C156.322 190.875 156.628 191.172 156.985 191.172ZM157.544 195.84V191.626H156.436V195.84H157.544ZM162.595 195.84V191.626H161.487V194.479C161.295 194.723 160.954 194.958 160.527 194.958C160.056 194.958 159.75 194.766 159.75 194.182V191.626H158.642V194.618C158.642 195.438 159.079 195.944 160.003 195.944C160.693 195.944 161.199 195.63 161.487 195.307V195.84H162.595ZM167.647 195.84V192.864C167.647 192.044 167.202 191.521 166.277 191.521C165.588 191.521 165.073 191.852 164.803 192.175V191.626H163.695V195.84H164.803V193.004C164.986 192.751 165.326 192.507 165.763 192.507C166.234 192.507 166.539 192.707 166.539 193.292V195.84H167.647Z" fill="#333333"/>
<path d="M115.272 206.005C116.234 206.005 116.816 205.475 116.816 204.749C116.816 204.049 116.207 203.708 115.808 203.676C116.22 203.604 116.75 203.289 116.75 202.661C116.75 201.922 116.109 201.497 115.272 201.497C114.598 201.497 114.094 201.791 113.78 202.171L114.081 202.511C114.401 202.164 114.755 201.981 115.232 201.981C115.762 201.981 116.207 202.242 116.207 202.727C116.207 203.231 115.743 203.447 115.193 203.447C115.016 203.447 114.814 203.447 114.742 203.44V203.937C114.807 203.931 115.01 203.931 115.193 203.931C115.834 203.931 116.279 204.16 116.279 204.703C116.279 205.207 115.893 205.521 115.259 205.521C114.742 205.521 114.297 205.285 114.041 204.945L113.721 205.285C113.989 205.678 114.532 206.005 115.272 206.005ZM122.538 205.927L121.36 204.147C121.956 204.094 122.492 203.662 122.492 202.877C122.492 202.072 121.923 201.562 121.125 201.562H119.371V205.927H119.914V204.192H120.784L121.897 205.927H122.538ZM121.059 203.715H119.914V202.046H121.059C121.576 202.046 121.929 202.386 121.929 202.877C121.929 203.368 121.576 203.715 121.059 203.715ZM124.561 206.005C125.078 206.005 125.503 205.835 125.817 205.521L125.582 205.2C125.333 205.455 124.966 205.599 124.607 205.599C123.926 205.599 123.507 205.102 123.468 204.507H126.026V204.382C126.026 203.433 125.464 202.687 124.508 202.687C123.605 202.687 122.951 203.427 122.951 204.343C122.951 205.331 123.625 206.005 124.561 206.005ZM125.542 204.147H123.468C123.494 203.662 123.828 203.093 124.502 203.093C125.222 203.093 125.536 203.676 125.542 204.147ZM129.602 205.927L128.196 204.199L129.596 202.766H128.974L127.312 204.448V201.562H126.821V205.927H127.312V205.024L127.836 204.507L128.974 205.927H129.602ZM131.184 206.005C132.002 206.005 132.427 205.58 132.427 205.05C132.427 203.819 130.471 204.278 130.471 203.584C130.471 203.303 130.739 203.087 131.171 203.087C131.576 203.087 131.923 203.257 132.113 203.486L132.342 203.145C132.087 202.89 131.707 202.687 131.171 202.687C130.418 202.687 129.993 203.106 129.993 203.597C129.993 204.768 131.949 204.297 131.949 205.063C131.949 205.377 131.688 205.606 131.203 205.606C130.772 205.606 130.372 205.396 130.163 205.154L129.908 205.508C130.228 205.848 130.667 206.005 131.184 206.005ZM135.691 205.927V203.754C135.691 202.988 135.135 202.687 134.468 202.687C133.951 202.687 133.545 202.858 133.205 203.211L133.434 203.551C133.715 203.25 134.023 203.113 134.402 203.113C134.86 203.113 135.201 203.355 135.201 203.78V204.35C134.945 204.055 134.585 203.918 134.154 203.918C133.617 203.918 133.048 204.251 133.048 204.958C133.048 205.645 133.617 206.005 134.154 206.005C134.579 206.005 134.939 205.855 135.201 205.567V205.927H135.691ZM134.33 205.652C133.872 205.652 133.552 205.364 133.552 204.965C133.552 204.559 133.872 204.271 134.33 204.271C134.677 204.271 135.011 204.402 135.201 204.664V205.259C135.011 205.521 134.677 205.652 134.33 205.652ZM139.874 205.927C141.228 205.927 142.112 204.991 142.112 203.748C142.112 202.511 141.228 201.562 139.874 201.562H138.382V205.927H139.874ZM139.874 205.442H138.925V202.046H139.874C140.953 202.046 141.549 202.805 141.549 203.748C141.549 204.683 140.934 205.442 139.874 205.442ZM145.411 205.927V203.754C145.411 202.988 144.855 202.687 144.187 202.687C143.67 202.687 143.264 202.858 142.924 203.211L143.153 203.551C143.435 203.25 143.742 203.113 144.122 203.113C144.58 203.113 144.92 203.355 144.92 203.78V204.35C144.665 204.055 144.305 203.918 143.873 203.918C143.336 203.918 142.767 204.251 142.767 204.958C142.767 205.645 143.336 206.005 143.873 206.005C144.298 206.005 144.658 205.855 144.92 205.567V205.927H145.411ZM144.05 205.652C143.592 205.652 143.271 205.364 143.271 204.965C143.271 204.559 143.592 204.271 144.05 204.271C144.397 204.271 144.73 204.402 144.92 204.664V205.259C144.73 205.521 144.397 205.652 144.05 205.652ZM149.019 205.927V203.708C149.019 203.021 148.672 202.687 148.011 202.687C147.54 202.687 147.108 202.962 146.885 203.224V202.766H146.395V205.927H146.885V203.617C147.069 203.361 147.435 203.126 147.821 203.126C148.246 203.126 148.528 203.303 148.528 203.859V205.927H149.019ZM152.466 205.927V203.754C152.466 202.988 151.909 202.687 151.242 202.687C150.725 202.687 150.319 202.858 149.979 203.211L150.208 203.551C150.489 203.25 150.797 203.113 151.176 203.113C151.635 203.113 151.975 203.355 151.975 203.78V204.35C151.72 204.055 151.36 203.918 150.928 203.918C150.391 203.918 149.822 204.251 149.822 204.958C149.822 205.645 150.391 206.005 150.928 206.005C151.353 206.005 151.713 205.855 151.975 205.567V205.927H152.466ZM151.104 205.652C150.646 205.652 150.326 205.364 150.326 204.965C150.326 204.559 150.646 204.271 151.104 204.271C151.451 204.271 151.785 204.402 151.975 204.664V205.259C151.785 205.521 151.451 205.652 151.104 205.652Z" fill="#949494"/>
<path d="M239.427 188.885L238.404 190.248H242.494V194.337H234.314V190.248H238.404L237.382 188.885H234.314C233.953 188.885 233.606 189.028 233.35 189.284C233.095 189.539 232.951 189.886 232.951 190.248V194.337C232.951 194.699 233.095 195.046 233.35 195.301C233.606 195.557 233.953 195.701 234.314 195.701H242.494C242.855 195.701 243.202 195.557 243.458 195.301C243.713 195.046 243.857 194.699 243.857 194.337V190.248C243.857 189.886 243.713 189.539 243.458 189.284C243.202 189.028 242.855 188.885 242.494 188.885H239.427Z" fill="#00AB6B"/>
<path d="M237.041 191.611H235.678V192.974H237.041V191.611Z" fill="#00AB6B"/>
<path d="M241.131 191.611H239.767V192.974H241.131V191.611Z" fill="#00AB6B"/>
<path d="M117.653 225.558V221.193H117.11V224.602L114.598 221.193H114.041V225.558H114.585V222.076L117.13 225.558H117.653ZM118.897 221.946C119.08 221.946 119.231 221.802 119.231 221.618C119.231 221.435 119.08 221.285 118.897 221.285C118.72 221.285 118.57 221.435 118.57 221.618C118.57 221.802 118.72 221.946 118.897 221.946ZM119.145 225.558V222.397H118.655V225.558H119.145ZM120.615 225.558V221.193H120.124V225.558H120.615ZM124.061 225.558V223.385C124.061 222.62 123.505 222.319 122.837 222.319C122.321 222.319 121.915 222.489 121.575 222.842L121.804 223.182C122.085 222.881 122.392 222.744 122.772 222.744C123.23 222.744 123.57 222.986 123.57 223.411V223.981C123.315 223.686 122.955 223.549 122.523 223.549C121.987 223.549 121.417 223.882 121.417 224.589C121.417 225.276 121.987 225.636 122.523 225.636C122.949 225.636 123.309 225.486 123.57 225.198V225.558H124.061ZM122.7 225.283C122.242 225.283 121.921 224.995 121.921 224.596C121.921 224.19 122.242 223.902 122.7 223.902C123.047 223.902 123.381 224.033 123.57 224.295V224.89C123.381 225.152 123.047 225.283 122.7 225.283ZM125.287 221.946C125.47 221.946 125.621 221.802 125.621 221.618C125.621 221.435 125.47 221.285 125.287 221.285C125.11 221.285 124.96 221.435 124.96 221.618C124.96 221.802 125.11 221.946 125.287 221.946ZM125.536 225.558V222.397H125.045V225.558H125.536ZM128.764 225.558V223.824H129.975C130.839 223.824 131.343 223.222 131.343 222.508C131.343 221.795 130.852 221.193 129.975 221.193H128.221V225.558H128.764ZM129.91 223.339H128.764V221.677H129.91C130.426 221.677 130.78 222.018 130.78 222.508C130.78 222.999 130.426 223.339 129.91 223.339ZM133.34 225.636C134.302 225.636 134.904 224.89 134.904 223.974C134.904 223.058 134.302 222.319 133.34 222.319C132.378 222.319 131.776 223.058 131.776 223.974C131.776 224.89 132.378 225.636 133.34 225.636ZM133.34 225.198C132.666 225.198 132.286 224.622 132.286 223.974C132.286 223.333 132.666 222.757 133.34 222.757C134.014 222.757 134.387 223.333 134.387 223.974C134.387 224.622 134.014 225.198 133.34 225.198ZM136.195 225.558V223.32C136.338 223.065 136.751 222.816 137.052 222.816C137.13 222.816 137.189 222.822 137.248 222.835V222.332C136.816 222.332 136.45 222.574 136.195 222.907V222.397H135.704V225.558H136.195ZM138.662 225.636C138.95 225.636 139.127 225.551 139.251 225.433L139.107 225.067C139.041 225.139 138.911 225.198 138.773 225.198C138.557 225.198 138.453 225.028 138.453 224.792V222.829H139.094V222.397H138.453V221.533H137.962V222.397H137.438V222.829H137.962V224.897C137.962 225.368 138.197 225.636 138.662 225.636ZM140.415 225.558V222.829H141.057V222.397H140.415V222.155C140.415 221.756 140.592 221.533 140.913 221.533C141.076 221.533 141.2 221.599 141.305 221.69L141.508 221.37C141.312 221.187 141.089 221.128 140.841 221.128C140.278 221.128 139.924 221.507 139.924 222.155V222.397H139.401V222.829H139.924V225.558H140.415ZM143.021 225.636C143.983 225.636 144.585 224.89 144.585 223.974C144.585 223.058 143.983 222.319 143.021 222.319C142.059 222.319 141.457 223.058 141.457 223.974C141.457 224.89 142.059 225.636 143.021 225.636ZM143.021 225.198C142.347 225.198 141.967 224.622 141.967 223.974C141.967 223.333 142.347 222.757 143.021 222.757C143.695 222.757 144.068 223.333 144.068 223.974C144.068 224.622 143.695 225.198 143.021 225.198ZM145.876 225.558V221.193H145.385V225.558H145.876ZM147.097 221.946C147.28 221.946 147.43 221.802 147.43 221.618C147.43 221.435 147.28 221.285 147.097 221.285C146.92 221.285 146.77 221.435 146.77 221.618C146.77 221.802 146.92 221.946 147.097 221.946ZM147.345 225.558V222.397H146.855V225.558H147.345ZM149.705 225.636C150.667 225.636 151.269 224.89 151.269 223.974C151.269 223.058 150.667 222.319 149.705 222.319C148.743 222.319 148.141 223.058 148.141 223.974C148.141 224.89 148.743 225.636 149.705 225.636ZM149.705 225.198C149.031 225.198 148.652 224.622 148.652 223.974C148.652 223.333 149.031 222.757 149.705 222.757C150.379 222.757 150.752 223.333 150.752 223.974C150.752 224.622 150.379 225.198 149.705 225.198Z" fill="#949494"/>
<path d="M213.133 225.557L211.157 223.267L212.976 221.193H212.295L210.365 223.45V221.193H209.822V225.557H210.365V224.092L210.804 223.594L212.459 225.557H213.133ZM214.935 225.636C215.452 225.636 215.877 225.466 216.192 225.152L215.956 224.831C215.707 225.086 215.341 225.23 214.981 225.23C214.3 225.23 213.882 224.733 213.842 224.137H216.401V224.013C216.401 223.064 215.838 222.318 214.883 222.318C213.98 222.318 213.325 223.058 213.325 223.974C213.325 224.962 213.999 225.636 214.935 225.636ZM215.917 223.778H213.842C213.869 223.293 214.202 222.724 214.876 222.724C215.596 222.724 215.91 223.306 215.917 223.778ZM219.82 225.557V222.397H219.329V224.72C219.146 224.975 218.779 225.197 218.393 225.197C217.968 225.197 217.687 225.034 217.687 224.478V222.397H217.196V224.628C217.196 225.315 217.543 225.636 218.204 225.636C218.675 225.636 219.087 225.387 219.329 225.112V225.557H219.82ZM223.424 225.557V223.339C223.424 222.652 223.077 222.318 222.416 222.318C221.945 222.318 221.513 222.593 221.291 222.855V222.397H220.8V225.557H221.291V223.247C221.474 222.992 221.84 222.757 222.226 222.757C222.652 222.757 222.933 222.933 222.933 223.49V225.557H223.424ZM225.202 225.636C225.49 225.636 225.667 225.551 225.791 225.433L225.647 225.067C225.582 225.139 225.451 225.197 225.314 225.197C225.098 225.197 224.993 225.027 224.993 224.792V222.829H225.634V222.397H224.993V221.533H224.502V222.397H223.979V222.829H224.502V224.896C224.502 225.368 224.738 225.636 225.202 225.636ZM228.951 225.557V222.397H228.461V224.72C228.277 224.975 227.911 225.197 227.525 225.197C227.1 225.197 226.818 225.034 226.818 224.478V222.397H226.327V224.628C226.327 225.315 226.674 225.636 227.335 225.636C227.806 225.636 228.219 225.387 228.461 225.112V225.557H228.951ZM232.555 225.557V223.339C232.555 222.652 232.209 222.318 231.548 222.318C231.077 222.318 230.645 222.593 230.422 222.855V222.397H229.932V225.557H230.422V223.247C230.606 222.992 230.972 222.757 231.358 222.757C231.783 222.757 232.065 222.933 232.065 223.49V225.557H232.555ZM234.805 226.84C235.577 226.84 236.31 226.513 236.31 225.466V222.397H235.819V222.875C235.564 222.528 235.185 222.318 234.759 222.318C233.928 222.318 233.352 222.946 233.352 223.961C233.352 224.982 233.935 225.597 234.759 225.597C235.204 225.597 235.59 225.355 235.819 225.034V225.485C235.819 226.179 235.329 226.434 234.805 226.434C234.354 226.434 234.039 226.316 233.778 226.002L233.529 226.369C233.902 226.735 234.268 226.84 234.805 226.84ZM234.877 225.165C234.242 225.165 233.863 224.654 233.863 223.961C233.863 223.261 234.242 222.757 234.877 222.757C235.27 222.757 235.649 222.992 235.819 223.267V224.648C235.649 224.923 235.27 225.165 234.877 225.165ZM239.76 225.557V223.385C239.76 222.619 239.204 222.318 238.536 222.318C238.019 222.318 237.614 222.488 237.273 222.842L237.502 223.182C237.784 222.881 238.091 222.744 238.471 222.744C238.929 222.744 239.269 222.986 239.269 223.411V223.98C239.014 223.686 238.654 223.548 238.222 223.548C237.686 223.548 237.116 223.882 237.116 224.589C237.116 225.276 237.686 225.636 238.222 225.636C238.648 225.636 239.007 225.485 239.269 225.197V225.557H239.76ZM238.399 225.283C237.941 225.283 237.62 224.995 237.62 224.595C237.62 224.19 237.941 223.902 238.399 223.902C238.746 223.902 239.079 224.033 239.269 224.294V224.89C239.079 225.152 238.746 225.283 238.399 225.283ZM243.368 225.557V223.339C243.368 222.652 243.021 222.318 242.36 222.318C241.889 222.318 241.457 222.593 241.235 222.855V222.397H240.744V225.557H241.235V223.247C241.418 222.992 241.784 222.757 242.17 222.757C242.596 222.757 242.877 222.933 242.877 223.49V225.557H243.368Z" fill="#949494"/>
<g clip-path="url(#clip3)">
<path d="M91.7185 226.646C98.9463 226.646 104.806 220.787 104.806 213.559C104.806 206.331 98.9463 200.472 91.7185 200.472C84.4907 200.472 78.6313 206.331 78.6313 213.559C78.6313 220.787 84.4907 226.646 91.7185 226.646Z" fill="#E6F7F0"/>
<path d="M96.474 214.256C96.474 214.412 96.4433 214.566 96.3836 214.71C96.324 214.854 96.2365 214.985 96.1263 215.095C96.016 215.206 95.8852 215.293 95.7411 215.353C95.5971 215.412 95.4427 215.443 95.2868 215.443H95.2831L88.1181 215.42L86.576 208.131C86.517 207.835 86.5762 207.528 86.7408 207.276C86.9054 207.024 87.1623 206.846 87.4564 206.781C87.7505 206.716 88.0585 206.768 88.3142 206.928C88.5699 207.087 88.753 207.34 88.8243 207.633L90.0624 213.044L95.2941 213.067C95.6081 213.068 95.9085 213.195 96.1296 213.418C96.3507 213.64 96.4746 213.942 96.474 214.256Z" fill="white"/>
<path d="M85.9613 218.242C85.9604 218.383 86.0058 218.521 86.0906 218.634L86.143 218.693C87.2616 219.982 89.3273 220.844 91.6966 220.844C94.0659 220.844 96.1263 219.982 97.2456 218.692C97.2617 218.671 97.2792 218.651 97.2979 218.633C97.3826 218.52 97.4278 218.382 97.4267 218.241C97.4311 218.166 97.4206 218.091 97.3959 218.02C97.3712 217.949 97.3328 217.883 97.2827 217.827C97.2327 217.771 97.1721 217.725 97.1044 217.692C97.0366 217.659 96.9631 217.64 96.888 217.636C96.7894 217.635 96.693 217.665 96.6116 217.721C96.5991 217.726 96.5882 217.734 96.5802 217.745C95.1643 218.775 93.4484 219.309 91.6982 219.265C89.943 219.308 88.2226 218.771 86.8036 217.738C86.7167 217.671 86.6105 217.634 86.501 217.633C86.4256 217.637 86.3518 217.656 86.2839 217.689C86.2159 217.722 86.155 217.767 86.1049 217.824C86.0547 217.88 86.0162 217.946 85.9916 218.017C85.9669 218.089 85.9566 218.164 85.9613 218.24V218.242Z" fill="white"/>
<path d="M94.9049 213.046V211.327C94.905 211.235 94.895 211.143 94.875 211.053C94.8023 210.721 94.6006 210.431 94.3143 210.248C94.028 210.064 93.6807 210.002 93.3486 210.075L89.6611 210.883" stroke="#00AB6B" stroke-width="0.817946" stroke-linecap="round" stroke-linejoin="round"/>
<path d="M89.2424 218.519L90.0617 215.446" stroke="#00AB6B" stroke-width="0.817946" stroke-linecap="round" stroke-linejoin="round"/>
<path d="M94.1489 218.519L93.3281 215.437" stroke="#00AB6B" stroke-width="0.817946" stroke-linecap="round" stroke-linejoin="round"/>
<path d="M96.474 214.256C96.474 214.412 96.4433 214.566 96.3836 214.71C96.324 214.854 96.2365 214.985 96.1263 215.095C96.016 215.206 95.8852 215.293 95.7411 215.353C95.5971 215.412 95.4427 215.443 95.2868 215.443H95.2831L88.1181 215.42L86.576 208.131C86.517 207.835 86.5762 207.528 86.7408 207.276C86.9054 207.024 87.1623 206.846 87.4564 206.781C87.7505 206.716 88.0585 206.768 88.3142 206.928C88.5699 207.087 88.753 207.34 88.8243 207.633L90.0624 213.044L95.2941 213.067C95.6081 213.068 95.9085 213.195 96.1296 213.418C96.3507 213.64 96.4746 213.942 96.474 214.256Z" fill="#8DD4B6" stroke="#00AB6B" stroke-width="0.817946" stroke-linecap="round" stroke-linejoin="round"/>
<path d="M85.9613 218.242C85.9604 218.383 86.0058 218.521 86.0906 218.634L86.143 218.693C87.2616 219.982 89.3273 220.844 91.6966 220.844C94.0659 220.844 96.1263 219.982 97.2456 218.692C97.2617 218.671 97.2792 218.651 97.2979 218.633C97.3826 218.52 97.4278 218.382 97.4267 218.241C97.4311 218.166 97.4206 218.091 97.3959 218.02C97.3712 217.949 97.3328 217.883 97.2827 217.827C97.2327 217.771 97.1721 217.725 97.1044 217.692C97.0366 217.659 96.9631 217.64 96.888 217.636C96.7894 217.635 96.693 217.665 96.6116 217.721C96.5991 217.726 96.5882 217.734 96.5802 217.745C95.1643 218.775 93.4484 219.309 91.6982 219.265C89.943 219.308 88.2226 218.771 86.8036 217.738C86.7167 217.671 86.6105 217.634 86.501 217.633C86.4256 217.637 86.3518 217.656 86.2839 217.689C86.2159 217.722 86.155 217.767 86.1049 217.824C86.0547 217.88 86.0162 217.946 85.9916 218.017C85.9669 218.089 85.9566 218.164 85.9613 218.24V218.242Z" fill="#8DD4B6" stroke="#00AB6B" stroke-width="0.817946" stroke-linecap="round" stroke-linejoin="round"/>
</g>
<path d="M59.0005 94.3624C59.0005 91.9531 60.9536 90 63.3629 90H258.638C261.047 90 263 91.9531 263 94.3624V354H59.0005V94.3624Z" fill="white"/>
<path d="M71.4916 211.869C72.2059 211.869 72.7949 211.498 72.7949 210.882C72.7949 210.396 72.3804 210.064 71.9278 209.927C72.3477 209.807 72.7403 209.535 72.7403 209.055C72.7403 208.401 72.0914 208.112 71.4916 208.112C70.8863 208.112 70.2483 208.401 70.2483 209.055C70.2483 209.535 70.6355 209.807 71.0554 209.927C70.6028 210.064 70.1883 210.396 70.1883 210.882C70.1883 211.503 70.7718 211.869 71.4916 211.869ZM71.4916 209.742C71.2735 209.704 70.7009 209.557 70.7009 209.115C70.7009 208.739 71.0499 208.515 71.4916 208.515C71.9278 208.515 72.2823 208.739 72.2823 209.115C72.2823 209.557 71.7152 209.704 71.4916 209.742ZM71.4916 211.465C71.039 211.465 70.6409 211.225 70.6409 210.833C70.6409 210.358 71.268 210.156 71.4916 210.129C71.7152 210.156 72.3368 210.358 72.3368 210.833C72.3368 211.225 71.9387 211.465 71.4916 211.465ZM74.7419 211.869C75.7343 211.869 76.1324 210.871 76.1324 209.987C76.1324 209.099 75.7343 208.112 74.7419 208.112C73.744 208.112 73.3514 209.099 73.3514 209.987C73.3514 210.871 73.744 211.869 74.7419 211.869ZM74.7419 211.465C74.0493 211.465 73.8149 210.713 73.8149 209.987C73.8149 209.262 74.0493 208.515 74.7419 208.515C75.4344 208.515 75.6689 209.262 75.6689 209.987C75.6689 210.713 75.4344 211.465 74.7419 211.465ZM78.0808 211.869C79.0732 211.869 79.4713 210.871 79.4713 209.987C79.4713 209.099 79.0732 208.112 78.0808 208.112C77.0829 208.112 76.6902 209.099 76.6902 209.987C76.6902 210.871 77.0829 211.869 78.0808 211.869ZM78.0808 211.465C77.3882 211.465 77.1537 210.713 77.1537 209.987C77.1537 209.262 77.3882 208.515 78.0808 208.515C78.7733 208.515 79.0078 209.262 79.0078 209.987C79.0078 210.713 78.7733 211.465 78.0808 211.465ZM80.2077 211.858C80.3713 211.858 80.5076 211.721 80.5076 211.558C80.5076 211.394 80.3713 211.258 80.2077 211.258C80.0441 211.258 79.9078 211.394 79.9078 211.558C79.9078 211.721 80.0441 211.858 80.2077 211.858ZM82.3356 211.869C83.328 211.869 83.7261 210.871 83.7261 209.987C83.7261 209.099 83.328 208.112 82.3356 208.112C81.3377 208.112 80.9451 209.099 80.9451 209.987C80.9451 210.871 81.3377 211.869 82.3356 211.869ZM82.3356 211.465C81.643 211.465 81.4086 210.713 81.4086 209.987C81.4086 209.262 81.643 208.515 82.3356 208.515C83.0281 208.515 83.2626 209.262 83.2626 209.987C83.2626 210.713 83.0281 211.465 82.3356 211.465ZM87.992 211.803V208.166H87.3431L86.2088 210.903L85.0801 208.166H84.4312V211.803H84.8838V208.81L86.1161 211.803H86.3015L87.5394 208.81V211.803H87.992Z" fill="#949494"/>
<path d="M246.58 282.326V207.894C246.294 207.894 91.1702 282.6 91.1702 282.6L246.58 282.326Z" fill="#E6F7F0"/>
<path d="M245.489 208.439L91.1702 282.054" stroke="#00AB6B" stroke-width="0.817946" stroke-linecap="round" stroke-linejoin="round"/>
<circle cx="246.036" cy="207.894" r="1.63589" fill="#00AB6B"/>
<g clip-path="url(#clip4)">
<path d="M250.674 197.632C250.674 201.102 246.039 204.077 246.039 204.077C246.039 204.077 241.404 201.102 241.404 197.632C241.404 196.449 241.892 195.314 242.761 194.477C243.631 193.641 244.81 193.171 246.039 193.171C247.268 193.171 248.447 193.641 249.316 194.477C250.186 195.314 250.674 196.449 250.674 197.632Z" stroke="#00AB6B" stroke-width="0.545298" stroke-linecap="round" stroke-linejoin="round"/>
<g clip-path="url(#clip5)">
<path d="M246.038 200.805C247.694 200.805 249.037 199.462 249.037 197.806C249.037 196.149 247.694 194.806 246.038 194.806C244.381 194.806 243.038 196.149 243.038 197.806C243.038 199.462 244.381 200.805 246.038 200.805Z" fill="#00AB6B"/>
<path d="M244.917 197.427H247.196V198.867C247.196 198.962 247.158 199.054 247.091 199.121C247.023 199.189 246.932 199.226 246.836 199.226H245.277C245.181 199.226 245.09 199.189 245.022 199.121C244.955 199.054 244.917 198.962 244.917 198.867V197.427Z" fill="white"/>
<path d="M244.309 197.088C244.272 197.107 244.249 197.145 244.249 197.186C244.249 197.227 244.273 197.265 244.31 197.283L245.931 198.082C245.961 198.097 245.997 198.097 246.027 198.082L247.647 197.283C247.684 197.265 247.707 197.227 247.707 197.186C247.708 197.144 247.684 197.107 247.647 197.088L246.024 196.269C245.993 196.253 245.956 196.253 245.925 196.269L244.309 197.088Z" fill="white" stroke="#00AB6B" stroke-width="0.218119" stroke-linejoin="round"/>
<path d="M247.73 198.679C247.73 198.722 247.713 198.763 247.682 198.793C247.652 198.823 247.611 198.84 247.568 198.84C247.525 198.84 247.484 198.823 247.454 198.793C247.424 198.763 247.407 198.722 247.407 198.679V198.091C247.407 198.048 247.424 198.007 247.454 197.977C247.484 197.947 247.525 197.929 247.568 197.929C247.611 197.93 247.652 197.947 247.682 197.977C247.713 198.007 247.73 198.048 247.73 198.091V198.679Z" fill="white"/>
<path d="M246.749 197.175L247.569 197.607V197.929" stroke="white" stroke-width="0.10906" stroke-linecap="round" stroke-linejoin="round"/>
</g>
</g>
<g clip-path="url(#clip6)">
<rect x="69.9075" y="221.136" width="182.675" height="67.6169" rx="2.18119" fill="white"/>
<g clip-path="url(#clip7)">
<rect x="69.9075" y="221.136" width="174.495" height="34.899" fill="white"/>
</g>
<rect x="70.1801" y="221.409" width="182.129" height="67.0716" rx="1.90854" stroke="#EDEDED" stroke-width="0.545298"/>
</g>
</g>
</g>
</g>
<g opacity="0.8" filter="url(#filter0_b)">
<path d="M242.138 37.6368H221.609C220.83 37.6368 220.043 37.5694 219.273 37.6931C218.34 37.8429 217.161 38.3095 216.996 39.6971C216.718 42.0259 217.269 47.9825 209.579 52.012C209.495 52.0561 209.409 52.0998 209.323 52.1403C208.798 52.3871 206.747 53.2951 204.979 53.2951C202.998 53.2951 122.742 53.2951 117.594 53.2951C117.418 53.2951 117.25 53.2971 117.074 53.2943C115.734 53.2731 109.573 52.9686 106.137 49.2221C105.03 48.0143 104.215 46.5448 103.578 45.0352C103.225 44.1996 102.885 43.1576 102.712 41.974C102.608 41.2712 102.642 40.5517 102.508 39.854C102.335 38.9484 101.859 37.7822 100.56 37.7272C98.4916 37.6397 81.0541 37.7217 79.9513 37.727C79.9144 37.7272 79.8841 37.7273 79.8472 37.7282C79.1506 37.7459 71.2488 38.0708 65.936 43.7765C64.9207 44.8669 63.9759 46.0401 63.1922 47.3073C62.0705 49.1208 60.632 52.2973 60.5235 56.7725C60.3339 64.1781 60.5234 427.941 60.5235 428.091C60.5235 428.095 60.5235 428.093 60.5235 428.097V434.806C60.5235 449.37 72.3297 461.176 86.8935 461.176H234.597C249.162 461.176 260.97 449.367 260.967 434.801L260.892 63.4575C260.892 62.5793 260.939 61.7063 260.967 60.8286C261.076 57.4383 260.81 48.317 255.263 43.5966C248.765 38.0488 245.022 37.8579 242.138 37.6368Z" fill="white" fill-opacity="0.8"/>
</g>
<path d="M217.712 36H243.7C243.901 36.3165 244.263 36.2374 244.577 36.3093C253.052 38.2804 259.426 42.3305 261.905 50.2435C262.639 52.7262 262.991 55.2868 262.951 57.8545C262.951 84.5192 262.951 111.186 262.951 137.856C262.951 195.722 262.951 253.591 262.951 311.462C262.951 326.329 262.951 341.184 262.951 356.027C262.951 368.558 263.104 381.089 262.87 393.606C262.629 406.908 249.712 417.986 234.871 417.986H84.9022C83.9702 418.015 83.037 417.986 82.1095 417.9C75.1305 417.094 68.7234 414.031 64.0996 409.29C59.4758 404.549 56.9555 398.457 57.0154 392.168C57.0154 384.053 57.0154 375.941 57.0154 367.831C57.0154 331.086 57.0154 294.338 57.0154 257.588C57.0154 197.573 57.0154 137.556 57.0154 77.5365C57.0154 70.019 56.943 62.5016 57.112 54.9842C57.2638 50.2915 59.3261 45.8095 62.912 42.3792C66.4978 38.9489 71.3608 36.806 76.5885 36.3525H85.7714L102.552 36.41C104.837 37.0359 105.449 38.7192 105.707 40.5464C106.632 47.0783 110.286 49.9918 117.634 49.9918H203.081C208.988 49.9918 213.286 46.6899 213.801 41.4456C214.042 38.8631 214.984 36.9783 217.712 36ZM59.3574 224.08C59.3574 237.086 59.3574 250.092 59.3574 263.098C59.3574 306.054 59.3574 349.008 59.3574 391.959C59.3574 405.526 70.8824 415.893 85.9806 415.893C135.224 415.893 184.468 415.893 233.712 415.893C235.244 415.923 236.776 415.834 238.291 415.626C251.514 413.54 260.4 404.116 260.44 392.081C260.48 379.197 260.44 366.306 260.44 353.422C260.44 256.36 260.44 159.298 260.44 62.2355C260.44 60.0773 260.52 57.9192 260.44 55.7611C260.045 45.6899 252.842 39.5753 243.45 38.4171C235.362 37.4172 227.08 38.1581 218.887 38.1869C218.544 38.1654 218.2 38.2111 217.879 38.321C217.558 38.4308 217.268 38.6021 217.029 38.8228C216.79 39.0434 216.607 39.3082 216.494 39.5985C216.382 39.8888 216.341 40.1976 216.376 40.5033C216.376 41.1003 216.231 41.6902 216.159 42.2801C215.475 47.6322 209.906 52.1355 203.894 52.1427H116.539C115.007 52.1415 113.485 51.9304 112.024 51.5168C109.643 50.7986 107.549 49.4733 106 47.7041C104.451 45.935 103.516 43.7995 103.308 41.5607C103.043 38.6113 102.632 38.2301 99.2842 38.2157C93.0147 38.2157 86.7532 38.2876 80.4918 38.2157C68.5886 38.0718 58.947 45.5389 59.3333 57.1063C59.5667 64.0195 59.3333 70.947 59.3333 77.8674C59.3548 126.598 59.3628 175.335 59.3574 224.08Z" fill="#05C36B"/>
<g filter="url(#filter1_d)" id="blurry-image">
<g clip-path="url(#clip8)">
<rect x="21.0007" y="86" width="278.266" height="103" rx="10" fill="white"/>
<g clip-path="url(#clip9)">
<rect x="21.0007" y="86" width="265.806" height="53.1613" fill="white"/>
<path d="M85.358 124.581H83.239L81.536 121.5H80.184V124.581H78.338V115.91H82.394C83.2866 115.91 83.993 116.17 84.513 116.69C85.0416 117.21 85.306 117.881 85.306 118.705C85.306 119.415 85.1196 119.992 84.747 120.434C84.383 120.876 83.9366 121.157 83.408 121.279L85.358 124.581ZM82.121 119.875C82.5023 119.875 82.8143 119.771 83.057 119.563C83.2996 119.346 83.421 119.06 83.421 118.705C83.421 118.349 83.2996 118.068 83.057 117.86C82.8143 117.643 82.5023 117.535 82.121 117.535H80.184V119.875H82.121ZM90.2405 124.737C89.4518 124.737 88.8062 124.416 88.3035 123.775V126.973H86.6525V118.302H88.3035V119.095C88.7975 118.462 89.4432 118.146 90.2405 118.146C91.0638 118.146 91.7312 118.44 92.2425 119.03C92.7625 119.61 93.0225 120.412 93.0225 121.435C93.0225 122.457 92.7625 123.263 92.2425 123.853C91.7312 124.442 91.0638 124.737 90.2405 124.737ZM89.7205 123.268C90.1972 123.268 90.5785 123.099 90.8645 122.761C91.1592 122.423 91.3065 121.981 91.3065 121.435C91.3065 120.897 91.1592 120.46 90.8645 120.122C90.5785 119.784 90.1972 119.615 89.7205 119.615C89.4518 119.615 89.1832 119.684 88.9145 119.823C88.6458 119.961 88.4422 120.13 88.3035 120.33V122.553C88.4422 122.752 88.6458 122.921 88.9145 123.06C89.1918 123.198 89.4605 123.268 89.7205 123.268ZM101.224 124.581H99.3778V118.289L97.9348 119.758L96.8818 118.653L99.6118 115.91H101.224V124.581ZM108.128 124.074C107.574 124.516 106.902 124.737 106.113 124.737C105.325 124.737 104.649 124.516 104.085 124.074C103.531 123.623 103.132 123.068 102.889 122.41C102.647 121.751 102.525 121.032 102.525 120.252C102.525 119.472 102.647 118.752 102.889 118.094C103.132 117.435 103.531 116.885 104.085 116.443C104.649 116.001 105.325 115.78 106.113 115.78C106.902 115.78 107.574 116.001 108.128 116.443C108.683 116.885 109.082 117.435 109.324 118.094C109.576 118.752 109.701 119.472 109.701 120.252C109.701 121.032 109.576 121.751 109.324 122.41C109.082 123.068 108.683 123.623 108.128 124.074ZM104.813 122.319C105.091 122.839 105.524 123.099 106.113 123.099C106.703 123.099 107.132 122.839 107.4 122.319C107.678 121.799 107.816 121.11 107.816 120.252C107.816 119.394 107.678 118.709 107.4 118.198C107.132 117.678 106.703 117.418 106.113 117.418C105.524 117.418 105.091 117.678 104.813 118.198C104.536 118.709 104.397 119.394 104.397 120.252C104.397 121.11 104.536 121.799 104.813 122.319ZM112.661 123.944C112.661 124.42 112.539 124.867 112.297 125.283C112.054 125.707 111.729 126.067 111.322 126.362L110.607 125.777C110.823 125.664 111.031 125.486 111.231 125.244C111.43 125.01 111.556 124.78 111.608 124.555C111.53 124.581 111.447 124.594 111.361 124.594C111.109 124.594 110.897 124.507 110.724 124.334C110.559 124.16 110.477 123.935 110.477 123.658C110.477 123.372 110.576 123.129 110.776 122.93C110.975 122.722 111.213 122.618 111.491 122.618C111.811 122.618 112.084 122.739 112.31 122.982C112.544 123.216 112.661 123.536 112.661 123.944ZM118.958 124.074C118.403 124.516 117.731 124.737 116.943 124.737C116.154 124.737 115.478 124.516 114.915 124.074C114.36 123.623 113.961 123.068 113.719 122.41C113.476 121.751 113.355 121.032 113.355 120.252C113.355 119.472 113.476 118.752 113.719 118.094C113.961 117.435 114.36 116.885 114.915 116.443C115.478 116.001 116.154 115.78 116.943 115.78C117.731 115.78 118.403 116.001 118.958 116.443C119.512 116.885 119.911 117.435 120.154 118.094C120.405 118.752 120.531 119.472 120.531 120.252C120.531 121.032 120.405 121.751 120.154 122.41C119.911 123.068 119.512 123.623 118.958 124.074ZM115.643 122.319C115.92 122.839 116.353 123.099 116.943 123.099C117.532 123.099 117.961 122.839 118.23 122.319C118.507 121.799 118.646 121.11 118.646 120.252C118.646 119.394 118.507 118.709 118.23 118.198C117.961 117.678 117.532 117.418 116.943 117.418C116.353 117.418 115.92 117.678 115.643 118.198C115.365 118.709 115.227 119.394 115.227 120.252C115.227 121.11 115.365 121.799 115.643 122.319ZM127.019 124.074C126.464 124.516 125.793 124.737 125.004 124.737C124.215 124.737 123.539 124.516 122.976 124.074C122.421 123.623 122.023 123.068 121.78 122.41C121.537 121.751 121.416 121.032 121.416 120.252C121.416 119.472 121.537 118.752 121.78 118.094C122.023 117.435 122.421 116.885 122.976 116.443C123.539 116.001 124.215 115.78 125.004 115.78C125.793 115.78 126.464 116.001 127.019 116.443C127.574 116.885 127.972 117.435 128.215 118.094C128.466 118.752 128.592 119.472 128.592 120.252C128.592 121.032 128.466 121.751 128.215 122.41C127.972 123.068 127.574 123.623 127.019 124.074ZM123.704 122.319C123.981 122.839 124.415 123.099 125.004 123.099C125.593 123.099 126.022 122.839 126.291 122.319C126.568 121.799 126.707 121.11 126.707 120.252C126.707 119.394 126.568 118.709 126.291 118.198C126.022 117.678 125.593 117.418 125.004 117.418C124.415 117.418 123.981 117.678 123.704 118.198C123.427 118.709 123.288 119.394 123.288 120.252C123.288 121.11 123.427 121.799 123.704 122.319ZM135.081 124.074C134.526 124.516 133.854 124.737 133.066 124.737C132.277 124.737 131.601 124.516 131.038 124.074C130.483 123.623 130.084 123.068 129.842 122.41C129.599 121.751 129.478 121.032 129.478 120.252C129.478 119.472 129.599 118.752 129.842 118.094C130.084 117.435 130.483 116.885 131.038 116.443C131.601 116.001 132.277 115.78 133.066 115.78C133.854 115.78 134.526 116.001 135.081 116.443C135.635 116.885 136.034 117.435 136.277 118.094C136.528 118.752 136.654 119.472 136.654 120.252C136.654 121.032 136.528 121.751 136.277 122.41C136.034 123.068 135.635 123.623 135.081 124.074ZM131.766 122.319C132.043 122.839 132.476 123.099 133.066 123.099C133.655 123.099 134.084 122.839 134.353 122.319C134.63 121.799 134.769 121.11 134.769 120.252C134.769 119.394 134.63 118.709 134.353 118.198C134.084 117.678 133.655 117.418 133.066 117.418C132.476 117.418 132.043 117.678 131.766 118.198C131.488 118.709 131.35 119.394 131.35 120.252C131.35 121.11 131.488 121.799 131.766 122.319ZM139.613 123.944C139.613 124.42 139.492 124.867 139.249 125.283C139.006 125.707 138.681 126.067 138.274 126.362L137.559 125.777C137.776 125.664 137.984 125.486 138.183 125.244C138.382 125.01 138.508 124.78 138.56 124.555C138.482 124.581 138.4 124.594 138.313 124.594C138.062 124.594 137.849 124.507 137.676 124.334C137.511 124.16 137.429 123.935 137.429 123.658C137.429 123.372 137.529 123.129 137.728 122.93C137.927 122.722 138.166 122.618 138.443 122.618C138.764 122.618 139.037 122.739 139.262 122.982C139.496 123.216 139.613 123.536 139.613 123.944ZM145.91 124.074C145.355 124.516 144.683 124.737 143.895 124.737C143.106 124.737 142.43 124.516 141.867 124.074C141.312 123.623 140.913 123.068 140.671 122.41C140.428 121.751 140.307 121.032 140.307 120.252C140.307 119.472 140.428 118.752 140.671 118.094C140.913 117.435 141.312 116.885 141.867 116.443C142.43 116.001 143.106 115.78 143.895 115.78C144.683 115.78 145.355 116.001 145.91 116.443C146.464 116.885 146.863 117.435 147.106 118.094C147.357 118.752 147.483 119.472 147.483 120.252C147.483 121.032 147.357 121.751 147.106 122.41C146.863 123.068 146.464 123.623 145.91 124.074ZM142.595 122.319C142.872 122.839 143.305 123.099 143.895 123.099C144.484 123.099 144.913 122.839 145.182 122.319C145.459 121.799 145.598 121.11 145.598 120.252C145.598 119.394 145.459 118.709 145.182 118.198C144.913 117.678 144.484 117.418 143.895 117.418C143.305 117.418 142.872 117.678 142.595 118.198C142.317 118.709 142.179 119.394 142.179 120.252C142.179 121.11 142.317 121.799 142.595 122.319ZM153.971 124.074C153.417 124.516 152.745 124.737 151.956 124.737C151.168 124.737 150.492 124.516 149.928 124.074C149.374 123.623 148.975 123.068 148.732 122.41C148.49 121.751 148.368 121.032 148.368 120.252C148.368 119.472 148.49 118.752 148.732 118.094C148.975 117.435 149.374 116.885 149.928 116.443C150.492 116.001 151.168 115.78 151.956 115.78C152.745 115.78 153.417 116.001 153.971 116.443C154.526 116.885 154.925 117.435 155.167 118.094C155.419 118.752 155.544 119.472 155.544 120.252C155.544 121.032 155.419 121.751 155.167 122.41C154.925 123.068 154.526 123.623 153.971 124.074ZM150.656 122.319C150.934 122.839 151.367 123.099 151.956 123.099C152.546 123.099 152.975 122.839 153.243 122.319C153.521 121.799 153.659 121.11 153.659 120.252C153.659 119.394 153.521 118.709 153.243 118.198C152.975 117.678 152.546 117.418 151.956 117.418C151.367 117.418 150.934 117.678 150.656 118.198C150.379 118.709 150.24 119.394 150.24 120.252C150.24 121.11 150.379 121.799 150.656 122.319ZM162.033 124.074C161.478 124.516 160.806 124.737 160.018 124.737C159.229 124.737 158.553 124.516 157.99 124.074C157.435 123.623 157.036 123.068 156.794 122.41C156.551 121.751 156.43 121.032 156.43 120.252C156.43 119.472 156.551 118.752 156.794 118.094C157.036 117.435 157.435 116.885 157.99 116.443C158.553 116.001 159.229 115.78 160.018 115.78C160.806 115.78 161.478 116.001 162.033 116.443C162.587 116.885 162.986 117.435 163.229 118.094C163.48 118.752 163.606 119.472 163.606 120.252C163.606 121.032 163.48 121.751 163.229 122.41C162.986 123.068 162.587 123.623 162.033 124.074ZM158.718 122.319C158.995 122.839 159.428 123.099 160.018 123.099C160.607 123.099 161.036 122.839 161.305 122.319C161.582 121.799 161.721 121.11 161.721 120.252C161.721 119.394 161.582 118.709 161.305 118.198C161.036 117.678 160.607 117.418 160.018 117.418C159.428 117.418 158.995 117.678 158.718 118.198C158.44 118.709 158.302 119.394 158.302 120.252C158.302 121.11 158.44 121.799 158.718 122.319Z" fill="#333333"/>
<path d="M79.33 106.088C80.52 106.088 81.45 105.408 81.45 103.958V99.298H80.62V103.948C80.62 104.778 80.1 105.348 79.28 105.348C78.7 105.348 78.31 105.038 78.02 104.688L77.59 105.318C78.05 105.858 78.62 106.088 79.33 106.088ZM86.9861 105.968V101.138H86.2361V104.688C85.9561 105.078 85.3961 105.418 84.8061 105.418C84.1561 105.418 83.7261 105.168 83.7261 104.318V101.138H82.9761V104.548C82.9761 105.598 83.5061 106.088 84.5161 106.088C85.2361 106.088 85.8661 105.708 86.2361 105.288V105.968H86.9861ZM95.0639 105.968V102.478C95.0639 101.508 94.5939 101.018 93.7139 101.018C93.0139 101.018 92.3639 101.478 92.0939 101.918C91.9539 101.418 91.5339 101.018 90.7939 101.018C90.0839 101.018 89.4339 101.528 89.2339 101.838V101.138H88.4839V105.968H89.2339V102.438C89.4939 102.048 90.0139 101.688 90.5039 101.688C91.1339 101.688 91.3939 102.078 91.3939 102.688V105.968H92.1439V102.428C92.3939 102.048 92.9239 101.688 93.4239 101.688C94.0439 101.688 94.3139 102.078 94.3139 102.688V105.968H95.0639ZM97.3101 105.968V99.298H96.5601V105.968H97.3101ZM102.576 105.968V102.648C102.576 101.478 101.726 101.018 100.706 101.018C99.9162 101.018 99.2962 101.278 98.7762 101.818L99.1262 102.338C99.5562 101.878 100.026 101.668 100.606 101.668C101.306 101.668 101.826 102.038 101.826 102.688V103.558C101.436 103.108 100.886 102.898 100.226 102.898C99.4062 102.898 98.5362 103.408 98.5362 104.488C98.5362 105.538 99.4062 106.088 100.226 106.088C100.876 106.088 101.426 105.858 101.826 105.418V105.968H102.576ZM100.496 105.548C99.7962 105.548 99.3062 105.108 99.3062 104.498C99.3062 103.878 99.7962 103.438 100.496 103.438C101.026 103.438 101.536 103.638 101.826 104.038V104.948C101.536 105.348 101.026 105.548 100.496 105.548ZM108.1 105.968V102.558C108.1 101.508 107.57 101.018 106.56 101.018C105.83 101.018 105.17 101.438 104.83 101.838V99.298H104.08V105.968H104.83V102.438C105.12 102.048 105.68 101.688 106.26 101.688C106.91 101.688 107.35 101.938 107.35 102.788V105.968H108.1ZM111.905 107.858C112.045 107.898 112.295 107.928 112.455 107.928C113.095 107.918 113.585 107.648 113.875 106.948L116.295 101.138H115.475L113.875 105.098L112.265 101.138H111.455L113.475 106.018L113.155 106.748C112.985 107.148 112.765 107.258 112.435 107.258C112.315 107.258 112.135 107.228 112.025 107.178L111.905 107.858ZM120.848 105.968V102.648C120.848 101.478 119.998 101.018 118.978 101.018C118.188 101.018 117.568 101.278 117.048 101.818L117.398 102.338C117.828 101.878 118.298 101.668 118.878 101.668C119.578 101.668 120.098 102.038 120.098 102.688V103.558C119.708 103.108 119.158 102.898 118.498 102.898C117.678 102.898 116.808 103.408 116.808 104.488C116.808 105.538 117.678 106.088 118.498 106.088C119.148 106.088 119.698 105.858 120.098 105.418V105.968H120.848ZM118.768 105.548C118.068 105.548 117.578 105.108 117.578 104.498C117.578 103.878 118.068 103.438 118.768 103.438C119.298 103.438 119.808 103.638 120.098 104.038V104.948C119.808 105.348 119.298 105.548 118.768 105.548ZM126.361 105.968V102.578C126.361 101.528 125.831 101.018 124.821 101.018C124.101 101.018 123.441 101.438 123.101 101.838V101.138H122.351V105.968H123.101V102.438C123.381 102.048 123.941 101.688 124.531 101.688C125.181 101.688 125.611 101.958 125.611 102.808V105.968H126.361ZM129.799 107.928C130.979 107.928 132.099 107.428 132.099 105.828V101.138H131.349V101.868C130.959 101.338 130.379 101.018 129.729 101.018C128.459 101.018 127.579 101.978 127.579 103.528C127.579 105.088 128.469 106.028 129.729 106.028C130.409 106.028 130.999 105.658 131.349 105.168V105.858C131.349 106.918 130.599 107.308 129.799 107.308C129.109 107.308 128.629 107.128 128.229 106.648L127.849 107.208C128.419 107.768 128.979 107.928 129.799 107.928ZM129.909 105.368C128.939 105.368 128.359 104.588 128.359 103.528C128.359 102.458 128.939 101.688 129.909 101.688C130.509 101.688 131.089 102.048 131.349 102.468V104.578C131.089 104.998 130.509 105.368 129.909 105.368ZM141.769 105.968V99.298H140.939V102.168H137.039V99.298H136.209V105.968H137.039V102.908H140.939V105.968H141.769ZM147.068 105.968V102.648C147.068 101.478 146.218 101.018 145.198 101.018C144.408 101.018 143.788 101.278 143.268 101.818L143.618 102.338C144.048 101.878 144.518 101.668 145.098 101.668C145.798 101.668 146.318 102.038 146.318 102.688V103.558C145.928 103.108 145.378 102.898 144.718 102.898C143.898 102.898 143.028 103.408 143.028 104.488C143.028 105.538 143.898 106.088 144.718 106.088C145.368 106.088 145.918 105.858 146.318 105.418V105.968H147.068ZM144.988 105.548C144.288 105.548 143.798 105.108 143.798 104.498C143.798 103.878 144.288 103.438 144.988 103.438C145.518 103.438 146.028 103.638 146.318 104.038V104.948C146.028 105.348 145.518 105.548 144.988 105.548ZM149.322 105.968V102.548C149.542 102.158 150.172 101.778 150.632 101.778C150.752 101.778 150.842 101.788 150.932 101.808V101.038C150.272 101.038 149.712 101.408 149.322 101.918V101.138H148.572V105.968H149.322ZM155.883 105.968V101.138H155.133V104.688C154.853 105.078 154.293 105.418 153.703 105.418C153.053 105.418 152.623 105.168 152.623 104.318V101.138H151.873V104.548C151.873 105.598 152.403 106.088 153.413 106.088C154.133 106.088 154.763 105.708 155.133 105.288V105.968H155.883ZM158.91 106.088C160.16 106.088 160.81 105.438 160.81 104.628C160.81 102.748 157.82 103.448 157.82 102.388C157.82 101.958 158.23 101.628 158.89 101.628C159.51 101.628 160.04 101.888 160.33 102.238L160.68 101.718C160.29 101.328 159.71 101.018 158.89 101.018C157.74 101.018 157.09 101.658 157.09 102.408C157.09 104.198 160.08 103.478 160.08 104.648C160.08 105.128 159.68 105.478 158.94 105.478C158.28 105.478 157.67 105.158 157.35 104.788L156.96 105.328C157.45 105.848 158.12 106.088 158.91 106.088ZM167.117 105.968V100.038H169.237V99.298H164.177V100.038H166.287V105.968H167.117ZM171.338 106.088C172.128 106.088 172.778 105.828 173.258 105.348L172.898 104.858C172.518 105.248 171.958 105.468 171.408 105.468C170.368 105.468 169.728 104.708 169.668 103.798H173.578V103.608C173.578 102.158 172.718 101.018 171.258 101.018C169.878 101.018 168.878 102.148 168.878 103.548C168.878 105.058 169.908 106.088 171.338 106.088ZM172.838 103.248H169.668C169.708 102.508 170.218 101.638 171.248 101.638C172.348 101.638 172.828 102.528 172.838 103.248ZM175.542 105.968V102.548C175.762 102.158 176.392 101.778 176.852 101.778C176.972 101.778 177.062 101.788 177.152 101.808V101.038C176.492 101.038 175.932 101.408 175.542 101.918V101.138H174.792V105.968H175.542ZM180.223 106.088C181.103 106.088 181.623 105.728 181.993 105.248L181.493 104.788C181.173 105.218 180.763 105.418 180.263 105.418C179.233 105.418 178.593 104.618 178.593 103.548C178.593 102.478 179.233 101.688 180.263 101.688C180.763 101.688 181.173 101.878 181.493 102.318L181.993 101.858C181.623 101.378 181.103 101.018 180.223 101.018C178.783 101.018 177.813 102.118 177.813 103.548C177.813 104.988 178.783 106.088 180.223 106.088ZM186.814 105.968V102.648C186.814 101.478 185.964 101.018 184.944 101.018C184.154 101.018 183.534 101.278 183.014 101.818L183.364 102.338C183.794 101.878 184.264 101.668 184.844 101.668C185.544 101.668 186.064 102.038 186.064 102.688V103.558C185.674 103.108 185.124 102.898 184.464 102.898C183.644 102.898 182.774 103.408 182.774 104.488C182.774 105.538 183.644 106.088 184.464 106.088C185.114 106.088 185.664 105.858 186.064 105.418V105.968H186.814ZM184.734 105.548C184.034 105.548 183.544 105.108 183.544 104.498C183.544 103.878 184.034 103.438 184.734 103.438C185.264 103.438 185.774 103.638 186.064 104.038V104.948C185.774 105.348 185.264 105.548 184.734 105.548ZM190.698 106.088C191.968 106.088 192.848 105.108 192.848 103.548C192.848 101.978 191.968 101.018 190.698 101.018C190.018 101.018 189.418 101.368 189.068 101.858V101.138H188.318V107.808H189.068V105.238C189.458 105.778 190.038 106.088 190.698 106.088ZM190.508 105.418C189.918 105.418 189.328 105.058 189.068 104.638V102.458C189.328 102.038 189.918 101.688 190.508 101.688C191.478 101.688 192.058 102.478 192.058 103.548C192.058 104.618 191.478 105.418 190.508 105.418ZM197.811 105.968V102.648C197.811 101.478 196.961 101.018 195.941 101.018C195.151 101.018 194.531 101.278 194.011 101.818L194.361 102.338C194.791 101.878 195.261 101.668 195.841 101.668C196.541 101.668 197.061 102.038 197.061 102.688V103.558C196.671 103.108 196.121 102.898 195.461 102.898C194.641 102.898 193.771 103.408 193.771 104.488C193.771 105.538 194.641 106.088 195.461 106.088C196.111 106.088 196.661 105.858 197.061 105.418V105.968H197.811ZM195.731 105.548C195.031 105.548 194.541 105.108 194.541 104.498C194.541 103.878 195.031 103.438 195.731 103.438C196.261 103.438 196.771 103.638 197.061 104.038V104.948C196.771 105.348 196.261 105.548 195.731 105.548ZM199.684 100.448C199.964 100.448 200.194 100.228 200.194 99.948C200.194 99.668 199.964 99.438 199.684 99.438C199.414 99.438 199.184 99.668 199.184 99.948C199.184 100.228 199.414 100.448 199.684 100.448ZM200.064 105.968V101.138H199.314V105.968H200.064Z" fill="#949494"/>
<circle cx="47.5815" cy="112.581" r="12.4597" fill="#C6EADB" stroke="#00AB6B" stroke-width="1.24597"/>
<circle cx="47.5795" cy="112.58" r="9.1371" fill="#E6F7F0" stroke="#00AB6B" stroke-width="1.24597"/>
<circle cx="47.5816" cy="112.58" r="5.81452" fill="white" stroke="#00AB6B" stroke-width="1.24597"/>
<path d="M55.0529 98.5283C55.2509 98.3062 55.6113 98.3583 55.7384 98.6273L57.3222 101.98C57.3703 102.082 57.4576 102.16 57.5643 102.196L61.0757 103.387C61.3575 103.483 61.4503 103.835 61.2523 104.057L57.8132 107.913C57.712 108.027 57.557 108.076 57.4089 108.041L53.2622 107.075C53.1247 107.043 53.0129 106.943 52.9654 106.81L51.5326 102.801C51.4815 102.658 51.5126 102.498 51.6138 102.385L55.0529 98.5283Z" fill="white" stroke="#00AB6B" stroke-width="1.24597"/>
<path d="M59.5805 100.629C59.8152 100.378 59.8015 99.9836 59.5499 99.749C59.2983 99.5143 58.9041 99.528 58.6694 99.7796L59.5805 100.629ZM47.1258 112.156C46.8912 112.407 46.9049 112.802 47.1565 113.036C47.4081 113.271 47.8023 113.257 48.037 113.006L47.1258 112.156ZM58.6694 99.7796L47.1258 112.156L48.037 113.006L59.5805 100.629L58.6694 99.7796Z" fill="#00AB6B"/>
</g>
<rect x="21.0005" y="138.331" width="278.266" height="0.830645" fill="#EDEDED"/>
<rect width="139.548" height="49.8387" transform="translate(21.0005 139.161)" fill="white"/>
<path d="M42.1695 175.742H40.0505L38.3475 172.661H36.9955V175.742H35.1495V167.071H39.2055C40.0982 167.071 40.8045 167.331 41.3245 167.851C41.8532 168.371 42.1175 169.043 42.1175 169.866C42.1175 170.577 41.9312 171.153 41.5585 171.595C41.1945 172.037 40.7482 172.319 40.2195 172.44L42.1695 175.742ZM38.9325 171.036C39.3138 171.036 39.6258 170.932 39.8685 170.724C40.1112 170.508 40.2325 170.222 40.2325 169.866C40.2325 169.511 40.1112 169.229 39.8685 169.021C39.6258 168.805 39.3138 168.696 38.9325 168.696H36.9955V171.036H38.9325ZM47.052 175.898C46.2634 175.898 45.6177 175.578 45.115 174.936V178.134H43.464V169.463H45.115V170.256C45.609 169.624 46.2547 169.307 47.052 169.307C47.8754 169.307 48.5427 169.602 49.054 170.191C49.574 170.772 49.834 171.574 49.834 172.596C49.834 173.619 49.574 174.425 49.054 175.014C48.5427 175.604 47.8754 175.898 47.052 175.898ZM46.532 174.429C47.0087 174.429 47.39 174.26 47.676 173.922C47.9707 173.584 48.118 173.142 48.118 172.596C48.118 172.059 47.9707 171.621 47.676 171.283C47.39 170.945 47.0087 170.776 46.532 170.776C46.2634 170.776 45.9947 170.846 45.726 170.984C45.4574 171.123 45.2537 171.292 45.115 171.491V173.714C45.2537 173.914 45.4574 174.083 45.726 174.221C46.0034 174.36 46.272 174.429 46.532 174.429ZM60.6873 175.742H54.1613V174.299C56.016 172.921 57.2423 171.942 57.8403 171.361C58.447 170.772 58.7503 170.222 58.7503 169.71C58.7503 169.355 58.6116 169.078 58.3343 168.878C58.057 168.679 57.7276 168.579 57.3463 168.579C56.4363 168.579 55.6606 168.913 55.0193 169.58L53.9663 168.358C54.3736 167.89 54.872 167.539 55.4613 167.305C56.0593 167.063 56.6746 166.941 57.3073 166.941C58.2606 166.941 59.0493 167.193 59.6733 167.695C60.306 168.198 60.6223 168.87 60.6223 169.71C60.6223 170.421 60.3406 171.119 59.7773 171.803C59.2226 172.479 58.3473 173.251 57.1513 174.117H60.6873V175.742ZM67.3902 175.235C66.8355 175.677 66.1639 175.898 65.3752 175.898C64.5865 175.898 63.9105 175.677 63.3472 175.235C62.7925 174.785 62.3939 174.23 62.1512 173.571C61.9085 172.913 61.7872 172.193 61.7872 171.413C61.7872 170.633 61.9085 169.914 62.1512 169.255C62.3939 168.597 62.7925 168.046 63.3472 167.604C63.9105 167.162 64.5865 166.941 65.3752 166.941C66.1639 166.941 66.8355 167.162 67.3902 167.604C67.9449 168.046 68.3435 168.597 68.5862 169.255C68.8375 169.914 68.9632 170.633 68.9632 171.413C68.9632 172.193 68.8375 172.913 68.5862 173.571C68.3435 174.23 67.9449 174.785 67.3902 175.235ZM64.0752 173.48C64.3525 174 64.7859 174.26 65.3752 174.26C65.9645 174.26 66.3935 174 66.6622 173.48C66.9395 172.96 67.0782 172.271 67.0782 171.413C67.0782 170.555 66.9395 169.871 66.6622 169.359C66.3935 168.839 65.9645 168.579 65.3752 168.579C64.7859 168.579 64.3525 168.839 64.0752 169.359C63.7979 169.871 63.6592 170.555 63.6592 171.413C63.6592 172.271 63.7979 172.96 64.0752 173.48ZM72.8257 175.885C71.7944 175.885 70.9451 175.586 70.2777 174.988L71.0967 173.571C71.5734 174.022 72.1497 174.247 72.8257 174.247C73.5017 174.247 74.0304 174.009 74.4117 173.532C74.8017 173.047 74.9967 172.471 74.9967 171.803V171.608C74.7714 171.92 74.4551 172.185 74.0477 172.401C73.6404 172.618 73.2114 172.726 72.7607 172.726C71.9374 172.726 71.2354 172.479 70.6547 171.985C70.0827 171.483 69.7967 170.789 69.7967 169.905C69.7967 169.047 70.1044 168.337 70.7197 167.773C71.3437 167.21 72.1454 166.928 73.1247 166.928C73.9654 166.928 74.6717 167.136 75.2437 167.552C75.8244 167.968 76.2361 168.506 76.4787 169.164C76.7301 169.814 76.8557 170.564 76.8557 171.413C76.8557 172.748 76.4961 173.827 75.7767 174.65C75.0661 175.474 74.0824 175.885 72.8257 175.885ZM73.2807 171.14C73.9741 171.14 74.5417 170.872 74.9837 170.334C74.9404 169.849 74.7757 169.433 74.4897 169.086C74.2037 168.74 73.7791 168.566 73.2157 168.566C72.7477 168.566 72.3751 168.696 72.0977 168.956C71.8204 169.216 71.6817 169.511 71.6817 169.84C71.6817 170.265 71.8377 170.59 72.1497 170.815C72.4617 171.032 72.8387 171.14 73.2807 171.14ZM79.8316 175.105C79.8316 175.582 79.7103 176.028 79.4676 176.444C79.225 176.869 78.9 177.229 78.4926 177.523L77.7776 176.938C77.9943 176.826 78.2023 176.648 78.4016 176.405C78.601 176.171 78.7266 175.942 78.7786 175.716C78.7006 175.742 78.6183 175.755 78.5316 175.755C78.2803 175.755 78.068 175.669 77.8946 175.495C77.73 175.322 77.6476 175.097 77.6476 174.819C77.6476 174.533 77.7473 174.291 77.9466 174.091C78.146 173.883 78.3843 173.779 78.6616 173.779C78.9823 173.779 79.2553 173.901 79.4806 174.143C79.7146 174.377 79.8316 174.698 79.8316 175.105ZM86.1285 175.235C85.5738 175.677 84.9022 175.898 84.1135 175.898C83.3248 175.898 82.6488 175.677 82.0855 175.235C81.5308 174.785 81.1322 174.23 80.8895 173.571C80.6468 172.913 80.5255 172.193 80.5255 171.413C80.5255 170.633 80.6468 169.914 80.8895 169.255C81.1322 168.597 81.5308 168.046 82.0855 167.604C82.6488 167.162 83.3248 166.941 84.1135 166.941C84.9022 166.941 85.5738 167.162 86.1285 167.604C86.6832 168.046 87.0818 168.597 87.3245 169.255C87.5758 169.914 87.7015 170.633 87.7015 171.413C87.7015 172.193 87.5758 172.913 87.3245 173.571C87.0818 174.23 86.6832 174.785 86.1285 175.235ZM82.8135 173.48C83.0908 174 83.5242 174.26 84.1135 174.26C84.7028 174.26 85.1318 174 85.4005 173.48C85.6778 172.96 85.8165 172.271 85.8165 171.413C85.8165 170.555 85.6778 169.871 85.4005 169.359C85.1318 168.839 84.7028 168.579 84.1135 168.579C83.5242 168.579 83.0908 168.839 82.8135 169.359C82.5362 169.871 82.3975 170.555 82.3975 171.413C82.3975 172.271 82.5362 172.96 82.8135 173.48ZM94.19 175.235C93.6354 175.677 92.9637 175.898 92.175 175.898C91.3864 175.898 90.7104 175.677 90.147 175.235C89.5924 174.785 89.1937 174.23 88.951 173.571C88.7084 172.913 88.587 172.193 88.587 171.413C88.587 170.633 88.7084 169.914 88.951 169.255C89.1937 168.597 89.5924 168.046 90.147 167.604C90.7104 167.162 91.3864 166.941 92.175 166.941C92.9637 166.941 93.6354 167.162 94.19 167.604C94.7447 168.046 95.1434 168.597 95.386 169.255C95.6374 169.914 95.763 170.633 95.763 171.413C95.763 172.193 95.6374 172.913 95.386 173.571C95.1434 174.23 94.7447 174.785 94.19 175.235ZM90.875 173.48C91.1524 174 91.5857 174.26 92.175 174.26C92.7644 174.26 93.1934 174 93.462 173.48C93.7394 172.96 93.878 172.271 93.878 171.413C93.878 170.555 93.7394 169.871 93.462 169.359C93.1934 168.839 92.7644 168.579 92.175 168.579C91.5857 168.579 91.1524 168.839 90.875 169.359C90.5977 169.871 90.459 170.555 90.459 171.413C90.459 172.271 90.5977 172.96 90.875 173.48ZM102.252 175.235C101.697 175.677 101.025 175.898 100.237 175.898C99.4479 175.898 98.7719 175.677 98.2085 175.235C97.6539 174.785 97.2552 174.23 97.0125 173.571C96.7699 172.913 96.6485 172.193 96.6485 171.413C96.6485 170.633 96.7699 169.914 97.0125 169.255C97.2552 168.597 97.6539 168.046 98.2085 167.604C98.7719 167.162 99.4479 166.941 100.237 166.941C101.025 166.941 101.697 167.162 102.252 167.604C102.806 168.046 103.205 168.597 103.448 169.255C103.699 169.914 103.825 170.633 103.825 171.413C103.825 172.193 103.699 172.913 103.448 173.571C103.205 174.23 102.806 174.785 102.252 175.235ZM98.9365 173.48C99.2139 174 99.6472 174.26 100.237 174.26C100.826 174.26 101.255 174 101.524 173.48C101.801 172.96 101.94 172.271 101.94 171.413C101.94 170.555 101.801 169.871 101.524 169.359C101.255 168.839 100.826 168.579 100.237 168.579C99.6472 168.579 99.2139 168.839 98.9365 169.359C98.6592 169.871 98.5205 170.555 98.5205 171.413C98.5205 172.271 98.6592 172.96 98.9365 173.48Z" fill="#333333"/>
<path d="M40.5915 158.129V151.459H39.7615V156.669L35.9215 151.459H35.0715V158.129H35.9015V152.809L39.7915 158.129H40.5915ZM45.8916 158.129V154.809C45.8916 153.639 45.0416 153.179 44.0216 153.179C43.2316 153.179 42.6116 153.439 42.0916 153.979L42.4416 154.499C42.8716 154.039 43.3416 153.829 43.9216 153.829C44.6216 153.829 45.1416 154.199 45.1416 154.849V155.719C44.7516 155.269 44.2016 155.059 43.5416 155.059C42.7216 155.059 41.8516 155.569 41.8516 156.649C41.8516 157.699 42.7216 158.249 43.5416 158.249C44.1916 158.249 44.7416 158.019 45.1416 157.579V158.129H45.8916ZM43.8116 157.709C43.1116 157.709 42.6216 157.269 42.6216 156.659C42.6216 156.039 43.1116 155.599 43.8116 155.599C44.3416 155.599 44.8516 155.799 45.1416 156.199V157.109C44.8516 157.509 44.3416 157.709 43.8116 157.709ZM48.145 156.819V154.629C48.405 154.209 48.995 153.849 49.585 153.849C50.565 153.849 51.145 154.649 51.145 155.719C51.145 156.789 50.565 157.579 49.585 157.579C48.995 157.579 48.405 157.239 48.145 156.819ZM48.145 158.129V157.409C48.505 157.899 49.095 158.249 49.775 158.249C51.035 158.249 51.925 157.289 51.925 155.719C51.925 154.179 51.035 153.179 49.775 153.179C49.115 153.179 48.535 153.499 48.145 154.029V151.459H47.395V158.129H48.145ZM57.157 158.129V153.299H56.407V156.849C56.127 157.239 55.567 157.579 54.977 157.579C54.327 157.579 53.897 157.329 53.897 156.479V153.299H53.147V156.709C53.147 157.759 53.677 158.249 54.687 158.249C55.407 158.249 56.037 157.869 56.407 157.449V158.129H57.157ZM62.6648 158.129V154.739C62.6648 153.689 62.1348 153.179 61.1248 153.179C60.4048 153.179 59.7448 153.599 59.4048 153.999V153.299H58.6548V158.129H59.4048V154.599C59.6848 154.209 60.2448 153.849 60.8348 153.849C61.4848 153.849 61.9148 154.119 61.9148 154.969V158.129H62.6648ZM66.1026 160.089C67.2826 160.089 68.4026 159.589 68.4026 157.989V153.299H67.6526V154.029C67.2626 153.499 66.6826 153.179 66.0326 153.179C64.7626 153.179 63.8826 154.139 63.8826 155.689C63.8826 157.249 64.7726 158.189 66.0326 158.189C66.7126 158.189 67.3026 157.819 67.6526 157.329V158.019C67.6526 159.079 66.9026 159.469 66.1026 159.469C65.4126 159.469 64.9326 159.289 64.5326 158.809L64.1526 159.369C64.7226 159.929 65.2826 160.089 66.1026 160.089ZM66.2126 157.529C65.2426 157.529 64.6626 156.749 64.6626 155.689C64.6626 154.619 65.2426 153.849 66.2126 153.849C66.8126 153.849 67.3926 154.209 67.6526 154.629V156.739C67.3926 157.159 66.8126 157.529 66.2126 157.529ZM74.9929 158.129V152.199H77.1129V151.459H72.0529V152.199H74.1629V158.129H74.9929ZM78.556 152.609C78.836 152.609 79.066 152.389 79.066 152.109C79.066 151.829 78.836 151.599 78.556 151.599C78.286 151.599 78.056 151.829 78.056 152.109C78.056 152.389 78.286 152.609 78.556 152.609ZM78.936 158.129V153.299H78.186V158.129H78.936ZM84.2021 158.129V154.809C84.2021 153.639 83.3521 153.179 82.3321 153.179C81.5421 153.179 80.9221 153.439 80.4021 153.979L80.7521 154.499C81.1821 154.039 81.6521 153.829 82.2321 153.829C82.9321 153.829 83.4521 154.199 83.4521 154.849V155.719C83.0621 155.269 82.5121 155.059 81.8521 155.059C81.0321 155.059 80.1621 155.569 80.1621 156.649C80.1621 157.699 81.0321 158.249 81.8521 158.249C82.5021 158.249 83.0521 158.019 83.4521 157.579V158.129H84.2021ZM82.1221 157.709C81.4221 157.709 80.9321 157.269 80.9321 156.659C80.9321 156.039 81.4221 155.599 82.1221 155.599C82.6521 155.599 83.1621 155.799 83.4521 156.199V157.109C83.1621 157.509 82.6521 157.709 82.1221 157.709ZM88.0856 158.249C89.3556 158.249 90.2356 157.269 90.2356 155.709C90.2356 154.139 89.3556 153.179 88.0856 153.179C87.4056 153.179 86.8056 153.529 86.4556 154.019V153.299H85.7056V159.969H86.4556V157.399C86.8456 157.939 87.4256 158.249 88.0856 158.249ZM87.8956 157.579C87.3056 157.579 86.7156 157.219 86.4556 156.799V154.619C86.7156 154.199 87.3056 153.849 87.8956 153.849C88.8656 153.849 89.4456 154.639 89.4456 155.709C89.4456 156.779 88.8656 157.579 87.8956 157.579ZM97.0763 158.129C98.2963 158.129 99.0063 157.399 99.0063 156.329C99.0063 155.529 98.4163 154.799 97.7063 154.689C98.3163 154.559 98.8763 153.999 98.8763 153.159C98.8763 152.159 98.1663 151.459 97.0063 151.459H94.0363V158.129H97.0763ZM96.8663 154.349H94.8663V152.199H96.8663C97.6163 152.199 98.0163 152.679 98.0163 153.279C98.0163 153.889 97.6163 154.349 96.8663 154.349ZM96.9063 157.389H94.8663V155.089H96.9063C97.7263 155.089 98.1463 155.629 98.1463 156.239C98.1463 156.949 97.6863 157.389 96.9063 157.389ZM104.305 158.129V153.299H103.555V156.849C103.275 157.239 102.715 157.579 102.125 157.579C101.475 157.579 101.045 157.329 101.045 156.479V153.299H100.295V156.709C100.295 157.759 100.825 158.249 101.835 158.249C102.555 158.249 103.185 157.869 103.555 157.449V158.129H104.305ZM106.553 158.129V151.459H105.803V158.129H106.553ZM111.819 158.129V154.809C111.819 153.639 110.969 153.179 109.949 153.179C109.159 153.179 108.539 153.439 108.019 153.979L108.369 154.499C108.799 154.039 109.269 153.829 109.849 153.829C110.549 153.829 111.069 154.199 111.069 154.849V155.719C110.679 155.269 110.129 155.059 109.469 155.059C108.649 155.059 107.779 155.569 107.779 156.649C107.779 157.699 108.649 158.249 109.469 158.249C110.119 158.249 110.669 158.019 111.069 157.579V158.129H111.819ZM109.739 157.709C109.039 157.709 108.549 157.269 108.549 156.659C108.549 156.039 109.039 155.599 109.739 155.599C110.269 155.599 110.779 155.799 111.069 156.199V157.109C110.779 157.509 110.269 157.709 109.739 157.709ZM117.333 158.129V154.739C117.333 153.689 116.803 153.179 115.793 153.179C115.073 153.179 114.413 153.599 114.073 153.999V153.299H113.323V158.129H114.073V154.599C114.353 154.209 114.913 153.849 115.503 153.849C116.153 153.849 116.583 154.119 116.583 154.969V158.129H117.333Z" fill="#949494"/>
<rect width="138.718" height="49.8387" transform="translate(160.544 139.161)" fill="white"/>
<path d="M176.242 175.898C175.263 175.898 174.487 175.617 173.915 175.053L174.721 173.636C175.155 174.052 175.614 174.26 176.099 174.26C176.507 174.26 176.832 174.135 177.074 173.883C177.326 173.632 177.451 173.294 177.451 172.869V167.071H179.297V172.895C179.297 173.883 179.02 174.633 178.465 175.144C177.911 175.647 177.17 175.898 176.242 175.898ZM186.4 175.742H184.749V175.092C184.298 175.63 183.635 175.898 182.76 175.898C182.196 175.898 181.689 175.716 181.239 175.352C180.797 174.98 180.576 174.468 180.576 173.818C180.576 173.142 180.792 172.635 181.226 172.297C181.668 171.959 182.179 171.79 182.76 171.79C183.652 171.79 184.315 172.046 184.749 172.557V171.712C184.749 171.392 184.623 171.136 184.372 170.945C184.12 170.755 183.787 170.659 183.371 170.659C182.686 170.659 182.075 170.906 181.538 171.4L180.914 170.295C181.659 169.637 182.573 169.307 183.657 169.307C184.463 169.307 185.121 169.494 185.633 169.866C186.144 170.239 186.4 170.846 186.4 171.686V175.742ZM183.423 174.78C184.038 174.78 184.48 174.598 184.749 174.234V173.454C184.48 173.09 184.038 172.908 183.423 172.908C183.085 172.908 182.803 172.995 182.578 173.168C182.352 173.333 182.24 173.563 182.24 173.857C182.24 174.143 182.352 174.369 182.578 174.533C182.803 174.698 183.085 174.78 183.423 174.78ZM193.926 175.742H192.275V171.946C192.275 171.166 191.89 170.776 191.118 170.776C190.52 170.776 190.044 171.023 189.688 171.517V175.742H188.037V169.463H189.688V170.282C190.234 169.632 190.967 169.307 191.885 169.307C192.561 169.307 193.068 169.485 193.406 169.84C193.753 170.196 193.926 170.685 193.926 171.309V175.742ZM201.455 175.742H199.804V174.949C199.24 175.582 198.504 175.898 197.594 175.898C196.918 175.898 196.411 175.725 196.073 175.378C195.735 175.032 195.566 174.546 195.566 173.922V169.463H197.217V173.272C197.217 174.044 197.602 174.429 198.374 174.429C198.954 174.429 199.431 174.191 199.804 173.714V169.463H201.455V175.742ZM208.515 175.742H206.864V175.092C206.413 175.63 205.75 175.898 204.875 175.898C204.312 175.898 203.805 175.716 203.354 175.352C202.912 174.98 202.691 174.468 202.691 173.818C202.691 173.142 202.908 172.635 203.341 172.297C203.783 171.959 204.294 171.79 204.875 171.79C205.768 171.79 206.431 172.046 206.864 172.557V171.712C206.864 171.392 206.738 171.136 206.487 170.945C206.236 170.755 205.902 170.659 205.486 170.659C204.801 170.659 204.19 170.906 203.653 171.4L203.029 170.295C203.774 169.637 204.689 169.307 205.772 169.307C206.578 169.307 207.237 169.494 207.748 169.866C208.259 170.239 208.515 170.846 208.515 171.686V175.742ZM205.538 174.78C206.153 174.78 206.595 174.598 206.864 174.234V173.454C206.595 173.09 206.153 172.908 205.538 172.908C205.2 172.908 204.918 172.995 204.693 173.168C204.468 173.333 204.355 173.563 204.355 173.857C204.355 174.143 204.468 174.369 204.693 174.533C204.918 174.698 205.2 174.78 205.538 174.78ZM211.803 175.742H210.152V169.463H211.803V170.321C212.037 170.027 212.336 169.784 212.7 169.593C213.064 169.403 213.433 169.307 213.805 169.307V170.919C213.693 170.893 213.541 170.88 213.35 170.88C213.073 170.88 212.778 170.95 212.466 171.088C212.154 171.227 211.933 171.396 211.803 171.595V175.742ZM215.656 168.787C215.387 168.787 215.153 168.692 214.954 168.501C214.763 168.302 214.668 168.068 214.668 167.799C214.668 167.531 214.763 167.301 214.954 167.11C215.153 166.92 215.387 166.824 215.656 166.824C215.933 166.824 216.167 166.92 216.358 167.11C216.549 167.301 216.644 167.531 216.644 167.799C216.644 168.068 216.549 168.302 216.358 168.501C216.167 168.692 215.933 168.787 215.656 168.787ZM216.488 175.742H214.837V169.463H216.488V175.742ZM220.101 175.105C220.101 175.582 219.98 176.028 219.737 176.444C219.494 176.869 219.169 177.229 218.762 177.523L218.047 176.938C218.264 176.826 218.472 176.648 218.671 176.405C218.87 176.171 218.996 175.942 219.048 175.716C218.97 175.742 218.888 175.755 218.801 175.755C218.55 175.755 218.337 175.669 218.164 175.495C217.999 175.322 217.917 175.097 217.917 174.819C217.917 174.533 218.017 174.291 218.216 174.091C218.415 173.883 218.654 173.779 218.931 173.779C219.252 173.779 219.525 173.901 219.75 174.143C219.984 174.377 220.101 174.698 220.101 175.105ZM231.095 175.742H224.569V174.299C226.424 172.921 227.65 171.942 228.248 171.361C228.855 170.772 229.158 170.222 229.158 169.71C229.158 169.355 229.02 169.078 228.742 168.878C228.465 168.679 228.136 168.579 227.754 168.579C226.844 168.579 226.069 168.913 225.427 169.58L224.374 168.358C224.782 167.89 225.28 167.539 225.869 167.305C226.467 167.063 227.083 166.941 227.715 166.941C228.669 166.941 229.457 167.193 230.081 167.695C230.714 168.198 231.03 168.87 231.03 169.71C231.03 170.421 230.749 171.119 230.185 171.803C229.631 172.479 228.755 173.251 227.559 174.117H231.095V175.742ZM237.798 175.235C237.244 175.677 236.572 175.898 235.783 175.898C234.995 175.898 234.319 175.677 233.755 175.235C233.201 174.785 232.802 174.23 232.559 173.571C232.317 172.913 232.195 172.193 232.195 171.413C232.195 170.633 232.317 169.914 232.559 169.255C232.802 168.597 233.201 168.046 233.755 167.604C234.319 167.162 234.995 166.941 235.783 166.941C236.572 166.941 237.244 167.162 237.798 167.604C238.353 168.046 238.752 168.597 238.994 169.255C239.246 169.914 239.371 170.633 239.371 171.413C239.371 172.193 239.246 172.913 238.994 173.571C238.752 174.23 238.353 174.785 237.798 175.235ZM234.483 173.48C234.761 174 235.194 174.26 235.783 174.26C236.373 174.26 236.802 174 237.07 173.48C237.348 172.96 237.486 172.271 237.486 171.413C237.486 170.555 237.348 169.871 237.07 169.359C236.802 168.839 236.373 168.579 235.783 168.579C235.194 168.579 234.761 168.839 234.483 169.359C234.206 169.871 234.067 170.555 234.067 171.413C234.067 172.271 234.206 172.96 234.483 173.48ZM246.952 175.742H240.426V174.299C242.281 172.921 243.507 171.942 244.105 171.361C244.712 170.772 245.015 170.222 245.015 169.71C245.015 169.355 244.876 169.078 244.599 168.878C244.322 168.679 243.992 168.579 243.611 168.579C242.701 168.579 241.925 168.913 241.284 169.58L240.231 168.358C240.638 167.89 241.137 167.539 241.726 167.305C242.324 167.063 242.939 166.941 243.572 166.941C244.525 166.941 245.314 167.193 245.938 167.695C246.571 168.198 246.887 168.87 246.887 169.71C246.887 170.421 246.605 171.119 246.042 171.803C245.487 172.479 244.612 173.251 243.416 174.117H246.952V175.742ZM251.588 175.898C250.158 175.898 249.044 175.465 248.247 174.598L249.274 173.311C249.881 173.944 250.648 174.26 251.575 174.26C252.069 174.26 252.459 174.139 252.745 173.896C253.04 173.645 253.187 173.337 253.187 172.973C253.187 172.583 253.048 172.271 252.771 172.037C252.494 171.803 252.112 171.686 251.627 171.686C250.908 171.686 250.301 171.92 249.807 172.388L248.52 172.05V167.071H254.474V168.696H250.366V170.815C250.851 170.33 251.488 170.087 252.277 170.087C253.048 170.087 253.703 170.343 254.24 170.854C254.786 171.366 255.059 172.046 255.059 172.895C255.059 173.814 254.743 174.546 254.11 175.092C253.477 175.63 252.637 175.898 251.588 175.898Z" fill="#333333"/>
<path d="M177.097 158.129V152.199H179.217V151.459H174.157V152.199H176.267V158.129H177.097ZM183.113 158.129V154.809C183.113 153.639 182.263 153.179 181.243 153.179C180.453 153.179 179.833 153.439 179.313 153.979L179.663 154.499C180.093 154.039 180.563 153.829 181.143 153.829C181.843 153.829 182.363 154.199 182.363 154.849V155.719C181.973 155.269 181.423 155.059 180.763 155.059C179.943 155.059 179.073 155.569 179.073 156.649C179.073 157.699 179.943 158.249 180.763 158.249C181.413 158.249 181.963 158.019 182.363 157.579V158.129H183.113ZM181.033 157.709C180.333 157.709 179.843 157.269 179.843 156.659C179.843 156.039 180.333 155.599 181.033 155.599C181.563 155.599 182.073 155.799 182.363 156.199V157.109C182.073 157.509 181.563 157.709 181.033 157.709ZM188.627 158.129V154.739C188.627 153.689 188.097 153.179 187.087 153.179C186.367 153.179 185.707 153.599 185.367 153.999V153.299H184.617V158.129H185.367V154.599C185.647 154.209 186.207 153.849 186.797 153.849C187.447 153.849 187.877 154.119 187.877 154.969V158.129H188.627ZM192.065 160.089C193.245 160.089 194.365 159.589 194.365 157.989V153.299H193.615V154.029C193.225 153.499 192.645 153.179 191.995 153.179C190.725 153.179 189.845 154.139 189.845 155.689C189.845 157.249 190.735 158.189 191.995 158.189C192.675 158.189 193.265 157.819 193.615 157.329V158.019C193.615 159.079 192.865 159.469 192.065 159.469C191.375 159.469 190.895 159.289 190.495 158.809L190.115 159.369C190.685 159.929 191.245 160.089 192.065 160.089ZM192.175 157.529C191.205 157.529 190.625 156.749 190.625 155.689C190.625 154.619 191.205 153.849 192.175 153.849C192.775 153.849 193.355 154.209 193.615 154.629V156.739C193.355 157.159 192.775 157.529 192.175 157.529ZM197.807 160.089C198.987 160.089 200.107 159.589 200.107 157.989V153.299H199.357V154.029C198.967 153.499 198.387 153.179 197.737 153.179C196.467 153.179 195.587 154.139 195.587 155.689C195.587 157.249 196.477 158.189 197.737 158.189C198.417 158.189 199.007 157.819 199.357 157.329V158.019C199.357 159.079 198.607 159.469 197.807 159.469C197.117 159.469 196.637 159.289 196.237 158.809L195.857 159.369C196.427 159.929 196.987 160.089 197.807 160.089ZM197.917 157.529C196.947 157.529 196.367 156.749 196.367 155.689C196.367 154.619 196.947 153.849 197.917 153.849C198.517 153.849 199.097 154.209 199.357 154.629V156.739C199.097 157.159 198.517 157.529 197.917 157.529ZM205.379 158.129V154.809C205.379 153.639 204.529 153.179 203.509 153.179C202.719 153.179 202.099 153.439 201.579 153.979L201.929 154.499C202.359 154.039 202.829 153.829 203.409 153.829C204.109 153.829 204.629 154.199 204.629 154.849V155.719C204.239 155.269 203.689 155.059 203.029 155.059C202.209 155.059 201.339 155.569 201.339 156.649C201.339 157.699 202.209 158.249 203.029 158.249C203.679 158.249 204.229 158.019 204.629 157.579V158.129H205.379ZM203.299 157.709C202.599 157.709 202.109 157.269 202.109 156.659C202.109 156.039 202.599 155.599 203.299 155.599C203.829 155.599 204.339 155.799 204.629 156.199V157.109C204.339 157.509 203.829 157.709 203.299 157.709ZM207.632 158.129V151.459H206.882V158.129H207.632ZM214.217 158.129V152.199H216.337V151.459H211.277V152.199H213.387V158.129H214.217ZM220.232 158.129V154.809C220.232 153.639 219.382 153.179 218.362 153.179C217.572 153.179 216.952 153.439 216.432 153.979L216.782 154.499C217.212 154.039 217.682 153.829 218.262 153.829C218.962 153.829 219.482 154.199 219.482 154.849V155.719C219.092 155.269 218.542 155.059 217.882 155.059C217.062 155.059 216.192 155.569 216.192 156.649C216.192 157.699 217.062 158.249 217.882 158.249C218.532 158.249 219.082 158.019 219.482 157.579V158.129H220.232ZM218.152 157.709C217.452 157.709 216.962 157.269 216.962 156.659C216.962 156.039 217.452 155.599 218.152 155.599C218.682 155.599 219.192 155.799 219.482 156.199V157.109C219.192 157.509 218.682 157.709 218.152 157.709ZM222.486 158.129V154.709C222.706 154.319 223.336 153.939 223.796 153.939C223.916 153.939 224.006 153.949 224.096 153.969V153.199C223.436 153.199 222.876 153.569 222.486 154.079V153.299H221.736V158.129H222.486ZM226.977 160.089C228.157 160.089 229.277 159.589 229.277 157.989V153.299H228.527V154.029C228.137 153.499 227.557 153.179 226.907 153.179C225.637 153.179 224.757 154.139 224.757 155.689C224.757 157.249 225.647 158.189 226.907 158.189C227.587 158.189 228.177 157.819 228.527 157.329V158.019C228.527 159.079 227.777 159.469 226.977 159.469C226.287 159.469 225.807 159.289 225.407 158.809L225.027 159.369C225.597 159.929 226.157 160.089 226.977 160.089ZM227.087 157.529C226.117 157.529 225.537 156.749 225.537 155.689C225.537 154.619 226.117 153.849 227.087 153.849C227.687 153.849 228.267 154.209 228.527 154.629V156.739C228.267 157.159 227.687 157.529 227.087 157.529ZM232.959 158.249C233.749 158.249 234.399 157.989 234.879 157.509L234.519 157.019C234.139 157.409 233.579 157.629 233.029 157.629C231.989 157.629 231.349 156.869 231.289 155.959H235.199V155.769C235.199 154.319 234.339 153.179 232.879 153.179C231.499 153.179 230.499 154.309 230.499 155.709C230.499 157.219 231.529 158.249 232.959 158.249ZM234.459 155.409H231.289C231.329 154.669 231.839 153.799 232.869 153.799C233.969 153.799 234.449 154.689 234.459 155.409ZM237.634 158.249C238.074 158.249 238.344 158.119 238.534 157.939L238.314 157.379C238.214 157.489 238.014 157.579 237.804 157.579C237.474 157.579 237.314 157.319 237.314 156.959V153.959H238.294V153.299H237.314V151.979H236.564V153.299H235.764V153.959H236.564V157.119C236.564 157.839 236.924 158.249 237.634 158.249Z" fill="#949494"/>
<rect x="20.5007" y="85.5" width="279.266" height="104" rx="10.5" stroke="#EDEDED"/>
</g>
<rect x="21.0007" y="86" width="278.266" height="103" rx="10" stroke="#EDEDED"/>
</g>
<path fill-rule="evenodd" clip-rule="evenodd" d="M181.991 43.1641C184.718 43.1641 186.915 41.0243 186.915 38.3897C186.915 35.7551 184.706 33.6152 181.991 33.6152C179.264 33.6152 177.067 35.7551 177.067 38.3897C177.067 41.0243 179.264 43.1641 181.991 43.1641Z" fill="#00BF71"/>
<path fill-rule="evenodd" clip-rule="evenodd" d="M181.991 41.3691C183.694 41.3691 185.074 40.0346 185.074 38.3894C185.074 36.7442 183.694 35.4097 181.991 35.4097C180.289 35.4097 178.908 36.7442 178.908 38.3894C178.908 40.0346 180.289 41.3691 181.991 41.3691Z" fill="#A3E5CB"/>
<path fill-rule="evenodd" clip-rule="evenodd" d="M181.99 37.7915C182.336 37.7915 182.612 37.5268 182.612 37.1932C182.612 36.8596 182.336 36.595 181.99 36.595C181.645 36.595 181.369 36.8596 181.369 37.1932C181.369 37.5268 181.645 37.7915 181.99 37.7915Z" fill="#00BF71"/>
<path fill-rule="evenodd" clip-rule="evenodd" d="M138.25 38.3897C138.25 37.4003 139.078 36.595 140.102 36.595H167.817C168.841 36.595 169.669 37.4003 169.669 38.3897C169.669 39.3791 168.841 40.1844 167.817 40.1844H140.102C139.078 40.1729 138.25 39.3791 138.25 38.3897Z" fill="#00BF71"/>
</g>
<defs>
<filter id="filter0_b" x="0.439209" y="-22.3816" width="320.544" height="543.558" filterUnits="userSpaceOnUse" color-interpolation-filters="sRGB">
<feFlood flood-opacity="0" result="BackgroundImageFix"/>
<feGaussianBlur in="BackgroundImage" stdDeviation="30"/>
<feComposite in2="SourceAlpha" operator="in" result="effect1_backgroundBlur"/>
<feBlend mode="normal" in="SourceGraphic" in2="effect1_backgroundBlur" result="shape"/>
</filter>
<filter id="filter1_d" x="-4.49927" y="64.5" width="329.266" height="154" filterUnits="userSpaceOnUse" color-interpolation-filters="sRGB">
<feFlood flood-opacity="0" result="BackgroundImageFix"/>
<feColorMatrix in="SourceAlpha" type="matrix" values="0 0 0 0 0 0 0 0 0 0 0 0 0 0 0 0 0 0 127 0" result="hardAlpha"/>
<feOffset dy="4"/>
<feGaussianBlur stdDeviation="12.5"/>
<feColorMatrix type="matrix" values="0 0 0 0 0.113725 0 0 0 0 0.113725 0 0 0 0 0.105882 0 0 0 0.1 0"/>
<feBlend mode="normal" in2="BackgroundImageFix" result="effect1_dropShadow"/>
<feBlend mode="normal" in="SourceGraphic" in2="effect1_dropShadow" result="shape"/>
</filter>
<clipPath id="clip0">
<rect width="204" height="446" fill="white" transform="translate(59.0005 36)"/>
</clipPath>
<clipPath id="clip1">
<rect width="204" height="446" fill="white" transform="translate(59.0005 36)"/>
</clipPath>
<clipPath id="clip2">
<rect width="204.487" height="23.9931" fill="white" transform="translate(59.0005 39.6091)"/>
</clipPath>
<clipPath id="clip3">
<rect width="26.1743" height="26.1743" fill="white" transform="translate(78.6313 200.472)"/>
</clipPath>
<clipPath id="clip4">
<rect width="13.0871" height="13.0871" fill="white" transform="translate(239.493 192.08)"/>
</clipPath>
<clipPath id="clip5">
<rect width="5.99827" height="5.99827" fill="white" transform="translate(243.038 194.806)"/>
</clipPath>
<clipPath id="clip6">
<rect x="69.9075" y="221.136" width="182.675" height="67.6169" rx="2.18119" fill="white"/>
</clipPath>
<clipPath id="clip7">
<rect width="182.675" height="34.899" fill="white" transform="translate(69.9075 221.136)"/>
</clipPath>
<clipPath id="clip8">
<rect x="21.0007" y="86" width="278.266" height="103" rx="10" fill="white"/>
</clipPath>
<clipPath id="clip9">
<rect width="278.266" height="53.1613" fill="white" transform="translate(21.0007 86)"/>
</clipPath>
</defs>
</svg>
