<svg width="129" height="40" viewBox="0 0 129 40" fill="none" xmlns="http://www.w3.org/2000/svg">
<g clip-path="url(#clip0)">
<path d="M21.2496 33.4315C21.2496 33.4315 21.9454 34.0784 21.8167 34.443C21.5215 35.2818 20.2001 35.6715 19.3418 35.4396C17.9719 35.0693 16.7192 33.4954 16.7315 32.0764C16.7495 29.9938 18.8792 28.3082 20.647 27.2074C22.4668 26.0743 24.7787 25.7664 26.9219 25.8017C29.2552 25.8407 31.7454 26.2821 33.6989 27.5587C34.7861 28.2692 35.6837 29.3933 36.1084 30.6206C36.3492 31.3163 36.1084 32.8293 36.1084 32.8293C36.1084 32.8293 38.0255 30.1826 38.7187 28.713C39.5448 26.9613 40.758 25.1136 40.5258 23.191C40.4196 22.3107 39.8375 21.4558 39.1202 20.9319C36.8196 19.2585 33.6809 18.9682 30.8376 18.8738C27.8984 18.7765 24.9095 19.4028 22.1534 20.43C20.2758 21.1283 18.4376 22.1154 16.9828 23.4919C15.3444 25.0421 13.7741 26.9283 13.218 29.1142C12.8574 30.5308 12.9345 32.1902 13.6196 33.4817C14.2384 34.6476 15.4572 35.4995 16.6815 35.9917C17.8807 36.4737 19.317 36.69 20.5469 36.2928C21.3605 36.0304 22.4778 35.4908 22.5046 34.6359C22.5442 33.3775 21.2498 33.4311 21.2498 33.4311L21.2496 33.4315Z" fill="#0085C6"/>
<path d="M20.7793 34.6218C20.7793 34.6218 19.8059 34.425 19.5524 34.061C19.1884 33.5348 19.2138 32.7927 19.571 32.2624C20.1593 31.3893 21.4189 31.0548 22.4708 31.0139C24.2493 30.9409 26.4225 31.3271 27.5313 32.7194C28.4567 33.8818 28.6437 35.8294 27.9719 37.1547C27.2977 38.4846 25.5482 39.0011 24.1199 39.429C21.8841 40.0987 19.4316 40.1336 17.1259 39.7701C14.7441 39.3945 12.4178 38.4681 10.3597 37.2097C8.09217 35.8249 6.01274 34.0113 4.44646 31.865C2.76633 29.5627 1.51194 26.8637 0.921145 24.078C0.386847 21.5563 0.461331 18.8726 0.978278 16.3454C1.56924 13.4812 2.70832 10.7583 4.33283 8.32645C5.57219 6.47916 7.23899 4.89848 9.052 3.60728C10.6822 2.44769 12.5583 1.6309 14.4536 0.99186C15.9926 0.472797 17.6075 0.110956 19.2295 0.0252563C21.2446 -0.0811802 23.2866 0.15645 25.2564 0.593834C26.9069 0.960331 28.5362 1.50902 30.0323 2.29936C31.7949 3.23189 34.8653 5.82467 34.8653 5.82467C34.8653 5.82467 28.6395 5.22964 25.5971 5.76753C22.0125 6.40171 18.4734 7.68635 15.3629 9.57703C13.0466 10.9848 11.0038 12.8992 9.33597 15.0353C8.00012 16.7461 6.93724 18.7138 6.26773 20.7782C5.58679 22.8731 5.22706 25.1203 5.35783 27.3168C5.4467 28.8035 5.83605 30.3021 6.49499 31.6377C7.15223 32.9708 8.10804 34.1818 9.22425 35.163C10.6745 36.4343 12.3532 37.4184 14.1709 38.0629C15.6348 38.5783 17.2243 38.7645 18.7764 38.7451C20.1036 38.7281 21.518 38.6672 22.6996 38.0629C23.6899 37.5563 24.7492 36.7932 25.0875 35.7316C25.363 34.8693 25.1961 33.744 24.6038 33.0591C24.0193 32.3832 22.9562 32.2063 22.0629 32.2063C21.4069 32.2061 20.6722 32.3792 20.1976 32.8318C19.9326 33.0845 19.7962 33.4088 19.8929 33.7618C20.0029 34.1622 20.7803 34.623 20.7803 34.623L20.7793 34.6218Z" fill="#26145E"/>
<path d="M20.566 34.1731C20.566 34.1731 20.3845 33.6134 20.5396 33.4126C20.7914 33.0874 21.3585 32.9991 21.7457 33.1435C22.3048 33.3551 22.8052 33.9899 22.8063 34.5866C22.8075 35.353 22.1342 36.0968 21.451 36.4441C19.9592 37.2022 18.0141 36.9864 16.4311 36.4441C15.0885 35.9842 13.7734 35.0648 13.0679 33.8337C12.0437 32.0478 11.8046 29.7159 12.2646 27.7095C12.7344 25.6603 14.2605 23.9438 15.7286 22.4384C17.3067 20.8201 19.2164 19.4485 21.3007 18.5731C23.6882 17.5707 26.3485 17.3028 28.9311 17.1173C31.153 16.9577 33.4192 17.0038 35.6079 17.4184C36.9805 17.6786 38.3693 18.0655 39.5733 18.7737C40.0469 19.0524 40.797 19.8783 40.797 19.8783C40.797 19.8783 40.4677 15.6525 39.8245 13.6535C39.2673 11.9226 38.6759 10.0442 37.3648 8.78454C36.4365 7.89242 35.1097 7.45101 33.8509 7.18164C31.4598 6.67041 28.9261 6.79335 26.522 7.22819C23.7136 7.73604 20.9998 8.83003 18.4836 10.1773C16.1285 11.4385 13.9103 13.0265 12.0141 14.9088C10.4609 16.4507 8.9962 18.1835 8.09858 20.1798C7.19419 22.1911 6.72845 24.45 6.74326 26.6553C6.75511 28.4211 7.12034 30.2403 7.89777 31.8258C8.62505 33.3091 9.79056 34.5845 11.0604 35.641C12.1654 36.5602 13.4655 37.2776 14.8252 37.7431C16.1063 38.1815 17.4893 38.4287 18.8415 38.3517C20.4232 38.2617 22.2233 38.1379 23.4294 37.111C24.1341 36.5109 24.6434 35.5028 24.5717 34.5802C24.5213 33.9338 24.0581 33.2937 23.5069 32.9522C22.9049 32.5789 22.0807 32.3491 21.3964 32.5328C20.7616 32.7029 20.2292 33.0434 20.149 33.5739C20.1109 33.8257 20.5688 34.1733 20.5688 34.1733L20.566 34.1731Z" fill="#015198"/>
<path fill-rule="evenodd" clip-rule="evenodd" d="M64.9637 14.1642C63.4273 14.5482 62.6937 14.9598 61.8734 15.8979C60.8359 17.0844 60.4299 18.4093 60.5031 20.3692C60.5549 21.7553 60.6294 22.0785 61.1281 23.0823C61.7218 24.2775 62.4611 25.0274 63.5226 25.5112C63.7055 25.5945 63.9417 25.7068 64.0476 25.7607C64.1535 25.8146 64.3875 25.8587 64.5676 25.8587C64.7477 25.8587 64.926 25.9086 64.9637 25.9696C65.0022 26.032 65.5353 26.0804 66.183 26.0804C66.8307 26.0804 67.3638 26.032 67.4024 25.9696C67.4401 25.9086 67.6646 25.8587 67.9012 25.8587C68.1379 25.8587 68.3624 25.8087 68.4001 25.7478C68.4377 25.6868 68.5436 25.6369 68.6353 25.6369C68.9866 25.6369 70.0168 25.0302 70.5459 24.5119C71.1691 23.9014 71.5435 23.2869 71.9062 22.2793C72.3354 21.087 72.2424 17.9334 71.7617 17.3805C71.7114 17.3225 71.6697 17.1977 71.669 17.1032C71.6671 16.7793 70.5684 15.4617 69.9863 15.0851C68.6416 14.2151 66.4025 13.8046 64.9637 14.1642ZM120.833 14.1707C119.341 14.5291 118.589 14.944 117.759 15.8678C116.759 16.9807 116.346 18.2051 116.344 20.0688C116.342 21.9229 116.826 23.2627 117.917 24.4277C118.402 24.946 119.432 25.6369 119.719 25.6369C119.806 25.6369 119.908 25.6868 119.946 25.7478C119.983 25.8087 120.183 25.8587 120.389 25.8587C120.595 25.8587 120.795 25.9086 120.833 25.9696C120.871 26.032 121.404 26.0804 122.052 26.0804C122.7 26.0804 123.233 26.032 123.271 25.9696C123.309 25.9086 123.533 25.8587 123.77 25.8587C124.007 25.8587 124.231 25.8087 124.269 25.7478C124.307 25.6868 124.433 25.6369 124.549 25.6369C125.166 25.6369 126.749 24.3565 127.261 23.4437C127.656 22.7386 127.982 21.7434 127.982 21.2434C127.982 21.0005 128.037 20.7471 128.104 20.6804C128.329 20.4549 127.918 17.5409 127.637 17.3667C127.583 17.3336 127.539 17.2283 127.539 17.133C127.539 16.7897 126.562 15.5918 125.916 15.1424C125.169 14.6235 124.502 14.3681 123.327 14.1507C122.297 13.9603 121.689 13.9651 120.833 14.1707ZM49.7724 14.353C49.7433 14.4293 49.7324 17.0367 49.7483 20.1474L49.7771 25.8032L51.6061 25.8676L51.6067 22.698L52.5209 21.6246C53.0238 21.034 53.4658 20.5475 53.5031 20.5433C53.5404 20.539 53.8392 20.8973 54.167 21.3395C54.4948 21.7818 54.8227 22.2184 54.8956 22.3099C54.9685 22.4014 55.5904 23.2373 56.2777 24.1675L57.5273 25.8587H58.5138C59.3654 25.8587 59.4911 25.8348 59.4333 25.6842C59.3965 25.5883 58.9513 24.9521 58.444 24.2703C57.9365 23.5886 57.2662 22.6814 56.9544 22.2545C56.6424 21.8275 56.0363 21.0041 55.6073 20.4246C55.1783 19.8452 54.8259 19.3381 54.824 19.2978C54.8222 19.2574 55.2823 18.6805 55.8462 18.0157C56.4101 17.351 57.2909 16.2986 57.8034 15.6771C58.3159 15.0555 58.7773 14.547 58.8287 14.547C58.8802 14.547 58.9223 14.4722 58.9223 14.3807C58.9223 14.2453 58.7386 14.2143 57.9347 14.2143H56.9473L56.3926 14.9204C56.0876 15.3087 55.7214 15.7502 55.5788 15.9014C55.4363 16.0527 54.9206 16.6631 54.4328 17.2579C53.9451 17.8528 53.2847 18.6465 52.9653 19.0217C52.6459 19.3968 52.2718 19.8654 52.1339 20.0629C51.6319 20.782 51.6061 20.6511 51.6061 17.3868C51.6061 14.719 51.5847 14.3408 51.4308 14.2816C51.0958 14.153 49.8282 14.2076 49.7724 14.353ZM75.8326 14.353C75.809 14.4293 75.7585 14.6413 75.7202 14.8243C75.6821 15.0073 75.6005 15.3566 75.539 15.6006C75.4773 15.8445 75.3798 16.2563 75.3221 16.5155C75.2645 16.7746 75.1703 17.1989 75.1126 17.4581C75.055 17.7173 74.9614 18.129 74.9048 18.373C74.848 18.617 74.6978 19.2907 74.5709 19.8701C74.444 20.4496 74.2621 21.273 74.1667 21.7C74.0714 22.1269 73.9504 22.6759 73.8978 22.9198C73.7567 23.5751 73.3464 25.3216 73.266 25.6091C73.1978 25.8531 73.2162 25.8587 74.0938 25.8587C74.9357 25.8587 74.9946 25.8431 75.0422 25.6091C75.1948 24.8601 75.2381 24.6551 75.3293 24.2506C75.3844 24.0066 75.4812 23.5575 75.5445 23.2525C75.6077 22.9476 75.7064 22.4984 75.7638 22.2545C75.8211 22.0105 75.9999 21.1641 76.161 20.3737C76.4619 18.8967 76.6163 18.4447 76.7631 18.6107C76.8093 18.6629 76.9768 19.0301 77.1353 19.4265C77.5358 20.428 78.0834 21.7673 78.2009 22.0327C78.2549 22.1546 78.4039 22.491 78.5318 22.78C78.6599 23.0691 78.7646 23.3316 78.7646 23.3634C78.7646 23.3953 78.8644 23.6453 78.9863 23.9192C79.2074 24.4155 79.4785 25.0367 79.7723 25.72C80.0537 26.3745 80.2283 26.2225 80.7591 24.8606C80.9611 24.3421 81.1686 23.8705 81.2203 23.8126C81.272 23.7546 81.3142 23.6436 81.3142 23.5658C81.3142 23.4881 81.4551 23.1113 81.6272 22.7285C81.7994 22.3458 82.0069 21.858 82.0884 21.6445C82.1699 21.431 82.2784 21.2089 82.3296 21.151C82.3808 21.0931 82.4227 20.9802 82.4227 20.9003C82.4227 20.8203 82.5164 20.5434 82.6309 20.2848C82.7454 20.0263 82.9575 19.5286 83.102 19.1789C83.2467 18.8293 83.397 18.5422 83.4362 18.5412C83.534 18.5387 83.6364 18.826 83.7718 19.482C83.8346 19.787 83.9251 20.2112 83.9726 20.4246C84.0202 20.6381 84.2645 21.736 84.5156 22.8644C84.7667 23.9928 85.0285 25.1282 85.0974 25.3873L85.2228 25.8587H86.0213C86.4605 25.8587 86.8424 25.836 86.8702 25.8083C86.8978 25.7806 86.7018 24.8948 86.4346 23.8399C86.1675 22.7849 85.9037 21.7347 85.8486 21.5059C85.7934 21.2772 85.7007 20.9029 85.6425 20.6742C85.5843 20.4455 85.4822 20.0337 85.4157 19.7592C85.3492 19.4848 85.2449 19.0606 85.1839 18.8166C85.1229 18.5726 85.0232 18.1734 84.9622 17.9294C84.9012 17.6854 84.806 17.3112 84.7506 17.0977C84.656 16.7334 84.56 16.3472 84.3163 15.351C84.0657 14.3273 84.033 14.2716 83.6632 14.2351C83.2673 14.196 83.2989 14.1435 82.6444 15.9333C82.5106 16.2992 82.3611 16.6985 82.3122 16.8204C82.2634 16.9424 82.1634 17.2169 82.0902 17.4304C82.0169 17.6439 81.9054 17.9433 81.8424 18.0958C81.7333 18.36 81.6122 18.6608 81.4182 19.1493C81.3697 19.2713 81.2298 19.6743 81.1073 20.0448C80.8913 20.6981 80.6125 21.4674 80.4272 21.9218C80.3774 22.0438 80.3071 22.2351 80.2711 22.3468C80.1286 22.7889 79.8752 22.4095 79.3205 20.9237C79.2004 20.602 79.0399 20.2183 78.7757 19.6218C78.6477 19.3327 78.5429 19.0309 78.5429 18.9509C78.5429 18.8709 78.5005 18.7581 78.4486 18.7002C78.3967 18.6423 77.9898 17.6716 77.5444 16.5432C77.099 15.4148 76.6864 14.4293 76.6275 14.353C76.5687 14.2768 76.3753 14.2143 76.198 14.2143C76.0206 14.2143 75.8562 14.2768 75.8326 14.353ZM88.8798 14.2855C88.7715 14.331 88.7412 15.6011 88.7412 20.1057V25.8676L90.5703 25.8032V14.2698L89.7943 14.2486C89.3675 14.2368 88.956 14.2535 88.8798 14.2855ZM94.136 14.2883C94.0953 14.3289 94.0621 16.9489 94.0621 20.1105V25.8587H95.7248V21.7554C95.7248 19.4986 95.7667 17.6522 95.8178 17.6522C95.869 17.6522 96.0775 17.8394 96.281 18.068C97.4881 19.4246 97.1741 19.0611 100.33 22.7535C103.159 26.0629 103.186 26.0913 103.429 26.0566C103.647 26.0254 103.651 25.9405 103.651 20.1474V14.2698H101.988L101.877 22.2363L101.589 21.9681C101.431 21.8206 100.907 21.2523 100.425 20.705C99.9435 20.1578 99.4494 19.6059 99.3275 19.4784C99.2056 19.351 98.8564 18.9549 98.5515 18.5981C98.2467 18.2413 97.892 17.8451 97.7632 17.7176C97.6343 17.5902 96.9131 16.7872 96.1605 15.9333C95.4078 15.0793 94.7399 14.344 94.6764 14.2992C94.5313 14.1968 94.2334 14.1908 94.136 14.2883ZM106.774 14.287C106.733 14.3283 106.699 16.951 106.699 20.1149V25.8676L108.528 25.8032L108.587 20.3179L113.516 20.2583L113.583 18.983H108.584V17.3868C108.584 16.0336 108.61 15.7804 108.759 15.7233C108.855 15.6863 110.379 15.656 112.145 15.656H115.356L115.29 14.2698L111.07 14.2407C108.749 14.2248 106.816 14.2456 106.774 14.287ZM67.7768 15.6804C68.5764 16.0041 68.7634 16.1178 69.1383 16.5085C70.0206 17.4281 70.276 18.3268 70.2056 20.2636C70.1487 21.8291 69.9428 22.5092 69.2869 23.2981C68.4683 24.2828 67.6756 24.6347 66.2704 24.6371C65.0181 24.6393 64.3047 24.3642 63.6371 23.6213C62.8361 22.7301 62.4769 21.7538 62.4231 20.3218C62.3201 17.5841 63.3425 15.8787 65.2962 15.5294C65.8515 15.4301 67.3899 15.5238 67.7768 15.6804ZM123.659 15.6914C124.805 16.1023 125.501 16.8206 125.862 17.964C126.203 19.0434 126.206 20.9572 125.87 21.9772C125.284 23.7524 124.048 24.6338 122.139 24.6371C120.887 24.6393 120.174 24.3642 119.506 23.6213C119.229 23.3125 118.93 22.9037 118.844 22.7126C117.877 20.5842 118.11 17.8654 119.381 16.4582C119.761 16.0378 120.546 15.6305 121.221 15.5035C121.668 15.4195 123.238 15.5403 123.659 15.6914Z" fill="#062853"/>
</g>
<defs>
<clipPath id="clip0">
<rect width="127.615" height="40" fill="white" transform="translate(0.553955)"/>
</clipPath>
</defs>
</svg>
