<svg width="101" height="40" viewBox="0 0 101 40" fill="none" xmlns="http://www.w3.org/2000/svg">
<g clip-path="url(#clip0)">
<path fill-rule="evenodd" clip-rule="evenodd" d="M34.6912 28.5798L41.0476 39.2098H48.23L38.5697 24.3063L46.5781 14.9692L39.9343 14.3946L38.1028 16.2261L31.4591 24.4499L31.3154 31.8478L34.6912 28.5798ZM11.5996 19.6377C6.7515 21.4333 6.64376 31.5246 10.5582 34.1103C15.119 37.1269 18.818 32.9611 19.213 28.4003C19.3926 26.0301 18.9257 22.5825 17.0583 20.751C15.6218 19.3504 13.4671 18.9913 11.5996 19.6377ZM25.1744 15.1487H30.0226L30.0944 29.9804C30.1662 38.0606 26.0722 41.1131 18.3152 38.312C18.3152 38.312 13.7185 40.2153 9.66039 38.707C2.9089 36.1573 1.29285 25.4196 5.35093 19.4223C8.25981 15.1487 13.108 14.2869 17.166 15.8311C19.5003 16.7648 22.7683 18.9913 23.6302 24.6295C23.6302 24.6295 24.8512 29.6213 21.9783 34.9362C21.9783 34.9362 25.1744 35.834 25.1744 31.7401C25.1744 27.682 25.1744 15.1487 25.1744 15.1487Z" fill="url(#paint0_radial)"/>
<path fill-rule="evenodd" clip-rule="evenodd" d="M12.677 5.99162C8.18795 7.32036 4.88403 11.9171 4.88403 11.9171C6.06913 13.9641 7.00285 16.4779 7.11058 19.2791C16.3759 10.732 22.876 10.9116 34.7988 13.9641C44.926 16.5498 50.4206 14.6823 53.8682 10.9475C53.8682 10.9475 46.2907 14.9337 41.2271 12.8508C41.2271 12.8508 41.1553 12.8149 40.9757 12.7431C38.1746 13.0304 33.5419 10.2652 33.5419 10.2652C27.5446 6.96124 18.6384 4.26783 12.677 5.99162Z" fill="#A1A1A1"/>
<path fill-rule="evenodd" clip-rule="evenodd" d="M4.88405 11.4498C4.88405 11.4498 8.18797 6.85308 12.677 5.56025C18.6384 3.80055 27.5446 6.49396 33.542 9.83378C33.542 9.83378 38.1746 12.599 40.9758 12.2758C39.9702 11.8808 36.379 10.2647 32.8596 7.24811C28.7297 3.65691 20.7213 -1.22713 11.7074 0.281172C2.69341 1.78948 0 5.45251 0 5.45251C0 5.45251 2.80115 7.71497 4.88405 11.4498Z" fill="url(#paint1_linear)"/>
<path fill-rule="evenodd" clip-rule="evenodd" d="M12.677 5.56067C8.18795 6.85351 4.88403 11.4503 4.88403 11.4503C6.06913 13.5332 7.00285 16.0111 7.11058 18.8482C16.3759 10.2652 22.876 10.4447 34.7988 13.4973C44.926 16.0829 50.4206 14.2514 53.8682 10.5165C53.8682 10.5165 46.2907 14.4669 41.2271 12.384C41.2271 12.384 41.1553 12.3481 40.9757 12.2762C38.1746 12.5994 33.5419 9.83421 33.5419 9.83421C27.5446 6.49439 18.6384 3.80098 12.677 5.56067Z" fill="url(#paint2_linear)"/>
<path fill-rule="evenodd" clip-rule="evenodd" d="M52.3599 14.6811H53.2577V39.9632H52.3599V14.6811Z" fill="#810000"/>
<path d="M52.3599 14.6459H53.3296V39.9998H52.324V14.6459H52.3599ZM53.2218 14.7177H52.3958V39.8921H53.2218V14.7177Z" fill="#810000"/>
<path d="M57.9263 37.8451V31.7042H58.9677V34.5053H59.0036L61.1584 31.7042H62.4871L60.081 34.7567L62.6667 37.8451H61.302L59.0036 35.0799H58.9677V37.8451H57.9263ZM64.1032 36.9114H66.9402V37.8451H63.0617V31.7042H66.7966V32.6379H64.1032V34.2539H66.4015V35.1876H64.1032V36.9114ZM69.9928 37.9529C69.7055 37.9529 69.4541 37.9529 69.2027 37.8811C68.9513 37.8092 68.7358 37.7015 68.5563 37.5938C68.3767 37.486 68.2331 37.3424 68.0894 37.1628C67.9817 36.9833 67.8739 36.8037 67.8021 36.5882C67.7303 36.4087 67.6585 36.2291 67.6585 36.0136C67.6226 35.7982 67.6226 35.5827 67.6226 35.3313V31.7042H68.664V35.2236C68.664 35.6545 68.6999 36.0136 68.8077 36.2291C68.9154 36.5164 69.059 36.696 69.2745 36.8396C69.49 36.9473 69.7414 37.0192 70.0287 37.0192C70.316 37.0192 70.5673 36.9473 70.7469 36.8396C70.9624 36.696 71.1419 36.5164 71.2497 36.2291C71.3215 36.0136 71.3933 35.6545 71.3933 35.2236V31.7042H72.4348V35.3313C72.4348 35.5827 72.4348 35.7982 72.3989 36.0136C72.363 36.2291 72.327 36.4087 72.2552 36.5882C72.1834 36.8037 72.0757 36.9833 71.932 37.1628C71.8243 37.3424 71.6447 37.486 71.4652 37.5938C71.2856 37.7015 71.0701 37.8092 70.8187 37.8811C70.5673 37.9529 70.316 37.9529 69.9928 37.9529ZM76.6365 36.3009H74.4818L73.9072 37.8451H72.7939L75.0923 31.7042H76.026L78.3244 37.8451H77.2111L76.6365 36.3009ZM75.5591 33.1766C75.3437 33.823 75.1641 34.3617 75.0205 34.7926L74.805 35.3313H76.3133L76.1337 34.7926C75.9542 34.3617 75.7746 33.823 75.5591 33.1766ZM81.7001 34.5771C82.1311 35.1876 82.4543 35.7622 82.7057 36.2291H82.7416C82.7057 35.439 82.6697 34.8644 82.6697 34.5053V31.7042H83.7471V37.8451H82.6338L80.7664 35.0081C80.4432 34.5412 80.0841 33.9666 79.7249 33.3202C79.7609 34.0744 79.7609 34.649 79.7609 35.0799V37.8451H78.7194V31.7042H79.8327L81.7001 34.5771ZM88.2361 35.5109H86.9792V34.5412H89.3135V37.6656C89.2058 37.7015 89.098 37.7374 88.9903 37.7733C88.8466 37.8092 88.703 37.8451 88.5234 37.8811C88.3798 37.8811 88.2002 37.917 88.0207 37.9529C87.8411 37.9529 87.6615 37.9529 87.5179 37.9529C86.9792 37.9529 86.5483 37.8811 86.1532 37.7374C85.7582 37.5938 85.435 37.3783 85.1836 37.1269C84.9322 36.8396 84.7526 36.5164 84.609 36.1573C84.5013 35.7622 84.4294 35.3672 84.4294 34.9003C84.4294 34.6131 84.4654 34.2898 84.5372 34.0025C84.609 33.7152 84.6808 33.428 84.8245 33.2125C84.9681 32.9611 85.1118 32.7456 85.2913 32.5302C85.5068 32.3147 85.6864 32.171 85.9378 32.0274C86.1891 31.8837 86.4405 31.776 86.7278 31.7042C87.0151 31.6323 87.3024 31.5964 87.6615 31.5964C87.9488 31.5964 88.2002 31.5964 88.4516 31.6323C88.7389 31.7042 88.9544 31.7401 89.098 31.8119V32.7456C88.8825 32.6738 88.6671 32.6379 88.4157 32.602C88.2002 32.5661 87.9847 32.5302 87.7334 32.5302C87.4461 32.5302 87.1229 32.5661 86.8715 32.6738C86.5842 32.7815 86.3687 32.9252 86.1532 33.1407C85.9737 33.3202 85.7941 33.5716 85.6864 33.8589C85.5786 34.1462 85.5068 34.4694 85.5068 34.8285C85.5068 35.5468 85.6864 36.1214 86.0455 36.4805C86.4046 36.8396 86.9074 37.0192 87.5538 37.0192C87.6615 37.0192 87.8052 37.0192 87.9129 36.9833C88.0566 36.9833 88.1643 36.9473 88.2361 36.9473V35.5109ZM93.4793 36.3009H91.2887L90.75 37.8451H89.6008L91.8992 31.7042H92.8688L95.1313 37.8451H94.018L93.4793 36.3009ZM92.366 33.1766C92.1506 33.823 91.971 34.3617 91.8273 34.7926L91.6119 35.3313H93.1202L92.9406 34.7926C92.7611 34.3617 92.5815 33.823 92.4019 33.1766H92.366ZM98.507 34.5771C98.938 35.1876 99.2612 35.7622 99.5125 36.2291H99.5485C99.5125 35.439 99.5125 34.8644 99.5125 34.5053V31.7042H100.554V37.8451H99.4407L97.5733 35.0081C97.2501 34.5412 96.891 33.9666 96.5677 33.3202H96.5318C96.5677 34.0744 96.5677 34.649 96.5677 35.0799V37.8451H95.5263V31.7042H96.6396L98.507 34.5771Z" fill="#616161"/>
<path d="M59.0755 23.445H60.117V28.0059C60.117 28.1855 60.117 28.365 60.0811 28.5087C60.0451 28.6523 60.0092 28.796 59.9374 28.9037C59.8656 29.0474 59.7938 29.1551 59.686 29.2629C59.5783 29.3706 59.4346 29.4424 59.3269 29.5142C59.1833 29.5861 59.0396 29.622 58.86 29.6579C58.7164 29.6938 58.5368 29.6938 58.3932 29.6938C58.2136 29.6938 58.0341 29.6938 57.8545 29.6579C57.7109 29.622 57.5672 29.5861 57.4595 29.5502V28.5805C57.5672 28.6523 57.7109 28.6883 57.8545 28.7242C57.9982 28.7242 58.1418 28.7601 58.2855 28.7601C58.5727 28.7601 58.7523 28.6883 58.86 28.5446C59.0037 28.4369 59.0755 28.2214 59.0755 27.97V23.445ZM64.3187 28.0418H62.164L61.5894 29.5861H60.4761L62.7745 23.445H63.7082L66.0066 29.5861H64.8933L64.3187 28.0418ZM63.2413 24.9175C63.0259 25.5639 62.8463 26.1026 62.7026 26.5335L62.4872 27.0722H63.9955L63.8159 26.5335C63.6364 26.1026 63.4568 25.5639 63.2413 24.9175ZM69.2027 27.8264C69.2027 27.6827 69.1668 27.5391 69.095 27.4313C69.0232 27.3595 68.9514 27.2877 68.8077 27.2158C68.7 27.144 68.5563 27.1081 68.4127 27.0722C68.269 27.0363 68.0895 27.0004 67.9099 26.9645C67.6944 26.8926 67.479 26.8208 67.2994 26.749C67.0839 26.6772 66.9044 26.6053 66.7607 26.4617C66.5812 26.318 66.4734 26.1744 66.3657 25.9948C66.2939 25.7794 66.2579 25.528 66.2579 25.2407C66.2579 24.9175 66.2939 24.6302 66.4016 24.3788C66.5093 24.1633 66.653 23.9478 66.8325 23.8042C67.0121 23.6246 67.2276 23.5169 67.479 23.445C67.7303 23.3732 67.9817 23.3373 68.3049 23.3373C68.6281 23.3373 68.9154 23.3373 69.2387 23.4091C69.526 23.481 69.8133 23.5528 70.0287 23.6605V24.6302C69.7414 24.5224 69.4541 24.4147 69.1668 24.3429C68.8795 24.3069 68.6281 24.271 68.4127 24.271C68.0536 24.271 67.8022 24.3429 67.5867 24.4865C67.4071 24.5942 67.2994 24.8097 67.2994 25.097C67.2994 25.2407 67.3353 25.3843 67.4071 25.4561C67.479 25.5639 67.5508 25.6716 67.6585 25.7075C67.7663 25.7794 67.874 25.8512 68.0176 25.8871C68.1613 25.923 68.3049 25.9589 68.4486 25.9948C68.7 26.0307 68.9154 26.1026 69.1668 26.1744C69.3823 26.2462 69.5619 26.354 69.7414 26.4976C69.921 26.6053 70.0646 26.7849 70.1365 27.0004C70.2442 27.1799 70.2801 27.4672 70.2801 27.7904C70.2801 28.1137 70.2442 28.401 70.1365 28.6523C70.0287 28.8678 69.8492 29.0833 69.6337 29.2269C69.4182 29.4065 69.1668 29.5142 68.8795 29.5861C68.5563 29.6579 68.2331 29.6938 67.874 29.6938C67.5867 29.6938 67.2635 29.6938 66.9762 29.622C66.653 29.5502 66.4016 29.4424 66.222 29.3347V28.365C66.5093 28.5087 66.7607 28.6164 67.048 28.6523C67.2994 28.7242 67.5867 28.7601 67.874 28.7601C68.0536 28.7601 68.1972 28.7601 68.3768 28.7242C68.5204 28.6883 68.6641 28.6523 68.8077 28.5805C68.9154 28.5087 69.0232 28.401 69.095 28.2932C69.1668 28.1496 69.2027 28.0059 69.2027 27.8264ZM74.3382 28.0418H72.1475L71.6089 29.5861H70.4956L72.758 23.445H73.7277L75.9901 29.5861H74.9128L74.3382 28.0418ZM73.2249 24.9175C73.0453 25.5639 72.8658 26.1026 72.6862 26.5335L72.5067 27.0722H74.015L73.7995 26.5335C73.6558 26.1026 73.4763 25.5639 73.2608 24.9175H73.2249Z" fill="#616161"/>
<path d="M62.1997 18.3447C62.1997 17.9856 62.1279 17.6624 62.0561 17.3751C61.9843 17.0878 61.8406 16.8723 61.697 16.6568C61.5533 16.4773 61.3738 16.3336 61.1583 16.2618C60.9428 16.154 60.7273 16.1181 60.4759 16.1181C60.2246 16.1181 60.0091 16.154 59.7936 16.2618C59.5781 16.3336 59.3986 16.4773 59.2549 16.6568C59.1113 16.8723 58.9676 17.0878 58.8958 17.3751C58.7881 17.6624 58.7522 17.9856 58.7522 18.3447C58.7522 18.7397 58.7881 19.0629 58.8958 19.3502C58.9676 19.6375 59.1113 19.853 59.2549 20.0326C59.3986 20.2121 59.5781 20.3558 59.7936 20.4635C60.0091 20.5713 60.2246 20.6072 60.4759 20.6072C60.7273 20.6072 60.9428 20.5713 61.1583 20.4635C61.3738 20.3558 61.5533 20.2121 61.697 20.0326C61.8406 19.853 61.9843 19.6375 62.0561 19.3502C62.1279 19.0629 62.1997 18.7397 62.1997 18.3447ZM63.2771 18.3447C63.2771 18.8116 63.2053 19.2425 63.0975 19.6375C62.9539 20.0326 62.7743 20.3917 62.5229 20.6431C62.3075 20.9304 62.0202 21.1459 61.661 21.3254C61.3019 21.4691 60.9069 21.5409 60.4759 21.5409C60.045 21.5409 59.65 21.4691 59.2908 21.3254C58.9317 21.1459 58.6444 20.9304 58.393 20.6431C58.1776 20.3917 57.998 20.0326 57.8544 19.6375C57.7466 19.2425 57.6748 18.8116 57.6748 18.3447C57.6748 17.8778 57.7466 17.4469 57.8544 17.0519C57.998 16.6927 58.1776 16.3336 58.393 16.0463C58.6444 15.759 58.9317 15.5435 59.2908 15.3999C59.65 15.2562 60.045 15.1485 60.4759 15.1485C60.9069 15.1485 61.3019 15.2562 61.661 15.3999C62.0202 15.5435 62.3075 15.759 62.5229 16.0463C62.7743 16.3336 62.9539 16.6927 63.0975 17.0519C63.2053 17.4469 63.2771 17.8778 63.2771 18.3447ZM66.1141 21.4332H65.0368V16.2259H63.2053V15.2921H67.9457V16.2259H66.1141V21.4332ZM72.3629 18.3447C72.3629 17.9856 72.3269 17.6624 72.2551 17.3751C72.1474 17.0878 72.0396 16.8723 71.896 16.6568C71.7523 16.4773 71.5728 16.3336 71.3573 16.2618C71.1418 16.154 70.9264 16.1181 70.675 16.1181C70.4236 16.1181 70.1722 16.154 69.9927 16.2618C69.7772 16.3336 69.5976 16.4773 69.454 16.6568C69.2744 16.8723 69.1667 17.0878 69.0949 17.3751C68.9871 17.6624 68.9512 17.9856 68.9512 18.3447C68.9512 18.7397 68.9871 19.0629 69.0949 19.3502C69.1667 19.6375 69.2744 19.853 69.454 20.0326C69.5976 20.2121 69.7772 20.3558 69.9927 20.4635C70.1722 20.5713 70.4236 20.6072 70.675 20.6072C70.9264 20.6072 71.1418 20.5713 71.3573 20.4635C71.5728 20.3558 71.7523 20.2121 71.896 20.0326C72.0396 19.853 72.1474 19.6375 72.2551 19.3502C72.3269 19.0629 72.3629 18.7397 72.3629 18.3447ZM73.4761 18.3447C73.4761 18.8116 73.4043 19.2425 73.2966 19.6375C73.1529 20.0326 72.9734 20.3917 72.722 20.6431C72.5065 20.9304 72.2192 21.1459 71.8601 21.3254C71.501 21.4691 71.1059 21.5409 70.675 21.5409C70.2081 21.5409 69.8131 21.4691 69.4899 21.3254C69.1308 21.1459 68.8435 20.9304 68.5921 20.6431C68.3766 20.3917 68.1611 20.0326 68.0534 19.6375C67.9457 19.2425 67.8738 18.8116 67.8738 18.3447C67.8738 17.8778 67.9457 17.4469 68.0534 17.0519C68.1611 16.6927 68.3766 16.3336 68.5921 16.0463C68.8435 15.759 69.1308 15.5435 69.4899 15.3999C69.8131 15.2562 70.2081 15.1485 70.675 15.1485C71.1059 15.1485 71.501 15.2562 71.8601 15.3999C72.2192 15.5435 72.5065 15.759 72.722 16.0463C72.9734 16.3336 73.1529 16.6927 73.2966 17.0519C73.4043 17.4469 73.4761 17.8778 73.4761 18.3447ZM78.3961 17.1237C78.3961 17.5546 78.2883 17.9138 78.0729 18.237C77.8574 18.5243 77.4983 18.7397 77.0314 18.8834V18.9193L78.7552 21.4332H77.4983L75.9181 19.0629H75.1999V21.4332H74.1585V15.2921H75.8822C76.2054 15.2921 76.4568 15.2921 76.7082 15.3281C76.9596 15.364 77.1751 15.4358 77.3546 15.5076C77.6778 15.6513 77.9292 15.8308 78.1088 16.1181C78.3243 16.3695 78.3961 16.7286 78.3961 17.1237ZM75.7386 18.1292C75.9541 18.1292 76.1695 18.0933 76.3491 18.0933C76.4927 18.0574 76.6364 18.0215 76.7441 17.9856C76.9596 17.8778 77.1032 17.7701 77.211 17.6265C77.2828 17.4828 77.3187 17.3032 77.3187 17.1237C77.3187 16.9441 77.2828 16.8005 77.211 16.6568C77.1751 16.5491 77.0673 16.4413 76.8878 16.3695C76.78 16.3336 76.6723 16.2977 76.5287 16.2618C76.385 16.2259 76.1695 16.2259 75.9541 16.2259H75.1999V18.1292H75.7386ZM79.258 21.4332V15.2921H80.2994V21.4332H79.258ZM83.6033 21.4332H82.5619V16.2259H80.6945V15.2921H85.4708V16.2259H83.6033V21.4332ZM88.6669 19.8889H86.4763L85.9376 21.4332H84.8244L87.0868 15.2921H88.0564L90.3189 21.4332H89.2056L88.6669 19.8889ZM87.5537 16.7646C87.3741 17.411 87.1945 17.9497 87.015 18.3806L86.8354 18.9193H88.3078L88.1283 18.3806C87.9846 17.9497 87.8051 17.411 87.5896 16.7646H87.5537ZM93.551 19.6735C93.551 19.5298 93.5151 19.3862 93.4433 19.2784C93.3714 19.2066 93.2637 19.0989 93.156 19.0629C93.0123 18.9911 92.8687 18.9552 92.725 18.9193C92.5814 18.8834 92.4377 18.8116 92.2582 18.7756C92.0427 18.7397 91.8272 18.6679 91.6117 18.5961C91.3963 18.5243 91.2167 18.4165 91.0731 18.3088C90.9294 18.1651 90.7858 18.0215 90.7139 17.806C90.6062 17.6265 90.5703 17.3751 90.5703 17.0878C90.5703 16.7646 90.6421 16.4773 90.7498 16.2259C90.8217 16.0104 91.0012 15.7949 91.1808 15.6513C91.3604 15.4717 91.5758 15.364 91.7913 15.2921C92.0427 15.2203 92.33 15.1485 92.6173 15.1485C92.9405 15.1485 93.2637 15.1844 93.551 15.2562C93.8742 15.3281 94.1256 15.3999 94.3411 15.5076V16.4773C94.0538 16.3336 93.7665 16.2618 93.5151 16.19C93.2278 16.154 92.9764 16.1181 92.725 16.1181C92.3659 16.1181 92.1145 16.19 91.9349 16.3336C91.7554 16.4413 91.6476 16.6568 91.6476 16.9441C91.6476 17.0878 91.6836 17.1955 91.7554 17.3032C91.7913 17.411 91.899 17.4828 91.9709 17.5546C92.0786 17.6265 92.2222 17.6983 92.3659 17.7342C92.4736 17.7701 92.6173 17.806 92.7968 17.8419C93.0482 17.8778 93.2637 17.9497 93.4792 18.0215C93.6946 18.0933 93.9101 18.2011 94.0538 18.3088C94.2333 18.4524 94.377 18.632 94.4847 18.8475C94.5924 19.027 94.6284 19.3143 94.6284 19.6375C94.6284 19.9608 94.5565 20.2481 94.4488 20.4994C94.3411 20.7149 94.1615 20.9304 93.9819 21.074C93.7665 21.2536 93.5151 21.3613 93.1919 21.4332C92.9046 21.505 92.5814 21.5409 92.2222 21.5409C91.899 21.5409 91.6117 21.505 91.2885 21.4691C91.0012 21.3973 90.7498 21.2895 90.5344 21.1818V20.2121C90.8217 20.3558 91.109 20.4635 91.3604 20.4994C91.6476 20.5713 91.899 20.6072 92.1863 20.6072C92.3659 20.6072 92.5455 20.5713 92.6891 20.5713C92.8687 20.5354 93.0123 20.4635 93.12 20.3917C93.2637 20.3199 93.3355 20.2481 93.4433 20.1044C93.5151 19.9967 93.551 19.853 93.551 19.6735Z" fill="#616161"/>
</g>
<defs>
<radialGradient id="paint0_radial" cx="0" cy="0" r="1" gradientUnits="userSpaceOnUse" gradientTransform="translate(21.6401 30.3674) scale(50.7056 50.7054)">
<stop stop-color="#CA0000"/>
<stop offset="0.278431" stop-color="#A50000"/>
<stop offset="1" stop-color="#810000"/>
</radialGradient>
<linearGradient id="paint1_linear" x1="7.39949" y1="16.5314" x2="33.5735" y2="-4.21103" gradientUnits="userSpaceOnUse">
<stop stop-color="#CD131E"/>
<stop offset="0.419608" stop-color="#F79475"/>
<stop offset="0.760784" stop-color="#B41318"/>
<stop offset="0.988235" stop-color="#F99578"/>
<stop offset="1" stop-color="#FEFEFE"/>
</linearGradient>
<linearGradient id="paint2_linear" x1="18.1684" y1="24.7633" x2="40.6019" y2="-0.930866" gradientUnits="userSpaceOnUse">
<stop stop-color="#CACBCD"/>
<stop offset="0.0117647" stop-color="#CACBCD"/>
<stop offset="0.34902" stop-color="white"/>
<stop offset="0.639216" stop-color="#BFC0C4"/>
<stop offset="0.94902" stop-color="#FEFEFE"/>
<stop offset="1" stop-color="#FEFEFE"/>
</linearGradient>
<clipPath id="clip0">
<rect width="100.554" height="39.9999" fill="white"/>
</clipPath>
</defs>
</svg>
