<svg xmlns="http://www.w3.org/2000/svg" viewBox="0 0 47.22 10.13"><defs><style>.cls-1{fill:#333;}.cls-2{fill:none;stroke:#1aa86e;stroke-miterlimit:10;}.cls-3{fill:#1aa86e;}</style></defs><title>logoBibitFix_1</title><g id="Layer_2" data-name="Layer 2"><g id="Layer_1-2" data-name="Layer 1"><path class="cls-1" d="M24.73,3.5a2.5,2.5,0,0,0-.94-.7,3.37,3.37,0,0,0-1.36-.25,2.34,2.34,0,0,0-1,.19,1.9,1.9,0,0,0-.71.55l-.09,0V.8a.62.62,0,0,0-.22-.46.83.83,0,0,0-.59-.21.91.91,0,0,0-.62.21A.61.61,0,0,0,19,.8V7.15a3,3,0,0,0,.21,1.13,2.46,2.46,0,0,0,.62.91,2.86,2.86,0,0,0,1,.6,4.44,4.44,0,0,0,1.45.21,3.39,3.39,0,0,0,1.39-.26,2.87,2.87,0,0,0,1-.71,2.9,2.9,0,0,0,.59-1,4.06,4.06,0,0,0,.19-1.26V5.89a4.55,4.55,0,0,0-.19-1.33A3,3,0,0,0,24.73,3.5Zm-.94,3.27A1.76,1.76,0,0,1,23.39,8a1.37,1.37,0,0,1-1.08.46,2.14,2.14,0,0,1-1.17-.3,1,1,0,0,1-.47-.94V5.56a1.43,1.43,0,0,1,.45-1.11,1.59,1.59,0,0,1,1-.35,1.57,1.57,0,0,1,1.18.46,1.86,1.86,0,0,1,.45,1.35Z"/><path class="cls-1" d="M28.12,2.55a.91.91,0,0,0-.62.21.61.61,0,0,0-.24.46V9.3a.61.61,0,0,0,.24.46.91.91,0,0,0,.62.21.83.83,0,0,0,.59-.21.62.62,0,0,0,.22-.46V3.22a.62.62,0,0,0-.22-.46A.83.83,0,0,0,28.12,2.55Z"/><path class="cls-1" d="M28.12,0a.91.91,0,0,0-.62.21.6.6,0,0,0-.24.46V1a.6.6,0,0,0,.24.46.91.91,0,0,0,.62.21.84.84,0,0,0,.59-.21A.62.62,0,0,0,28.93,1V.66a.62.62,0,0,0-.22-.46A.84.84,0,0,0,28.12,0Z"/><path class="cls-1" d="M36.7,3.5a2.5,2.5,0,0,0-.94-.7,3.37,3.37,0,0,0-1.36-.25,2.34,2.34,0,0,0-1,.19,1.9,1.9,0,0,0-.71.55l-.09,0V.8a.62.62,0,0,0-.22-.46.83.83,0,0,0-.59-.21.91.91,0,0,0-.62.21A.61.61,0,0,0,31,.8V7.15a3,3,0,0,0,.21,1.13,2.46,2.46,0,0,0,.62.91,2.86,2.86,0,0,0,1,.6,4.44,4.44,0,0,0,1.45.21,3.39,3.39,0,0,0,1.39-.26,2.87,2.87,0,0,0,1-.71,2.9,2.9,0,0,0,.59-1,4.06,4.06,0,0,0,.19-1.26V5.89a4.55,4.55,0,0,0-.19-1.33A3,3,0,0,0,36.7,3.5Zm-.94,3.27A1.76,1.76,0,0,1,35.35,8a1.37,1.37,0,0,1-1.08.46,2.14,2.14,0,0,1-1.17-.3,1,1,0,0,1-.47-.94V5.56a1.43,1.43,0,0,1,.45-1.11,1.59,1.59,0,0,1,1-.35,1.57,1.57,0,0,1,1.18.46,1.86,1.86,0,0,1,.45,1.35Z"/><path class="cls-1" d="M40.08,0a.91.91,0,0,0-.62.21.6.6,0,0,0-.24.46V1a.6.6,0,0,0,.24.46.91.91,0,0,0,.62.21.84.84,0,0,0,.59-.21A.62.62,0,0,0,40.9,1V.66a.62.62,0,0,0-.22-.46A.84.84,0,0,0,40.08,0Z"/><path class="cls-1" d="M40.08,2.55a.91.91,0,0,0-.62.21.61.61,0,0,0-.24.46V9.3a.61.61,0,0,0,.24.46.91.91,0,0,0,.62.21.83.83,0,0,0,.59-.21.62.62,0,0,0,.22-.46V3.22a.62.62,0,0,0-.22-.46A.83.83,0,0,0,40.08,2.55Z"/><path class="cls-1" d="M47.07,8.57a.59.59,0,0,0-.48-.18,1.9,1.9,0,0,0-.46,0,2,2,0,0,1-.48,0,.53.53,0,0,1-.46-.21A1.47,1.47,0,0,1,45,7.46V4h1.06a.6.6,0,0,0,.43-.18.65.65,0,0,0,.19-.49.62.62,0,0,0-.19-.46.6.6,0,0,0-.43-.18H45V1.23h0v.07A.38.38,0,0,0,44.36,1l-2.1,2.34a.38.38,0,0,0,.29.64h.82V7.4a3,3,0,0,0,.51,2A2.07,2.07,0,0,0,45.5,10a4.69,4.69,0,0,0,.65,0,2,2,0,0,0,.54-.15,1,1,0,0,0,.38-.28.67.67,0,0,0,.14-.44A.74.74,0,0,0,47.07,8.57Z"/><path class="cls-2" d="M8.5,2.63"/><path class="cls-2" d="M7.5,2.63"/><path class="cls-3" d="M9.5.13,8,2.13h6v6H2v-6H8L6.5.13H2a2,2,0,0,0-2,2v6a2,2,0,0,0,2,2H14a2,2,0,0,0,2-2v-6a2,2,0,0,0-2-2Z"/><rect class="cls-3" x="4" y="4.13" width="2" height="2"/><rect class="cls-3" x="10" y="4.13" width="2" height="2"/></g></g></svg>