<svg xmlns="http://www.w3.org/2000/svg" xmlns:xlink="http://www.w3.org/1999/xlink" width="91.78" height="63.635" viewBox="0 0 91.78 63.635">
  <defs>
    <clipPath id="clip-path">
      <path id="Path_11-2" data-name="Path 11-2" d="M524.882,197.693a582.868,582.868,0,0,0-75.516,0q-5.163.465-5.82,4.174a89.769,89.769,0,0,0,0,34.848q.714,3.753,5.82,4.174a582.613,582.613,0,0,0,75.516,0q5.163-.465,5.82-4.174a89.769,89.769,0,0,0,0-34.848Q529.892,198.051,524.882,197.693Z" transform="translate(-441.838 -196.469)" fill="none"/>
    </clipPath>
    <clipPath id="clip-path-2">
      <path id="Path_11-2-2" data-name="Path 11-2" d="M524.882,180.693a582.868,582.868,0,0,0-75.516,0q-5.163.465-5.82,4.174c-2.276,11.5-2.276,35.855,0,47.359q.714,3.753,5.82,4.174a582.613,582.613,0,0,0,75.516,0q5.163-.465,5.82-4.174c2.276-11.5,2.276-35.855,0-47.359Q529.892,181.051,524.882,180.693Z" transform="translate(-441.838 -179.469)" fill="none"/>
    </clipPath>
  </defs>
  <g id="Group_3300" data-name="Group 3300" transform="translate(-23 -75.792)">
    <g id="Group_3289" data-name="Group 3289" transform="translate(-10 -60.208)">
      <path id="Path_11-2-4" data-name="Path 11-2" d="M524.882,197.693a582.868,582.868,0,0,0-75.516,0q-5.163.465-5.82,4.174a89.769,89.769,0,0,0,0,34.848q.714,3.753,5.82,4.174a582.613,582.613,0,0,0,75.516,0q5.163-.465,5.82-4.174a89.769,89.769,0,0,0,0-34.848Q529.892,198.051,524.882,197.693Z" transform="translate(-408.838 -42.48)" fill="#d9f3e9"/>
      <g id="Group_3280" data-name="Group 3280" transform="translate(33 153.988)">
        <g id="Group_3279" data-name="Group 3279" transform="translate(0 0)" clip-path="url(#clip-path)">
          <path id="Path_4125" data-name="Path 4125" d="M542.321,240.588a1.841,1.841,0,0,1-1.124-.383l-12.644-9.746a4.1,4.1,0,0,1-1.506-2.392l-1-4.707a10.354,10.354,0,0,0-4.25-6.382l-7.575-5.243a1.844,1.844,0,0,1-.753-1.13l-3.049-14.337a1.84,1.84,0,0,1,3.6-.765l2.9,13.622,6.975,4.828a14.02,14.02,0,0,1,5.756,8.642l1,4.706a.417.417,0,0,0,.153.244l12.552,9.676a1.833,1.833,0,0,1,.8,1.629v.007a1.84,1.84,0,0,1-1.836,1.732Z" transform="translate(-459.936 -195.829)" fill="#fff"/>
        </g>
      </g>
      <path id="Path_4126" data-name="Path 4126" d="M526.525,173.733a418.394,418.394,0,0,0-75.516,0,6.1,6.1,0,0,0-5.82,5.82,173.657,173.657,0,0,0,0,48.581q.714,5.229,5.82,5.82a418.394,418.394,0,0,0,75.516,0,6.1,6.1,0,0,0,5.82-5.82,173.657,173.657,0,0,0,0-48.581Q531.535,174.232,526.525,173.733Z" transform="translate(-409.272 -36.026)" fill="none"/>
      <g id="Group_3282" data-name="Group 3282" transform="translate(33 141.477)">
        <g id="Group_3281" data-name="Group 3281" clip-path="url(#clip-path-2)">
          <path id="Path_4127" data-name="Path 4127" d="M526.263,240.974a.742.742,0,0,0-.272-.433v.006L513.347,230.8a2.262,2.262,0,0,1-.829-1.318l-1-4.706a12.23,12.23,0,0,0-5-7.513l-7.575-5.243-4.722-22.2a4.08,4.08,0,0,0-4.84-3.141h0l-20.345,4.327a4.08,4.08,0,0,0-3.142,4.839l1.892,8.894-1.225-.626a2.809,2.809,0,0,0-3.667,3.978c.013.022.024.042.038.061s.024.038.038.056.025.038.039.055l.04.056c.013.018.026.035.039.054s.031.035.045.052l.045.052a.48.48,0,0,0,.046.051l.048.05a.614.614,0,0,0,.048.049c.016.016.033.032.05.047l.051.047.052.046.055.045.055.043.057.042.057.04.059.04.06.038.062.033.063.035.065.034,4.472,2.284a2.8,2.8,0,0,0,.769.209l.358,1.682a2.909,2.909,0,0,0-.984.85l-.011.015-.011.015-.011.015-.01.016-.023.029-.018.027-.01.015,0,.006-.018.028-.02.032v0l-.019.032-.018.036c-.021.037-.041.075-.061.113l-.033.067-.031.068-.03.068c-.019.046-.038.092-.054.138l-.027.075-.022.07c-.007.023-.014.047-.02.071l-.019.07c-.006.023-.011.047-.017.071s-.01.047-.015.071-.01.047-.014.071c-.007.047-.015.093-.021.139,0,.024-.006.047-.008.071,0,.046-.007.094-.01.142,0,.023,0,.048-.013.052,0,.046,0,.094,0,.141,0,.023,0,.047,0,.07a.372.372,0,0,0,0,.071.723.723,0,0,0,.007.074l.008.074a.379.379,0,0,0,.01.074l.015.071.016.072.015.072.015.072a3.125,3.125,0,0,0,.105.336l.026.066a.618.618,0,0,0,.028.065c.01.021.018.043.029.063.018.043.04.085.06.127l.034.061a2.915,2.915,0,0,0,1.231,1.192l1.173.6.026.123a2.932,2.932,0,0,0-2.624,1.236l-.01.015-.041.061-.019.029-.01.015-.013.024-.01.015-.007.011v0l-.018.031-.024.035-.021.029,0,.007,0,.009-.013.024v.007l-.018.034c-.012.023-.024.046-.034.068l-.031.068-.03.069c-.01.022-.018.046-.028.068l-.022.069-.029.068-.022.071c-.007.022-.014.046-.021.069s-.012.047-.018.071-.011.046-.017.07-.01.048-.015.071l-.014.071c0,.026-.007.049-.01.074s-.007.047-.01.071-.006.047-.008.071l-.006.071c0,.024,0,.046,0,.071s0,.047,0,.071,0,.046-.014.036c0,.024,0,.047,0,.071s0,.047,0,.071a.477.477,0,0,0,0,.074.555.555,0,0,0,.007.074.676.676,0,0,0,.008.074.359.359,0,0,0,.01.073l.016.072.015.072.015.072.015.071h.005l.015.072a.472.472,0,0,1,.02.071c.007.027.016.048.021.071s.018.044.023.067a.618.618,0,0,1,.023.066l.025.066.028.065.029.065c.01.024.019.043.029.063s.021.043.032.063.023.042.033.063.022.04.034.061l.035.06c.013.021.025.04.038.06s.025.04.04.06l.043.058.042.056.043.057c.015.02.031.037.046.055s.03.036.046.054.032.038.048.053l.049.052.052.052.052.049.054.049c.018.016.036.029.054.048l.056.046.06.045c.018.015.039.029.059.043l.06.043.061.039a.615.615,0,0,0,.063.041l.065.038.065.037.067.035,1.673.853a2.925,2.925,0,0,0-2.735,1.226l-.01.015-.039.058-.005.008-.015.023-.01.015,0,.007-.015.023-.01.016-.018.031-.025.039-.018.031,0,.007-.018.035v0l-.018.034-.034.068-.032.068-.029.068-.029.066-.024.072a2.931,2.931,0,0,0,1.423,3.6l4.539,2.315c.013.007.027.011.04.018l.944,4.437a4.079,4.079,0,0,0,4.838,3.143h0l15.713-3.342.314.719a8.915,8.915,0,0,0,1.13,1.9c.035.045.069.088.1.129s.071.087.106.128.072.085.109.127h.005l.111.127c.038.04.074.082.113.122s.077.08.116.121.077.079.117.118.08.077.12.116l.121.113.124.11.126.109c.042.036.085.071.127.106l.13.1c.043.035.09.068.132.1s.088.066.133.1a8.906,8.906,0,0,0,5.682,1.695l1.874,1.6.019.015.019.016a1.73,1.73,0,0,0,1.447.345l18.036-3.836A.741.741,0,0,0,526.263,240.974Z" transform="translate(-447.286 -181.349)" fill="#9fd7c2"/>
        </g>
      </g>
      <g id="Group_3284" data-name="Group 3284" transform="translate(33 141.477)">
        <g id="Group_3283" data-name="Group 3283" clip-path="url(#clip-path-2)">
          <g id="Mask_Group_10" data-name="Mask Group 10" transform="translate(18.865 1.56)">
            <g id="Group_19" data-name="Group 19">
              <path id="Path_54" data-name="Path 54" d="M481.022,232.865a4.079,4.079,0,0,0,4.838,3.143h0l19.9-4.232a4.536,4.536,0,0,0,3.494-5.381v0l-8.841-41.571a4.08,4.08,0,0,0-4.84-3.141h0l-20.345,4.327a4.08,4.08,0,0,0-3.142,4.839h0Z" transform="translate(-468.665 -181.589)" fill="#7fd5b4" stroke="#00ab6b" stroke-width="1"/>
              <path id="Path_55" data-name="Path 55" d="M494.779,212.36a4.683,4.683,0,1,0,5.555,3.606h0A4.688,4.688,0,0,0,494.779,212.36Z" transform="translate(-473.702 -189.687)" fill="#082854"/>
              <path id="Path_56" data-name="Path 56" d="M497.872,218.132l.25,1.178a.469.469,0,0,1-.361.556l-.93.2a.469.469,0,0,1-.556-.361h0l-.25-1.178a1.5,1.5,0,1,1,2.016-.65,1.524,1.524,0,0,1-.167.257Z" transform="translate(-474.795 -190.594)" fill="#c4e3c9"/>
              <path id="Path_57" data-name="Path 57" d="M475.9,207.517a2.81,2.81,0,0,1,1.4,3.343l-.006.016h0l-.013.042-.014.04-.006.016-.021.058h0a2.854,2.854,0,0,1-.117.262,2.81,2.81,0,0,1-3.655,1.283L469,210.294l-.065-.034-.063-.035h0l-.061-.033h0l-.06-.038h0l-.059-.04h0l-.057-.04h0l-.057-.043h0l-.055-.043h0l-.055-.045h0l-.052-.046h0l-.051-.047h0c-.017-.015-.034-.031-.05-.047h0a.6.6,0,0,1-.048-.049h0l-.048-.05h0a.488.488,0,0,1-.046-.051h0l-.045-.052h0c-.014-.018-.029-.035-.045-.052h0c-.013-.02-.026-.037-.039-.054h0c-.014-.018-.028-.037-.04-.056h0c-.014-.018-.027-.04-.039-.055h0c-.013-.018-.026-.038-.038-.056h0c-.013-.019-.025-.039-.038-.061h0a2.809,2.809,0,0,1,3.667-3.978l4.346,2.221Z" transform="translate(-467.471 -187.766)" fill="#fee3c7"/>
              <path id="Path_58" data-name="Path 58" d="M540.732,242.985l-12.644-9.746a2.261,2.261,0,0,1-.829-1.318l-1-4.706a12.231,12.231,0,0,0-5-7.513l-14.006-9.694h0l-.032-.021h0l-.033-.021h0l-.033-.018h0l-.034-.021h0l-.033-.018h0l-.035-.014h0l-.035-.018h0l-.035-.015a1.423,1.423,0,0,0-1.783.626l-.172.307a5.248,5.248,0,0,0,1.033,6.412l.087.078h0c.029.026.059.051.091.076l5.392,4.532h0l.029.025h0l.029.026h0l.028.027a2.05,2.05,0,0,1,.547,2.114l-2.836,8.9a8.908,8.908,0,0,0,.325,6.275l.685,1.568a8.917,8.917,0,0,0,1.13,1.9c.035.045.069.088.1.129h0c.035.044.071.087.106.128h0c.036.043.072.085.109.127h.005l.111.127h0c.038.04.074.082.113.122h0c.038.041.077.08.116.121h0c.039.039.077.079.117.118h0c.04.04.08.077.12.116h0l.121.113h0l.124.11h0l.126.109h0c.042.036.085.071.127.106h0l.13.1h0c.043.034.09.067.132.1h0c.043.034.088.066.133.1a8.9,8.9,0,0,0,5.682,1.695l1.874,1.6.019.015h0l.019.016h0a1.73,1.73,0,0,0,1.447.345l18.036-3.836a.74.74,0,0,0,.3-1.311Z" transform="translate(-477.212 -189.026)" fill="#fee3c7"/>
              <g id="Group_18" data-name="Group 18" transform="translate(5.578 26.339)">
                <path id="Path_59" data-name="Path 59" d="M483.863,220.019a2.932,2.932,0,0,1,1.563,3.064v.007l0,.025-.006.027-.007.042-.006.028-.009.043-.006.026-.013.054,0,.011-.015.059,0,.011-.018.064h0c-.021.069-.044.137-.071.2h0c-.009.023-.018.045-.027.067h0c-.028.068-.06.136-.094.2s-.067.126-.1.187h0l-.068.107h0l-.024.035h0l-.024.034h0l-.049.067h0l-.026.033h0l-.051.065h0l-.031.04h0l-.027.031h0c-.026.032-.054.062-.082.093h0a2.935,2.935,0,0,1-3.335.656l-4.665-2.382a2.915,2.915,0,0,1-1.231-1.192h0l-.034-.061h0c-.021-.042-.043-.084-.06-.127h0c-.01-.021-.019-.043-.029-.063h0a.629.629,0,0,1-.028-.065h0l-.026-.066h0a3.125,3.125,0,0,1-.105-.336h0l-.015-.072-.015-.072h0l-.015-.072h0l-.015-.071h0a.377.377,0,0,1-.01-.074h0l-.008-.074h0a.706.706,0,0,1-.007-.074h0a.367.367,0,0,1,0-.071h0c0-.023,0-.047,0-.07h0c0-.047,0-.095,0-.141h0c.01,0,.011-.029.013-.051h0c0-.047.006-.1.01-.142h0c0-.024.005-.047.008-.071h0c.006-.046.013-.092.021-.139h0c0-.024.009-.047.014-.071h0c0-.024.01-.047.015-.071h0c.006-.024.011-.048.017-.071h0l.019-.07h0c.006-.024.013-.047.02-.071h0l.022-.07h0l.026-.075h0c.016-.046.035-.093.054-.138h0l.03-.068h0l.031-.068h0l.033-.067h0c.02-.038.04-.077.061-.113h0l.018-.036h0l.019-.032v0h0l.02-.032h0l.018-.028,0-.006h0l.01-.015h0l.018-.027.024-.029.01-.016.01-.015.012-.015.011-.015a2.931,2.931,0,0,1,3.707-.893l4.536,2.318Zm-8.719.992-.015-.072Z" transform="translate(-475.051 -217.378)" fill="#fee3c7"/>
              </g>
              <path id="Path_60" data-name="Path 60" d="M483.372,228.521a2.931,2.931,0,0,1,1.551,3.137l0,.017-.007.04-.006.024v.007l-.009.041-.008.033-.009.036-.012.043-.006.023-.014.048-.007.021c-.005.017-.01.035-.016.052l-.005.015-.02.058,0,.008-.023.06-.005.014-.022.055-.005.012-.025.057,0,.006h0l-.028.062h0l-.033.066-.02.038-.021.038-.021.037-.021.037-.022.037h0l-.044.071-.024.035h0l-.024.035h0l-.024.035h0l-.049.067h0l-.026.033h0l-.025.033h0l-.027.032h0c-.026.032-.053.063-.081.093h0c-.046.051-.093.1-.143.147h0l-.059.057h0a2.965,2.965,0,0,1-.521.38h0l-.067.038h0l-.035.019h0c-.059.03-.119.06-.18.086h0l-.036.016h0l-.037.015h0l-.074.029h0l-.038.014h0l-.038.013h0l-.038.013h0l-.038.013h0l-.04.009-.038.008-.04.008h0l-.039.008-.039.009-.2.041-.027.006h0l-.028.006-.027.006-.027.006h0l-.029.006-.027.006h0l-.027.006h0l-.027.006-.027.006h0l-.027,0H482.2l-.031,0h-.339l-.029,0h0l-.028,0-.029,0h-.029l-.029,0h0l-.029,0h0l-.028,0h0l-.029,0h0l-.028-.005-.029,0-.028-.005h0l-.029-.005h0l-.028-.005-.026-.007h0l-.031-.006h0l-.029-.007-.029-.007h0l-.023-.008h0l-.032-.01-.027-.007h0l-.029-.009h0l-.028-.007-.028-.009h0l-.028-.009-.029-.01h0l-.028-.009h0l-.028-.01-.027-.01-.028-.01h0l-.028-.011h0l-.027-.011-.028-.011-.027-.012-.027-.012-.027-.013-4.676-2.383-.067-.035-.065-.037-.065-.038a.618.618,0,0,1-.063-.041l-.061-.039-.06-.043c-.02-.015-.04-.029-.059-.043l-.06-.045-.056-.046c-.018-.018-.036-.032-.054-.048l-.054-.049-.052-.049-.051-.052-.049-.052c-.015-.015-.032-.035-.048-.053s-.031-.036-.046-.054-.03-.035-.046-.055l-.043-.057-.042-.056-.043-.058c-.015-.019-.026-.04-.04-.06s-.026-.039-.038-.059l-.035-.061h0c-.012-.021-.024-.041-.034-.061s-.022-.042-.033-.063l-.032-.063c-.01-.021-.019-.039-.029-.063l-.029-.065h0l-.028-.065h0l-.025-.066h0a.618.618,0,0,0-.023-.066h0c-.005-.023-.015-.044-.023-.067h0c-.005-.023-.014-.044-.021-.071a.479.479,0,0,0-.02-.071h0l-.015-.072h-.005l-.015-.071h0l-.015-.072h0l-.015-.072h0l-.016-.072h0a.359.359,0,0,1-.01-.073h0a.692.692,0,0,1-.008-.074h0a.556.556,0,0,1-.007-.074h0a.464.464,0,0,1,0-.074h0c0-.024,0-.047,0-.071h0c0-.024,0-.047,0-.071h0c.013.01.013-.013.014-.036h0c0-.024,0-.046,0-.071h0c0-.024,0-.047,0-.071h0l.006-.071h0c0-.024.005-.047.008-.071h0c0-.024.006-.047.01-.071h0c0-.025.007-.049.01-.074h0l.014-.071h0c0-.024.01-.047.015-.071h0c.005-.024.011-.047.017-.07h0c.005-.024.012-.047.018-.071h0c.007-.023.013-.047.021-.069l.022-.071h0l.029-.068.022-.069h0c.01-.023.018-.046.028-.068h0l.03-.069h0l.031-.068c.01-.023.022-.046.034-.068l.018-.034v-.007l.013-.024,0-.009,0-.007.021-.029h0l.024-.035h0l.018-.031v0l.007-.011.01-.015.013-.024.01-.015.019-.029h0l.041-.061.01-.015a2.932,2.932,0,0,1,3.6-.991l4.67,2.383Z" transform="translate(-469.343 -193.282)" fill="#fee3c7"/>
              <path id="Path_61" data-name="Path 61" d="M483.393,237.173a2.935,2.935,0,0,1,1.523,3.269l-.007.025-.012.049-.007.024h0l-.01.038-.012.043-.007.025-.015.045-.008.025-.016.046-.006.019-.021.056,0,.012-.023.057-.005.013-.025.057-.006.013-.027.059,0,.007-.03.06h0l-.019.038h0l-.021.038h0l-.024.043h0l-.021.037h0l-.021.036h0l-.023.035h0l-.023.036h0l-.023.035h0l-.024.035h0l-.024.035h0l-.024.034h0l-.025.034h0l-.025.033h0l-.025.032h0l-.027.032h0l-.031.029h0l-.026.031-.027.032h0l-.027.031h0l-.028.029h0l-.029.03h0l-.028.029h0l-.029.029h0l-.029.029h0l-.029.027h0l-.03.027h0l-.031.026h0l-.03.027h0l-.032.026h0l-.032.026h0l-.031.025h0l-.032.024h0l-.032.024h0l-.032.024h0l-.033.023h0l-.032.022h0l-.034.022h0l-.034.022h0l-.034.021h0l-.034.021h0a2.931,2.931,0,0,1-2.833.089l-4.539-2.315a2.931,2.931,0,0,1-1.423-3.6l.024-.072h0l.029-.066h0l.029-.068h0l.032-.068h0l.034-.068h0l.018-.034v0h0l.018-.035h0l0-.007.018-.031h0l.025-.039h0l.018-.031.01-.016.015-.023h0l0-.007.01-.015h0l.015-.023.005-.008.039-.058.01-.015a2.931,2.931,0,0,1,3.6-1l4.676,2.386Z" transform="translate(-469.35 -195.568)" fill="#fee3c7"/>
            </g>
          </g>
        </g>
      </g>
    </g>
  </g>
</svg>
