<svg width="570" height="432" viewBox="0 0 570 432" fill="none" xmlns="http://www.w3.org/2000/svg">
<g filter="url(#filter0_d)">
<rect x="393" y="50" width="125" height="80" rx="10" fill="white"/>
<path fill-rule="evenodd" clip-rule="evenodd" d="M415 86.3483L421.834 95.0849L415 100.824V86.3483Z" fill="#F15A23"/>
<path fill-rule="evenodd" clip-rule="evenodd" d="M417.749 100.824L422.891 96.4645L426.445 100.824H417.749Z" fill="#F15A23"/>
<path fill-rule="evenodd" clip-rule="evenodd" d="M415 81.6765L416.783 83.9627L424.116 93.2486L426.492 91.3311C426.492 91.3311 424.519 88.9776 423.195 86.3513C420.605 81.2167 422.438 78.0198 422.438 78.0198H415V81.6765Z" fill="#F15A23"/>
<path fill-rule="evenodd" clip-rule="evenodd" d="M425.161 94.6789L427.581 92.6533C427.581 92.6533 429.892 95.7364 432.572 96.4641C436.083 97.4177 437.638 95.0847 437.638 95.0847V100.824H429.925L431.664 99.2997C431.664 99.2997 430.757 99.9128 428.538 98.3549C427.228 97.4354 425.161 94.6789 425.161 94.6789Z" fill="#F15A23"/>
<path fill-rule="evenodd" clip-rule="evenodd" d="M425.382 78C425.382 78 424.61 79.0658 425.159 81.6734C425.747 84.4606 428.082 87.4106 428.077 87.3445C428.077 87.3445 428.227 84.4153 429.923 82.6964C433.538 79.0325 437.636 81.2136 437.636 81.2136V78.0167L425.382 78Z" fill="#F15A23"/>
<path fill-rule="evenodd" clip-rule="evenodd" d="M437.637 85.0761C437.637 85.0761 435.351 83.0914 433.363 83.0914C430.82 83.0914 429.433 85.3161 429.433 86.93C429.433 89.2806 430.546 90.5868 431.663 91.7193C433.269 93.3467 435.223 95.102 437.637 93.6893C437.637 91.0155 437.637 85.0761 437.637 85.0761Z" fill="#F15A23"/>
<path fill-rule="evenodd" clip-rule="evenodd" d="M463.675 78.2404H469.07C469.07 78.2404 473.849 85.5744 476.198 88.6046C478.546 91.6347 481.075 95.0861 481.075 95.0861C481.075 95.0861 481.075 85.0774 481.075 79.8828C481.075 79.2262 479.374 78.2404 479.374 78.2404H485.595C485.595 78.2404 483.553 79.0903 483.553 79.8828C483.553 86.3495 483.553 102 483.553 102C483.553 102 481.595 100.899 479.374 98.2834C476.878 95.3444 468 83.4787 468 83.4787C468 83.4787 468 94.6803 468 98.8475C468 99.6345 469.702 100.825 469.702 100.825H463.675C463.675 100.825 465.327 99.6249 465.327 98.8475C465.327 93.2468 465.327 85.0774 465.327 79.8828C465.327 79.1849 463.675 78.2404 463.675 78.2404Z" fill="#005E6A"/>
<path fill-rule="evenodd" clip-rule="evenodd" d="M489.076 78.2402H496C496 78.2402 494.141 79.1328 494.141 79.8827C494.141 85.0773 494.141 93.6905 494.141 98.8473C494.141 99.6668 496 100.825 496 100.825H489.076C489.076 100.825 490.807 99.6404 490.807 98.8473C490.807 92.6546 490.807 85.0773 490.807 79.8827C490.807 79.1617 489.076 78.2402 489.076 78.2402Z" fill="#005E6A"/>
<path fill-rule="evenodd" clip-rule="evenodd" d="M443.303 78.2404C443.303 78.2404 445.098 79.1475 445.098 79.8828C445.098 85.0774 445.098 92.6547 445.098 98.8475C445.098 99.6536 443.303 100.825 443.303 100.825C443.303 100.825 452.271 100.825 453.561 100.825C454.202 100.825 461.382 99.6351 461.382 94.0246C461.382 88.414 455.804 87.8887 455.804 87.8887C455.804 87.8887 459.202 86.9313 459.202 83.0927C459.202 78.9551 454.202 78.2404 453.561 78.2404C452.228 78.2404 443.303 78.2404 443.303 78.2404ZM448.752 87.5169V80.4562C448.752 80.4562 451.726 80.4562 452.919 80.4562C453.561 80.4562 455.804 81.2148 455.804 84.0295C455.804 86.3495 453.561 87.5169 452.919 87.5169C451.466 87.5169 448.752 87.5169 448.752 87.5169ZM448.752 89.3687C448.752 89.3687 452.919 89.3687 453.561 89.3687C454.202 89.3687 457.984 90.3645 457.984 93.6906C457.984 97.0817 454.202 98.2834 453.561 98.2834C452.919 98.2834 448.752 98.2834 448.752 98.2834V89.3687Z" fill="#005E6A"/>
</g>
<g filter="url(#filter1_d)">
<rect x="393" y="162" width="125" height="80" rx="10" fill="white"/>
<path d="M429.429 189C433.255 189.069 437.024 189.955 440.493 191.602L440.673 191.681L440.738 191.865V191.878C441.046 192.833 441.315 193.787 441.528 194.743C441.741 195.698 441.926 196.652 442.054 197.608C442.233 198.851 442.336 200.104 442.363 201.36V202.825C442.277 206.054 441.728 209.253 440.733 212.32L440.668 212.504L440.488 212.583C437.099 214.153 433.422 214.977 429.699 215H429.429V214.111H429.712C433.249 214.09 436.743 213.322 439.974 211.855C441.449 207.306 441.87 202.472 441.206 197.73C441.078 196.815 440.897 195.872 440.679 194.944C440.487 194.08 440.243 193.204 439.974 192.342C436.662 190.795 433.072 189.962 429.429 189.896V189ZM418.896 191.615C422.125 189.901 425.711 189.004 429.351 189H429.429V189.889H429.351C425.903 189.894 422.504 190.732 419.435 192.335C418.141 195.363 417.44 198.619 417.369 201.921C417.341 205.338 418.042 208.72 419.424 211.834C422.576 213.27 425.979 214.044 429.431 214.109V214.998C425.802 214.936 422.226 214.113 418.923 212.581L418.692 212.359C417.278 209.208 416.531 205.788 416.5 202.322V201.903C416.576 198.432 417.321 195.01 418.694 191.833L418.896 191.615Z" fill="#003399"/>
<path fill-rule="evenodd" clip-rule="evenodd" d="M429.663 209.259C429.679 206.743 429.414 204.233 428.872 201.778C428.193 199.554 425.613 198.286 425.563 195.84C425.55 195.296 425.646 194.754 425.845 194.249C426.044 193.743 426.341 193.284 426.719 192.899C427.097 192.514 427.547 192.211 428.043 192.008C428.539 191.805 429.07 191.707 429.604 191.72C430.669 191.685 431.706 192.073 432.496 192.803C433.286 193.533 433.766 194.547 433.837 195.631C434.055 198.023 431.207 199.633 430.462 201.915C429.931 204.325 429.663 206.788 429.663 209.259Z" fill="#003399"/>
<path fill-rule="evenodd" clip-rule="evenodd" d="M430.649 208.656C430.452 206.612 430.617 204.548 431.135 202.562C431.393 201.53 431.904 200.582 432.619 199.806C433.335 199.031 434.233 198.453 435.227 198.128C435.641 198.077 436.06 198.119 436.456 198.252C436.851 198.384 437.213 198.603 437.517 198.894C437.82 199.184 438.057 199.539 438.212 199.933C438.366 200.328 438.433 200.751 438.409 201.175C438.182 202.059 437.686 202.847 436.992 203.426C436.298 204.005 435.443 204.345 434.548 204.398C433.522 204.49 433.086 205.326 432.444 205.811C434.688 205.644 436.811 204.713 438.474 203.168C438.667 204.188 438.79 205.908 438.012 206.491C436.473 207.603 435.049 206.7 433.241 207.224C432.336 207.621 431.469 208.1 430.649 208.656Z" fill="#003399"/>
<path fill-rule="evenodd" clip-rule="evenodd" d="M428.687 208.656C428.888 206.612 428.727 204.549 428.213 202.562C427.955 201.531 427.445 200.583 426.729 199.808C426.014 199.032 425.117 198.455 424.123 198.13C423.709 198.077 423.289 198.117 422.893 198.249C422.496 198.38 422.133 198.6 421.829 198.891C421.525 199.182 421.288 199.537 421.135 199.932C420.981 200.328 420.915 200.752 420.941 201.177C421.169 202.061 421.665 202.849 422.358 203.427C423.052 204.006 423.907 204.347 424.802 204.399C425.816 204.491 426.264 205.327 426.906 205.812C424.662 205.648 422.537 204.717 420.876 203.17C420.683 204.19 420.56 205.909 421.338 206.492C422.877 207.604 424.301 206.702 426.11 207.225C427.009 207.622 427.872 208.101 428.687 208.656Z" fill="#003399"/>
<path fill-rule="evenodd" clip-rule="evenodd" d="M435.526 211.888V211.536L435.782 211.47L435.526 211.078V210.424L436.68 212.059L436.269 212.164L435.986 211.758L435.526 211.888ZM435.526 210.424V211.078L435.346 210.817L435.269 211.602L435.525 211.536V211.888L435.229 211.954L435.179 212.438L434.768 212.543L435.036 210.411L435.447 210.306L435.525 210.424H435.526ZM431.703 213.026V212.686H431.793C431.884 212.681 431.973 212.668 432.062 212.647C432.113 212.633 432.159 212.6 432.19 212.555C432.225 212.507 432.243 212.447 432.24 212.386C432.236 212.327 432.213 212.271 432.176 212.225C432.143 212.184 432.098 212.156 432.048 212.146C431.933 212.132 431.816 212.132 431.701 212.146V211.806C431.804 211.806 431.869 211.793 431.894 211.793C431.955 211.779 432.01 211.747 432.052 211.701C432.072 211.681 432.086 211.655 432.093 211.626C432.1 211.598 432.099 211.568 432.09 211.54C432.092 211.513 432.088 211.485 432.076 211.46C432.065 211.435 432.047 211.413 432.025 211.397C432.007 211.373 431.982 211.355 431.955 211.343C431.927 211.331 431.897 211.327 431.867 211.331C431.811 211.331 431.755 211.335 431.7 211.344V211.004C431.802 210.99 431.906 210.99 432.008 211.004C432.085 211.006 432.161 211.028 432.226 211.07C432.293 211.102 432.351 211.152 432.394 211.213C432.435 211.286 432.461 211.366 432.471 211.449C432.48 211.539 432.463 211.63 432.421 211.71C432.377 211.793 432.31 211.862 432.228 211.906C432.341 211.924 432.446 211.981 432.523 212.067C432.598 212.145 432.644 212.247 432.651 212.356C432.651 212.448 432.638 212.541 432.613 212.63C432.576 212.714 432.522 212.79 432.455 212.852C432.378 212.906 432.291 212.946 432.199 212.97C432.134 212.983 431.969 212.995 431.725 213.021L431.703 213.026ZM434.128 211.927L434.526 211.979C434.526 212.174 434.455 212.362 434.328 212.507C434.2 212.652 434.024 212.743 433.834 212.763C433.715 212.785 433.594 212.781 433.478 212.754C433.361 212.726 433.251 212.674 433.154 212.602C432.944 212.43 432.806 212.182 432.77 211.909C432.709 211.634 432.755 211.345 432.898 211.104C432.965 210.998 433.053 210.909 433.157 210.841C433.261 210.773 433.378 210.729 433.5 210.711C433.713 210.666 433.934 210.708 434.116 210.828C434.233 210.906 434.322 211.018 434.373 211.15L434.001 211.312C433.967 211.223 433.903 211.149 433.821 211.102C433.735 211.052 433.635 211.034 433.538 211.051C433.473 211.063 433.411 211.089 433.357 211.128C433.302 211.166 433.256 211.215 433.222 211.273C433.142 211.44 433.124 211.63 433.171 211.809C433.194 212 433.275 212.178 433.402 212.32C433.452 212.366 433.511 212.399 433.576 212.417C433.64 212.435 433.708 212.438 433.774 212.425C433.87 212.4 433.956 212.344 434.017 212.264C434.087 212.163 434.126 212.044 434.129 211.921L434.128 211.927ZM431.703 211.012V211.352C431.652 211.352 431.6 211.365 431.535 211.365L431.305 211.391L431.343 211.848L431.611 211.822C431.642 211.825 431.673 211.82 431.701 211.809V212.149H431.689L431.381 212.175L431.418 212.712L431.701 212.686V213.026L431.06 213.092L430.88 211.091L431.67 211.025C431.675 211.02 431.681 211.016 431.687 211.014C431.694 211.012 431.701 211.011 431.708 211.012H431.703ZM429.226 212.333V211.993C429.287 211.995 429.348 211.987 429.406 211.967C429.456 211.949 429.501 211.917 429.534 211.876C429.56 211.826 429.573 211.77 429.572 211.714C429.578 211.682 429.576 211.649 429.568 211.617C429.559 211.585 429.543 211.556 429.522 211.531C429.483 211.48 429.426 211.447 429.364 211.439C429.326 211.439 429.286 211.426 429.223 211.426V211.086C429.348 211.078 429.474 211.091 429.595 211.125C429.71 211.152 429.81 211.222 429.877 211.321C429.959 211.434 429.995 211.574 429.98 211.713C429.98 211.821 429.958 211.928 429.915 212.027C429.87 212.101 429.813 212.167 429.748 212.224C429.677 212.26 429.605 212.29 429.53 212.315C429.43 212.329 429.329 212.335 429.228 212.333H429.226ZM429.226 211.091V211.431H429.068L428.875 211.418V211.993H429.221V212.333H428.863L428.85 213.092L428.452 213.079L428.49 211.078L429.122 211.091H429.226ZM425.518 212.137V211.523C425.594 211.54 425.671 211.549 425.749 211.548C425.797 211.54 425.842 211.517 425.877 211.482C425.909 211.44 425.931 211.391 425.942 211.339C425.953 211.281 425.944 211.221 425.917 211.17C425.884 211.118 425.834 211.081 425.776 211.065C425.692 211.042 425.606 211.025 425.52 211.013V210.673L425.687 210.699C425.838 210.72 425.986 210.764 426.124 210.83C426.214 210.882 426.282 210.966 426.316 211.065C426.357 211.167 426.365 211.28 426.342 211.387C426.323 211.522 426.254 211.643 426.149 211.727C426.029 211.814 425.884 211.855 425.738 211.845C425.808 211.9 425.869 211.966 425.918 212.041C425.986 212.157 426.042 212.28 426.086 212.407L426.253 212.839L425.792 212.747L425.586 212.264C425.561 212.225 425.548 212.172 425.521 212.133L425.518 212.137ZM426.647 210.894L427.031 210.933L426.941 212.019C426.928 212.188 426.928 212.307 426.928 212.341C426.938 212.421 426.974 212.495 427.031 212.551C427.101 212.616 427.192 212.653 427.287 212.655C427.376 212.671 427.467 212.652 427.543 212.604C427.603 212.567 427.648 212.51 427.671 212.443C427.684 212.377 427.696 212.259 427.709 212.103L427.799 210.991L428.197 211.03L428.107 212.075C428.107 212.249 428.081 212.421 428.03 212.586C428.006 212.674 427.962 212.754 427.902 212.821C427.83 212.892 427.742 212.941 427.646 212.965C427.525 213.002 427.398 213.011 427.274 212.991C427.127 212.987 426.983 212.952 426.851 212.886C426.768 212.839 426.694 212.776 426.633 212.702C426.586 212.631 426.555 212.551 426.542 212.467C426.529 212.297 426.529 212.126 426.542 211.956L426.647 210.894ZM423.53 211.482L423.607 211.16L424.442 211.382L424.236 212.154C424.111 212.228 423.97 212.268 423.825 212.272C423.666 212.286 423.506 212.273 423.351 212.233C423.169 212.192 423.001 212.102 422.864 211.972C422.742 211.846 422.658 211.688 422.621 211.515C422.591 211.332 422.6 211.144 422.646 210.965C422.694 210.775 422.786 210.6 422.915 210.454C423.035 210.325 423.192 210.238 423.364 210.206C423.544 210.176 423.728 210.19 423.902 210.246C424.076 210.302 424.234 210.399 424.364 210.528C424.47 210.666 424.52 210.838 424.505 211.012L424.107 210.986C424.11 210.887 424.078 210.789 424.017 210.712C423.949 210.634 423.86 210.577 423.761 210.551C423.688 210.529 423.612 210.523 423.537 210.532C423.462 210.54 423.39 210.565 423.324 210.603C423.181 210.711 423.08 210.869 423.042 211.047C422.979 211.23 422.984 211.43 423.054 211.61C423.089 211.678 423.138 211.738 423.198 211.785C423.258 211.833 423.327 211.866 423.4 211.884C423.484 211.905 423.57 211.914 423.656 211.909C423.739 211.895 423.821 211.873 423.9 211.843L423.965 211.595L423.528 211.478L423.53 211.482ZM425.518 210.677L424.851 210.559L424.518 212.535L424.902 212.601L425.043 211.777L425.133 211.79C425.198 211.801 425.263 211.818 425.325 211.842C425.363 211.873 425.397 211.908 425.428 211.946C425.441 211.985 425.479 212.051 425.518 212.143V211.529C425.48 211.529 425.441 211.516 425.39 211.516L425.107 211.465L425.182 210.954L425.49 211.005H425.515L425.518 210.677Z" fill="#003399"/>
<path fill-rule="evenodd" clip-rule="evenodd" d="M486.659 208.224V204.536H488.252V198.049L486.662 201.293V193.197H492.91L494.5 211.847H488.252V208.224H486.659ZM486.659 193.197V201.293L485.069 204.536H486.659V208.224H483.656L482.425 211.652H478.551V207.388L482.874 197.881H481.988L484.451 193.199L486.659 193.197ZM478.551 199.409L480.489 194.726L478.551 193.628V199.409ZM463.144 197.617C463.233 197.102 463.233 196.575 463.144 196.061V197.617ZM478.551 193.628V199.409L478.295 200.037C474.471 197.251 468.827 199.789 468.506 202.731C468.19 205.804 470.482 208.29 476.344 206.437L474.331 211.93C466.595 212.807 463.592 209.675 463.144 206.031V203.961C463.261 203.022 463.493 202.102 463.836 201.222C467.647 191.57 473.83 193.74 476.177 193.558L476.523 192.485L478.549 193.636L478.551 193.628ZM478.551 207.386L476.613 211.65H478.551V207.386ZM456.191 211.532C460.335 210.694 464.402 205.62 460.322 201.579C461.058 201.182 461.695 200.618 462.184 199.932C462.673 199.245 463.002 198.453 463.145 197.617V196.061C462.988 195.175 462.512 194.381 461.81 193.834C461.108 193.287 460.232 193.028 459.352 193.105L456.191 193.039V196.623H457.499C458.898 196.623 458.718 200.311 456.973 200.311H456.183V203.139C458.068 203.505 457.401 206.173 456.183 206.997V211.534L456.191 211.532ZM463.145 203.959V206.025C463.068 205.339 463.067 204.647 463.144 203.961L463.145 203.959ZM450.727 192.922L448.174 197.97L449.315 197.878L446.236 211.65H455.049C455.433 211.65 455.815 211.61 456.191 211.532V206.995C455.986 207.15 455.74 207.236 455.486 207.243H452.325L453.377 203.097H455.748C455.899 203.095 456.049 203.108 456.197 203.136V200.311H453.984L454.869 196.623H456.191V193.039L450.727 192.922Z" fill="#003399"/>
</g>
<g filter="url(#filter2_d)">
<rect x="222" y="63" width="138.805" height="80" rx="10" fill="white"/>
<path d="M254.414 93C259.943 93 264.424 97.4771 264.424 103C264.424 108.523 259.943 113 254.414 113C248.884 113 244.402 108.523 244.402 103C244.402 97.4771 248.884 93 254.414 93Z" fill="#61ACD3"/>
<path fill-rule="evenodd" clip-rule="evenodd" d="M258.423 104.455V104.999C258.423 105.249 258.209 105.418 258.003 105.418C257.753 105.418 257.584 105.213 257.584 104.999V104.455C257.459 104.33 257.334 104.169 257.334 103.955C257.334 103.58 257.628 103.295 258.003 103.295C258.378 103.295 258.673 103.58 258.673 103.955C258.629 104.169 258.548 104.33 258.423 104.455ZM257.834 100.504H251.325C251.074 100.504 250.914 100.29 250.914 100.084C250.914 99.8791 251.119 99.6652 251.325 99.6652H257.913C257.878 98.8362 257.253 98.1671 256.458 98.0422C254.584 97.712 252.7 97.712 250.825 98.0422C249.78 98.2116 248.995 99.0406 248.825 100.084C248.531 102.082 248.531 104.08 248.825 106.087C248.995 107.166 249.869 108.004 250.95 108.129C253.289 108.415 255.628 108.415 257.913 108.129C258.958 108.004 259.798 107.246 260.003 106.212C260.209 105.043 260.298 103.875 260.253 102.751C260.173 101.458 259.128 100.459 257.834 100.504Z" fill="white"/>
<path d="M291.786 104.966C289.838 104.966 288.593 103.606 288.593 101.794C288.593 99.9726 289.838 98.6224 291.786 98.6224C293.726 98.6224 294.971 99.9726 294.971 101.794C294.971 103.606 293.726 104.966 291.786 104.966ZM291.786 95.8673C288.113 95.8673 285.471 98.4442 285.471 101.794C285.471 105.136 288.113 107.721 291.786 107.721C295.478 107.721 298.102 105.136 298.102 101.794C298.102 98.4442 295.478 95.8673 291.786 95.8673Z" fill="black"/>
<path d="M280.464 102.408C280.464 103.794 279.059 104.896 277.27 104.896C275.251 104.896 273.998 103.706 273.998 101.725C273.998 99.8936 275.341 98.632 277.404 98.632C279.041 98.632 280.464 99.787 280.464 101.084V102.408ZM280.589 95.8684V97.1837H280.544C279.735 96.3389 278.4 95.8684 276.808 95.8684C273.383 95.8684 270.857 98.4189 270.857 101.725C270.857 105.154 273.446 107.669 276.914 107.669C278.462 107.669 279.761 107.18 280.544 106.3H280.589V107.447C280.589 108.975 279.272 110.104 277.529 110.104C275.767 110.104 274.744 109.606 273.854 108.762L271.827 110.725C273.188 112.175 275.243 113.001 277.591 113.001C281.167 113.001 283.605 110.592 283.605 107.403V95.8684H280.589Z" fill="black"/>
<path d="M306.163 104.958C304.446 104.958 303.102 103.839 303.102 102.479V101.066C303.102 99.7949 304.49 98.6314 306.136 98.6314C308.013 98.6314 309.303 99.9024 309.303 101.786C309.303 103.643 308.013 104.958 306.163 104.958ZM306.625 95.8584C305.166 95.8584 303.859 96.3034 303.014 97.1737H302.969V96.179H299.971V112.147H303.102V106.522H303.138C303.876 107.224 305.272 107.704 306.643 107.704C309.898 107.766 312.496 105.1 312.434 101.786C312.496 98.5069 309.854 95.7962 306.625 95.8584Z" fill="black"/>
<path d="M321.232 103.225C321.232 104.3 319.836 105.127 318.048 105.127C316.864 105.127 316.313 104.833 316.313 104.149C316.313 103.5 316.972 103.136 318.804 102.799C320.325 102.522 320.921 102.292 321.188 101.892H321.232V103.225ZM318.911 95.858C316.019 95.858 313.671 97.4939 313.253 99.7776L316.206 100.39C316.482 99.1374 317.559 98.3821 318.991 98.3821C320.201 98.3821 320.983 98.8262 320.983 99.5635C320.983 100.133 320.369 100.425 318.323 100.702C314.792 101.19 313.404 102.274 313.404 104.362C313.404 106.353 315.112 107.703 317.585 107.703C319.248 107.703 320.681 107.117 321.357 106.167H321.401V107.392H324.212V100.258C324.212 97.5288 322.184 95.858 318.911 95.858Z" fill="black"/>
<path d="M334.933 96.1788L331.579 103.5H331.535L328.137 96.1788H324.694L329.872 106.78L327.212 112.146H330.645L338.402 96.1788H334.933Z" fill="black"/>
</g>
<g filter="url(#filter3_d)">
<rect x="222" y="175" width="138.805" height="80" rx="10" fill="white"/>
<mask id="mask0" style="mask-type:alpha" maskUnits="userSpaceOnUse" x="253" y="204" width="21" height="22">
<path d="M253.402 204H273.804V226H253.402V204Z" fill="white"/>
</mask>
<g mask="url(#mask0)">
<path fill-rule="evenodd" clip-rule="evenodd" d="M253.402 216.328V205.962C253.402 204.879 254.329 204 255.472 204H271.734C272.877 204 273.804 204.879 273.804 205.963V216.328C273.804 221.67 269.237 226 263.603 226H263.603C257.969 226 253.402 221.67 253.402 216.328Z" fill="#FDAF27"/>
</g>
<path fill-rule="evenodd" clip-rule="evenodd" d="M267.734 207.145C266.94 206.985 266.113 207.36 265.695 208.069C265.596 208.237 265.525 208.418 265.48 208.604C265.295 207.881 264.715 207.294 263.979 207.145C263.184 206.985 262.358 207.36 261.94 208.069C261.841 208.237 261.77 208.418 261.724 208.604C261.54 207.881 260.96 207.294 260.223 207.145C259.429 206.985 258.603 207.36 258.185 208.069C257.765 208.781 257.832 209.714 258.348 210.356C258.864 210.996 259.74 211.245 260.504 210.963C261.113 210.739 261.567 210.208 261.725 209.581C261.794 209.861 261.919 210.127 262.103 210.356C262.619 210.996 263.495 211.245 264.259 210.963C264.868 210.739 265.322 210.208 265.48 209.581C265.549 209.861 265.675 210.127 265.859 210.356C266.374 210.996 267.25 211.245 268.014 210.963C268.776 210.683 269.297 209.922 269.297 209.094C269.297 208.158 268.632 207.326 267.734 207.145Z" fill="white"/>
<path fill-rule="evenodd" clip-rule="evenodd" d="M261.421 216.606C261.624 217.451 262.142 218.239 263.049 218.479C263.91 218.708 264.87 218.337 265.313 217.58C265.579 217.125 265.546 216.611 265.543 216.108C265.542 215.769 265.54 215.43 265.54 215.091C265.54 214.718 265.54 214.345 265.542 213.972C265.544 213.494 265.53 213.03 265.775 212.596C266.114 211.996 266.787 211.627 267.49 211.654C268.201 211.681 268.848 212.115 269.13 212.748C269.318 213.169 269.286 213.626 269.288 214.074C269.289 214.444 269.289 214.814 269.289 215.184C269.29 215.983 269.341 216.816 269.181 217.602C268.81 219.423 267.512 221.008 265.753 221.737C263.993 222.467 261.908 222.272 260.322 221.233C259.54 220.721 258.896 220.013 258.472 219.195C258.052 218.385 257.798 217.373 257.959 216.467C258.079 215.791 258.629 215.239 259.321 215.101C260.039 214.958 260.791 215.281 261.166 215.893C261.302 216.116 261.361 216.357 261.421 216.606Z" fill="white"/>
<path fill-rule="evenodd" clip-rule="evenodd" d="M320.734 216.05C320.734 217.65 321.922 218.799 323.55 218.799C325.156 218.799 326.366 217.629 326.366 216.05C326.366 214.449 325.156 213.259 323.55 213.259C321.922 213.259 320.734 214.429 320.734 216.05ZM329.402 216.029C329.402 218.983 326.806 221.343 323.528 221.343C320.272 221.343 317.72 219.004 317.72 216.029C317.72 213.054 320.272 210.736 323.55 210.736C326.806 210.736 329.402 213.075 329.402 216.029Z" fill="black"/>
<path fill-rule="evenodd" clip-rule="evenodd" d="M282.406 218.027C282.958 218.323 283.489 218.626 284.152 218.589C284.787 218.555 285.366 218.245 285.727 217.759C286.063 217.307 286.056 216.791 286.056 216.268C286.056 215.385 286.056 209.338 286.056 208.898C286.056 208.593 286.038 208.292 286.164 208.002C286.537 207.14 287.745 206.863 288.504 207.466C288.91 207.789 289.026 208.231 289.026 208.704C289.026 209.656 289.056 216.243 289.019 216.897C288.952 218.076 288.377 219.217 287.473 220.041C286.537 220.894 285.255 221.364 283.949 221.363C282.697 221.362 281.372 220.913 280.552 220.001C280.223 219.634 280.032 219.2 280.161 218.72C280.286 218.257 280.687 217.887 281.186 217.777C281.639 217.678 282.021 217.82 282.406 218.027Z" fill="black"/>
<path fill-rule="evenodd" clip-rule="evenodd" d="M296.594 218.84C294.944 218.84 293.778 217.67 293.778 216.05C293.778 214.429 294.966 213.239 296.594 213.239C298.222 213.239 299.344 214.388 299.344 216.05C299.344 217.711 298.244 218.84 296.594 218.84ZM302.99 218.877L302.991 218.876C302.535 218.619 302.253 218.161 302.245 217.663L302.245 212.121C302.245 211.356 301.58 210.736 300.76 210.736C300.009 210.736 299.39 211.257 299.291 211.932C298.541 211.178 297.406 210.736 296.044 210.736C292.986 210.736 290.764 212.972 290.764 216.05C290.764 219.127 292.986 221.363 296.044 221.363C296.058 221.363 296.072 221.363 296.086 221.363C296.1 221.363 296.113 221.363 296.127 221.363C297.594 221.363 298.867 220.848 299.795 219.972C300.27 220.66 301.035 221.164 301.951 221.319C302.04 221.334 302.129 221.341 302.217 221.341C302.223 221.341 302.228 221.34 302.233 221.34C302.24 221.34 302.247 221.341 302.254 221.341C303.041 221.341 303.678 220.746 303.678 220.013C303.678 219.531 303.402 219.11 302.99 218.877Z" fill="black"/>
<path fill-rule="evenodd" clip-rule="evenodd" d="M310.418 218.84C308.768 218.84 307.602 217.67 307.602 216.05C307.602 214.429 308.79 213.239 310.418 213.239C312.046 213.239 313.168 214.388 313.168 216.05C313.168 217.711 312.068 218.84 310.418 218.84ZM316.094 212.131C316.094 211.331 315.478 210.736 314.642 210.736C313.872 210.736 313.256 211.269 313.19 212.008C312.442 211.208 311.276 210.736 309.868 210.736C306.81 210.736 304.588 212.972 304.588 216.05C304.588 219.127 306.81 221.363 309.868 221.363C311.241 221.363 312.376 220.92 313.124 220.134L313.124 220.464C313.114 222.12 312.011 223.23 310.374 223.23C309.673 223.23 309.042 223.022 308.551 222.629C308.367 222.482 308.205 222.311 308.068 222.119C307.614 221.482 306.692 221.309 306.009 221.733C305.326 222.157 305.141 223.017 305.596 223.653C305.883 224.056 306.226 224.418 306.616 224.73C307.653 225.561 308.953 226 310.374 226C313.651 226 316.038 223.713 316.092 220.548L316.094 219.948C316.094 219.948 316.094 219.948 316.094 219.948V212.131Z" fill="black"/>
</g>
<g filter="url(#filter4_d)">
<rect x="222" y="287" width="138.805" height="80" rx="10" fill="white"/>
<path fill-rule="evenodd" clip-rule="evenodd" d="M307.649 347H275.156C274.163 346.998 273.211 346.602 272.507 345.899C271.804 345.195 271.407 344.241 271.402 343.244V310.756C271.407 309.76 271.804 308.805 272.507 308.102C273.211 307.398 274.163 307.002 275.156 307H307.649C308.642 307.002 309.594 307.398 310.297 308.101C311 308.805 311.398 309.759 311.402 310.756V343.244C311.398 344.241 311 345.195 310.297 345.899C309.594 346.602 308.642 346.998 307.649 347Z" fill="#E82529"/>
<path fill-rule="evenodd" clip-rule="evenodd" d="M280.034 314.532H281.929C281.963 314.532 281.997 314.54 282.027 314.554C282.058 314.568 282.086 314.588 282.108 314.614C282.13 314.64 282.147 314.67 282.156 314.702C282.166 314.735 282.169 314.769 282.164 314.803L281.284 320.908C281.276 320.964 281.28 321.02 281.296 321.074C281.311 321.128 281.338 321.177 281.375 321.22C281.412 321.262 281.457 321.296 281.508 321.319C281.559 321.342 281.614 321.354 281.67 321.354H284.994C285.016 321.354 285.038 321.359 285.058 321.368C285.078 321.377 285.096 321.39 285.111 321.407C285.125 321.424 285.136 321.444 285.143 321.465C285.149 321.486 285.15 321.509 285.147 321.531L284.89 323.285C284.883 323.329 284.86 323.369 284.827 323.398C284.793 323.427 284.75 323.443 284.706 323.444H280.946C279.828 323.444 278.757 322.526 278.914 321.419L279.799 314.738C279.807 314.681 279.835 314.629 279.878 314.591C279.921 314.553 279.976 314.532 280.034 314.532" fill="#FEFEFE"/>
<path fill-rule="evenodd" clip-rule="evenodd" d="M286.354 316.969L285.486 323.196C285.483 323.219 285.484 323.243 285.491 323.265C285.498 323.288 285.509 323.309 285.524 323.327C285.54 323.345 285.559 323.359 285.58 323.369C285.602 323.379 285.625 323.384 285.649 323.384H287.482C287.545 323.384 287.606 323.361 287.654 323.32C287.701 323.278 287.732 323.221 287.741 323.158L288.6 317.033C288.605 317 288.602 316.966 288.592 316.934C288.582 316.902 288.566 316.872 288.543 316.847C288.521 316.822 288.494 316.801 288.463 316.788C288.433 316.774 288.4 316.767 288.366 316.767H286.588C286.531 316.767 286.476 316.788 286.433 316.825C286.39 316.862 286.362 316.914 286.354 316.97" fill="#FEFEFE"/>
<path fill-rule="evenodd" clip-rule="evenodd" d="M290.137 322.905C289.72 322.886 289.309 323.011 288.973 323.26C289.053 322.699 289.685 318.324 289.743 318.055C289.772 317.693 289.899 317.346 290.111 317.051C290.407 316.768 290.862 316.606 293.138 316.598C295.459 316.591 295.909 318.262 295.786 319.347C295.681 320.276 295.336 322.572 295.238 323.213C295.231 323.261 295.207 323.304 295.171 323.335C295.135 323.366 295.089 323.383 295.042 323.383H293.247C293.216 323.383 293.186 323.376 293.158 323.364C293.13 323.351 293.105 323.332 293.084 323.309C293.064 323.286 293.049 323.258 293.04 323.228C293.031 323.199 293.029 323.167 293.033 323.137C293.124 322.495 293.367 320.785 293.45 320.289C293.591 319.78 293.599 319.244 293.471 318.732C293.307 318.466 292.815 318.261 291.873 318.425L291.176 323.352C290.887 323.094 290.522 322.937 290.137 322.905" fill="#FEFEFE"/>
<path fill-rule="evenodd" clip-rule="evenodd" d="M297.733 314.179H299.722C299.74 314.179 299.757 314.183 299.772 314.191C299.788 314.198 299.802 314.209 299.813 314.222C299.824 314.235 299.833 314.25 299.838 314.266C299.843 314.283 299.845 314.3 299.843 314.317L298.603 323.284C298.599 323.316 298.583 323.346 298.558 323.367C298.534 323.388 298.502 323.4 298.47 323.4H296.506C296.486 323.4 296.467 323.396 296.45 323.388C296.432 323.38 296.417 323.369 296.404 323.354C296.391 323.339 296.382 323.322 296.377 323.304C296.371 323.285 296.37 323.266 296.372 323.247L297.608 314.284C297.613 314.255 297.627 314.229 297.649 314.21C297.671 314.19 297.699 314.179 297.729 314.179" fill="#FEFEFE"/>
<path fill-rule="evenodd" clip-rule="evenodd" d="M299.27 319.581L301.518 316.948C301.553 316.907 301.597 316.874 301.645 316.852C301.694 316.829 301.748 316.817 301.801 316.817H303.775C303.807 316.817 303.838 316.825 303.865 316.842C303.893 316.86 303.914 316.884 303.927 316.913C303.941 316.942 303.945 316.975 303.94 317.007C303.935 317.038 303.922 317.068 303.9 317.092L301.599 319.643L303.7 324.162C303.717 324.201 303.725 324.242 303.722 324.284C303.719 324.326 303.706 324.367 303.683 324.402C303.66 324.437 303.629 324.467 303.593 324.487C303.556 324.507 303.515 324.518 303.473 324.518H301.689C301.644 324.518 301.599 324.505 301.561 324.48C301.523 324.455 301.492 324.42 301.473 324.379L299.27 319.581Z" fill="#FEFEFE"/>
<path fill-rule="evenodd" clip-rule="evenodd" d="M288.984 315.079C288.91 315.404 288.732 315.696 288.477 315.909C288.222 316.123 287.905 316.247 287.573 316.262C287.421 316.267 287.27 316.236 287.133 316.172C286.995 316.108 286.874 316.012 286.78 315.893C286.686 315.773 286.621 315.633 286.59 315.484C286.56 315.335 286.564 315.181 286.604 315.034C286.667 314.693 286.846 314.385 287.111 314.161C287.375 313.937 287.708 313.811 288.053 313.805C288.206 313.807 288.356 313.845 288.492 313.915C288.628 313.985 288.745 314.086 288.836 314.209C288.926 314.333 288.986 314.475 289.012 314.626C289.038 314.777 289.029 314.932 288.985 315.079" fill="#FEFEFE"/>
<path fill-rule="evenodd" clip-rule="evenodd" d="M291.005 324.969C290.931 325.294 290.753 325.586 290.497 325.8C290.242 326.013 289.924 326.137 289.592 326.152C289.441 326.157 289.29 326.126 289.152 326.062C289.015 325.998 288.894 325.902 288.8 325.783C288.706 325.663 288.641 325.523 288.61 325.374C288.579 325.225 288.584 325.071 288.623 324.924C288.687 324.583 288.866 324.274 289.13 324.051C289.394 323.827 289.727 323.701 290.073 323.695C290.225 323.697 290.376 323.735 290.511 323.805C290.647 323.875 290.765 323.975 290.855 324.099C290.945 324.222 291.006 324.365 291.032 324.516C291.058 324.667 291.048 324.822 291.004 324.969" fill="#FEFEFE"/>
<path fill-rule="evenodd" clip-rule="evenodd" d="M300.627 333.076C300.556 333.404 300.376 333.698 300.117 333.911C299.858 334.123 299.535 334.241 299.201 334.245C299.045 334.255 298.889 334.229 298.745 334.169C298.601 334.109 298.472 334.017 298.368 333.9C298.264 333.784 298.188 333.645 298.145 333.494C298.102 333.343 298.094 333.185 298.121 333.031C298.179 332.686 298.359 332.373 298.628 332.15C298.896 331.927 299.236 331.808 299.584 331.815C299.741 331.812 299.896 331.844 300.039 331.909C300.182 331.975 300.308 332.071 300.408 332.192C300.508 332.313 300.58 332.455 300.618 332.608C300.655 332.761 300.658 332.92 300.627 333.074" fill="#FEFEFE"/>
<path fill-rule="evenodd" clip-rule="evenodd" d="M283.695 329.738H282.49C282.48 329.738 282.47 329.735 282.461 329.73C282.451 329.726 282.444 329.719 282.438 329.71C282.432 329.701 282.428 329.692 282.427 329.681C282.426 329.671 282.428 329.66 282.432 329.651L283.479 326.991C283.484 326.98 283.492 326.971 283.502 326.965C283.512 326.96 283.523 326.958 283.535 326.959C283.546 326.961 283.557 326.966 283.565 326.975C283.573 326.983 283.578 326.994 283.579 327.005L283.815 329.606C283.816 329.623 283.814 329.64 283.809 329.656C283.804 329.672 283.795 329.686 283.784 329.699C283.772 329.711 283.759 329.721 283.743 329.727C283.728 329.734 283.711 329.738 283.695 329.738ZM286.612 333.076L285.269 325.035C285.24 324.864 285.152 324.709 285.02 324.598C284.888 324.486 284.722 324.425 284.549 324.425H283.2C282.999 324.425 282.802 324.483 282.633 324.592C282.464 324.701 282.329 324.856 282.246 325.04L278.625 333.088C278.613 333.115 278.608 333.145 278.61 333.174C278.612 333.204 278.622 333.232 278.638 333.257C278.654 333.281 278.676 333.302 278.702 333.315C278.728 333.329 278.757 333.337 278.786 333.336L280.667 333.326C280.73 333.325 280.792 333.306 280.844 333.272C280.896 333.237 280.937 333.187 280.962 333.129L281.588 331.658C281.596 331.639 281.61 331.622 281.628 331.61C281.646 331.599 281.666 331.592 281.688 331.592H283.964C283.991 331.592 284.017 331.602 284.037 331.62C284.057 331.638 284.069 331.663 284.072 331.69L284.208 333.082C284.215 333.16 284.251 333.233 284.309 333.286C284.367 333.339 284.442 333.368 284.52 333.368H286.365C286.401 333.367 286.436 333.359 286.469 333.344C286.501 333.329 286.53 333.307 286.553 333.279C286.576 333.252 286.593 333.22 286.603 333.185C286.613 333.151 286.615 333.114 286.61 333.079" fill="#FEFEFE"/>
<path fill-rule="evenodd" clip-rule="evenodd" d="M285.716 334.535L286.15 335.877C286.229 336.098 286.287 336.147 286.44 336.115C287.409 335.941 288.295 335.455 288.964 334.73C289.81 333.585 289.925 331.563 290.075 330.534C290.2 329.688 290.467 327.603 290.558 326.894C290.562 326.864 290.559 326.833 290.55 326.804C290.541 326.775 290.526 326.748 290.506 326.725C290.486 326.703 290.462 326.684 290.434 326.672C290.406 326.66 290.377 326.653 290.346 326.653H288.657C288.585 326.653 288.516 326.679 288.461 326.726C288.407 326.774 288.372 326.839 288.362 326.911C288.226 327.911 287.736 331.51 287.651 332.008C287.551 332.589 287.531 333.425 286.673 333.924C286.411 334.071 286.138 334.197 285.855 334.3C285.769 334.34 285.671 334.384 285.713 334.534" fill="#FEFEFE"/>
<path fill-rule="evenodd" clip-rule="evenodd" d="M294.994 331.437C294.994 331.437 294.115 331.736 293.693 331.419C293.271 331.103 293.236 330.452 293.482 329.52C293.521 329.236 293.652 328.973 293.856 328.772C294.06 328.572 294.325 328.445 294.608 328.412C294.865 328.419 295.12 328.455 295.368 328.519L294.994 331.437ZM297.428 326.896C296.437 326.594 295.399 326.478 294.366 326.554C292.948 326.658 291.347 327.313 291.047 330.112C290.748 332.911 292.027 333.451 293.866 333.531C294.852 333.574 295.834 333.398 296.744 333.016C296.824 332.982 296.894 332.927 296.947 332.857C296.999 332.788 297.033 332.706 297.045 332.619L297.724 327.23C297.751 327.015 297.644 326.949 297.428 326.896Z" fill="#FEFEFE"/>
<path fill-rule="evenodd" clip-rule="evenodd" d="M298.746 330.925L299.241 325.765C299.259 325.58 299.414 325.505 299.6 325.505H301.307C301.466 325.505 301.533 325.625 301.49 325.823L300.447 330.991C300.437 331.039 300.41 331.083 300.372 331.114C300.333 331.145 300.285 331.162 300.236 331.162H298.962C298.932 331.162 298.902 331.156 298.874 331.144C298.847 331.131 298.822 331.114 298.802 331.091C298.782 331.069 298.767 331.043 298.757 331.014C298.748 330.986 298.744 330.955 298.747 330.925" fill="#FEFEFE"/>
<path fill-rule="evenodd" clip-rule="evenodd" d="M278.773 340.442C279.111 340.628 279.506 340.682 279.882 340.593C283.772 339.588 287.719 338.812 291.7 338.271C296.77 337.516 301.882 337.093 307.006 337.003L307.023 336.993C307.023 336.993 301.261 336.201 291.804 337.125C282.348 338.048 277.066 339.5 277.066 339.5L278.773 340.442Z" fill="#FEFEFE"/>
</g>
<g filter="url(#filter5_d)">
<rect x="62" y="135" width="138" height="80" rx="10" fill="white"/>
<g clip-path="url(#clip0)">
<path d="M77.1987 180.526C76.5373 180.526 76 179.994 76 179.336V170.675C76 170.018 76.5373 169.484 77.1987 169.484C77.8602 169.484 78.3975 170.018 78.3975 170.675V179.336C78.3975 179.994 77.8602 180.526 77.1987 180.526Z" fill="#89C8E9"/>
<path d="M91.5835 180.526C90.9209 180.526 90.3848 179.994 90.3848 179.336V170.682C90.3848 170.025 90.9209 169.491 91.5835 169.491C92.2461 169.491 92.7823 170.025 92.7823 170.682V179.336C92.7823 179.994 92.2461 180.526 91.5835 180.526Z" fill="#0EAEDD"/>
<path d="M84.3911 184C83.7285 184 83.1924 183.466 83.1924 182.81V167.209C83.1924 166.551 83.7285 166.019 84.3911 166.019C85.0537 166.019 85.5899 166.551 85.5899 167.209V182.81C85.5899 183.466 85.0537 184 84.3911 184Z" fill="#2E80C3"/>
<path d="M121.849 170.263C121.849 169.834 122.199 169.466 122.632 169.466C123.085 169.466 123.436 169.813 123.436 170.263V179.587C123.436 180.037 123.106 180.385 122.653 180.385C122.199 180.385 121.849 180.037 121.849 179.587" fill="#808285"/>
<path d="M136.854 179.587C136.854 180.037 136.504 180.385 136.07 180.385C135.617 180.385 135.266 180.037 135.266 179.587V178.451C134.4 179.721 133.143 180.508 131.184 180.508C128.629 180.508 126.092 178.502 126.092 175.022V174.98C126.092 171.52 128.629 169.473 131.184 169.473C133.164 169.473 134.441 170.24 135.266 171.427V166.799C135.266 166.348 135.595 165.999 136.051 165.999C136.504 165.999 136.854 166.348 136.854 166.799V179.587ZM127.721 174.96V175.001C127.721 177.498 129.474 179.095 131.473 179.095C133.453 179.095 135.328 177.437 135.328 175.001V174.96C135.328 172.523 133.453 170.885 131.473 170.885C129.412 170.885 127.721 172.401 127.721 174.96Z" fill="#808285"/>
<path d="M178.103 179.157C177.959 179.054 177.815 178.85 177.815 178.584C177.815 178.215 178.124 177.907 178.517 177.907C178.661 177.907 178.805 177.949 178.909 178.031C180.001 178.767 181.134 179.157 182.288 179.157C183.567 179.157 184.495 178.502 184.495 177.478V177.437C184.495 176.372 183.238 175.963 181.835 175.574C180.166 175.103 178.311 174.53 178.311 172.585V172.544C178.311 170.721 179.836 169.513 181.938 169.513C183.073 169.513 184.31 169.862 185.34 170.414C185.546 170.537 185.731 170.763 185.731 171.07C185.731 171.438 185.422 171.745 185.031 171.745C184.886 171.745 184.763 171.705 184.68 171.664C183.774 171.151 182.805 170.844 181.897 170.844C180.64 170.844 179.836 171.5 179.836 172.38V172.421C179.836 173.424 181.155 173.812 182.578 174.243C184.227 174.734 185.999 175.369 185.999 177.273V177.314C185.999 179.321 184.33 180.488 182.207 180.488C180.805 180.488 179.259 179.975 178.103 179.157Z" fill="#808285"/>
<path d="M175.527 173.929C175.527 171.547 173.423 169.473 170.887 169.473C168.322 169.473 166.242 171.538 166.242 174.086V179.54C166.242 180.011 166.609 180.375 167.083 180.375C167.557 180.375 167.901 180.011 167.901 179.54L167.9 177.091V173.928C167.9 172.292 169.236 170.964 170.884 170.964C172.532 170.964 173.868 172.292 173.868 173.928V179.54C173.868 180.011 174.234 180.375 174.686 180.375C175.16 180.375 175.527 180.011 175.527 179.54C175.527 179.54 175.542 174.441 175.527 173.929Z" fill="#808285"/>
<path d="M158.241 179.093C156.797 179.093 155.659 178.481 155.659 177.15V177.109C155.659 175.778 156.773 174.918 158.772 174.918C160.07 174.918 161.904 175.332 161.905 175.369V175.371C161.905 177.312 160.08 179.093 158.241 179.093ZM163.41 173.814H163.407C163.263 171.541 161.226 169.613 158.781 169.613H158.071C157.655 169.613 157.319 169.947 157.319 170.36C157.319 170.771 157.655 171.105 158.071 171.105H158.778C160.426 171.105 161.885 172.432 161.885 174.068V174.202C160.937 173.936 159.967 173.752 158.607 173.752C155.906 173.752 154.051 174.939 154.051 177.171V177.212C154.051 179.382 155.978 180.508 157.956 180.508C159.754 180.508 161.171 179.593 161.905 178.415V179.628C161.905 180.04 162.242 180.375 162.657 180.375C163.073 180.375 163.41 180.04 163.41 179.628" fill="#808285"/>
<path d="M153.751 170.357C153.751 169.945 153.414 169.611 153 169.611H152.486C149.921 169.611 147.841 171.677 147.841 174.224V179.54C147.841 180.011 148.207 180.375 148.681 180.375C149.155 180.375 149.5 180.011 149.5 179.54L149.498 177.091V174.066C149.498 172.43 150.835 171.102 152.482 171.102C152.484 171.102 152.485 171.102 152.487 171.102V171.104H153C153.414 171.104 153.751 170.77 153.751 170.357Z" fill="#808285"/>
<path d="M145.206 170.319C145.206 169.934 144.891 169.623 144.505 169.623H141.721V166.844C141.721 166.408 141.363 166.006 140.924 166.002C140.467 165.999 140.134 166.368 140.134 166.801V177.478C140.134 179.628 141.432 180.467 143.144 180.467C143.763 180.467 144.257 180.365 144.71 180.181C144.979 180.078 145.164 179.853 145.164 179.566C145.164 179.197 144.855 178.891 144.484 178.891C144.36 178.891 144.071 179.034 143.515 179.034C142.443 179.034 141.721 178.563 141.721 177.273V171.015H144.505C144.891 171.015 145.206 170.704 145.206 170.319Z" fill="#808285"/>
<path d="M114.115 169.466C112.594 169.466 111.254 170.224 110.452 171.38C109.656 170.229 108.332 169.473 106.817 169.473C104.362 169.473 102.372 171.449 102.372 173.887V179.587C102.372 180.037 102.722 180.385 103.175 180.385C103.629 180.385 103.959 180.037 103.959 179.587L103.958 173.736C103.958 172.17 105.237 170.9 106.815 170.9C108.392 170.9 109.67 172.17 109.67 173.736L109.669 178.934H109.67C109.67 178.935 109.669 178.935 109.669 178.936C109.669 179.372 110.025 179.724 110.462 179.724C110.901 179.724 111.257 179.372 111.257 178.936L111.255 173.729C111.255 172.163 112.534 170.893 114.111 170.893C115.688 170.893 116.968 172.163 116.968 173.729V179.579C116.968 180.03 117.318 180.378 117.75 180.378C118.204 180.378 118.554 180.03 118.554 179.579L118.56 173.887C118.56 171.373 116.468 169.466 114.115 169.466Z" fill="#808285"/>
</g>
</g>
<g filter="url(#filter6_d)">
<rect x="62" y="247" width="135.765" height="80" rx="10" fill="white"/>
<path d="M86.9719 291.493C86.9719 290.302 86.95 289.302 86.8828 288.409H89.2364L89.3479 289.942H89.4137C89.9455 289.133 90.9224 288.175 92.7432 288.175C94.1647 288.175 95.2736 288.942 95.7392 290.089H95.785C96.1619 289.515 96.605 289.09 97.1154 288.793C97.7149 288.389 98.4045 288.175 99.2913 288.175C101.089 288.175 102.909 289.344 102.909 292.664V298.767H100.246V293.046C100.246 291.324 99.6244 290.302 98.3144 290.302C97.3823 290.302 96.6932 290.94 96.4054 291.686C96.3392 291.938 96.2724 292.259 96.2724 292.555V298.767H93.6086V292.768C93.6086 291.324 93.0101 290.302 91.7434 290.302C90.7242 290.302 90.0361 291.068 89.7896 291.791C89.6796 292.045 89.6348 292.344 89.6348 292.641V298.767H86.9719V291.493Z" fill="#003D79"/>
<path d="M113.286 296.279C113.286 297.214 113.33 298.127 113.441 298.767H110.976L110.799 297.619H110.732C110.066 298.428 108.934 299 107.538 299C105.361 299 104.141 297.492 104.141 295.917C104.141 293.299 106.558 291.983 110.556 292.004V291.834C110.556 291.153 110.266 290.026 108.357 290.026C107.291 290.026 106.182 290.345 105.449 290.791L104.917 289.09C105.716 288.621 107.114 288.175 108.823 288.175C112.286 288.175 113.286 290.282 113.286 292.535V296.279ZM110.621 293.707C108.69 293.663 106.848 294.067 106.848 295.641C106.848 296.661 107.538 297.13 108.402 297.13C109.488 297.13 110.289 296.447 110.533 295.704C110.599 295.511 110.621 295.3 110.621 295.13V293.707Z" fill="#003D79"/>
<path d="M115.171 291.493C115.171 290.302 115.148 289.302 115.084 288.409H117.479L117.612 289.964H117.68C118.145 289.155 119.322 288.175 121.12 288.175C123.007 288.175 124.96 289.344 124.96 292.621V298.767H122.23V292.92C122.23 291.43 121.652 290.302 120.165 290.302C119.079 290.302 118.322 291.046 118.035 291.834C117.947 292.068 117.924 292.386 117.924 292.683V298.767H115.171V291.493Z" fill="#003D79"/>
<path d="M136.797 284.249V295.853C136.797 296.916 136.843 298.065 136.886 298.767H134.446L134.335 297.13H134.29C133.646 298.278 132.336 299 130.761 299C128.185 299 126.145 296.895 126.145 293.707C126.121 290.239 128.385 288.175 130.982 288.175C132.469 288.175 133.535 288.77 134.023 289.539H134.068V284.249H136.797ZM134.068 292.726C134.068 292.515 134.046 292.259 134.001 292.045C133.757 291.027 132.892 290.197 131.649 290.197C129.895 290.197 128.917 291.685 128.917 293.62C128.917 295.511 129.895 296.895 131.627 296.895C132.735 296.895 133.713 296.172 133.978 295.044C134.046 294.811 134.068 294.554 134.068 294.279V292.726Z" fill="#003D79"/>
<path d="M138.727 288.41H141.48V298.767H138.727V288.41Z" fill="#003D79"/>
<path d="M143.409 291.749C143.409 290.345 143.388 289.344 143.322 288.409H145.697L145.784 290.385H145.875C146.407 288.92 147.672 288.409 148.828 288.409C149.093 288.409 149.248 288.367 149.47 288.409V290.707C149.248 290.664 149.005 290.622 148.672 290.622C147.361 290.622 146.473 291.43 146.229 292.598C146.186 292.832 146.141 293.11 146.141 293.408V298.767H143.409V291.749Z" fill="#003D79"/>
<path d="M150.737 288.41H153.488V298.767H150.737V288.41Z" fill="#003D79"/>
<path d="M150.174 275.871C148.517 276.792 143.118 279.747 143.118 279.747C141.09 280.548 139.537 279.573 139.034 278.858C139.012 278.831 138.989 278.799 138.975 278.772L138.909 278.663L138.566 278.128C138.42 277.907 138.257 277.679 138.071 277.445C137.904 277.241 137.719 277.038 137.518 276.843C136.217 275.583 134.134 274.698 130.664 276.279C128.566 277.426 123.686 280.1 123.686 280.1C123.686 280.101 123.686 280.101 123.685 280.101C121.677 281.201 120.113 282.056 120.113 282.056L121.961 284.231C122.739 284.94 124.201 286.104 126.462 285.123C126.462 285.123 132.703 281.66 132.728 281.65C138.064 278.844 140.697 281.525 141.861 283.312C141.901 283.367 141.935 283.429 141.97 283.483L141.973 283.485C141.987 283.506 141.997 283.527 142.008 283.548L142.141 283.754C142.707 284.578 143.603 285.11 144.668 285.085C145.256 285.074 145.656 284.89 146.236 284.581L152.275 281.225C152.279 281.224 152.282 281.221 152.289 281.22C157.69 278.381 160.368 281.237 161.512 283.023C161.6 283.178 161.703 283.325 161.805 283.463C162.371 284.198 163.152 284.68 164.144 284.657C164.798 284.644 165.534 284.267 165.642 284.198L172.883 280.196C172.883 280.196 172.142 279.125 170.619 277.456C169.257 275.968 167.808 276.641 166.657 277.19C166.174 277.418 162.678 279.317 162.678 279.317C160.763 280.073 159.272 279.248 158.686 278.553C158.626 278.479 158.574 278.411 158.534 278.344L158.399 278.118C158.189 277.778 157.939 277.396 157.63 277.018C157.465 276.813 157.281 276.608 157.079 276.415C156.274 275.635 155.173 275 153.632 275C152.664 275 151.524 275.25 150.174 275.871Z" fill="url(#paint0_linear)"/>
</g>
<defs>
<filter id="filter0_d" x="342" y="13" width="227" height="182" filterUnits="userSpaceOnUse" color-interpolation-filters="sRGB">
<feFlood flood-opacity="0" result="BackgroundImageFix"/>
<feColorMatrix in="SourceAlpha" type="matrix" values="0 0 0 0 0 0 0 0 0 0 0 0 0 0 0 0 0 0 127 0" result="hardAlpha"/>
<feMorphology radius="1" operator="dilate" in="SourceAlpha" result="effect1_dropShadow"/>
<feOffset dy="14"/>
<feGaussianBlur stdDeviation="25"/>
<feColorMatrix type="matrix" values="0 0 0 0 0.584314 0 0 0 0 0.584314 0 0 0 0 0.584314 0 0 0 0.08 0"/>
<feBlend mode="normal" in2="BackgroundImageFix" result="effect1_dropShadow"/>
<feBlend mode="normal" in="SourceGraphic" in2="effect1_dropShadow" result="shape"/>
</filter>
<filter id="filter1_d" x="342" y="125" width="227" height="182" filterUnits="userSpaceOnUse" color-interpolation-filters="sRGB">
<feFlood flood-opacity="0" result="BackgroundImageFix"/>
<feColorMatrix in="SourceAlpha" type="matrix" values="0 0 0 0 0 0 0 0 0 0 0 0 0 0 0 0 0 0 127 0" result="hardAlpha"/>
<feMorphology radius="1" operator="dilate" in="SourceAlpha" result="effect1_dropShadow"/>
<feOffset dy="14"/>
<feGaussianBlur stdDeviation="25"/>
<feColorMatrix type="matrix" values="0 0 0 0 0.584314 0 0 0 0 0.584314 0 0 0 0 0.584314 0 0 0 0.08 0"/>
<feBlend mode="normal" in2="BackgroundImageFix" result="effect1_dropShadow"/>
<feBlend mode="normal" in="SourceGraphic" in2="effect1_dropShadow" result="shape"/>
</filter>
<filter id="filter2_d" x="171" y="26" width="240.805" height="182" filterUnits="userSpaceOnUse" color-interpolation-filters="sRGB">
<feFlood flood-opacity="0" result="BackgroundImageFix"/>
<feColorMatrix in="SourceAlpha" type="matrix" values="0 0 0 0 0 0 0 0 0 0 0 0 0 0 0 0 0 0 127 0" result="hardAlpha"/>
<feMorphology radius="1" operator="dilate" in="SourceAlpha" result="effect1_dropShadow"/>
<feOffset dy="14"/>
<feGaussianBlur stdDeviation="25"/>
<feColorMatrix type="matrix" values="0 0 0 0 0.584314 0 0 0 0 0.584314 0 0 0 0 0.584314 0 0 0 0.08 0"/>
<feBlend mode="normal" in2="BackgroundImageFix" result="effect1_dropShadow"/>
<feBlend mode="normal" in="SourceGraphic" in2="effect1_dropShadow" result="shape"/>
</filter>
<filter id="filter3_d" x="171" y="138" width="240.805" height="182" filterUnits="userSpaceOnUse" color-interpolation-filters="sRGB">
<feFlood flood-opacity="0" result="BackgroundImageFix"/>
<feColorMatrix in="SourceAlpha" type="matrix" values="0 0 0 0 0 0 0 0 0 0 0 0 0 0 0 0 0 0 127 0" result="hardAlpha"/>
<feMorphology radius="1" operator="dilate" in="SourceAlpha" result="effect1_dropShadow"/>
<feOffset dy="14"/>
<feGaussianBlur stdDeviation="25"/>
<feColorMatrix type="matrix" values="0 0 0 0 0.584314 0 0 0 0 0.584314 0 0 0 0 0.584314 0 0 0 0.08 0"/>
<feBlend mode="normal" in2="BackgroundImageFix" result="effect1_dropShadow"/>
<feBlend mode="normal" in="SourceGraphic" in2="effect1_dropShadow" result="shape"/>
</filter>
<filter id="filter4_d" x="171" y="250" width="240.805" height="182" filterUnits="userSpaceOnUse" color-interpolation-filters="sRGB">
<feFlood flood-opacity="0" result="BackgroundImageFix"/>
<feColorMatrix in="SourceAlpha" type="matrix" values="0 0 0 0 0 0 0 0 0 0 0 0 0 0 0 0 0 0 127 0" result="hardAlpha"/>
<feMorphology radius="1" operator="dilate" in="SourceAlpha" result="effect1_dropShadow"/>
<feOffset dy="14"/>
<feGaussianBlur stdDeviation="25"/>
<feColorMatrix type="matrix" values="0 0 0 0 0.584314 0 0 0 0 0.584314 0 0 0 0 0.584314 0 0 0 0.08 0"/>
<feBlend mode="normal" in2="BackgroundImageFix" result="effect1_dropShadow"/>
<feBlend mode="normal" in="SourceGraphic" in2="effect1_dropShadow" result="shape"/>
</filter>
<filter id="filter5_d" x="11" y="98" width="240" height="182" filterUnits="userSpaceOnUse" color-interpolation-filters="sRGB">
<feFlood flood-opacity="0" result="BackgroundImageFix"/>
<feColorMatrix in="SourceAlpha" type="matrix" values="0 0 0 0 0 0 0 0 0 0 0 0 0 0 0 0 0 0 127 0" result="hardAlpha"/>
<feMorphology radius="1" operator="dilate" in="SourceAlpha" result="effect1_dropShadow"/>
<feOffset dy="14"/>
<feGaussianBlur stdDeviation="25"/>
<feColorMatrix type="matrix" values="0 0 0 0 0.584314 0 0 0 0 0.584314 0 0 0 0 0.584314 0 0 0 0.08 0"/>
<feBlend mode="normal" in2="BackgroundImageFix" result="effect1_dropShadow"/>
<feBlend mode="normal" in="SourceGraphic" in2="effect1_dropShadow" result="shape"/>
</filter>
<filter id="filter6_d" x="11" y="210" width="237.766" height="182" filterUnits="userSpaceOnUse" color-interpolation-filters="sRGB">
<feFlood flood-opacity="0" result="BackgroundImageFix"/>
<feColorMatrix in="SourceAlpha" type="matrix" values="0 0 0 0 0 0 0 0 0 0 0 0 0 0 0 0 0 0 127 0" result="hardAlpha"/>
<feMorphology radius="1" operator="dilate" in="SourceAlpha" result="effect1_dropShadow"/>
<feOffset dy="14"/>
<feGaussianBlur stdDeviation="25"/>
<feColorMatrix type="matrix" values="0 0 0 0 0.584314 0 0 0 0 0.584314 0 0 0 0 0.584314 0 0 0 0.08 0"/>
<feBlend mode="normal" in2="BackgroundImageFix" result="effect1_dropShadow"/>
<feBlend mode="normal" in="SourceGraphic" in2="effect1_dropShadow" result="shape"/>
</filter>
<linearGradient id="paint0_linear" x1="119.682" y1="280.628" x2="175.178" y2="253.863" gradientUnits="userSpaceOnUse">
<stop stop-color="#FDB913"/>
<stop offset="0.224719" stop-color="#FFCB05"/>
<stop offset="0.393258" stop-color="#FAA61A"/>
<stop offset="0.52809" stop-color="#FFCB05"/>
<stop offset="0.646067" stop-color="#FAA61A"/>
<stop offset="0.764045" stop-color="#FFCB05"/>
<stop offset="1" stop-color="#FFCB05"/>
</linearGradient>
<clipPath id="clip0">
<rect width="110" height="18" fill="white" transform="translate(76 166)"/>
</clipPath>
</defs>
</svg>