<svg width="164" height="49" viewBox="0 0 164 49" fill="none" xmlns="http://www.w3.org/2000/svg">
<g clip-path="url(#clip0)">
<path fill-rule="evenodd" clip-rule="evenodd" d="M157.747 48.4188H6.0695C2.72434 48.4188 0 45.69 0 42.3665V6.05257C0 2.717 2.72434 0.000244141 6.0695 0.000244141H157.747C161.089 0.000244141 163.816 2.717 163.816 6.05257V42.3665C163.816 45.69 161.089 48.4188 157.747 48.4188Z" fill="black"/>
<path fill-rule="evenodd" clip-rule="evenodd" d="M157.747 0.96922C160.552 0.96922 162.849 3.25431 162.849 6.05257V42.3665C162.849 45.1648 160.568 47.4499 157.747 47.4499H6.0695C3.26379 47.4499 0.967383 45.1648 0.967383 42.3665V6.05257C0.967383 3.25431 3.24872 0.96922 6.0695 0.96922H157.747ZM157.747 0.000244141H6.0695C2.72434 0.000244141 0 2.72907 0 6.05257V42.3665C0 45.7021 2.72434 48.4188 6.0695 48.4188H157.747C161.089 48.4188 163.816 45.7021 163.816 42.3665V6.05257C163.816 2.72907 161.089 0.000244141 157.747 0.000244141Z" fill="#A6A6A6"/>
<path d="M86.2991 16.0172C85.2052 16.0172 84.283 15.6338 83.5537 14.8792C82.8304 14.1457 82.4266 13.1344 82.4446 12.1021C82.4446 11.0003 82.8183 10.0675 83.5537 9.32796C84.28 8.57331 85.2021 8.18994 86.2961 8.18994C87.378 8.18994 88.3002 8.57331 89.0415 9.32796C89.7769 10.0917 90.1506 11.0244 90.1506 12.1021C90.1385 13.2069 89.7648 14.1396 89.0415 14.8762C88.3153 15.6369 87.3931 16.0172 86.2991 16.0172ZM53.7486 16.0172C52.6788 16.0172 51.7506 15.6399 50.9911 14.8943C50.2377 14.1517 49.855 13.2129 49.855 12.1051C49.855 10.9973 50.2377 10.0585 50.9911 9.31589C51.7355 8.57029 52.6637 8.19296 53.7486 8.19296C54.279 8.19296 54.7944 8.29861 55.2886 8.51293C55.7738 8.72122 56.1686 9.00497 56.4609 9.35211L56.5332 9.43965L55.7165 10.2426L55.6322 10.143C55.1711 9.5936 54.5533 9.32494 53.7366 9.32494C53.0073 9.32494 52.3714 9.58454 51.847 10.0977C51.3196 10.6139 51.0514 11.2901 51.0514 12.1081C51.0514 12.9262 51.3196 13.6023 51.847 14.1185C52.3714 14.6317 53.0073 14.8913 53.7366 14.8913C54.5141 14.8913 55.1681 14.6317 55.6774 14.1185C55.9787 13.8166 56.1656 13.394 56.2319 12.8597H53.613V11.7308H57.356L57.371 11.8334C57.3982 12.0236 57.4253 12.2198 57.4253 12.4009C57.4253 13.4423 57.1119 14.2845 56.491 14.9064C55.7859 15.6429 54.8637 16.0172 53.7486 16.0172ZM97.0277 15.8572H95.8735L92.3385 10.1913L92.3686 11.2116V15.8542H91.2144V8.35295H92.5313L92.5675 8.4103L95.8916 13.7472L95.8614 12.7299V8.35295H97.0277V15.8572ZM77.6258 15.8572H76.4565V9.48191H74.4283V8.35295H79.651V9.48191H77.6228V15.8572H77.6258ZM73.476 15.8572H72.3097V8.35295H73.476V15.8572ZM66.9213 15.8572H65.755V9.48191H63.7268V8.35295H68.9495V9.48191H66.9213V15.8572ZM62.9885 15.8452H58.5162V8.35295H62.9885V9.48191H59.6855V11.5406H62.666V12.6575H59.6855V14.7162H62.9885V15.8452ZM84.4095 14.1034C84.9309 14.6256 85.5638 14.8883 86.2991 14.8883C87.0555 14.8883 87.6733 14.6317 88.1887 14.1034C88.701 13.5902 88.9602 12.9171 88.9602 12.1051C88.9602 11.2931 88.701 10.6169 88.1917 10.1068C87.6703 9.58454 87.0344 9.32192 86.3021 9.32192C85.5457 9.32192 84.9279 9.5785 84.4156 10.1068C83.9033 10.6199 83.6441 11.2931 83.6441 12.1051C83.6441 12.9171 83.9002 13.5933 84.4095 14.1034Z" fill="white"/>
<path fill-rule="evenodd" clip-rule="evenodd" d="M82.3362 26.3349C79.4883 26.3349 77.1798 28.4993 77.1798 31.4847C77.1798 34.4429 79.5034 36.6345 82.3362 36.6345C85.1841 36.6345 87.4926 34.455 87.4926 31.4847C87.4926 28.4993 85.1841 26.3349 82.3362 26.3349ZM82.3362 34.5939C80.7781 34.5939 79.4371 33.3019 79.4371 31.4726C79.4371 29.6162 80.7812 28.3514 82.3362 28.3514C83.8943 28.3514 85.2353 29.6162 85.2353 31.4726C85.2383 33.314 83.8943 34.5939 82.3362 34.5939ZM71.0862 26.3349C68.2383 26.3349 65.9299 28.4993 65.9299 31.4847C65.9299 34.4429 68.2534 36.6345 71.0862 36.6345C73.9341 36.6345 76.2426 34.455 76.2426 31.4847C76.2426 28.4993 73.9311 26.3349 71.0862 26.3349ZM71.0862 34.5939C69.5282 34.5939 68.1871 33.3019 68.1871 31.4726C68.1871 29.6162 69.5312 28.3514 71.0862 28.3514C72.6443 28.3514 73.9854 29.6162 73.9854 31.4726C73.9854 33.314 72.6443 34.5939 71.0862 34.5939ZM57.6996 27.9076V30.0871H62.9222C62.7625 31.3096 62.3587 32.2122 61.7409 32.831C60.9754 33.5977 59.7941 34.4309 57.7116 34.4309C54.5021 34.4309 51.9917 31.8349 51.9917 28.62C51.9917 25.4052 54.5021 22.8092 57.7116 22.8092C59.4445 22.8092 60.7072 23.4944 61.6444 24.3698L63.1874 22.8243C61.8855 21.5746 60.1527 20.6177 57.7237 20.6177C53.3207 20.6177 49.626 24.2098 49.626 28.608C49.626 33.0182 53.3177 36.5982 57.7237 36.5982C60.1014 36.5982 61.8855 35.8194 63.2959 34.3524C64.7334 32.9125 65.1885 30.881 65.1885 29.2419C65.1885 28.7317 65.1493 28.2729 65.068 27.8835H57.6965C57.6996 27.8805 57.6996 27.9076 57.6996 27.9076ZM112.455 29.6041C112.024 28.448 110.722 26.3229 108.052 26.3229C105.406 26.3229 103.206 28.4087 103.206 31.4726C103.206 34.3645 105.382 36.6224 108.308 36.6224C110.659 36.6224 112.027 35.1825 112.59 34.3373L110.845 33.1661C110.267 34.0264 109.462 34.5909 108.32 34.5909C107.166 34.5909 106.358 34.0656 105.822 33.0302L112.696 30.1776C112.696 30.1807 112.455 29.6041 112.455 29.6041ZM105.445 31.3247C105.391 29.3354 106.988 28.3242 108.13 28.3242C109.031 28.3242 109.782 28.7679 110.038 29.4139L105.445 31.3247ZM99.8606 36.3145H102.118V21.1852H99.8606V36.3145ZM96.1538 27.479H96.0724C95.5631 26.8722 94.5957 26.3229 93.3601 26.3229C90.7955 26.3229 88.4328 28.5838 88.4328 31.4877C88.4328 34.3795 90.7835 36.6133 93.3601 36.6133C94.5807 36.6133 95.5631 36.0609 96.0724 35.4421H96.1538V36.1817C96.1538 38.1468 95.1051 39.2063 93.4144 39.2063C92.0311 39.2063 91.1722 38.2102 90.8227 37.377L88.8608 38.1981C89.4243 39.5565 90.9281 41.2378 93.4114 41.2378C96.0574 41.2378 98.2995 39.6772 98.2995 35.8707V26.6308H96.1659V27.479C96.1689 27.479 96.1538 27.479 96.1538 27.479ZM93.5621 34.5939C92.004 34.5939 90.7021 33.2898 90.7021 31.4877C90.7021 29.6705 92.004 28.3544 93.5621 28.3544C95.1051 28.3544 96.3015 29.6856 96.3015 31.4877C96.3165 33.2898 95.1081 34.5939 93.5621 34.5939ZM123.024 21.1852H117.626V36.3145H119.883V30.5851H123.027C125.525 30.5851 127.981 28.771 127.981 25.8912C127.981 23.0114 125.534 21.1852 123.024 21.1852ZM123.09 28.4721H119.88V23.2801H123.09C124.781 23.2801 125.736 24.6777 125.736 25.8761C125.736 27.0624 124.768 28.4721 123.09 28.4721ZM137.028 26.3078C135.389 26.3078 133.698 27.0353 132.999 28.62L135 29.4532C135.431 28.62 136.22 28.3363 137.055 28.3363C138.224 28.3363 139.406 29.0366 139.433 30.2863V30.4463C139.029 30.2169 138.143 29.8667 137.082 29.8667C134.921 29.8667 132.731 31.05 132.731 33.2687C132.731 35.3002 134.503 36.6043 136.477 36.6043C137.992 36.6043 138.827 35.919 139.349 35.1251H139.43V36.2964H141.606V30.5006C141.606 27.802 139.605 26.3078 137.028 26.3078ZM136.745 34.5939C136.006 34.5939 134.973 34.2316 134.973 33.3019C134.973 32.1307 136.263 31.6869 137.363 31.6869C138.357 31.6869 138.827 31.9013 139.418 32.1971C139.255 33.5555 138.11 34.5818 136.745 34.5939ZM149.544 26.6308L146.952 33.1932H146.871L144.185 26.6308H141.756L145.786 35.8043L143.489 40.9028H145.84L152.039 26.6308H149.544ZM129.226 36.3145H131.483V21.1852H129.226V36.3145Z" fill="white"/>
<path fill-rule="evenodd" clip-rule="evenodd" d="M12.6086 9.11983C12.259 9.49716 12.0571 10.0737 12.0571 10.8284V37.5944C12.0571 38.3491 12.259 38.9256 12.6207 39.2879L12.7141 39.3694L27.6859 24.3729V24.0378L12.7021 9.03833L12.6086 9.11983Z" fill="url(#paint0_linear)"/>
<path fill-rule="evenodd" clip-rule="evenodd" d="M32.6679 29.3868L27.6743 24.385V24.0348L32.6679 19.033L32.7764 19.0994L38.6832 22.4621C40.3739 23.416 40.3739 24.9917 38.6832 25.9577L32.7764 29.3204L32.6679 29.3868Z" fill="url(#paint1_linear)"/>
<path fill-rule="evenodd" clip-rule="evenodd" d="M32.7763 29.3202L27.6742 24.2097L12.6089 39.2998C13.1604 39.8914 14.0856 39.9578 15.1193 39.3813L32.7763 29.3202Z" fill="url(#paint2_linear)"/>
<path fill-rule="evenodd" clip-rule="evenodd" d="M32.7763 19.0992L15.1193 9.05328C14.0856 8.46163 13.1574 8.54313 12.6089 9.13478L27.6742 24.2098L32.7763 19.0992Z" fill="url(#paint3_linear)"/>
<path opacity="0.2" fill-rule="evenodd" clip-rule="evenodd" d="M32.6679 29.2117L15.1315 39.1912C14.152 39.7557 13.2781 39.7165 12.7145 39.2033L12.6211 39.2969L12.7145 39.3784C13.2781 39.8885 14.152 39.9308 15.1315 39.3663L32.7885 29.3203L32.6679 29.2117Z" fill="black"/>
<path opacity="0.12" fill-rule="evenodd" clip-rule="evenodd" d="M38.6832 25.7824L32.6528 29.2116L32.7613 29.3202L38.6681 25.9575C39.5149 25.4745 39.9308 24.8406 39.9308 24.2097C39.8796 24.7893 39.4486 25.3387 38.6832 25.7824Z" fill="black"/>
<path opacity="0.25" fill-rule="evenodd" clip-rule="evenodd" d="M15.119 9.2285L38.6828 22.6372C39.4482 23.0689 39.8792 23.6333 39.9455 24.2099C39.9455 23.579 39.5296 22.9451 38.6828 22.4621L15.119 9.05342C13.4283 8.08445 12.0571 8.89344 12.0571 10.8284V11.0034C12.0571 9.0655 13.4283 8.2716 15.119 9.2285Z" fill="white"/>
</g>
<defs>
<linearGradient id="paint0_linear" x1="26.343" y1="10.5396" x2="2.35547" y2="16.9206" gradientUnits="userSpaceOnUse">
<stop stop-color="#00A0FF"/>
<stop offset="0.00657" stop-color="#00A1FF"/>
<stop offset="0.2601" stop-color="#00BEFF"/>
<stop offset="0.5122" stop-color="#00D2FF"/>
<stop offset="0.7604" stop-color="#00DFFF"/>
<stop offset="1" stop-color="#00E3FF"/>
</linearGradient>
<linearGradient id="paint1_linear" x1="40.888" y1="24.2099" x2="11.6466" y2="24.2099" gradientUnits="userSpaceOnUse">
<stop stop-color="#FFE000"/>
<stop offset="0.4087" stop-color="#FFBD00"/>
<stop offset="0.7754" stop-color="#FFA500"/>
<stop offset="1" stop-color="#FF9C00"/>
</linearGradient>
<linearGradient id="paint2_linear" x1="30.0019" y1="26.9906" x2="10.7022" y2="59.4202" gradientUnits="userSpaceOnUse">
<stop stop-color="#FF3A44"/>
<stop offset="1" stop-color="#C31162"/>
</linearGradient>
<linearGradient id="paint3_linear" x1="8.81529" y1="0.216867" x2="17.4257" y2="14.7005" gradientUnits="userSpaceOnUse">
<stop stop-color="#32A071"/>
<stop offset="0.0685" stop-color="#2DA771"/>
<stop offset="0.4762" stop-color="#15CF74"/>
<stop offset="0.8009" stop-color="#06E775"/>
<stop offset="1" stop-color="#00F076"/>
</linearGradient>
<clipPath id="clip0">
<rect width="163.816" height="48.4186" fill="white" transform="translate(0 0.000244141)"/>
</clipPath>
</defs>
</svg>
