<svg width="110" height="110" viewBox="0 0 110 110" fill="none" xmlns="http://www.w3.org/2000/svg">
<circle cx="81" cy="35" r="19" fill="#D2F3E6"/>
<circle cx="36" cy="69" r="28" fill="#D2F3E6"/>
<g clip-path="url(#clip0)">
<path d="M83.9797 35.1096L19.1447 38.2964C16.536 38.4254 14.5418 40.5485 14.7847 42.9441L18.658 81.5075C18.8941 83.8457 21.1636 85.5176 23.693 85.2154L88.8113 77.5026C91.3077 77.2044 93.1035 75.105 92.8217 72.8054L88.6641 38.7598C88.3968 36.583 86.3549 34.9919 83.9797 35.1096Z" fill="#7FD5B5"/>
<path d="M22.6265 38.1793L81.9085 26.6467C84.2925 26.1792 86.5727 27.8 86.9066 30.1847L92.2026 68.5864C92.5214 70.9148 90.8553 73.0485 88.4995 73.33L27.9284 80.5078C25.6057 80.7853 23.5074 79.1428 23.2338 76.8422L19.2259 42.7871C18.967 40.6093 20.4463 38.5975 22.6265 38.1793Z" fill="white"/>
<path d="M88.6528 74.549C88.6446 74.55 88.6446 74.55 88.6528 74.549L28.0744 81.7361C26.6196 81.9099 25.1886 81.5079 24.0346 80.6161C22.8889 79.7234 22.1652 78.4315 21.9939 76.9905L17.986 42.9354C17.6521 40.1272 19.5869 37.5047 22.3895 36.9623L81.6715 25.4296C83.1633 25.1435 84.6682 25.4619 85.9039 26.3356C87.1395 27.2093 87.9323 28.5179 88.1425 30.004L93.4468 68.4047C93.6449 69.8591 93.2546 71.3006 92.346 72.472C91.4281 73.6362 90.1242 74.3732 88.6528 74.549ZM82.3667 27.821C82.2923 27.8299 82.2179 27.8388 82.1445 27.8558L22.8625 39.3885C21.3387 39.6868 20.2847 41.1163 20.4658 42.6391L24.4746 76.7025C24.5681 77.4884 24.9615 78.1887 25.5898 78.6783C26.2181 79.1679 26.9981 79.3819 27.7833 79.2881L88.3535 72.102C89.1553 72.0063 89.8705 71.6053 90.3654 70.9732C90.8603 70.3412 91.0683 69.5524 90.9656 68.7592L85.6613 30.3585C85.5484 29.55 85.1199 28.8372 84.443 28.3618C83.8371 27.9193 83.1024 27.7331 82.3667 27.821Z" fill="#00BF71"/>
<path d="M58.8471 48.7906C58.1859 48.8696 57.5697 48.4118 57.467 47.7598C57.3614 47.0832 57.8315 46.4541 58.5064 46.3486L79.9116 42.986C80.5607 42.8753 81.2284 43.3435 81.333 44.0119C81.4386 44.6885 80.9685 45.3176 80.2936 45.4231L58.8885 48.7857C58.8802 48.7867 58.8637 48.7886 58.8471 48.7906Z" fill="#00BF71"/>
<path d="M60.0644 62.553C59.4031 62.632 58.787 62.1742 58.6843 61.5222C58.5787 60.8457 59.0488 60.2166 59.7237 60.111L81.1289 56.7485C81.8028 56.6347 82.4457 57.106 82.5503 57.7744C82.6559 58.4509 82.1858 59.08 81.5109 59.1855L60.1057 62.5481C60.0975 62.5491 60.0809 62.5511 60.0644 62.553Z" fill="#00BF71"/>
<path d="M80.5965 52.835C80.5965 52.835 80.5882 52.836 80.5965 52.835L59.0901 55.3461C58.404 55.4281 57.784 54.9375 57.7041 54.2662C57.6233 53.5866 58.1119 52.9719 58.798 52.89L80.3044 50.3789C80.9905 50.2969 81.6105 50.7875 81.6904 51.4588C81.7629 52.1393 81.2743 52.754 80.5965 52.835Z" fill="#00BF71"/>
<path d="M40.1318 60.957C40.1318 60.957 29.3394 61.9889 30.4713 72.424L55.0482 68.8735C55.0472 68.8653 54.3757 58.1427 40.1318 60.957Z" fill="#4851DE"/>
<path d="M30.6081 73.6451C30.2858 73.6836 29.9571 73.5983 29.6983 73.3967C29.4304 73.1879 29.2602 72.8844 29.2212 72.5569C28.8532 69.1799 29.5972 66.3426 31.4281 64.1144C34.4243 60.4766 39.2885 59.7876 39.9362 59.7351C45.2044 58.7072 49.3594 59.3152 52.3 61.5546C55.9603 64.3473 56.2662 68.612 56.2794 68.7931C56.3222 69.4356 55.8536 70.0064 55.2108 70.0998L30.6339 73.6503C30.6329 73.6421 30.6164 73.6441 30.6081 73.6451ZM40.22 62.1922C39.8397 62.2377 35.7228 62.7959 33.3587 65.6856C32.2026 67.1025 31.6179 68.8828 31.6347 70.9982L53.5908 67.8272C53.2761 66.6608 52.5294 64.8236 50.7613 63.4904C48.4038 61.7128 44.9052 61.2672 40.3761 62.1653C40.3347 62.1702 40.2944 62.1834 40.2521 62.1801C40.2448 62.1893 40.2365 62.1903 40.22 62.1922Z" fill="#4851DE"/>
<path d="M40.4327 56.7197C43.642 56.3363 45.9372 53.4487 45.5592 50.27C45.1812 47.0913 42.2732 44.8252 39.0639 45.2086C35.8546 45.592 33.5594 48.4797 33.9374 51.6584C34.3154 54.8371 37.2234 57.1031 40.4327 56.7197Z" fill="#4851DE"/>
<path d="M40.5788 57.9479C38.7603 58.1651 36.9602 57.691 35.4897 56.6045C33.9729 55.4821 32.9895 53.8392 32.718 51.9785C32.4464 50.1178 32.9304 48.2664 34.0675 46.7605C35.2046 45.2546 36.8655 44.2757 38.7443 44.0014C40.6231 43.7271 42.4903 44.2015 44.007 45.324C45.5237 46.4464 46.5071 48.0893 46.7787 49.95C47.0503 51.8108 46.5662 53.6621 45.4291 55.168C44.292 56.6739 42.6312 57.6529 40.7524 57.9271C40.6945 57.934 40.6367 57.941 40.5788 57.9479ZM39.2172 46.4276C39.1759 46.4325 39.1428 46.4365 39.1015 46.4414C37.882 46.6203 36.809 47.255 36.0701 48.2318C35.3311 49.2085 35.021 50.408 35.1982 51.6158C35.3754 52.8235 36.013 53.8849 36.9967 54.6143C37.9805 55.3438 39.2151 55.6447 40.4097 55.4687C41.6292 55.2898 42.7022 54.6551 43.4412 53.6784C44.1801 52.7017 44.4902 51.5021 44.313 50.2944C44.1359 49.0867 43.4983 48.0253 42.5145 47.2958C41.5595 46.5962 40.391 46.2874 39.2172 46.4276Z" fill="#4851DE"/>
<path d="M50.0911 39.0996L46.1329 26.752L56.9651 25.0677L57.9997 38.2794" fill="#00BF71"/>
<path d="M58.1457 39.5077C58.1291 39.5096 58.1126 39.5116 58.0961 39.5136C57.4071 39.571 56.8099 39.0611 56.7539 38.3786L55.8192 26.5001L47.7609 27.7534L51.2789 38.7254C51.49 39.3728 51.1206 40.0729 50.4666 40.2839C49.8034 40.4876 49.1071 40.1307 48.896 39.4834L44.9451 27.1266C44.8371 26.7824 44.8842 26.4032 45.0743 26.0981C45.2643 25.7931 45.5828 25.5807 45.9455 25.5291L56.7694 23.8457C57.1074 23.7971 57.4609 23.8794 57.738 24.0954C58.007 24.3124 58.1782 24.624 58.2108 24.9689L59.2454 38.1806C59.2994 38.8467 58.8069 39.4287 58.1457 39.5077Z" fill="#00BF71"/>
<path d="M62.7032 40.3999C62.6866 40.4019 62.6701 40.4039 62.6536 40.4059L45.8572 41.7066C45.1682 41.764 44.571 41.2541 44.515 40.5716C44.4672 39.8882 44.9743 39.2879 45.6643 39.2386L62.4607 37.9379C63.1497 37.8805 63.7468 38.3904 63.8029 39.0729C63.8569 39.739 63.3644 40.3209 62.7032 40.3999Z" fill="#00BF71"/>
<path d="M90.5292 65.8638L90.9799 68.9486C90.9799 68.9486 91.1471 71.5525 88.5049 72.0343C85.9206 72.5091 69.2692 74.3239 69.2692 74.3239C69.2692 74.3239 88.415 68.8814 87.3184 43.1638L90.5292 65.8638Z" fill="#E6F7F0"/>
</g>
<defs>
<clipPath id="clip0">
<rect width="79.3592" height="57.0788" fill="white" transform="matrix(0.99294 -0.11862 0.118085 0.993003 12.4309 29.1428)"/>
</clipPath>
</defs>
</svg>
