<svg width="110" height="110" viewBox="0 0 110 110" fill="none" xmlns="http://www.w3.org/2000/svg">
<ellipse cx="71.5" cy="38" rx="20.5" ry="21" fill="#D2F3E6"/>
<circle cx="33" cy="78" r="18" fill="#D2F3E6"/>
<g clip-path="url(#clip0)">
<path d="M61.7598 31.2015C61.7598 31.2015 52.5553 24.0491 38.8018 30.9561C21.5859 39.5987 28.1246 52.8529 29.3551 60.5561C30.321 66.6166 29.9285 75.9055 25.8494 81.6517C24.8122 83.111 26.0355 85.0703 27.8044 84.7706L79.853 75.8353C81.9112 75.4846 82.6721 72.9287 81.1229 71.5513C77.162 68.027 71.8278 62.0036 71.4547 54.9339C70.8389 43.5893 70.3583 36.2428 61.7598 31.2015Z" fill="#7FD5B5"/>
<path d="M35.0336 61.1505L33.9753 68.459C33.9753 68.459 41.3968 67.849 45.34 67.6996C49.2832 67.5502 62.1552 65.9956 67.8315 64.176C73.5078 62.3565 78.9707 59.1732 78.9707 59.1732L75.3585 52.0416C75.3585 52.0416 68.1293 57.9393 59.0241 59.1747C49.9109 60.4104 35.0336 61.1505 35.0336 61.1505Z" fill="#00BF71"/>
<path d="M66.2395 27.0606C66.2395 27.0606 57.0351 19.9082 43.2815 26.8152C26.0657 35.4578 32.6043 48.712 33.8348 56.4152C34.8008 62.4757 34.4082 71.7646 30.3291 77.5109C29.292 78.9701 30.5152 80.9294 32.2841 80.6298L84.3327 71.6944C86.3909 71.3437 87.1519 68.7878 85.6027 67.4104C81.6417 63.8862 76.3075 57.8628 75.9345 50.793C75.3186 39.4484 74.8461 32.1016 66.2395 27.0606Z" fill="white"/>
<path d="M36.7533 76.6341C36.5879 75.6857 36.7892 74.8036 37.2099 74.1619L37.2174 74.1456C40.5786 69.1004 41.8428 62.3136 40.6739 55.5949L39.1934 47.0589C37.5595 37.6782 41.7626 28.1567 48.6298 25.3053C47.6975 25.2604 43.655 26.633 42.7142 26.7889C34.2403 28.2411 30.5765 41.3203 32.4089 51.8807L33.1243 58.3759C34.2932 65.0946 35.055 70.0397 31.6938 75.0849L31.6863 75.1012C31.2656 75.7429 30.2955 77.689 30.4609 78.6374C30.7512 80.3192 32.8677 80.4396 34.2185 80.2119L39.7418 79.2646C38.3916 79.5083 37.0439 78.3239 36.7533 76.6341Z" fill="#D2F3E6"/>
<path d="M40.0172 67.8698C37.7792 67.9546 36.3612 67.9441 36.1316 67.9448C35.474 67.9376 34.9466 67.396 34.953 66.7299C34.9595 66.0638 35.462 65.5313 36.1512 65.5373C36.397 65.544 60.9527 65.6727 76.0089 57.5451C76.5911 57.2343 77.3043 57.456 77.6115 58.038C77.9187 58.62 77.7008 59.3503 77.1265 59.6609C65.0428 66.1837 47.7041 67.5786 40.0172 67.8698Z" fill="#4851DE" stroke="#4851DE" stroke-width="3" stroke-miterlimit="10"/>
<path d="M32.0313 81.859C30.9001 81.9019 29.852 81.3639 29.2326 80.3926C28.5275 79.2962 28.5714 77.8906 29.3319 76.8188C33.0196 71.633 33.6447 62.9289 32.6364 56.6052C32.4568 55.4969 32.1581 54.2326 31.8404 52.8969C30.0108 45.1843 27.2385 33.5203 42.7313 25.7452C56.5405 18.8121 65.9562 25.3467 66.922 26.0643C76.1175 31.4841 76.5449 39.5626 77.1295 50.7239C77.4741 57.2572 82.3577 62.9207 86.4023 66.514C87.4658 67.4604 87.8762 68.897 87.4828 70.2597C87.0819 71.6387 85.9548 72.6441 84.5315 72.8825L32.4829 81.8178C32.33 81.8397 32.1849 81.8532 32.0313 81.859ZM54.3557 25.008C51.3337 25.1225 47.7945 25.8984 43.8238 27.8859C30.0383 34.8021 32.3406 44.5265 34.1985 52.3422C34.526 53.7258 34.8343 55.0298 35.0253 56.2259C36.1165 63.0278 35.3897 72.4658 31.3102 78.204C31.0103 78.6165 31.211 79.002 31.2796 79.1037C31.3653 79.2288 31.603 79.5246 32.0612 79.4431L84.1098 70.5078C84.6164 70.4244 84.9999 70.081 85.143 69.5862C85.2786 69.1077 85.147 68.6233 84.7787 68.3003C80.3988 64.3988 75.0906 58.2059 74.7067 50.8478C74.0809 39.0302 73.3944 32.6543 65.6233 28.095C65.582 28.0725 65.5323 28.0423 65.4988 28.0115C65.2488 27.8204 61.127 24.7515 54.3557 25.008Z" fill="#00BF71"/>
<path d="M80.8675 36.8234C80.2292 36.8476 79.6771 36.3711 79.6127 35.7398C78.4785 23.9576 68.5322 21.9998 68.1084 21.9196C67.4485 21.8002 67.0121 21.1749 67.1329 20.5205C67.2541 19.8741 67.8851 19.4411 68.545 19.5605C68.6671 19.5799 80.7139 21.8753 82.0316 35.5118C82.0972 36.1752 81.6097 36.7632 80.9403 36.8207C80.916 36.8216 80.8918 36.8225 80.8675 36.8234Z" fill="#4851DE"/>
<path d="M25.7143 54.3796C25.3588 54.393 24.9972 54.2463 24.7435 53.9591C24.6672 53.8657 16.8433 44.4949 24.5698 33.1392C24.9454 32.5874 25.7007 32.4465 26.2567 32.8105C26.8129 33.1826 26.9626 33.931 26.587 34.4827C19.9108 44.2985 26.323 52.0781 26.6024 52.4045C27.0343 52.9096 26.9661 53.6743 26.4561 54.0948C26.2365 54.2796 25.9729 54.3698 25.7143 54.3796Z" fill="#4851DE"/>
<path d="M17.8891 49.6709C17.6386 49.6804 17.377 49.6101 17.1528 49.4582C17.0863 49.4125 15.4235 48.2401 14.1582 46.0256C12.9882 43.9761 11.9219 40.6069 13.4931 36.1591C13.7122 35.533 14.4036 35.202 15.043 35.4184C15.6743 35.6352 16.0077 36.3205 15.7887 36.9466C13.3756 43.7368 18.3347 47.3356 18.5428 47.4881C19.0832 47.8688 19.2168 48.6178 18.8328 49.1619C18.6022 49.4835 18.2527 49.6572 17.8891 49.6709Z" fill="#4851DE"/>
<path d="M85.0965 30.9751C84.9672 30.98 84.8289 30.9612 84.6981 30.9261C84.0597 30.7336 83.6942 30.0575 83.8968 29.4241C86.0231 22.5405 80.9258 19.1395 80.7103 19.0032C80.1543 18.6392 79.9887 17.8994 80.356 17.3399C80.7151 16.7808 81.4617 16.6242 82.0255 16.9799C82.1 17.0252 83.8005 18.124 85.1612 20.2947C86.4103 22.2931 87.6127 25.6251 86.2216 30.1303C86.0543 30.626 85.5975 30.9562 85.0965 30.9751Z" fill="#4851DE"/>
<path d="M45.2525 26.7244C44.6384 26.7476 44.0875 26.3032 44.0076 25.6885C43.672 23.2383 44.3479 18.4393 49.2914 17.7787C54.2024 17.1193 56.1442 21.1693 56.4716 23.4032C56.5692 24.0574 56.1068 24.6686 55.447 24.7658C54.7707 24.8556 54.1548 24.4056 54.065 23.7431C54.0007 23.3284 53.3194 19.6558 49.6161 20.1571C45.9128 20.6584 46.3562 24.8855 46.4148 25.3647C46.4962 26.0194 46.0336 26.6226 45.3734 26.7118C45.3252 26.7216 45.2848 26.7232 45.2525 26.7244Z" fill="#00BF71"/>
<path d="M50.8912 77.526C50.8912 77.526 54.0066 83.7218 59.4347 83.2514C64.8627 82.781 67.4801 79.6734 67.1511 75.0488" fill="#00BF71"/>
<path d="M59.1416 84.482C53.2106 84.7066 49.9434 78.3482 49.8032 78.0647C49.5057 77.4743 49.7453 76.7512 50.3491 76.4556C50.9448 76.1603 51.674 76.3974 51.9718 76.9958C51.9981 77.051 54.7842 82.4569 59.3253 82.0682C63.9471 81.6766 66.2272 79.2797 65.9333 75.1512C65.8838 74.4872 66.3881 73.9146 67.0579 73.8651C67.736 73.8234 68.3049 74.3153 68.3543 74.9793C68.7466 80.4197 65.4498 83.9622 59.5375 84.467C59.3998 84.4642 59.2709 84.4771 59.1416 84.482Z" fill="#00BF71"/>
</g>
<defs>
<clipPath id="clip0">
<rect width="76.9314" height="67.0684" fill="white" transform="translate(11.8779 19.156) rotate(-2.16951)"/>
</clipPath>
</defs>
</svg>
