<svg width="110" height="110" viewBox="0 0 110 110" fill="none" xmlns="http://www.w3.org/2000/svg">
<ellipse cx="78.5" cy="36" rx="11.5" ry="12" fill="#D2F3E6"/>
<circle cx="49.5" cy="66.4998" r="23.5" fill="#D2F3E6"/>
<g clip-path="url(#clip0)">
<path d="M52.528 57.446C52.528 57.446 45.9723 36.5241 43.3384 33.8569C40.6213 31.0984 37.2978 34.3721 38.3364 39.1165C40.2142 47.6664 41.984 58.011 43.9283 63.121C44.2357 63.9353 47.2934 68.796 46.4791 68.472C42.6903 66.9681 34.1071 64.0849 32.1878 66.3947C29.6369 69.4691 31.8554 71.0062 34.5807 73.6983C37.3144 76.3904 53.1928 84.2008 59.8898 85.0566C69.2872 86.2614 81.4847 81.7746 83.0468 72.7428C84.9745 61.5589 77.2222 46.42 75.3361 44.0603C73.2422 41.443 69.1958 41.4513 68.9382 47.9738C68.9382 47.9738 66.2295 41.335 62.8062 43.7612C59.3829 46.1874 60.5046 51.0564 60.5046 51.0564C60.5046 51.0564 57.4636 43.2543 53.3839 45.5559C49.3042 47.8575 52.528 57.446 52.528 57.446Z" fill="#7FD5B5"/>
<path d="M54.323 51.3637C54.323 51.3637 47.7506 30.392 45.1167 27.7165C42.3913 24.9579 38.3864 28.4394 40.1064 32.9927C41.5937 36.9311 47.5844 55.0114 49.6284 61.1517C49.9026 61.9826 49.0883 62.747 48.2741 62.4229C44.4769 60.919 35.8688 58.0275 33.9494 60.3457C31.3903 63.4283 33.6088 64.9655 36.3507 67.6742C39.0927 70.3746 55.0126 78.2016 61.7179 79.0574C71.132 80.2705 83.371 75.7671 84.9248 66.7103C86.8525 55.5016 79.0836 40.3211 77.1975 37.9614C75.0953 35.3358 71.0406 35.3441 70.783 41.8832C70.783 41.8832 68.066 35.2278 64.6344 37.6623C61.2028 40.0968 62.3328 44.9741 62.3328 44.9741C62.3328 44.9741 59.2834 37.1554 55.1954 39.4653C51.1074 41.7752 54.323 51.3637 54.323 51.3637Z" fill="white"/>
<path d="M33.9409 60.3457C33.9409 60.3457 66.0134 87.2335 84.8 64.8575L84.9163 66.7104L85.0658 71.4215C85.0658 71.4215 80.2467 77.9856 72.9514 79.4397C65.6561 80.8937 58.3027 80.0878 51.7968 77.5203C45.2909 74.9445 32.196 66.4029 32.196 66.4029C32.196 66.4029 30.2767 60.4454 33.9409 60.3457Z" fill="#E8F4EF" stroke="#E6F7F0" stroke-width="0.889812" stroke-miterlimit="10"/>
<path d="M42.9646 26.7361C43.6875 26.7361 44.4353 27.0352 45.1083 27.7165C47.5428 30.1843 53.3342 48.2563 54.2066 51.0065C54.2731 51.2309 54.3146 51.3555 54.3146 51.3555C54.3146 51.3555 54.2731 51.2309 54.2066 51.0065C53.6748 49.2616 51.556 41.4928 55.1787 39.4488C55.7022 39.1497 56.2174 39.025 56.6993 39.025C60.0062 39.025 62.3161 44.9659 62.3161 44.9659C62.3161 44.9659 61.1861 40.0886 64.6177 37.654C65.1495 37.2801 65.6646 37.114 66.1549 37.114C68.8303 37.114 70.7663 41.8667 70.7663 41.8667C70.9242 37.8618 72.5112 36.308 74.1979 36.308C75.2615 36.308 76.3749 36.9312 77.1891 37.9449C79.0753 40.3046 86.8441 55.485 84.9165 66.6938C83.5289 74.7784 73.6246 79.232 64.8088 79.232C63.7536 79.232 62.715 79.1655 61.7013 79.0409C54.9959 78.1768 39.076 70.3581 36.334 67.6576C33.5921 64.9572 31.3736 63.4201 33.9328 60.3292C34.4479 59.706 35.445 59.465 36.6996 59.465C40.1229 59.465 45.4905 61.3096 48.2657 62.4147C48.3986 62.4646 48.5233 62.4895 48.6479 62.4895C49.3043 62.4895 49.8444 61.8414 49.6201 61.1434C47.5761 55.0031 41.5853 36.9229 40.098 32.9844C38.8018 29.5611 40.7544 26.7361 42.9646 26.7361ZM42.9646 24.2434C41.2031 24.2434 39.4998 25.1823 38.4113 26.7527C37.0569 28.7053 36.816 31.3725 37.7632 33.8735C39.0428 37.2552 43.8453 51.6712 46.2882 59.0413C43.5296 58.1024 39.6244 56.9807 36.6996 56.9807C34.5642 56.9807 32.9939 57.5789 32.0134 58.7505C28.2245 63.3121 31.5896 66.5609 33.8247 68.7046C34.074 68.9455 34.3233 69.1865 34.5892 69.4441C37.7466 72.5599 54.2066 80.603 61.3855 81.5253C62.4906 81.6665 63.6456 81.7413 64.8088 81.7413C74.5303 81.7413 85.739 76.623 87.3676 67.1342C89.5113 54.6957 81.0943 38.8588 79.1334 36.4077C77.8206 34.7708 76.0259 33.8319 74.1979 33.8319C72.6525 33.8319 71.0239 34.5133 69.8606 36.1834C68.8553 35.2943 67.6172 34.6379 66.1549 34.6379C65.1079 34.6379 64.1109 34.9703 63.1803 35.635C62.1333 36.3828 61.3689 37.2885 60.8205 38.2689C59.6905 37.2718 58.3112 36.549 56.6993 36.549C55.7604 36.549 54.8298 36.7982 53.9573 37.2968C53.4255 37.5959 52.9686 37.9615 52.578 38.3686C50.5257 32.677 48.3654 27.4673 46.8864 25.9634C45.7896 24.8583 44.3937 24.2434 42.9646 24.2434Z" fill="#00BF71"/>
<path d="M60.9617 40.1882L66.4539 52.8012" stroke="#00BF71" stroke-width="2.66944" stroke-miterlimit="10" stroke-linecap="round" stroke-linejoin="round"/>
<path d="M51.8967 39.1248L57.1895 56.4738" stroke="#00BF71" stroke-width="2.66944" stroke-miterlimit="10" stroke-linecap="round" stroke-linejoin="round"/>
<path d="M70.1348 37.6873L73.1177 50.1091" stroke="#00BF71" stroke-width="2.66944" stroke-miterlimit="10" stroke-linecap="round" stroke-linejoin="round"/>
<path d="M34.722 33.9482C34.722 33.9482 31.8305 31.5469 31.3486 27.1349C31.3486 27.1349 30.6839 19.6734 37.4225 16.7819C44.161 13.8904 48.9553 18.6431 50.2515 21.3352C51.5477 24.0273 51.2652 26.7277 51.2652 26.7277" stroke="#4851DE" stroke-width="2.66944" stroke-miterlimit="10" stroke-linecap="round" stroke-linejoin="round"/>
</g>
<defs>
<clipPath id="clip0">
<rect width="60.3229" height="70.6343" fill="white" transform="translate(30.0857 14.6299)"/>
</clipPath>
</defs>
</svg>
