<svg width="110" height="110" viewBox="0 0 110 110" fill="none" xmlns="http://www.w3.org/2000/svg">
<ellipse cx="63" cy="49.5" rx="24" ry="24.5" fill="#D2F3E6"/>
<ellipse cx="30.093" cy="81.2788" rx="16.0862" ry="16.0862" fill="#D2F3E6"/>
<g clip-path="url(#clip0)">
<path d="M82.5551 72.7104L75.0479 46.7232C74.0486 43.2629 70.6376 41.1663 67.0946 41.8576L64.1561 42.4254L64.157 42.4334L43.6704 46.4229L38.9354 47.2943L37.6059 47.5547L37.597 47.5475L32.8504 48.4609C29.6645 49.0722 27.3141 51.8768 27.2486 55.1209L26.7906 79.3832C26.7504 81.3802 27.5789 83.2896 29.0524 84.6319C30.5171 85.967 32.4903 86.6035 34.459 86.3866C34.4751 86.3848 34.4831 86.3839 34.4992 86.3822L76.7166 81.5029C78.7406 81.2718 80.5459 80.162 81.6767 78.4678C82.7987 76.7663 83.1202 74.6651 82.5551 72.7104Z" fill="#7FD5B5"/>
<path d="M69.9886 40.0748L35.7372 46.687C33.2362 47.1659 31.4175 49.3345 31.3723 51.8769L30.9135 76.1312C30.8498 79.3914 33.6783 81.9588 36.9228 81.5851L79.1402 76.7058C82.449 76.325 84.6267 73.0596 83.6968 69.8601L76.1896 43.8729C75.4064 41.1939 72.7199 39.5462 69.9886 40.0748Z" fill="white"/>
<path d="M37.0579 83.1072C35.0892 83.3242 33.124 82.6867 31.6513 81.3525C30.1778 80.0103 29.3493 78.1008 29.3895 76.1038L29.8475 51.8416C29.9049 48.5983 32.2643 45.8009 35.4493 45.1816L69.7006 38.5694C73.2445 37.8861 76.6555 39.9827 77.654 43.4349L85.1612 69.4222C85.7262 71.3769 85.4038 73.47 84.2738 75.1723C83.143 76.8666 81.3377 77.9764 79.3137 78.2075L37.0963 83.0868C37.082 83.1046 37.0659 83.1064 37.0579 83.1072ZM70.2755 41.5721L36.0241 48.1844C34.2401 48.5273 32.9246 50.0955 32.8881 51.9051L32.4373 76.1584C32.4139 77.2752 32.8816 78.346 33.704 79.0931C34.5264 79.8402 35.6233 80.1992 36.7241 80.0779C36.7322 80.077 36.7402 80.0761 36.7482 80.0752L78.9656 75.196C80.0977 75.0632 81.1116 74.4472 81.7391 73.4997C82.3667 72.5522 82.5544 71.3766 82.2304 70.2818L74.7232 44.2946C74.1599 42.356 72.2345 41.1936 70.2755 41.5721Z" fill="#00BF71"/>
<path d="M41.8284 45.5036C41.4951 43.8812 38.6239 29.485 41.1795 24.039C43.8397 18.3619 47.7591 16.1408 54.2693 16.6191C60.7055 17.0892 64.6556 21.2003 65.791 40.8058L62.7529 40.986C61.5454 20.2092 57.2079 19.8901 54.0434 19.6613C48.0499 19.2237 45.7312 21.5043 43.9333 25.3378C42.1362 29.1794 43.9566 40.7553 44.8107 44.8904L41.8284 45.5036Z" fill="#00BF71"/>
<path d="M56.0687 64.7632C51.6974 65.2448 47.7545 62.0845 47.2728 57.7132C46.7912 53.3419 49.9516 49.399 54.3228 48.9173C58.6941 48.4357 62.6371 51.596 63.1187 55.9673C63.6003 60.3386 60.4319 64.2824 56.0687 64.7632ZM54.6557 51.9387C51.9558 52.2361 49.9967 54.6804 50.2942 57.3803C50.5916 60.0802 53.0359 62.0393 55.7358 61.7419C58.4357 61.4444 60.3948 59.0001 60.0974 56.3002C59.791 53.5931 57.3556 51.6412 54.6557 51.9387Z" fill="#4851DE"/>
<path d="M58.6408 71.2789C58.3912 69.0129 58.1415 66.7469 57.8909 64.4729C57.8555 64.1515 57.8201 63.8301 57.7847 63.5086C57.6758 62.5203 56.7035 61.6677 55.6883 61.8284C54.6651 61.9899 53.8912 62.8641 54.0081 63.9248C54.2577 66.1907 54.5074 68.4567 54.7579 70.7307C54.7933 71.0522 54.8288 71.3736 54.8642 71.695C54.9731 72.6834 55.9454 73.5359 56.9606 73.3753C57.9766 73.2227 58.7577 72.3396 58.6408 71.2789Z" fill="#4851DE"/>
<path d="M55.7811 61.9319C58.6036 61.6209 60.6395 59.0808 60.3286 56.2583C60.0176 53.4358 57.4774 51.3999 54.655 51.7108C51.8325 52.0218 49.7965 54.562 50.1075 57.3845C50.4185 60.2069 52.9586 62.2429 55.7811 61.9319Z" fill="white"/>
<path d="M32.7742 57.5131C32.7742 57.5131 36.6372 79.6564 55.7676 77.752L37.3689 80.0231C37.3689 80.0231 31.8614 81.1911 32.3417 74.4773C32.7458 68.9186 32.7742 57.5131 32.7742 57.5131Z" fill="#D2F3E6"/>
</g>
<defs>
<clipPath id="clip0">
<rect width="63.4678" height="67.5179" fill="white" transform="translate(20.1934 20.0237) rotate(-6.28747)"/>
</clipPath>
</defs>
</svg>
