<?xml version="1.0" encoding="utf-8"?>
<!-- Generator: Adobe Illustrator 21.0.0, SVG Export Plug-In . SVG Version: 6.00 Build 0)  -->
<svg version="1.1" id="Layer_1" xmlns="http://www.w3.org/2000/svg" xmlns:xlink="http://www.w3.org/1999/xlink" x="0px" y="0px"
	 viewBox="0 0 133.5 52" style="enable-background:new 0 0 133.5 52;" xml:space="preserve">
<style type="text/css">
	.st0{fill:#2D2E2D;}
	.st1{fill:#D6403D;}
	.st2{fill:#A63131;}
	.st3{fill:#5780C1;}
	.st4{fill:#FFCD3F;}
	.st5{fill:#009E5D;}
	.st6{fill:#33668F;}
	.st7{fill:#BF9447;}
</style>
<g>
	<g>
		<path class="st0" d="M21.9,33.3h-3.2l-0.2-0.6l7-7.4h0.3V30h5.3c0.1,0.5,0.2,1,0.2,1.6c0,0.3,0,0.6,0,0.9c0,0.3-0.1,0.5-0.1,0.8
			h-5.3v10c0,1.1,0,2.1,0.1,2.7c0.1,0.7,0.3,1.2,0.5,1.6c0.2,0.4,0.5,0.6,0.9,0.7c0.4,0.1,0.9,0.2,1.5,0.2c0.5,0,0.9,0,1.3-0.1
			c0.4-0.1,0.8-0.1,1.1-0.2c0.2,0.5,0.3,1.1,0.3,1.7c0,0.6,0.1,1.1,0.1,1.5c-0.5,0.1-1.1,0.2-1.7,0.3c-0.6,0.1-1.2,0.1-1.9,0.1
			c-2,0-3.5-0.5-4.6-1.4c-1.1-1-1.7-2.5-1.7-4.8V33.3z"/>
		<path class="st0" d="M42.2,52c-1.6,0-3.1-0.3-4.3-0.8c-1.2-0.6-2.3-1.3-3.1-2.3c-0.8-1-1.4-2.1-1.8-3.5c-0.4-1.3-0.6-2.8-0.6-4.3
			c0-1.6,0.2-3,0.6-4.3c0.4-1.3,1-2.5,1.8-3.5c0.8-1,1.8-1.8,3.1-2.3c1.2-0.6,2.7-0.9,4.3-0.9c1.6,0,3.1,0.3,4.3,0.9
			c1.2,0.6,2.3,1.4,3.1,2.3c0.8,1,1.4,2.1,1.8,3.5C51.8,38,52,39.4,52,41c0,1.6-0.2,3-0.6,4.3c-0.4,1.3-1,2.5-1.8,3.5
			c-0.8,1-1.8,1.8-3.1,2.3C45.3,51.7,43.8,52,42.2,52z M42.2,48.7c1.9,0,3.3-0.7,4.2-2c0.9-1.4,1.4-3.3,1.4-5.7
			c0-2.4-0.5-4.3-1.4-5.7c-0.9-1.4-2.3-2-4.2-2c-1.9,0-3.3,0.7-4.2,2c-0.9,1.4-1.3,3.2-1.3,5.7c0,2.4,0.4,4.3,1.3,5.7
			C38.9,48,40.3,48.7,42.2,48.7z"/>
		<path class="st0" d="M69.2,47.8c0.2,0.4,0.4,0.9,0.6,1.4c0.2,0.6,0.3,1.2,0.3,1.8c-1.6,0.6-3.5,0.9-5.5,0.9c-3.5,0-6.1-1-7.9-3
			c-1.8-2-2.7-4.6-2.7-8c0-1.6,0.2-3,0.7-4.3c0.4-1.3,1.1-2.5,1.9-3.5c0.9-1,1.9-1.8,3.2-2.3c1.3-0.6,2.8-0.9,4.5-0.9
			c1.1,0,2.2,0.1,3,0.2c0.9,0.1,1.7,0.4,2.5,0.7c0,0.5-0.1,1-0.2,1.6c-0.1,0.6-0.3,1.2-0.5,1.6c-1.3-0.5-2.9-0.7-4.6-0.7
			c-2.1,0-3.7,0.7-4.7,2.1c-1,1.4-1.6,3.2-1.6,5.5c0,2.6,0.6,4.5,1.8,5.8c1.2,1.2,2.8,1.8,4.8,1.8c0.8,0,1.6-0.1,2.3-0.2
			C67.8,48.3,68.5,48.1,69.2,47.8z"/>
		<path class="st0" d="M72.2,21.1c0.3-0.1,0.6-0.1,1-0.1c0.4,0,0.7,0,1,0c0.3,0,0.7,0,1,0c0.4,0,0.7,0.1,1,0.1v30.6
			c-0.3,0.1-0.7,0.1-1,0.1c-0.4,0-0.7,0-1,0c-0.3,0-0.6,0-1,0c-0.4,0-0.7-0.1-1-0.1V21.1z"/>
		<path class="st0" d="M90.9,21.4c0.3-0.1,0.6-0.1,1-0.1c0.4,0,0.7,0,1,0c0.3,0,0.6,0,1,0c0.4,0,0.7,0.1,1,0.1V33
			c0.5-0.8,1.3-1.5,2.3-2.1c1-0.6,2.3-0.9,3.8-0.9c1.3,0,2.4,0.2,3.5,0.6c1.1,0.4,2,1,2.7,1.9c0.8,0.9,1.4,2,1.8,3.3
			c0.4,1.3,0.6,2.9,0.6,4.7c0,3.6-1,6.4-3.1,8.5c-2,2-5,3.1-8.8,3.1c-1.2,0-2.4-0.1-3.7-0.3c-1.3-0.2-2.3-0.5-3.2-0.8V21.4z
			 M95,48.1c0.5,0.2,1,0.3,1.6,0.3c0.6,0.1,1.1,0.1,1.7,0.1c1,0,1.9-0.2,2.8-0.5c0.9-0.3,1.6-0.8,2.2-1.4c0.6-0.6,1.1-1.5,1.5-2.5
			c0.4-1,0.6-2.2,0.6-3.5c0-2.3-0.4-4-1.2-5.3c-0.8-1.3-2.1-1.9-3.9-1.9c-0.6,0-1.2,0.1-1.9,0.3c-0.6,0.2-1.2,0.5-1.7,1
			c-0.5,0.5-0.9,1.1-1.2,1.8c-0.3,0.8-0.5,1.7-0.5,2.7V48.1z"/>
		<path class="st0" d="M112.9,33.4h-2.7c-0.1-0.2-0.1-0.5-0.1-0.8c0-0.3,0-0.6,0-0.9c0-0.3,0-0.6,0-0.9c0-0.3,0.1-0.6,0.1-0.8h6.8
			v21.7c-0.3,0.1-0.7,0.1-1,0.1c-0.4,0-0.7,0-1,0c-0.3,0-0.6,0-1,0c-0.4,0-0.7-0.1-1-0.1V33.4z"/>
		<path class="st0" d="M122.1,33.3h-3.2l-0.2-0.6l7-7.4h0.3V30h5.3c0.1,0.5,0.2,1,0.2,1.6c0,0.3,0,0.6,0,0.9c0,0.3-0.1,0.5-0.1,0.8
			h-5.3v10c0,1.1,0,2.1,0.1,2.7c0.1,0.7,0.3,1.2,0.5,1.6c0.2,0.4,0.5,0.6,0.9,0.7c0.4,0.1,0.9,0.2,1.5,0.2c0.5,0,0.9,0,1.3-0.1
			c0.4-0.1,0.8-0.1,1.1-0.2c0.2,0.5,0.3,1.1,0.3,1.7c0,0.6,0.1,1.1,0.1,1.5c-0.5,0.1-1.1,0.2-1.7,0.3c-0.6,0.1-1.2,0.1-1.9,0.1
			c-2,0-3.5-0.5-4.6-1.4c-1.1-1-1.7-2.5-1.7-4.8V33.3z"/>
		<path class="st0" d="M77.2,40.7L84,30.3c0.4-0.1,0.7-0.1,1.1-0.1c0.4,0,0.7,0,1.1,0c0.4,0,0.8,0,1.2,0c0.4,0,0.8,0.1,1.1,0.1
			l-6.8,10l8,11.4c-0.4,0.1-0.8,0.1-1.1,0.1c-0.4,0-0.7,0-1.1,0c-0.4,0-0.8,0-1.2,0c-0.4,0-0.8-0.1-1.2-0.1L77.2,40.7z"/>
		<path class="st0" d="M9,33.7L9,33.7l-0.4,0c0,0,0,0-0.1,0l0,0H8.5c-0.1,0-1.3,0-2.5-0.6c-1.4-0.7-2.2-1.9-2.2-3.7
			c0-5.2,4.8-5.5,5.7-5.5c2.6,0,4.1,1.5,4.5,4.5l0.1,0.4l2.8,0v-6.4l-0.3-0.1c-0.1,0-3.4-1.1-6.9-1.1c-3.6,0-9.7,1.2-9.7,9.2
			C0,37.9,8,38,8.4,38c0.4,0,6,0.6,6,5.1c0,5.5-3.3,5.9-6.4,5.9c-1.9,0-5.1-0.7-5.1-5.1v-0.5l-3,0v5.7l0.2,0.2
			C0.4,49.3,4,51.9,8,51.9c7,0,10.6-3.4,10.6-9.9C18.6,34.6,11,33.8,9,33.7z"/>
	</g>
	<g>
		<g>
			<path class="st0" d="M123.2,7.7h-3.1V4.6h-17.7c-0.7,0-1.2,0.5-1.2,1.2v14.8c0,0.7,0.5,1.2,1.2,1.2h8.9c0,0,0,0,0,0.1l2.1,3.3
				c0.1,0.2,0.2,0.2,0.4,0.2c0.1,0,0.3-0.1,0.4-0.2l2.1-3.3c0,0,0,0,0-0.1h8.9c0.7,0,1.2-0.5,1.2-1.2v-9.7h-3.1V7.7z"/>
			<rect x="121.8" y="2.9" class="st0" width="3.1" height="3.1"/>
			<rect x="127.2" y="6" class="st0" width="3.1" height="3.1"/>
			<rect x="130.4" y="-0.1" class="st0" width="3.1" height="3.1"/>
		</g>
		<g>
			<path class="st1" d="M107.6,18.2c-0.1,0-0.2,0-0.4-0.2l-4.1-4.1c-0.1-0.1-0.2-0.3-0.2-0.5c0-0.2,0.1-0.4,0.2-0.5l0.6-0.6
				c0.1-0.1,0.3-0.2,0.5-0.2c0.2,0,0.4,0.1,0.5,0.2l3,3c0.2,0.2,0.4,0.6,0.4,0.9l-0.1,1.5C108,18,107.8,18.2,107.6,18.2z"/>
			<path class="st2" d="M106,16.7l1.4-1.9c0,0,0.4,0.4,0.4,0.4c0.1,0.1,0.1,0.1,0.1,0.1l-1.8,1.5L106,16.7z"/>
			<path class="st3" d="M107.8,18.2c-0.2,0-0.4-0.1-0.5-0.2l-1.2-1.2l6.2-5.1c0.1-0.1,0.2-0.1,0.4-0.1c0.2,0,0.4,0.2,0.5,0.5l0,1.4
				c0,0.3-0.2,0.7-0.4,0.9l-4.4,3.6C108.1,18.1,107.9,18.2,107.8,18.2L107.8,18.2z"/>
			<path class="st4" d="M115.8,16.3c-0.1,0-0.2,0-0.3-0.1l-4.6-3.3l0.6-0.5l0.7-0.6c0.1-0.1,0.3-0.2,0.5-0.2c0.2,0,0.3,0.1,0.5,0.1
				l2.5,1.8c0.3,0.2,0.5,0.6,0.5,0.9l0.1,1.4c0,0.2-0.1,0.3-0.1,0.4C116.1,16.3,116,16.3,115.8,16.3z"/>
			<path class="st5" d="M116,16.4c-0.2,0-0.3-0.1-0.5-0.1l-1.4-1l6.3-5.4c0.1-0.1,0.3-0.2,0.5-0.2c0.2,0,0.4,0.1,0.5,0.2l0.6,0.7
				c0.1,0.1,0.2,0.3,0.2,0.5c0,0.2-0.1,0.4-0.2,0.5l-5.4,4.6C116.4,16.3,116.2,16.4,116,16.4L116,16.4z"/>
			<path class="st6" d="M110.7,13l1.5,1.8c0,0,0.4-0.3,0.5-0.4c0.1-0.1,0.1-0.1,0.1-0.1l-1.9-1.4L110.7,13z"/>
			<path class="st7" d="M114,15.1l1.4-1.8c0,0,0.3,0.2,0.3,0.2c0.1,0.1,0.1,0.1,0.1,0.1L114,15.1L114,15.1z"/>
		</g>
	</g>
</g>
</svg>
