<svg width="316" height="315" viewBox="0 0 316 315" fill="none" xmlns="http://www.w3.org/2000/svg">
<path d="M273.46 202.538L313.922 162.067C314.522 161.469 314.998 160.759 315.322 159.977C315.647 159.194 315.814 158.356 315.814 157.509C315.814 156.662 315.647 155.824 315.322 155.042C314.998 154.26 314.522 153.549 313.922 152.951L273.46 112.48C272.262 111.267 271.593 109.628 271.6 107.922V50.6895C271.6 48.9799 270.921 47.3403 269.712 46.1315C268.503 44.9226 266.864 44.2435 265.154 44.2435H207.893C206.188 44.2507 204.549 43.5818 203.336 42.3831L162.892 1.88392C161.682 0.677472 160.043 0 158.334 0C156.626 0 154.987 0.677472 153.777 1.88392L113.305 42.3552C112.092 43.5539 110.453 44.2228 108.747 44.2156H51.4867C49.7771 44.2156 48.1376 44.8947 46.9287 46.1035C45.7199 47.3124 45.0407 48.952 45.0407 50.6616V107.894C45.048 109.6 44.3791 111.239 43.1804 112.452L2.70908 152.923C1.50263 154.134 0.825195 155.773 0.825195 157.481C0.825195 159.19 1.50263 160.829 2.70908 162.039L43.1804 202.51C44.3791 203.724 45.048 205.363 45.0407 207.068V264.329C45.0407 266.038 45.7199 267.678 46.9287 268.887C48.1376 270.096 49.7771 270.775 51.4867 270.775H108.72C110.424 270.775 112.06 271.443 113.277 272.635L153.749 313.107C154.347 313.706 155.057 314.182 155.839 314.507C156.621 314.831 157.46 314.998 158.306 314.998C159.153 314.998 159.992 314.831 160.774 314.507C161.556 314.182 162.266 313.706 162.864 313.107L203.336 272.635C204.548 271.436 206.188 270.767 207.893 270.775H265.126C266.835 270.772 268.473 270.093 269.681 268.884C270.89 267.676 271.57 266.038 271.572 264.329V207.096C271.572 205.387 272.252 203.747 273.46 202.538Z" fill="#D3F4E4"/>
<mask id="mask0" mask-type="alpha" maskUnits="userSpaceOnUse" x="0" y="0" width="316" height="316">
<path d="M273.46 202.54L313.922 162.069C314.522 161.471 314.998 160.761 315.322 159.979C315.647 159.196 315.814 158.358 315.814 157.511C315.814 156.664 315.647 155.826 315.322 155.044C314.998 154.262 314.522 153.551 313.922 152.953L273.46 112.482C272.262 111.269 271.593 109.63 271.6 107.924V50.6914C271.6 48.9818 270.921 47.3423 269.712 46.1334C268.503 44.9245 266.864 44.2454 265.154 44.2454H207.893C206.188 44.2527 204.549 43.5838 203.336 42.3851L162.892 1.88587C161.682 0.679425 160.043 0.00195312 158.334 0.00195312C156.626 0.00195312 154.987 0.679425 153.777 1.88587L95.9205 9.09282C94.7072 10.2915 102.742 44.2248 101.036 44.2175H51.4867C49.7771 44.2175 48.1376 44.8966 46.9287 46.1055C45.7199 47.3144 45.0407 48.9539 45.0407 50.6635V107.896C45.048 109.602 44.3791 111.241 43.1804 112.454L2.70908 152.925C1.50263 154.135 0.825195 155.775 0.825195 157.483C0.825195 159.192 1.50263 160.831 2.70908 162.041L43.1804 202.512C44.3791 203.726 45.048 205.365 45.0407 207.07V264.331C45.0407 266.04 45.7199 267.68 46.9287 268.889C48.1376 270.098 49.7771 270.777 51.4867 270.777H108.72C110.424 270.777 112.06 271.444 113.277 272.637L153.749 313.108C154.347 313.708 155.057 314.184 155.839 314.508C156.621 314.833 157.46 315 158.306 315C159.153 315 159.992 314.833 160.774 314.508C161.556 314.184 162.266 313.708 162.864 313.108L203.336 272.637C204.548 271.438 206.188 270.769 207.893 270.777H265.126C266.835 270.774 268.473 270.094 269.681 268.886C270.89 267.678 271.57 266.04 271.572 264.331V207.098C271.572 205.388 272.252 203.749 273.46 202.54Z" fill="#D3F4E4"/>
</mask>
<g mask="url(#mask0)">
<path d="M212.832 139.723C212.832 139.723 189.578 110.888 148.827 117.055C108.077 123.222 98.0684 150.829 98.0684 150.829L114.114 161.936L172.109 164.41L212.832 139.723Z" fill="white"/>
<path d="M172.016 166.661L114.012 164.196C113.585 164.177 113.173 164.038 112.821 163.796L96.785 152.69C96.3741 152.405 96.069 151.993 95.9176 151.516C95.7661 151.04 95.7768 150.527 95.9479 150.057C96.3758 148.885 106.915 121.12 148.493 114.823C190.071 108.526 214.348 138.012 214.59 138.309C214.791 138.557 214.937 138.844 215.019 139.152C215.101 139.459 215.117 139.781 215.066 140.095C215.015 140.41 214.898 140.71 214.723 140.976C214.548 141.242 214.319 141.468 214.05 141.639L173.328 166.317C172.974 166.53 172.569 166.642 172.156 166.642L172.016 166.661ZM149.162 119.316C128.866 122.385 116.607 131.008 109.956 137.696C106.287 141.304 103.224 145.482 100.887 150.067L114.84 159.74L171.524 162.103L209.316 139.202C203.288 133.026 182.006 114.302 149.162 119.316Z" fill="#00BF71"/>
<path d="M297.542 162.215C297.31 160.427 296.646 158.722 295.607 157.249C294.568 155.776 293.186 154.578 291.579 153.759C280.129 147.788 250.317 133.91 226.849 137.668C197.168 142.411 178.816 158.745 155.069 156.364C136.075 154.504 125.434 152.569 117.676 154.318C116.125 154.706 114.509 154.764 112.933 154.486C111.358 154.209 109.859 153.603 108.533 152.708C104.896 150.141 98.3011 147.313 87.7066 148.309C86.1339 148.45 84.5489 148.276 83.0443 147.797C81.5397 147.317 80.1459 146.543 78.9445 145.518C75.8284 142.895 69.9591 140.588 60.0436 145.351C57.4673 146.631 54.4987 146.878 51.7466 146.039L51.4861 145.965C40.4265 142.523 32.0737 156.122 40.0173 164.568C56.7602 182.306 96.1432 218.08 147.088 224.377C215.343 232.814 200.824 196.872 242.188 205.969C259.982 209.885 269.683 211.653 274.967 212.425C276.821 212.7 278.715 212.422 280.413 211.626C282.11 210.831 283.535 209.552 284.51 207.951C289.84 199.151 299.728 180.092 297.542 162.215Z" fill="white"/>
<path d="M105.221 161.173C105.221 161.173 136.754 161.731 140.651 168.958C144.548 176.186 143.06 189.366 137.86 191.961C132.661 194.556 101.51 188.064 98.1704 186.957C94.8311 185.85 89.4548 175.795 93.901 170.075C98.3472 164.354 100.245 161.368 105.221 161.173Z" fill="#E8F4EF"/>
<path d="M196.833 216.118C196.833 216.118 162.771 198.9 126.438 216.704C126.438 216.704 136.066 228.145 163.561 226.396C191.057 224.647 196.833 216.118 196.833 216.118Z" fill="#E8F4EF"/>
<path d="M147.404 226.005C96.9338 219.773 58.0252 185.534 39.3197 165.675C37.293 163.602 36.0344 160.899 35.752 158.014C35.4696 155.129 36.1801 152.233 37.7663 149.806C39.2341 147.347 41.4969 145.462 44.1807 144.463C46.8646 143.463 49.8091 143.409 52.5279 144.309L52.7884 144.393C55.1294 145.101 57.6529 144.885 59.8391 143.788C70.508 138.663 76.9912 141.175 80.563 144.188C81.5917 145.072 82.7859 145.743 84.0762 146.161C85.3664 146.58 86.727 146.737 88.0787 146.625C99.2407 145.574 106.189 148.606 110.04 151.332C111.172 152.091 112.452 152.601 113.795 152.831C115.138 153.06 116.515 153.002 117.835 152.662C124.178 151.23 132.271 152.132 144.521 153.481C147.916 153.862 151.646 154.271 155.767 154.68C168.789 155.983 180.025 151.527 193.057 146.374C202.889 142.495 214.05 138.086 227.073 135.994C250.959 132.171 281.022 146.095 292.854 152.253C294.704 153.2 296.295 154.583 297.491 156.283C298.687 157.983 299.452 159.949 299.718 162.01C301.932 180.111 292.351 199.086 286.445 208.788C285.297 210.671 283.621 212.175 281.624 213.111C279.628 214.047 277.399 214.375 275.218 214.053C268.39 213.057 257.322 210.881 242.318 207.542C224.357 203.588 217.594 208.295 209.037 214.267C200.479 220.238 190.359 227.289 166.622 227.289C160.196 227.255 153.778 226.826 147.404 226.005ZM243.081 204.267C257.963 207.551 268.995 209.718 275.748 210.704C277.271 210.929 278.827 210.701 280.222 210.048C281.616 209.394 282.787 208.345 283.589 207.03C289.273 197.728 298.472 179.506 296.398 162.382C296.196 160.867 295.629 159.424 294.746 158.176C293.863 156.929 292.69 155.914 291.328 155.22C279.813 149.211 250.541 135.631 227.649 139.296C214.906 141.333 204.395 145.481 194.303 149.527C181.42 154.625 169.245 159.434 155.432 158.048C151.292 157.638 147.553 157.22 144.149 156.848C132.243 155.527 124.374 154.662 118.579 155.964C116.798 156.411 114.942 156.477 113.134 156.156C111.325 155.836 109.605 155.136 108.087 154.104C104.701 151.713 98.5245 149.053 88.3857 150.002C86.5884 150.162 84.7773 149.96 83.0596 149.407C81.342 148.854 79.7529 147.962 78.3865 146.783C75.596 144.421 70.3312 142.514 61.3087 146.849C58.3377 148.321 54.9153 148.597 51.7466 147.621L51.5141 147.546C49.5093 146.89 47.3411 146.935 45.3654 147.674C43.3896 148.413 41.7235 149.801 40.6405 151.611C39.4689 153.41 38.9439 155.553 39.1518 157.69C39.3597 159.827 40.2882 161.829 41.7846 163.368C60.1739 182.902 98.4035 216.555 147.823 222.657C184.62 227.205 196.582 218.88 207.139 211.495C213.79 206.844 219.762 202.705 230.496 202.705C234.735 202.77 238.954 203.294 243.081 204.267Z" fill="#4851DE"/>
<path d="M147.339 226.573C96.6918 220.313 57.6622 185.971 38.9102 166.066C36.8225 163.888 35.527 161.071 35.2318 158.069C34.9366 155.066 35.6588 152.052 37.2824 149.509C38.8155 146.942 41.178 144.974 43.9801 143.93C46.7823 142.887 49.8565 142.83 52.6952 143.77L52.9649 143.853C55.1677 144.519 57.5422 144.313 59.597 143.277C70.5357 138.03 77.27 140.635 80.9255 143.76C81.8959 144.597 83.0236 145.231 84.2423 145.625C85.4611 146.02 86.7463 146.167 88.0227 146.058C99.3707 144.997 106.431 148.095 110.347 150.867C111.414 151.582 112.62 152.063 113.887 152.278C115.154 152.493 116.451 152.437 117.695 152.113C124.132 150.662 132.261 151.564 144.567 152.922C147.953 153.294 151.683 153.713 155.804 154.122C168.658 155.415 179.867 150.978 192.824 145.853C202.674 141.956 213.836 137.547 226.998 135.435C251.071 131.584 281.273 145.565 293.142 151.76C295.077 152.754 296.741 154.205 297.987 155.988C299.234 157.772 300.026 159.832 300.295 161.991C302.527 180.251 292.853 199.365 286.947 209.132C285.739 211.108 283.977 212.685 281.88 213.667C279.783 214.649 277.444 214.994 275.152 214.657C268.316 213.662 257.238 211.476 242.216 208.146C224.542 204.249 217.827 208.899 209.371 214.778C200.916 220.657 190.554 227.893 166.649 227.884C160.192 227.842 153.743 227.404 147.339 226.573ZM243.201 203.718C258.084 207.002 269.097 209.16 275.822 210.137C277.238 210.352 278.686 210.144 279.984 209.538C281.282 208.932 282.371 207.956 283.115 206.732C288.751 197.431 297.904 179.404 295.83 162.484C295.642 161.061 295.111 159.705 294.281 158.533C293.451 157.361 292.348 156.409 291.068 155.759C279.599 149.778 250.466 136.226 227.733 139.891C215.055 141.919 204.609 146.058 194.517 150.011C181.569 155.136 169.337 159.973 155.385 158.578C151.246 158.159 147.497 157.75 144.102 157.369C132.243 156.057 124.411 155.192 118.718 156.438C116.859 156.904 114.922 156.971 113.035 156.635C111.148 156.298 109.353 155.565 107.77 154.485C104.459 152.141 98.4219 149.546 88.4505 150.476C86.5791 150.642 84.6934 150.432 82.9044 149.859C81.1153 149.285 79.459 148.36 78.0328 147.137C74.1819 143.891 68.4893 143.946 61.5596 147.276C58.4586 148.814 54.8853 149.1 51.579 148.076L51.3557 148.002C49.4695 147.385 47.4295 147.427 45.5703 148.121C43.7112 148.816 42.1434 150.122 41.124 151.825C40.0204 153.518 39.526 155.537 39.7221 157.548C39.9182 159.56 40.7931 161.445 42.2029 162.894C60.5364 182.362 98.6544 215.913 147.897 222.015C184.48 226.535 196.359 218.294 206.823 210.983C213.334 206.462 219.547 202.128 230.654 202.128C234.881 202.204 239.089 202.737 243.201 203.718Z" fill="#00BF71"/>
<path d="M90.5806 181.46C91.1118 181.455 91.6242 181.263 92.028 180.918C92.4318 180.573 92.7012 180.096 92.7888 179.573C92.8765 179.049 92.7769 178.511 92.5075 178.053C92.238 177.595 91.816 177.247 91.3154 177.069C68.0614 169.088 58.5273 146.988 58.4343 146.765C58.1854 146.24 57.744 145.83 57.2015 145.622C56.659 145.414 56.0572 145.423 55.521 145.647C54.9848 145.87 54.5554 146.292 54.3219 146.824C54.0884 147.356 54.0687 147.958 54.2671 148.504C54.6764 149.49 64.6105 172.688 89.8458 181.339C90.0823 181.42 90.3307 181.46 90.5806 181.46Z" fill="#00BF71"/>
<path d="M94.9897 164.614C95.5085 164.617 96.0124 164.441 96.4168 164.116C96.8211 163.791 97.1014 163.337 97.2105 162.829C97.3196 162.322 97.2508 161.793 97.0158 161.33C96.7808 160.868 96.3938 160.5 95.9198 160.289C87.5484 156.652 82.2093 145.174 82.1535 145.062C82.0313 144.793 81.8573 144.55 81.6414 144.348C81.4254 144.146 81.1718 143.989 80.895 143.885C80.6182 143.78 80.3235 143.732 80.0279 143.742C79.7324 143.751 79.4416 143.819 79.1723 143.942C78.9029 144.064 78.6603 144.238 78.4582 144.454C78.2561 144.67 78.0985 144.923 77.9944 145.2C77.8903 145.477 77.8418 145.771 77.8516 146.067C77.8614 146.363 77.9293 146.653 78.0514 146.923C78.2933 147.462 84.144 160.084 94.1246 164.419C94.3981 164.538 94.6916 164.604 94.9897 164.614Z" fill="#00BF71"/>
<path d="M167.449 198.128H173.142C173.741 198.128 174.316 197.89 174.74 197.466C175.164 197.042 175.402 196.467 175.402 195.868C175.402 195.268 175.164 194.693 174.74 194.27C174.316 193.846 173.741 193.608 173.142 193.608C127.387 194.128 107.333 188.334 99.4263 184.836C98.1171 184.257 96.9754 183.356 96.1071 182.218C95.2388 181.08 94.672 179.741 94.4592 178.325C93.4175 171.274 96.58 165.61 103.854 161.489C107.636 159.432 111.716 157.976 115.946 157.173C116.509 157.048 117.002 156.713 117.326 156.236C117.65 155.759 117.779 155.177 117.688 154.608C117.596 154.039 117.291 153.526 116.834 153.175C116.377 152.824 115.803 152.66 115.23 152.718C105.379 154.28 87.418 161.777 89.9573 178.985C90.2885 181.146 91.1581 183.188 92.4862 184.925C93.8143 186.661 95.558 188.035 97.5567 188.92C105.454 192.436 124.866 198.128 167.449 198.128Z" fill="#00BF71"/>
<path d="M239.964 217.038C239.778 217.569 328.674 239.716 328.674 239.716C329.167 239.827 344.347 156.801 344.347 156.801L271.497 132.943C271.004 132.738 239.964 217.038 239.964 217.038Z" fill="#00BF71" stroke="#00BF71" stroke-width="2.79048" stroke-linecap="round" stroke-linejoin="round"/>
<path d="M249.871 223.968C250.403 224.022 250.939 223.905 251.4 223.634C251.862 223.363 252.225 222.952 252.438 222.461L288.937 137.993C289.068 137.688 289.137 137.359 289.141 137.027C289.145 136.695 289.084 136.366 288.96 136.057C288.837 135.749 288.654 135.468 288.421 135.23C288.189 134.993 287.913 134.803 287.607 134.672C287.302 134.542 286.974 134.472 286.642 134.468C286.31 134.465 285.98 134.526 285.671 134.65C285.363 134.773 285.082 134.956 284.845 135.188C284.607 135.42 284.417 135.697 284.287 136.002L247.787 220.47C247.656 220.773 247.586 221.099 247.582 221.429C247.577 221.759 247.637 222.087 247.759 222.393C247.88 222.7 248.061 222.979 248.291 223.216C248.521 223.453 248.796 223.642 249.099 223.772C249.344 223.877 249.605 223.943 249.871 223.968Z" fill="#4851DE"/>
<path d="M140.568 133.77C140.709 133.689 140.855 133.614 141.005 133.547C141.081 133.52 141.155 133.489 141.228 133.454C141.637 133.268 140.912 133.584 141.135 133.454C141.361 133.384 141.582 133.297 141.795 133.194C142.938 132.773 144.119 132.461 145.321 132.264C145.451 132.264 145.981 132.161 145.702 132.199C145.423 132.236 145.953 132.199 146.009 132.199C146.39 132.199 146.735 132.143 147.116 132.143C147.497 132.143 147.907 132.143 148.316 132.143C148.502 132.143 148.66 132.143 148.846 132.208C148.437 132.208 148.846 132.208 149.004 132.208C149.413 132.301 149.795 132.394 150.204 132.524C150.39 132.589 150.548 132.654 150.734 132.71C150.92 132.766 150.511 132.617 150.92 132.803C151.33 132.989 151.683 133.212 152.055 133.473C152.148 133.529 152.557 133.845 152.278 133.622C152.464 133.78 152.66 133.938 152.818 134.096C153.483 134.674 154.037 135.367 154.455 136.142C155.013 137.108 155.456 138.135 155.776 139.203C156.529 141.621 160.306 140.579 159.552 138.161C158.81 135.397 157.289 132.905 155.171 130.98C150.52 127.111 143.656 127.771 138.586 130.45C136.317 131.659 138.307 135.063 140.568 133.77Z" fill="#00BF71"/>
<path d="M154.706 136.226C155.155 136.481 155.685 136.552 156.184 136.423C156.684 136.295 157.115 135.977 157.385 135.538C157.478 135.38 157.571 135.222 157.664 135.091C157.707 135.011 157.76 134.936 157.822 134.868C157.98 134.617 157.441 135.315 157.757 134.933C157.909 134.713 158.077 134.505 158.259 134.31C158.69 133.806 159.153 133.331 159.645 132.887C159.775 132.756 159.912 132.632 160.054 132.515C160.12 132.45 160.622 132.04 160.213 132.357C160.51 132.129 160.821 131.917 161.143 131.724C161.459 131.538 161.812 131.315 162.157 131.157C162.25 131.157 162.882 130.841 162.408 131.036C162.6 130.945 162.799 130.871 163.003 130.813C163.411 130.659 163.836 130.553 164.268 130.496C163.794 130.561 164.482 130.496 164.575 130.496H165.273C165.338 130.496 166.054 130.552 165.617 130.496C165.861 130.519 166.104 130.559 166.342 130.617C166.588 130.679 166.83 130.753 167.068 130.841C167.196 130.868 167.32 130.909 167.44 130.961C167.282 130.868 167.319 130.906 167.542 130.961C168.619 131.467 169.606 132.146 170.463 132.971C170.646 133.154 170.864 133.299 171.103 133.398C171.342 133.497 171.599 133.549 171.858 133.549C172.117 133.549 172.374 133.497 172.613 133.398C172.853 133.299 173.07 133.154 173.253 132.971C173.437 132.787 173.582 132.57 173.681 132.33C173.78 132.091 173.831 131.834 173.831 131.575C173.831 131.316 173.78 131.06 173.681 130.82C173.582 130.581 173.437 130.363 173.253 130.18C171.516 128.395 169.295 127.157 166.863 126.618C161.636 125.734 156.724 129.138 153.99 133.417C153.851 133.648 153.759 133.904 153.719 134.171C153.68 134.438 153.694 134.71 153.761 134.971C153.828 135.233 153.945 135.478 154.108 135.693C154.27 135.909 154.473 136.09 154.706 136.226Z" fill="#00BF71"/>
<path d="M154.232 133.268H157.311V55.6555H154.269L154.232 133.268Z" fill="#00BF71"/>
<path d="M153.664 55.1345H157.841V133.854H153.664V55.1345ZM156.715 56.26H154.799V132.729H156.715V56.26Z" fill="#00BF71"/>
<path fill-rule="evenodd" clip-rule="evenodd" d="M173.747 86.7599C182.518 78.2582 184.239 57.4877 183.541 60.2875C182.844 63.0873 181.681 66.222 170.417 75.4957C159.152 84.7694 157.906 96.3313 157.906 96.3313C157.906 96.3313 164.966 95.2709 173.747 86.7599Z" fill="#00BF71"/>
<path d="M158.855 96.4337C159.134 94.5944 159.604 92.7893 160.259 91.048C161.723 87.124 163.874 83.4922 166.612 80.3233C169.886 76.5096 174.053 73.5424 177.607 70.0264C179.629 68.1857 181.385 66.0726 182.825 63.7478C183.194 63.0619 183.505 62.3463 183.755 61.6084C183.848 61.3015 183.95 60.9666 184.015 60.6783C184.015 60.576 184.155 60.3806 184.118 60.2783C184.015 59.9435 183.95 60.5481 183.653 60.6132L182.881 60.4085C182.518 60.0086 182.713 59.8783 182.685 60.5108L182.583 61.7108C182.443 63.0874 182.211 64.4268 181.978 65.757C180.741 72.5471 178.704 80.128 173.988 85.3834C170.798 88.8758 166.992 91.7514 162.761 93.8664C161.23 94.7021 159.585 95.31 157.878 95.6709C156.948 95.8384 157.31 97.3824 158.315 97.215C160.753 96.688 163.082 95.744 165.198 94.4245C169.682 91.848 174.193 88.3413 177.104 83.9974C181.141 77.9793 183.048 70.4264 184.015 63.3385C184.118 62.6037 184.946 59.2923 183.588 59.1249C182.443 58.9947 182.118 61.7015 181.727 62.4735C180.263 65.0437 178.377 67.3487 176.146 69.2916C172.1 73.1983 167.486 76.4724 164.054 80.9837C160.622 85.495 157.831 90.9178 157.264 96.4988C157.18 97.4662 158.752 97.4661 158.855 96.4337Z" fill="#00BF71"/>
<path d="M157.31 97.4199C157.157 97.3073 157.037 97.1553 156.964 96.9801C156.89 96.8048 156.865 96.6128 156.892 96.4246C156.892 96.4246 156.892 96.3502 156.892 96.3223C156.882 96.2326 156.882 96.1422 156.892 96.0525C157.487 91.1506 159.896 85.7091 163.719 80.7049C166.105 77.781 168.779 75.1042 171.7 72.7148C173.086 71.5056 174.49 70.2591 175.858 68.9941C178.048 67.0883 179.897 64.8235 181.327 62.297C181.434 62.0142 181.524 61.7253 181.597 61.4319C181.922 60.2785 182.36 58.7065 183.457 58.7065H183.597C183.752 58.7255 183.902 58.7766 184.036 58.8567C184.171 58.9368 184.287 59.044 184.378 59.1716C184.964 59.9716 184.732 61.5528 184.471 62.976C184.471 63.1527 184.406 63.3015 184.397 63.3946C183.187 72.2218 180.899 79.0306 177.411 84.2302C174.146 89.1135 169.04 92.6667 165.319 94.7875C163.159 96.1353 160.784 97.1012 158.296 97.6431H158.082H157.924C157.703 97.6279 157.49 97.5505 157.31 97.4199ZM157.943 96.0804C157.901 96.0807 157.86 96.0932 157.826 96.1164C157.791 96.1395 157.764 96.1723 157.748 96.2107C157.748 96.2572 157.748 96.3037 157.748 96.3502V96.3967C157.748 96.5083 157.869 96.7501 158.092 96.7873C158.135 96.7956 158.179 96.7956 158.222 96.7873C158.294 96.7572 158.356 96.707 158.401 96.6427C158.445 96.5784 158.47 96.5027 158.473 96.4246C158.483 96.281 158.502 96.1381 158.529 95.9967L157.943 96.0804ZM183.169 63.9527C182.964 64.3061 182.75 64.6596 182.527 65.0037C182.481 65.2735 182.434 65.5525 182.378 65.8223C181.234 72.1474 179.272 80.1096 174.295 85.6533C171.045 89.1719 167.18 92.0686 162.891 94.2015C161.757 94.7981 160.575 95.2991 159.357 95.6991C159.31 95.9595 159.273 96.2107 159.245 96.4432C159.241 96.4741 159.241 96.5053 159.245 96.5362C161.245 95.9358 163.16 95.0857 164.947 94.0062C168.556 91.9319 173.523 88.4252 176.704 83.7093C180.127 78.6213 182.369 71.9241 183.56 63.2457C183.56 63.1806 183.56 63.1062 183.56 63.0039C183.467 63.3481 183.355 63.6643 183.15 63.9527H183.169ZM159.915 90.9273C161.382 86.9575 163.546 83.2815 166.305 80.0723C168.366 77.7917 170.589 75.6623 172.956 73.7008C174.416 72.4357 175.932 71.1149 177.327 69.7476C178.965 68.2194 180.448 66.5338 181.755 64.7154C181.867 64.0829 181.969 63.4504 182.053 62.8551C180.575 65.3992 178.689 67.6836 176.472 69.6173C175.114 70.9289 173.681 72.1846 172.277 73.4031C169.398 75.7535 166.761 78.3866 164.408 81.263C161.151 85.3531 158.918 90.1622 157.896 95.2898C158.157 95.2433 158.417 95.1782 158.678 95.1131C158.978 93.6861 159.376 92.2814 159.868 90.9087L159.915 90.9273ZM177.913 70.3429C176.5 71.7381 174.974 73.0589 173.504 74.3333C171.166 76.2671 168.971 78.3686 166.938 80.6211C164.24 83.7509 162.126 87.3393 160.696 91.2157C160.267 92.3866 159.91 93.5825 159.626 94.7968C160.643 94.4326 161.635 94.0006 162.594 93.5039C166.773 91.4111 170.537 88.5743 173.7 85.1324C178.295 80.0258 180.211 72.7148 181.42 66.5943C180.315 67.9106 179.128 69.1563 177.867 70.3243L177.913 70.3429ZM183.085 60.9017L183.011 61.7668C183.011 62.0644 182.955 62.3621 182.918 62.6969C183.092 62.3153 183.244 61.924 183.374 61.5249C183.374 61.3761 183.476 61.2087 183.522 61.0506L183.085 60.9017ZM183.764 59.6553C183.74 59.6202 183.708 59.591 183.671 59.57C183.634 59.5491 183.593 59.5369 183.55 59.5344C183.401 59.5344 183.215 59.6832 183.067 59.953C183.085 59.9861 183.107 60.0173 183.132 60.046L183.578 60.1669V60.1111C183.637 59.9984 183.723 59.9024 183.829 59.832C183.802 59.7619 183.764 59.6962 183.718 59.6367L183.764 59.6553Z" fill="#00BF71"/>
<path fill-rule="evenodd" clip-rule="evenodd" d="M170.416 49.228C178.407 41.3216 179.792 22.2068 179.179 24.7833C178.565 27.3599 177.523 30.262 167.254 38.8939C156.985 47.5258 155.934 58.1761 155.934 58.1761C155.934 58.1761 162.426 57.125 170.416 49.228Z" fill="#00BF71"/>
<path d="M156.641 58.1389C156.903 56.45 157.337 54.7921 157.934 53.1905C159.268 49.5809 161.237 46.2388 163.747 43.3215C166.761 39.8241 170.574 37.0801 173.858 33.8524C175.721 32.1618 177.337 30.2173 178.658 28.0761C179 27.4451 179.286 26.7853 179.513 26.1042C179.606 25.8344 179.699 25.5275 179.765 25.2484C179.765 25.1554 179.885 24.9694 179.857 24.8764C179.764 24.5694 179.699 25.1275 179.42 25.1833L178.713 25.0066C178.379 24.6345 178.565 24.5136 178.537 25.0903L178.444 26.1972C178.313 27.4622 178.099 28.69 177.886 29.9178C176.751 36.1592 174.872 43.1354 170.537 47.963C167.604 51.1781 164.104 53.8266 160.212 55.7763C158.803 56.5433 157.29 57.1011 155.72 57.432C154.79 57.5901 155.199 59.004 156.12 58.8459C158.365 58.3616 160.508 57.4897 162.454 56.2693C166.575 53.8974 170.723 50.6883 173.402 46.6793C177.123 41.0984 178.872 34.1966 179.765 27.6762C179.858 26.9971 180.62 23.9555 179.365 23.8067C178.313 23.6765 178.006 26.1693 177.672 26.8762C176.338 29.2408 174.611 31.3609 172.565 33.1455C168.844 36.7452 164.603 39.7589 161.403 43.9075C158.203 48.056 155.683 53.0416 155.162 58.1761C155.106 59.097 156.557 59.097 156.641 58.1389Z" fill="#00BF71"/>
<path d="M155.208 59.0505C155.061 58.9495 154.945 58.808 154.876 58.643C154.807 58.478 154.787 58.2966 154.818 58.1204C154.822 58.0895 154.822 58.0582 154.818 58.0273C154.808 57.947 154.808 57.8658 154.818 57.7855C155.367 53.2742 157.608 48.2699 161.096 43.6656C163.29 40.9761 165.749 38.5143 168.435 36.3174C169.71 35.2105 171.03 34.0571 172.268 32.8665C174.279 31.1099 175.977 29.0247 177.29 26.6995C177.391 26.4385 177.475 26.1713 177.542 25.8996C177.839 24.8392 178.239 23.4067 179.244 23.4067H179.374C179.517 23.4237 179.654 23.4706 179.778 23.5444C179.901 23.6181 180.008 23.717 180.09 23.8346C180.63 24.5694 180.416 26.0298 180.174 27.3413C180.174 27.4995 180.118 27.6297 180.109 27.7227C178.993 35.8337 176.89 42.103 173.681 46.8747C170.677 51.3767 165.998 54.6416 162.603 56.5949C160.618 57.8335 158.434 58.7208 156.148 59.2179H155.943H155.804C155.593 59.2225 155.386 59.1642 155.208 59.0505ZM155.785 57.8134C155.748 57.8186 155.713 57.8323 155.683 57.8532C155.652 57.8742 155.627 57.9019 155.608 57.9343C155.608 57.9808 155.608 58.0273 155.608 58.0645C155.623 58.1481 155.66 58.2261 155.716 58.29C155.772 58.354 155.844 58.4014 155.925 58.4273H156.046C156.11 58.3979 156.166 58.3509 156.205 58.2917C156.244 58.2326 156.267 58.1635 156.269 58.0924L156.325 57.6925C156.147 57.743 155.967 57.7834 155.785 57.8134ZM178.993 28.2622C178.807 28.597 178.602 28.9226 178.397 29.1923C178.397 29.4342 178.314 29.6946 178.267 29.9458C177.207 35.7593 175.402 43.0796 170.826 48.1769C167.854 51.4235 164.314 54.0997 160.38 56.074C159.335 56.6194 158.246 57.0768 157.125 57.4413C157.125 57.6832 157.05 57.9157 157.022 58.1297C157.027 58.1574 157.027 58.1856 157.022 58.2134C158.865 57.6695 160.628 56.8878 162.268 55.888C165.589 53.9811 170.165 50.7814 173.095 46.4189C176.23 41.7681 178.295 35.5732 179.393 27.5832C179.393 27.518 179.393 27.4436 179.393 27.3599C179.281 27.7134 179.132 28.0017 178.993 28.2622ZM157.599 53.0603C158.934 49.3976 160.915 46.0045 163.45 43.0424C165.343 40.9417 167.389 38.983 169.57 37.1824C170.919 36.0104 172.305 34.8012 173.588 33.5455C175.097 32.1337 176.462 30.5758 177.663 28.8947C177.765 28.318 177.858 27.732 177.932 27.146C176.588 29.4871 174.866 31.5897 172.835 33.3688C171.589 34.578 170.258 35.7314 168.984 36.8476C166.336 39.0118 163.912 41.4362 161.747 44.0842C158.741 47.8419 156.68 52.2663 155.739 56.9856C155.98 56.936 156.222 56.8801 156.464 56.8181C156.756 55.5429 157.128 54.2878 157.58 53.0603H157.599ZM174.146 34.1315C172.844 35.4058 171.449 36.6243 170.091 37.7963C167.945 39.5766 165.927 41.5069 164.054 43.5726C161.577 46.4549 159.633 49.756 158.315 53.3207C157.918 54.4014 157.582 55.5039 157.311 56.6228C158.245 56.2886 159.156 55.8908 160.036 55.4322C163.887 53.501 167.354 50.8849 170.268 47.7118C174.491 43.0052 176.295 36.2802 177.365 30.6527C176.359 31.878 175.278 33.0399 174.128 34.1315H174.146ZM178.909 25.4438L178.844 26.2344C178.844 26.5135 178.788 26.7832 178.751 27.0623C178.915 26.7127 179.055 26.3522 179.169 25.9833L179.309 25.5461L178.909 25.4438ZM179.532 24.2997C179.509 24.2676 179.48 24.2404 179.447 24.2196C179.413 24.1989 179.376 24.185 179.337 24.1788C179.197 24.1788 179.03 24.3183 178.89 24.5694C178.909 24.6026 178.931 24.6338 178.955 24.6625L179.355 24.7648C179.414 24.6309 179.511 24.5176 179.634 24.4392C179.598 24.3897 179.557 24.3431 179.514 24.2997H179.532Z" fill="#00BF71"/>
<path fill-rule="evenodd" clip-rule="evenodd" d="M153.832 113.735C153.832 113.735 151.45 103.317 140.168 96.0618C128.885 88.8066 127.49 86.0626 126.55 83.5791C125.611 81.0955 129.406 99.8848 138.335 106.712C147.265 113.54 153.832 113.735 153.832 113.735Z" fill="#00BF71"/>
<path d="M154.567 113.605C153.395 108.582 150.13 103.847 146.567 100.248C143.005 96.6478 138.307 94.0805 134.168 90.9459C131.913 89.4306 129.932 87.5434 128.308 85.3649C127.88 84.7045 127.266 82.2675 126.243 82.5279C125.015 82.8349 126.159 85.7556 126.336 86.416C128.048 92.769 130.661 99.4383 135.052 104.461C138.214 108.079 142.744 110.758 147.144 112.591C149.233 113.548 151.469 114.142 153.757 114.349C154.688 114.349 154.874 112.935 153.971 112.888C152.378 112.756 150.812 112.396 149.32 111.819C145.213 110.373 141.405 108.188 138.084 105.373C133.173 101.14 130.429 94.4526 128.513 88.4066C128.141 87.216 127.769 86.0254 127.49 84.7882L127.257 83.7C127.155 83.1233 127.35 83.2256 127.062 83.6348L126.383 83.9046C126.104 83.9046 125.973 83.3372 125.918 83.6534C125.918 83.7465 126.02 83.9232 126.057 84.0069C126.159 84.2893 126.277 84.5657 126.411 84.8347C126.723 85.4867 127.094 86.1093 127.517 86.6951C129.097 88.6525 130.945 90.3778 133.005 91.8203C136.67 94.6107 140.8 96.8338 144.233 99.9313C147.091 102.506 149.466 105.571 151.246 108.982C152.031 110.493 152.655 112.083 153.106 113.726C153.339 114.665 154.771 114.507 154.567 113.605Z" fill="#00BF71"/>
<path d="M154.064 114.749H153.925H153.72C151.39 114.541 149.112 113.937 146.986 112.963C143.367 111.456 138.317 108.805 134.763 104.731C130.978 100.396 128.094 94.4432 125.964 86.5368C125.964 86.4531 125.899 86.3229 125.852 86.1648C125.443 84.8997 125.052 83.4766 125.49 82.6766C125.556 82.5496 125.65 82.4387 125.764 82.3519C125.878 82.2651 126.01 82.2045 126.15 82.1744C126.19 82.1658 126.231 82.1658 126.271 82.1744C127.266 82.0441 127.852 83.4208 128.28 84.4347C128.381 84.6965 128.499 84.9513 128.634 85.1974C130.229 87.3394 132.18 89.1924 134.401 90.676C135.768 91.6992 137.191 92.6759 138.623 93.6153C141.572 95.4531 144.327 97.5848 146.846 99.9777C150.911 104.098 153.748 108.777 154.855 113.186C154.883 113.264 154.902 113.345 154.911 113.428V113.521C154.955 113.686 154.954 113.86 154.906 114.024C154.859 114.188 154.767 114.336 154.641 114.451C154.484 114.608 154.283 114.712 154.064 114.749ZM153.394 113.279C153.437 113.407 153.471 113.537 153.497 113.67C153.509 113.74 153.54 113.805 153.588 113.858C153.636 113.911 153.698 113.949 153.767 113.967H153.887C153.965 113.933 154.032 113.877 154.08 113.806C154.127 113.735 154.154 113.653 154.157 113.567C154.157 113.567 154.157 113.484 154.157 113.437C154.138 113.406 154.111 113.38 154.078 113.364C154.045 113.347 154.008 113.34 153.971 113.344L153.394 113.279ZM126.615 86.1555L126.68 86.3694C128.782 94.1548 131.601 100.006 135.312 104.256C138.772 108.219 143.684 110.768 147.246 112.274C149 113.057 150.848 113.611 152.743 113.921C152.743 113.921 152.743 113.865 152.743 113.837C152.697 113.632 152.632 113.409 152.557 113.167C151.399 112.953 150.26 112.642 149.153 112.237C145.004 110.774 141.155 108.567 137.796 105.726C132.605 101.243 129.889 94.2106 128.103 88.5739L127.88 87.8483C127.629 87.56 127.396 87.2623 127.173 86.9647C126.95 86.667 126.82 86.4345 126.615 86.1555ZM153.115 112.479L153.86 112.553C152.329 107.992 149.726 103.864 146.269 100.517C143.788 98.1653 141.077 96.0682 138.177 94.2572C136.763 93.327 135.303 92.3317 133.908 91.2899C131.67 89.779 129.693 87.9128 128.057 85.7648C128.215 86.3415 128.382 86.8996 128.55 87.4577C129.96 88.9706 131.518 90.3385 133.201 91.5411C134.633 92.6294 136.168 93.6526 137.647 94.6385C140.036 96.1483 142.311 97.8301 144.456 99.6707C147.346 102.28 149.749 105.382 151.553 108.833C152.16 110.013 152.691 111.231 153.143 112.479H153.115ZM129.071 89.1134C130.847 94.5641 133.489 101.001 138.279 105.131C141.563 107.913 145.326 110.072 149.385 111.502C150.321 111.842 151.278 112.119 152.25 112.33C151.846 111.256 151.38 110.207 150.855 109.186C149.094 105.819 146.747 102.793 143.925 100.247C141.806 98.4322 139.559 96.7722 137.2 95.2803C135.712 94.2851 134.168 93.2526 132.717 92.155C131.452 91.2138 130.243 90.1982 129.099 89.1134H129.071ZM126.504 84.2951L126.699 84.7044C126.861 85.0552 127.047 85.394 127.257 85.7183C127.183 85.4578 127.117 85.1881 127.062 84.9183L126.894 84.137L126.504 84.2951ZM126.066 83.244C126.171 83.2992 126.26 83.379 126.327 83.4766V83.5231L126.717 83.365C126.738 83.3366 126.753 83.3052 126.764 83.272C126.597 83.0394 126.411 82.9185 126.271 82.9464C126.233 82.9549 126.197 82.9719 126.167 82.9961C126.136 83.0202 126.111 83.0509 126.094 83.0859C126.089 83.1385 126.089 83.1915 126.094 83.244H126.066Z" fill="#00BF71"/>
<path fill-rule="evenodd" clip-rule="evenodd" d="M133.833 46.3817C122.095 34.7919 120.104 6.701 121.034 10.4868C121.964 14.2725 123.462 18.542 138.549 31.2387C153.636 43.9354 155.181 59.5528 155.181 59.5528C155.181 59.5528 145.581 57.9715 133.833 46.3817Z" fill="#00BF71"/>
<path d="M156.185 59.5155C155.199 50.1022 149.674 40.8471 143.274 34.2151C138.419 29.1364 132.633 25.0158 127.843 19.8534C125.722 17.5745 123.592 15.091 122.55 12.1052C122.393 11.2994 122.166 10.5088 121.871 9.74254C121.777 9.52091 121.612 9.33674 121.402 9.21888C121.192 9.10102 120.949 9.05612 120.711 9.09121C120.473 9.12631 120.253 9.23942 120.086 9.41282C119.919 9.58623 119.814 9.81014 119.788 10.0495C119.679 10.8767 119.711 11.7163 119.881 12.533C120.057 14.198 120.309 15.8537 120.588 17.5187C122.243 27.2947 125.238 38.0846 131.833 45.7398C136.255 50.7187 141.588 54.8071 147.544 57.7854C149.838 59.0611 152.303 60.0009 154.864 60.5759C156.185 60.8177 156.724 58.7155 155.413 58.5109C152.458 57.8753 149.629 56.7531 147.041 55.1902C141.609 52.1765 136.038 48.028 132.261 43.0144C129.375 38.9651 127.175 34.468 125.75 29.7038C124.372 25.4476 123.311 21.0949 122.578 16.6816C122.336 15.2305 122.122 13.7608 122.002 12.2819C121.998 11.7999 121.967 11.3185 121.909 10.8401C121.75 10.1611 122.122 10.496 121.629 10.9611L120.588 11.2401C119.081 10.9611 120.058 10.2541 120.002 10.9332C120.015 11.1539 120.065 11.3708 120.15 11.575C120.28 12.0756 120.435 12.5692 120.616 13.0539C121.047 14.217 121.602 15.3303 122.271 16.3746C128.299 25.8064 138.726 31.2572 145.423 40.0751C149.544 45.5444 153.385 53.0508 154.064 59.6085C154.213 60.9293 156.38 60.9293 156.185 59.5155Z" fill="#00BF71"/>
<path d="M154.846 60.9108H154.799C152.197 60.3451 149.69 59.4052 147.358 58.1203C141.364 55.1345 135.997 51.0301 131.545 46.0282C126.011 39.6194 122.402 30.5875 120.206 17.621C119.89 15.7049 119.658 14.1143 119.49 12.6075C119.49 12.4214 119.49 12.2261 119.425 12.0215C119.286 11.3496 119.286 10.6563 119.425 9.98442C119.494 9.66913 119.655 9.3817 119.889 9.15943C120.123 8.93717 120.418 8.79034 120.737 8.73801C121.041 8.71283 121.346 8.7813 121.61 8.93425C121.874 9.08721 122.086 9.31733 122.216 9.59376C122.453 10.0854 122.619 10.6085 122.709 11.1471C122.774 11.4448 122.839 11.7517 122.923 12.0215C123.983 15.0259 126.169 17.528 128.131 19.6302C130.654 22.2512 133.315 24.7352 136.103 27.0715C138.614 29.2574 141.209 31.5177 143.544 33.9733C150.772 41.5076 155.469 50.5767 156.501 58.9481C156.556 59.1224 156.578 59.3053 156.566 59.4876C156.595 59.6629 156.587 59.8424 156.543 60.0144C156.498 60.1865 156.418 60.3473 156.308 60.4866C156.197 60.6258 156.059 60.7405 155.902 60.8231C155.745 60.9058 155.572 60.9547 155.394 60.9666H155.227C155.098 60.9624 154.97 60.9437 154.846 60.9108ZM155.776 59.1062C155.74 59.0301 155.683 58.9655 155.613 58.9195C155.542 58.8735 155.46 58.848 155.376 58.8458C155.041 58.79 154.706 58.7156 154.371 58.6412C154.371 58.9295 154.446 59.2179 154.474 59.4969C154.486 59.6502 154.545 59.796 154.643 59.9143C154.741 60.0325 154.874 60.1174 155.022 60.1573C155.135 60.1772 155.251 60.1641 155.357 60.1195C155.463 60.075 155.553 60.0009 155.618 59.9062C155.723 59.781 155.794 59.6302 155.822 59.469C155.776 59.3481 155.766 59.2272 155.748 59.1062H155.776ZM146.921 55.4786C142.502 53.0323 136.326 48.921 132.038 43.2005C129.111 39.1217 126.879 34.5863 125.434 29.7783C124.064 25.6013 123 21.3298 122.253 16.9978C122.15 16.849 122.057 16.6909 121.955 16.5328C121.319 15.5549 120.786 14.5138 120.365 13.426C120.513 14.6538 120.709 15.9654 120.96 17.4908C123.136 30.3177 126.69 39.2194 132.122 45.5259C136.513 50.4692 141.807 54.5291 147.721 57.4878C149.639 58.5088 151.659 59.3256 153.748 59.9248C153.711 59.8263 153.689 59.7228 153.683 59.6178C153.683 59.2365 153.59 58.8551 153.525 58.4644C151.212 57.7144 148.988 56.7131 146.893 55.4786H146.921ZM122.96 16.5328V16.6723C126.169 21.4626 130.587 25.2856 134.866 28.9876C138.67 32.2804 142.605 35.6848 145.702 39.7589C150.093 45.6003 153.143 52.2138 154.176 57.8133C154.596 57.9254 155.021 58.0155 155.45 58.0831H155.59C154.362 50.1302 149.813 41.6006 142.967 34.4477C140.642 32.0292 138.056 29.7969 135.526 27.5924C132.736 25.2423 130.072 22.746 127.545 20.1139C125.425 18.0399 123.695 15.6012 122.439 12.9144C122.56 13.9841 122.727 15.1375 122.96 16.5328ZM126.113 29.555C127.54 34.2867 129.74 38.7497 132.624 42.7633C136.856 48.3443 142.93 52.4184 147.283 54.8554C149.225 55.9875 151.276 56.9223 153.404 57.6459C152.362 52.2416 149.367 45.9073 145.135 40.2891C142.084 36.2801 138.186 32.9036 134.41 29.6387C130.634 26.3739 126.466 22.7648 123.322 18.4768C124.01 22.2204 124.942 25.9149 126.113 29.5364V29.555ZM120.681 11.5471H120.597C120.718 11.9843 120.858 12.4214 121.016 12.8493C121.276 13.577 121.587 14.2856 121.946 14.9701C121.797 13.9748 121.695 13.1098 121.62 12.2354C121.62 12.0773 121.62 11.9099 121.62 11.7331C121.62 11.5564 121.62 11.4448 121.62 11.296C121.267 11.3611 120.978 11.4169 120.681 11.5285V11.5471ZM121.481 10.4867C121.477 10.4184 121.487 10.3501 121.511 10.286C121.535 10.2219 121.572 10.1636 121.62 10.1146C121.62 10.0495 121.564 10.003 121.537 9.94722C121.476 9.80783 121.376 9.68936 121.249 9.60663C121.121 9.5239 120.972 9.4806 120.82 9.48214C120.653 9.51787 120.5 9.60232 120.381 9.72482C120.262 9.84733 120.182 10.0024 120.151 10.1705V10.2728C120.227 10.3227 120.29 10.3901 120.336 10.4693C120.381 10.5485 120.407 10.6374 120.411 10.7286L120.597 10.7844L121.453 10.5518L121.481 10.4867Z" fill="#00BF71"/>
<path fill-rule="evenodd" clip-rule="evenodd" d="M109.119 41.7215C112.817 42.4719 116.203 44.3188 118.836 47.0215C121.469 49.7243 123.227 53.1576 123.88 56.8739L124.457 60.1294C124.462 55.1266 126.443 50.3284 129.969 46.7795C133.495 43.2307 138.281 41.2188 143.284 41.182L139.805 40.2519C132.559 38.7636 126.782 32.8106 125.043 25.1089L124.457 21.844L123.88 25.1089C123.23 28.8255 121.473 32.2593 118.839 34.9611C116.205 37.6629 112.818 39.5069 109.119 40.2519L105.631 41.182L109.119 41.7215Z" fill="#4851DE"/>
<path fill-rule="evenodd" clip-rule="evenodd" d="M172.333 85.8297C174.225 86.2121 175.957 87.156 177.305 88.5383C178.652 89.9205 179.551 91.6768 179.885 93.578L180.183 95.2523C180.176 92.6881 181.185 90.2255 182.989 88.4037C184.793 86.5819 187.246 85.5493 189.81 85.5321L188.034 85.0856C186.165 84.6538 184.459 83.6938 183.12 82.3202C181.781 80.9465 180.865 79.2169 180.481 77.3374L180.183 75.6631L179.885 77.3374C179.553 79.239 178.654 80.996 177.306 82.3785C175.959 83.7609 174.225 84.7044 172.333 85.0856L170.556 85.5321L172.333 85.8297Z" fill="#4851DE"/>
</g>
</svg>
