<svg width="158" height="140" viewBox="0 0 158 140" fill="none" xmlns="http://www.w3.org/2000/svg">
<g clip-path="url(#clip0)">
<path d="M20.238 124.477C30.1384 132.824 42.7174 138.183 55.4489 139.572C80.5307 142.307 105.716 131.677 124.977 115.433C141.735 101.302 155.145 81.981 157.64 60.2459C161.861 23.4649 128.369 -9.90428 90.9855 2.72096C75.2669 8.02867 64.9923 21.0856 54.891 33.4587C43.958 46.8506 30.2839 46.5674 16.1698 54.8691C-2.65021 65.937 -3.15268 86.7534 5.08432 104.811C8.55654 112.436 13.8377 119.08 20.238 124.477Z" fill="#D3F4E4" fill-opacity="0.7"/>
</g>
<g clip-path="url(#clip1)">
<path d="M19.4517 4.93274L20.2033 50.7" stroke="#00BF71" stroke-width="1.5" stroke-miterlimit="10" stroke-linecap="round" stroke-linejoin="round"/>
<path d="M37.7603 5.95447L38.5018 50.8599" stroke="#00BF71" stroke-width="1.5" stroke-miterlimit="10" stroke-linecap="round" stroke-linejoin="round"/>
<path d="M54.556 7.16797L54.4658 50.2095" stroke="#00BF71" stroke-width="1.5" stroke-miterlimit="10" stroke-linecap="round" stroke-linejoin="round"/>
<path d="M2.55585 51.0813L69.2677 50.6403L69.6685 8.13997L1.97461 2.45789L2.55585 51.0813Z" stroke="#00BF71" stroke-width="1.5" stroke-miterlimit="10" stroke-linecap="round" stroke-linejoin="round"/>
<path d="M2.12451 19.897L69.0969 19.3658" stroke="#00BF71" stroke-width="1.5" stroke-miterlimit="10" stroke-linecap="round" stroke-linejoin="round"/>
<path d="M2.7959 37.7056L68.8263 40.3813" stroke="#00BF71" stroke-width="1.5" stroke-miterlimit="10" stroke-linecap="round" stroke-linejoin="round"/>
<path d="M4.279 29.1109C5.29115 27.4474 6.49371 25.7037 8.09712 24.5512C9.52014 23.5191 11.9253 22.9979 13.3082 24.3909C14.7012 25.7839 14.7112 28.4696 14.9717 30.2935C15.3125 32.6885 15.583 35.0937 15.7935 37.4988C15.9839 39.6634 15.9137 41.9081 16.2645 44.0527C16.5451 45.7563 17.7276 46.9789 19.5014 47.009C23.7504 47.0992 24.973 41.7979 26.2056 38.7013C28.0095 34.1717 29.8133 29.632 31.6171 25.1024C32.479 22.9278 33.2205 20.6329 34.2928 18.5585C35.1346 16.905 36.9485 14.9508 39.0329 15.7626C40.8167 16.454 41.2977 18.9193 41.6484 20.5527C42.1595 22.9078 42.2096 25.2427 42.1194 27.6378C42.0393 29.6421 42.1295 31.7365 43.4423 33.36C44.5346 34.7128 46.2883 35.5045 48.012 35.0035C50.1866 34.3721 51.9002 32.2075 53.4936 30.7244C55.2574 29.0909 56.971 27.1067 59.1757 26.0544C60.0977 25.6135 61.2501 25.3129 62.1721 25.8841C63.1341 26.4854 63.3446 27.718 63.4849 28.7502C63.8557 31.5461 64.1062 34.3621 64.4269 37.158C64.5371 38.1101 66.0403 38.1201 65.9301 37.158C65.6395 34.5625 65.3589 31.977 65.0682 29.3815C64.8678 27.6077 64.6273 25.5935 62.9437 24.5813C59.326 22.3967 55.3175 26.9864 52.9926 29.151C52.0806 30.0028 51.1587 30.8446 50.2467 31.6964C49.415 32.4681 48.503 33.4101 47.3405 33.6205C44.7551 34.0715 43.6527 31.035 43.6126 29.0308C43.5525 26.5755 43.773 24.1905 43.4022 21.7353C43.1216 19.8412 42.7307 17.6766 41.6184 16.0532C40.6062 14.57 38.9627 13.8184 37.1689 14.1992C35.2448 14.6101 33.8619 16.1033 32.99 17.7869C31.9178 19.8813 31.1762 22.1662 30.3043 24.3508C29.3723 26.7058 28.4303 29.0508 27.4984 31.4058C26.5664 33.7608 25.6244 36.1058 24.6924 38.4608C24.2414 39.5832 23.8105 40.7056 23.3495 41.828C22.9286 42.8602 22.4476 43.9725 21.5858 44.7241C20.8943 45.3254 19.8722 45.6862 18.9702 45.4156C17.7877 45.0749 17.7076 43.7721 17.6574 42.7399C17.5272 40.2546 17.3568 37.7794 17.1063 35.3141C16.8257 32.5683 16.485 29.8124 16.0139 27.0967C15.6732 25.1525 14.9517 23.1984 12.9875 22.4067C8.58816 20.6429 4.99051 25.0724 3.00629 28.3493C2.48519 29.1811 3.77794 29.9427 4.279 29.1109Z" fill="#4851DE"/>
<path d="M68.0747 43.1043L67.9043 48.5859L60.9796 49.2173L60.6689 52.1134L70.5099 52.2237L72.0331 42.5431L68.0747 43.1043Z" fill="#07995A"/>
<path fill-rule="evenodd" clip-rule="evenodd" d="M67.1328 136.395C99.9626 135.924 120.687 135.422 133.754 126.644C153.997 132.045 113.541 146.386 67.1328 136.395Z" fill="#7FD4B4"/>
<path fill-rule="evenodd" clip-rule="evenodd" d="M69.2777 135.993C103.871 136.674 149.929 141.094 139.497 92.5005C135.088 72.0069 118.402 54.5298 84.8207 55.602C33.0807 57.2255 16.3852 134.981 69.2777 135.993Z" fill="white" stroke="#00BF71" stroke-width="1.5"/>
<path fill-rule="evenodd" clip-rule="evenodd" d="M138.464 92.4304C132.401 126.172 105.344 134.169 71.0708 135.261C79.178 135.211 92.9072 136.163 104.422 135.181C134.135 132.686 143.896 118.746 138.464 92.4304Z" fill="#D1F2E5"/>
<path d="M81.5934 32.242L84.8103 28.6443C85.3414 28.0531 86.1231 27.7424 86.9148 27.8125L102.077 29.1855C103.861 29.3458 105.164 30.9492 104.963 32.733L103.26 47.3441C102.939 50.0999 100.393 52.0541 97.6476 51.6432L68.235 47.2839C66.1907 46.9833 64.7176 45.1594 64.8579 43.095L65.7698 29.2757C65.9101 27.1411 67.7941 25.5477 69.9286 25.7682L76.7131 26.4797C77.7252 26.5899 78.6271 27.1612 79.1382 28.043L81.5934 32.242Z" fill="white" stroke="#00BF71" stroke-width="0.75"/>
<path d="M97.7975 52.3036C97.7174 52.2936 97.6372 52.2835 97.557 52.2735L68.1445 47.9143C65.7895 47.5635 64.0658 45.429 64.2262 43.0539L65.1381 29.2345C65.2183 28.022 65.7694 26.9296 66.7014 26.148C67.6234 25.3663 68.7959 25.0056 70.0085 25.1358L76.7929 25.8473C77.9954 25.9776 79.0878 26.6691 79.6991 27.7213L81.7234 31.1586L84.359 28.2124C85.0204 27.4708 86.0025 27.08 86.9946 27.1702L102.157 28.5431C103.189 28.6333 104.131 29.1343 104.782 29.9461C105.444 30.7578 105.734 31.7699 105.614 32.8021L103.911 47.4132C103.73 48.9164 102.979 50.2592 101.766 51.1812C100.614 52.0631 99.2105 52.4539 97.7975 52.3036ZM69.8581 26.4085C69.0063 26.3183 68.1746 26.5789 67.5131 27.1301C66.8517 27.6812 66.4609 28.4629 66.4008 29.3247L65.4888 43.1441C65.3786 44.8578 66.6212 46.4111 68.3249 46.6616L97.7374 51.0209C98.8899 51.1912 100.042 50.8906 100.974 50.1791C101.906 49.4676 102.488 48.4354 102.628 47.2729L104.331 32.6618C104.412 31.9704 104.211 31.2989 103.78 30.7578C103.339 30.2166 102.718 29.8859 102.027 29.8258L86.8643 28.4529C86.273 28.4028 85.6918 28.6333 85.2909 29.0742L81.4828 33.3232L78.5767 28.3727C78.1658 27.6712 77.4443 27.2102 76.6426 27.12L69.8581 26.4085Z" fill="#00BF71" stroke="#00BF71" stroke-width="0.25"/>
<path fill-rule="evenodd" clip-rule="evenodd" d="M87.5159 39.8056C88.4078 40.0261 89.3999 39.1141 89.7306 37.7612C90.0713 36.4084 89.6204 35.1357 88.7385 34.9152C87.8466 34.6947 86.8545 35.6067 86.5238 36.9595C86.183 38.3024 86.624 39.5851 87.5159 39.8056Z" fill="#00764A"/>
<path fill-rule="evenodd" clip-rule="evenodd" d="M69.0871 38.3122C69.989 38.4926 70.931 37.5306 71.2016 36.1576C71.4721 34.7947 70.961 33.5421 70.0691 33.3617C69.1672 33.1813 68.2252 34.1434 67.9546 35.5163C67.6841 36.8792 68.1851 38.1318 69.0871 38.3122Z" fill="#00764A"/>
<path fill-rule="evenodd" clip-rule="evenodd" d="M71.0013 51.102C70.861 51.102 70.7308 51.102 70.6005 51.092C65.8604 50.8214 62.2828 45.7907 62.6235 39.8781C62.9643 33.9656 67.093 29.3658 71.8331 29.6364C76.5732 29.9069 80.1508 34.9376 79.8201 40.8602C79.6597 43.6962 78.6276 46.3218 76.9239 48.2459C75.2604 50.0999 73.176 51.102 71.0013 51.102ZM63.9263 39.9483C63.6257 45.1393 66.6521 49.5487 70.6706 49.7792C72.5847 49.8894 74.4487 49.0276 75.9218 47.3741C77.435 45.6704 78.347 43.3255 78.4873 40.78C78.7779 35.589 75.7615 31.1796 71.7429 30.9491C67.7244 30.7187 64.2169 34.7572 63.9263 39.9483Z" fill="#4851DE"/>
<path fill-rule="evenodd" clip-rule="evenodd" d="M90.3324 51.4308C90.1921 51.4308 90.0618 51.4308 89.9315 51.4208C85.1915 51.1503 81.6139 46.1196 81.9546 40.207C82.2953 34.2944 86.4241 29.6946 91.1642 29.9652C95.9042 30.2358 99.4819 35.2665 99.1511 41.1891C98.9908 44.0251 97.9586 46.6507 96.255 48.5748C94.6015 50.4187 92.507 51.4308 90.3324 51.4308ZM83.2574 40.2771C82.9567 45.4682 85.9831 49.8775 90.0017 50.108C91.9158 50.2183 93.7797 49.3564 95.2529 47.7029C96.7661 45.9993 97.678 43.6543 97.8183 41.1089C98.1089 35.9179 95.0925 31.5085 91.074 31.278C87.0554 31.0375 83.558 35.0761 83.2574 40.2771Z" fill="#4851DE"/>
<path fill-rule="evenodd" clip-rule="evenodd" d="M76.9436 41.4218C76.7933 41.3817 76.663 41.2715 76.6029 41.1312C76.4926 40.8706 76.6129 40.56 76.8735 40.4497C79.3888 39.3574 81.7939 39.6079 84.0086 41.2013C84.2391 41.3717 84.2992 41.6924 84.1289 41.9329C83.9585 42.1634 83.6378 42.2235 83.3973 42.0531C81.4732 40.6702 79.469 40.4597 77.2843 41.4118C77.1741 41.4418 77.0538 41.4519 76.9436 41.4218Z" fill="#4851DE"/>
<path d="M46.9798 61.1238C52.9793 61.1238 57.8429 56.8794 57.8429 51.6436C57.8429 46.4079 52.9793 42.1635 46.9798 42.1635C40.9803 42.1635 36.1167 46.4079 36.1167 51.6436C36.1167 56.8794 40.9803 61.1238 46.9798 61.1238Z" fill="white" stroke="#00BF71" stroke-width="1.5" stroke-miterlimit="10"/>
<path d="M62.5631 9.24039L68.0448 9.41075L68.6761 16.3455L71.5723 16.6562L71.6725 6.80521L62.002 5.29199L62.5631 9.24039Z" fill="#07995A"/>
<path d="M9.32007 3.66044L3.83842 3.82078L3.20708 10.7555L0.310918 11.0662L0.200684 1.22526L9.88126 -0.297974L9.32007 3.66044Z" fill="#07995A"/>
<path d="M3.95842 44.2261L4.11876 49.7078L11.0535 50.3291L11.3642 53.2353L1.52324 53.3355L0 43.6549L3.95842 44.2261Z" fill="#07995A"/>
<path d="M67.6437 69.8527L66.4409 68.4297L84.9603 62.938L85.4113 65.764" fill="#00BF71"/>
<path d="M67.6437 69.8527L66.4409 68.4297L84.9603 62.938L85.4113 65.764" stroke="#00BF71" stroke-miterlimit="10" stroke-linecap="round" stroke-linejoin="round"/>
<path d="M107.729 113.444C87.6866 113.043 70.9844 97.5768 65.1387 89.8938L77.1642 119.457L107.729 113.444Z" fill="#D1F2E5" stroke="#D1F2E5" stroke-linecap="round" stroke-linejoin="round"/>
<path d="M108.926 113.818L77.1961 120.119L57.1395 72.5339L95.8338 63.2067L108.926 113.818Z" stroke="#00BF71"/>
<path d="M100.554 79.5123L102.588 87.2588" stroke="#4851DE" stroke-width="1.5" stroke-miterlimit="10" stroke-linecap="round" stroke-linejoin="round"/>
<path d="M96.5151 64.2105L99.0405 63.8698L111.307 113.395L108.932 113.585" stroke="#00BF71" stroke-miterlimit="10" stroke-linejoin="round"/>
<path d="M109.45 106.807C116.077 106.107 120.954 100.849 120.342 95.0645C119.731 89.2796 113.863 85.1578 107.236 85.8581C100.609 86.5585 95.7324 91.8158 96.3438 97.6007C96.9551 103.386 102.823 107.507 109.45 106.807Z" fill="white" stroke="#00BF71" stroke-width="1.5" stroke-miterlimit="10"/>
<path d="M79.3082 116.167L75.8008 108.671" stroke="#00BF71" stroke-miterlimit="10" stroke-linecap="round" stroke-linejoin="round"/>
<path d="M74.8089 106.057L74.1074 104.424" stroke="#00BF71" stroke-miterlimit="10" stroke-linecap="round" stroke-linejoin="round"/>
<path d="M97.1367 66.0619L99.5719 75.7325" stroke="#00BF71" stroke-width="1.5" stroke-miterlimit="10" stroke-linecap="round" stroke-linejoin="round"/>
<path d="M73.2759 66.1126C73.2759 66.1126 73.0054 64.379 75.5408 63.6173C77.8356 62.9259 78.7075 64.4691 78.7075 64.4691" stroke="#00BF71" stroke-miterlimit="10" stroke-linecap="round" stroke-linejoin="round"/>
</g>
<defs>
<clipPath id="clip0">
<rect width="158" height="140" fill="white"/>
</clipPath>
<clipPath id="clip1">
<rect width="141.45" height="139.85" fill="white"/>
</clipPath>
</defs>
</svg>
