<svg width="158" height="140" viewBox="0 0 158 140" fill="none" xmlns="http://www.w3.org/2000/svg">
<path d="M20.2351 124.478C30.1355 132.824 42.7145 138.184 55.4459 139.572C80.5277 142.307 105.713 131.678 124.974 115.433C141.732 101.302 155.142 81.9813 157.637 60.2463C161.858 23.4653 128.366 -9.90392 90.9825 2.72133C75.264 8.02904 64.9894 21.0859 54.888 33.4591C43.955 46.851 30.281 46.5678 16.1669 54.8695C-2.65314 65.9373 -3.15561 86.7538 5.08139 104.811C8.55361 112.436 13.8347 119.08 20.2351 124.478Z" fill="#D3F4E4" fill-opacity="0.7"/>
<g clip-path="url(#clip0)">
<path fill-rule="evenodd" clip-rule="evenodd" d="M33.9 125.89C33.9 127.96 27.89 131.26 20.97 131.37C14.18 131.47 9 129.14 9 127.07C9 125 14.61 123.33 21.54 123.33C28.47 123.33 33.9 123.82 33.9 125.89Z" fill="#7FD4B4"/>
<path fill-rule="evenodd" clip-rule="evenodd" d="M58.4201 126.36C58.4201 128.29 52.5001 131.37 45.6601 131.47C38.9601 131.57 33.8601 129.39 33.8601 127.47C33.8601 125.54 39.4001 123.98 46.2301 123.98C53.0601 123.98 58.4201 124.44 58.4201 126.36Z" fill="#7FD4B4"/>
<path d="M119.77 80.5299C119.77 80.5299 134.68 40.0899 138.34 32.1199C140.65 27.0999 135.03 17.3199 121.93 35.6599C112.94 48.2499 98.8801 71.3999 98.8801 71.3999" fill="white"/>
<path d="M120.49 80.73C122.51 75.26 124.54 69.8 126.59 64.34C129.93 55.43 133.27 46.51 136.82 37.68C137.38 36.29 137.94 34.91 138.53 33.54C139.02 32.42 139.5 31.38 139.58 30.14C139.74 27.75 138.56 25.11 136.11 24.41C132.12 23.28 128.06 27.24 125.66 29.84C121.25 34.6 117.76 40.29 114.21 45.7C108.83 53.9 103.62 62.21 98.51 70.58C98.42 70.73 98.32 70.89 98.23 71.04C97.73 71.87 99.02 72.62 99.53 71.8C103.72 64.91 108.01 58.07 112.37 51.29C115.58 46.3 118.83 41.34 122.27 36.5C124.27 33.68 126.43 30.91 129.05 28.63C130.49 27.38 132.25 26.07 134.18 25.79C136.46 25.46 137.93 27.19 138.08 29.3C138.16 30.39 137.89 31.3 137.45 32.28C136.88 33.56 136.35 34.86 135.82 36.16C132.42 44.52 129.26 52.98 126.09 61.43C123.76 67.62 121.27 73.78 119.15 80.04C119.12 80.14 119.08 80.24 119.04 80.34C118.71 81.24 120.16 81.63 120.49 80.73Z" fill="#00BF71"/>
<path d="M36.2999 77.28C36.2999 77.28 19.3299 37.66 15.2599 29.89C12.6999 25 17.7999 14.94 31.8199 32.59C41.4499 44.7 56.6899 67.1 56.6899 67.1" fill="white"/>
<path d="M36.9499 76.9C34.7599 71.78 32.5499 66.67 30.3299 61.57C26.6199 53.02 22.8999 44.48 19.0099 36.01C18.3299 34.53 17.6399 33.05 16.9299 31.58C16.4599 30.6 15.8199 29.61 15.5499 28.58C15.0599 26.75 15.5599 24.25 17.4799 23.54C18.8099 23.04 20.3299 23.52 21.5399 24.12C23.9799 25.32 26.0299 27.24 27.8899 29.19C32.2099 33.73 35.8599 39 39.5499 44.06C45.0799 51.64 50.4699 59.32 55.7599 67.07C55.8599 67.21 55.9499 67.35 56.0499 67.49C56.5899 68.28 57.8899 67.53 57.3499 66.73C52.5899 59.74 47.7299 52.81 42.7799 45.95C39.1799 40.97 35.5799 35.96 31.6799 31.21C29.5299 28.58 27.1699 26.04 24.3799 24.07C22.8099 22.96 20.9799 21.98 19.0199 21.85C16.3299 21.67 14.3399 23.62 13.9599 26.2C13.5699 28.83 14.9799 30.94 16.0599 33.21C19.9799 41.45 23.5899 49.84 27.2399 58.21C29.0399 62.33 30.8199 66.45 32.5999 70.58C33.5699 72.84 34.4799 75.14 35.5199 77.36C35.5699 77.46 35.6099 77.57 35.6499 77.67C36.0299 78.54 37.3199 77.78 36.9499 76.9Z" fill="#00BF71"/>
<path fill-rule="evenodd" clip-rule="evenodd" d="M36.9399 122.87C81.7199 122.23 105.8 127.35 123.62 115.37C151.23 122.74 87.7699 141.12 36.9399 122.87Z" fill="#7FD4B4"/>
<path fill-rule="evenodd" clip-rule="evenodd" d="M58.6001 128.37C92.3301 128.35 137.31 131.76 126.19 84.6C121.49 64.72 104.89 48 72.1701 49.7C21.7801 52.3 7.02011 128.42 58.6001 128.37Z" fill="white" stroke="#00BF71" stroke-width="1.5"/>
<path fill-rule="evenodd" clip-rule="evenodd" d="M125.2 84.61C119.92 117.61 91.6501 126.28 59.0901 127.49C67.0301 127.28 83.1701 127.94 93.0001 126.66C122.03 123.64 131.3 110.63 125.2 84.61Z" fill="#D1F2E5"/>
<path fill-rule="evenodd" clip-rule="evenodd" d="M60.66 22.42L72.29 21.58L76.88 24.57L80.79 20.83L92.56 19.95C94.47 19.79 96.15 21.26 96.33 23.21L97.73 40.06C97.91 42.01 96.5 43.7 94.59 43.86L62.69 46.33C60.78 46.49 59.1 45.02 58.92 43.07L57.52 26.22C57.35 24.27 58.76 22.58 60.66 22.42Z" fill="white" stroke="#00BF71" stroke-width="1.5"/>
<path d="M50.5299 5.95996C51.6799 8.47996 49.0499 12.13 44.6699 14.13C40.2899 16.12 35.8099 15.7 34.6599 13.18C33.5099 10.66 36.1399 7.00996 40.5199 5.00996C44.9099 3.01996 49.3899 3.44996 50.5299 5.95996Z" fill="white" stroke="#00BF71" stroke-width="1.5" stroke-miterlimit="10"/>
<path d="M35.0498 14.11L37.0298 18.47C37.0298 18.47 41.1198 20.9 47.1198 17.43C53.1198 13.96 52.6698 11.24 52.6698 11.24L51.0998 7.46997C51.0998 7.46997 45.8098 18.93 35.0498 14.11Z" fill="white" stroke="#00BF71" stroke-width="1.5" stroke-miterlimit="10"/>
<path d="M141.69 56.37C140.38 58.8 135.88 58.92 131.64 56.63C127.4 54.34 125.04 50.52 126.35 48.08C127.66 45.65 132.16 45.53 136.4 47.82C140.63 50.11 143 53.94 141.69 56.37Z" fill="white" stroke="#00BF71" stroke-width="1.5" stroke-miterlimit="10"/>
<path d="M125.84 48.95L123.56 53.16C123.56 53.16 124.1 57.88 130.48 60.58C136.87 63.27 138.77 61.2599 138.77 61.2599L140.82 57.72C140.82 57.74 128.5 60.44 125.84 48.95Z" fill="white" stroke="#00BF71" stroke-width="1.5" stroke-miterlimit="10"/>
<path d="M12.14 34.7199C11.94 35.6699 11.77 36.6599 11.73 37.6299C11.71 38.1699 11.72 38.7899 12.12 39.2099C12.44 39.5499 12.94 39.7499 13.36 39.8999C14.7 40.3799 16.3 40.4099 17.63 39.8799C18.05 39.7099 18.44 39.5099 18.81 39.2399C19.2 38.9499 19.63 38.6599 19.69 38.1399C19.73 37.8199 19.77 37.4899 19.8 37.1699C19.91 36.1999 20.03 35.2299 20.14 34.2599C20.21 33.6699 19.46 33.3599 19.01 33.6099C18.9 33.6799 18.78 33.7299 18.65 33.7899C18.62 33.7999 18.39 33.8999 18.55 33.8299C18.48 33.8599 18.42 33.8799 18.35 33.9099C18.17 33.9799 17.99 34.0399 17.81 34.0899C16.96 34.3299 16.09 34.3899 15.24 34.0799C14.86 33.9399 14.42 34.2399 14.32 34.5999C14.21 35.0199 14.46 35.3799 14.84 35.5199C16.41 36.0899 18.32 35.7099 19.75 34.8999C19.37 34.6799 19 34.4699 18.62 34.2499C18.47 35.5399 18.31 36.8399 18.16 38.1299C18.23 37.9499 18.31 37.7799 18.38 37.5999C18.04 37.9299 17.67 38.1999 17.24 38.3999C16.93 38.5399 16.39 38.6799 16.12 38.7199C15.71 38.7699 15.3 38.7599 14.9 38.7199C14.88 38.7199 14.72 38.6999 14.81 38.7099C14.88 38.7199 14.76 38.6999 14.76 38.6999C14.66 38.6799 14.57 38.6699 14.47 38.6499C14.29 38.6099 14.12 38.5699 13.94 38.5099C13.8 38.4699 13.67 38.4199 13.54 38.3699C13.72 38.4399 13.51 38.3599 13.48 38.3399C13.42 38.3099 13.37 38.2799 13.31 38.2499C13.23 38.1999 13.01 38.0399 13.21 38.1999C13.18 38.1799 13.15 38.1499 13.13 38.1199C13.13 38.1199 13.26 38.2999 13.2 38.1999C13.22 38.2299 13.23 38.3699 13.24 38.2799C13.24 38.2399 13.21 38.1599 13.2 38.1099C13.23 38.2499 13.21 38.1899 13.2 38.0799C13.19 37.9199 13.19 37.7499 13.2 37.5899C13.21 37.4299 13.22 37.2699 13.24 37.0999C13.25 37.0199 13.26 36.9299 13.27 36.8499C13.28 36.7999 13.28 36.7499 13.29 36.7099C13.31 36.5699 13.28 36.7399 13.3 36.6599C13.37 36.1399 13.46 35.6299 13.57 35.1199C13.65 34.7199 13.45 34.3099 13.05 34.1999C12.69 34.0899 12.22 34.3199 12.14 34.7199Z" fill="#4851DE"/>
<path d="M110.46 1.78997C110.55 2.20997 110.62 2.62997 110.69 3.04997C110.7 3.12997 110.71 3.20998 110.73 3.28997C110.75 3.43998 110.74 3.33997 110.73 3.30997C110.74 3.35997 110.74 3.40998 110.75 3.44998C110.77 3.62998 110.79 3.80997 110.8 3.98997C110.81 4.15998 110.82 4.31997 110.82 4.48997C110.82 4.55997 110.82 4.62997 110.82 4.69997C110.82 4.76997 110.77 4.99997 110.82 4.78997C110.81 4.83997 110.79 4.88997 110.79 4.93997C110.77 5.08997 110.86 4.81997 110.8 4.90997C110.92 4.71997 110.89 4.79997 110.83 4.85997C110.77 4.90998 111 4.75997 110.85 4.83997C110.76 4.88998 110.68 4.94997 110.59 4.98997C110.53 5.01997 110.47 5.04997 110.4 5.07997C110.56 5.00997 110.37 5.08997 110.31 5.10997C109.98 5.22997 109.64 5.30997 109.29 5.37997C109.25 5.38998 109.22 5.38997 109.18 5.39997C109.3 5.37997 109.17 5.39997 109.15 5.39997C109.06 5.40998 108.97 5.41997 108.88 5.41997C108.66 5.42998 108.44 5.43997 108.23 5.41997C107.31 5.36997 106.36 4.98997 105.63 4.27997C105.7 4.45997 105.78 4.62997 105.85 4.80997C105.7 3.51997 105.54 2.21997 105.39 0.929975C105.01 1.14997 104.64 1.35997 104.26 1.57997C105.69 2.38997 107.6 2.76997 109.17 2.19998C109.55 2.05998 109.81 1.68997 109.69 1.27997C109.59 0.909975 109.15 0.619975 108.77 0.759975C107.94 1.05997 107.07 0.999975 106.22 0.749975C106.04 0.699975 105.86 0.639975 105.68 0.569975C105.61 0.549975 105.55 0.519975 105.48 0.489975C105.64 0.549975 105.41 0.459975 105.38 0.449975C105.26 0.399975 105.14 0.339975 105.02 0.269975C104.57 0.0199749 103.82 0.329975 103.89 0.919975C103.99 1.74997 104.09 2.58998 104.19 3.41998C104.24 3.83998 104.29 4.25997 104.34 4.67997C104.37 4.95997 104.44 5.18997 104.65 5.39997C104.96 5.70997 105.34 5.98997 105.73 6.19997C107.1 6.96997 108.76 7.07997 110.25 6.67997C110.73 6.54997 111.24 6.36997 111.64 6.07997C112.13 5.72997 112.28 5.26997 112.31 4.67997C112.36 3.57997 112.12 2.43997 111.9 1.36997C111.82 0.969975 111.35 0.739975 110.98 0.849975C110.58 0.979975 110.38 1.38997 110.46 1.78997Z" fill="#4851DE"/>
<path d="M134.27 14.09C134.32 13.95 134.37 13.81 134.43 13.67C134.49 13.53 134.54 13.39 134.6 13.25C134.62 13.21 134.64 13.16 134.65 13.12C134.64 13.13 134.61 13.21 134.64 13.13C134.68 13.03 134.73 12.92 134.78 12.82C134.94 12.47 135.1 12.12 135.29 11.79C135.37 11.65 135.46 11.51 135.55 11.37C135.61 11.28 135.47 11.46 135.54 11.39C135.56 11.37 135.57 11.35 135.59 11.33C135.61 11.31 135.64 11.28 135.66 11.26C135.72 11.16 135.59 11.3 135.62 11.29C135.77 11.22 135.48 11.35 135.56 11.31C135.68 11.26 135.59 11.33 135.5 11.31C135.59 11.32 135.7 11.3 135.79 11.31C135.84 11.31 135.89 11.32 135.95 11.32C136.05 11.33 135.79 11.29 135.89 11.31C135.92 11.32 135.96 11.32 135.99 11.33C136.14 11.36 136.29 11.39 136.43 11.43C136.58 11.47 136.73 11.52 136.88 11.57C137.12 11.66 137.07 11.64 137.28 11.73C137.62 11.89 137.95 12.09 138.25 12.32C138.2 12.28 138.4 12.45 138.44 12.48C138.52 12.55 138.6 12.63 138.67 12.7C138.84 12.87 138.95 13 139.06 13.16C139.37 13.61 139.55 14.04 139.68 14.57C139.71 14.38 139.73 14.18 139.76 13.99C139.2 15.17 138.64 16.35 138.08 17.52C138.51 17.52 138.94 17.52 139.38 17.52C138.6 16.08 137.18 14.76 135.55 14.41C135.15 14.33 133.11 13.59 133 13.99C132.9 14.36 134.26 15.0693 134.65 15.1493C135.55 15.3393 136.73 16.56 137.33 17.23C137.59 17.52 137.63 17.58 137.86 17.91C137.94 18.03 138.01 18.15 138.08 18.27C138.33 18.74 139.13 18.78 139.38 18.27C139.77 17.46 140.15 16.64 140.54 15.83C140.71 15.48 140.88 15.12 141.04 14.77C141.35 14.1 140.82 13.11 140.45 12.53C139.68 11.32 138.45 10.47 137.1 10.03C136.63 9.88002 136.12 9.77002 135.63 9.77002C135.09 9.78002 134.7 10 134.37 10.43C133.66 11.36 133.22 12.55 132.82 13.65C132.68 14.03 132.98 14.47 133.34 14.57C133.76 14.73 134.13 14.47 134.27 14.09Z" fill="#00764A"/>
<path d="M138.5 18C136 15 137 15.5 133.5 13.5L135.5 10.5C137.1 9.69997 139.5 12.5 140.5 14L139.5 17L138.5 18Z" fill="#00764A" stroke="#00764A" stroke-width="0.5"/>
<path d="M110.768 25.4496C110.916 25.4656 111.064 25.4817 111.214 25.5075C111.364 25.5333 111.512 25.5493 111.662 25.5751C111.706 25.5852 111.759 25.593 111.8 25.5935C111.788 25.5861 111.703 25.5755 111.788 25.5861C111.895 25.6017 112.013 25.6247 112.122 25.6501C112.5 25.7242 112.877 25.7984 113.243 25.9064C113.397 25.9516 113.555 26.0066 113.712 26.0615C113.813 26.0989 113.605 26.0047 113.69 26.0565C113.714 26.0713 113.736 26.0763 113.76 26.0911C113.784 26.1059 113.82 26.1281 113.844 26.1429C113.955 26.178 113.789 26.0841 113.806 26.111C113.909 26.2406 113.715 25.9888 113.772 26.0573C113.849 26.1624 113.76 26.0911 113.758 25.9989C113.77 26.0888 113.815 26.1911 113.826 26.281C113.837 26.3296 113.839 26.3806 113.853 26.4389C113.867 26.5385 113.845 26.2763 113.849 26.3782C113.846 26.4097 113.856 26.4486 113.853 26.4801C113.859 26.633 113.864 26.7859 113.858 26.9313C113.854 27.0865 113.84 27.244 113.827 27.4016C113.795 27.6559 113.803 27.6026 113.764 27.8278C113.688 28.1957 113.57 28.5632 113.416 28.9085C113.443 28.8505 113.324 29.0846 113.305 29.1305C113.255 29.2246 113.196 29.321 113.144 29.4054C113.018 29.6103 112.918 29.7475 112.788 29.8917C112.422 30.2979 112.046 30.573 111.56 30.8228C111.752 30.8077 111.951 30.7807 112.143 30.7656C110.865 30.4956 109.587 30.2255 108.319 29.9532C108.419 30.3714 108.519 30.7896 108.622 31.2175C109.841 30.1238 110.794 28.4356 110.755 26.7689C110.74 26.3613 110.985 24.2051 110.57 24.1912C110.187 24.18 109.814 25.6678 109.827 26.0657C109.851 26.9852 108.939 28.4168 108.427 29.1563C108.205 29.4766 108.156 29.5295 107.889 29.83C107.791 29.9357 107.69 30.0317 107.59 30.1277C107.191 30.4802 107.338 31.2675 107.892 31.392C108.771 31.5828 109.657 31.7616 110.535 31.9524C110.915 32.0363 111.305 32.1178 111.682 32.192C112.406 32.3376 113.246 31.5918 113.724 31.0969C114.721 30.0665 115.262 28.6725 115.376 27.2572C115.412 26.7652 115.4 26.2436 115.286 25.767C115.151 25.2442 114.846 24.9161 114.351 24.6952C113.282 24.2211 112.022 24.0701 110.859 23.937C110.457 23.8893 110.099 24.2834 110.085 24.6568C110.027 25.1025 110.366 25.4019 110.768 25.4496Z" fill="#00BF71"/>
<path d="M107.95 30.4733C110.286 27.3438 110.032 28.4327 111.163 24.5634L114.546 25.8104C115.696 27.1803 113.532 30.166 112.306 31.4876L109.155 31.2131L107.95 30.4733Z" fill="#00BF71"/>
<path d="M110.768 25.4496C110.916 25.4656 111.064 25.4817 111.214 25.5075C111.364 25.5333 111.512 25.5493 111.662 25.5751C111.706 25.5852 111.759 25.593 111.8 25.5935C111.788 25.5861 111.703 25.5755 111.788 25.5861C111.895 25.6017 112.013 25.6247 112.122 25.6501C112.5 25.7242 112.877 25.7984 113.243 25.9064C113.397 25.9516 113.555 26.0066 113.712 26.0615C113.813 26.0989 113.605 26.0047 113.69 26.0565C113.714 26.0713 113.736 26.0763 113.76 26.0911C113.784 26.1059 113.82 26.1281 113.844 26.1429C113.955 26.178 113.789 26.0841 113.806 26.111C113.909 26.2406 113.715 25.9888 113.772 26.0573C113.849 26.1624 113.76 26.0911 113.758 25.9989C113.77 26.0888 113.815 26.1911 113.826 26.281C113.837 26.3296 113.839 26.3806 113.853 26.4389C113.867 26.5385 113.845 26.2763 113.849 26.3782C113.846 26.4097 113.856 26.4486 113.853 26.4801C113.859 26.633 113.864 26.7859 113.858 26.9313C113.854 27.0865 113.84 27.244 113.827 27.4016C113.795 27.6559 113.803 27.6026 113.764 27.8278C113.688 28.1957 113.57 28.5632 113.416 28.9085C113.443 28.8505 113.324 29.0846 113.305 29.1305C113.255 29.2246 113.196 29.321 113.144 29.4054C113.018 29.6103 112.918 29.7475 112.788 29.8917C112.422 30.2979 112.046 30.573 111.56 30.8228C111.752 30.8077 111.951 30.7807 112.143 30.7656C110.865 30.4956 109.587 30.2255 108.319 29.9532C108.419 30.3714 108.519 30.7896 108.622 31.2175C109.841 30.1238 110.794 28.4356 110.755 26.7689C110.74 26.3613 110.985 24.2051 110.57 24.1912C110.187 24.18 109.814 25.6678 109.827 26.0657C109.851 26.9852 108.939 28.4168 108.427 29.1563C108.205 29.4766 108.156 29.5295 107.889 29.83C107.791 29.9357 107.69 30.0317 107.59 30.1277C107.191 30.4802 107.338 31.2675 107.892 31.392C108.771 31.5828 109.657 31.7616 110.535 31.9524C110.915 32.0363 111.305 32.1178 111.682 32.192C112.406 32.3376 113.246 31.5918 113.724 31.0969C114.721 30.0665 115.262 28.6725 115.376 27.2572C115.412 26.7652 115.4 26.2436 115.286 25.767C115.151 25.2442 114.846 24.9161 114.351 24.6952C113.282 24.2211 112.022 24.0701 110.859 23.937C110.457 23.8893 110.099 24.2834 110.085 24.6568C110.027 25.1025 110.366 25.4019 110.768 25.4496Z" stroke="#00BF71" stroke-width="0.5"/>
<path d="M107.95 30.4733C110.286 27.3438 110.032 28.4327 111.163 24.5634L114.546 25.8104C115.696 27.1803 113.532 30.166 112.306 31.4876L109.155 31.2131L107.95 30.4733Z" stroke="#00BF71" stroke-width="0.5"/>
<path d="M44.27 36.09C44.32 35.95 44.37 35.81 44.43 35.67C44.49 35.53 44.54 35.39 44.6 35.25C44.62 35.21 44.64 35.16 44.65 35.12C44.64 35.13 44.61 35.21 44.64 35.13C44.68 35.03 44.73 34.92 44.78 34.82C44.94 34.47 45.1 34.12 45.29 33.79C45.37 33.65 45.46 33.51 45.55 33.37C45.61 33.28 45.47 33.46 45.54 33.39C45.56 33.37 45.57 33.35 45.59 33.33C45.61 33.31 45.64 33.28 45.66 33.26C45.72 33.16 45.59 33.3 45.62 33.29C45.77 33.22 45.48 33.35 45.56 33.31C45.68 33.26 45.59 33.33 45.5 33.31C45.59 33.32 45.7 33.3 45.79 33.31C45.84 33.31 45.89 33.32 45.95 33.32C46.05 33.33 45.79 33.29 45.89 33.31C45.92 33.32 45.96 33.32 45.99 33.33C46.14 33.36 46.29 33.39 46.43 33.43C46.58 33.47 46.73 33.52 46.88 33.57C47.12 33.66 47.07 33.64 47.28 33.73C47.62 33.89 47.95 34.09 48.25 34.32C48.2 34.28 48.4 34.45 48.44 34.48C48.52 34.55 48.6 34.63 48.67 34.7C48.84 34.87 48.95 35 49.06 35.16C49.37 35.61 49.55 36.04 49.68 36.57C49.71 36.38 49.73 36.18 49.76 35.99C49.2 37.17 48.64 38.35 48.08 39.52C48.51 39.52 48.94 39.52 49.38 39.52C48.6 38.08 47.18 36.76 45.55 36.41C45.15 36.33 43.11 35.59 43 35.99C42.9 36.36 44.26 37.0693 44.65 37.1493C45.55 37.3393 46.73 38.56 47.33 39.23C47.59 39.52 47.63 39.58 47.86 39.91C47.94 40.03 48.01 40.15 48.08 40.27C48.33 40.74 49.13 40.78 49.38 40.27C49.77 39.46 50.15 38.64 50.54 37.83C50.71 37.48 50.88 37.12 51.04 36.77C51.35 36.1 50.82 35.11 50.45 34.53C49.68 33.32 48.45 32.47 47.1 32.03C46.63 31.88 46.12 31.77 45.63 31.77C45.09 31.78 44.7 32 44.37 32.43C43.66 33.36 43.22 34.55 42.82 35.65C42.68 36.03 42.98 36.47 43.34 36.57C43.76 36.73 44.13 36.47 44.27 36.09Z" fill="#00764A"/>
<path d="M48.5 40C46 37 47 37.5 43.5 35.5L45.5 32.5C47.1 31.7 49.5 34.5 50.5 36L49.5 39L48.5 40Z" fill="#00764A" stroke="#00764A" stroke-width="0.5"/>
<path d="M37.2802 119.6C37.1502 122.76 41.5002 125.5 47.0002 125.73C52.5002 125.96 57.0602 123.58 57.1902 120.42C57.3202 117.26 52.9702 114.52 47.4702 114.29C41.9702 114.07 37.4102 116.44 37.2802 119.6Z" fill="white" stroke="#00BF71" stroke-width="1.5" stroke-miterlimit="10"/>
<path d="M57.1803 121.57L56.9603 127.04C56.9603 127.04 53.6803 131.37 45.8303 130.28C37.9803 129.2 37.2903 126.11 37.2903 126.11L37.3403 121.44C37.3303 121.45 47.8703 131.3 57.1803 121.57Z" fill="white" stroke="#00BF71" stroke-width="1.5" stroke-miterlimit="10"/>
<path d="M36.5102 109.59C36.3802 112.75 40.7302 115.49 46.2302 115.72C51.7302 115.95 56.2902 113.57 56.4202 110.41C56.5502 107.25 52.2002 104.51 46.7002 104.28C41.2002 104.06 36.6402 106.43 36.5102 109.59Z" fill="white" stroke="#00BF71" stroke-width="1.5" stroke-miterlimit="10"/>
<path d="M56.4103 111.56L56.1903 117.03C56.1903 117.03 52.9103 121.36 45.0603 120.27C37.2103 119.19 36.5203 116.1 36.5203 116.1L36.5703 111.43C36.5603 111.44 47.1003 121.29 56.4103 111.56Z" fill="white" stroke="#00BF71" stroke-width="1.5" stroke-miterlimit="10"/>
<path d="M33.1101 118.88C33.3401 122.03 29.0701 124.91 23.5901 125.31C18.1001 125.71 13.4701 123.47 13.2401 120.32C13.0101 117.17 17.2801 114.29 22.7601 113.89C28.2501 113.49 32.8801 115.73 33.1101 118.88Z" fill="white" stroke="#00BF71" stroke-width="1.5" stroke-miterlimit="10"/>
<path d="M13.28 121.46L13.67 126.92C13.67 126.92 17.09 131.14 24.9 129.82C32.71 128.49 33.31 125.39 33.31 125.39L33.11 120.72C33.11 120.73 22.89 130.9 13.28 121.46Z" fill="white" stroke="#00BF71" stroke-width="1.5" stroke-miterlimit="10"/>
<path d="M34.1201 110.27C34.3501 113.42 30.0801 116.3 24.6001 116.7C19.1101 117.1 14.4801 114.86 14.2501 111.71C14.0201 108.56 18.2901 105.68 23.7701 105.28C29.2601 104.88 33.8901 107.12 34.1201 110.27Z" fill="white" stroke="#00BF71" stroke-width="1.5" stroke-miterlimit="10"/>
<path d="M14.29 112.85L14.68 118.31C14.68 118.31 18.1 122.53 25.91 121.21C33.72 119.88 34.32 116.78 34.32 116.78L34.12 112.11C34.13 112.11 23.9 122.29 14.29 112.85Z" fill="white" stroke="#00BF71" stroke-width="1.5" stroke-miterlimit="10"/>
<path d="M26.4001 101.52C26.2701 104.68 30.6201 107.42 36.1201 107.65C41.6201 107.88 46.1801 105.5 46.3101 102.34C46.4401 99.18 42.0901 96.44 36.5901 96.21C31.0901 95.99 26.5301 98.37 26.4001 101.52Z" fill="white" stroke="#00BF71" stroke-width="1.5" stroke-miterlimit="10"/>
<path d="M46.3002 103.49L46.0802 108.96C46.0802 108.96 42.8002 113.29 34.9502 112.2C27.1002 111.12 26.4102 108.03 26.4102 108.03L26.4602 103.36C26.4502 103.37 36.9902 113.22 46.3002 103.49Z" fill="white" stroke="#00BF71" stroke-width="1.5" stroke-miterlimit="10"/>
<path fill-rule="evenodd" clip-rule="evenodd" d="M148.48 51.93L147.22 51.61C144.5 51.07 142.4 48.93 141.88 46.13L141.67 44.95L141.46 46.13C140.83 48.92 138.74 51.07 136.12 51.61L134.86 51.93C138.63 51.93 141.67 55.0399 141.67 58.7999L141.88 57.6199C142.4 54.8299 144.5 52.6799 147.22 52.1399L148.48 51.93Z" fill="#4851DE"/>
<path fill-rule="evenodd" clip-rule="evenodd" d="M47.92 18.59L46.66 18.27C43.94 17.73 41.84 15.59 41.32 12.79L41.1101 11.61L40.9 12.79C40.27 15.58 38.18 17.73 35.56 18.27L34.3 18.59C38.07 18.59 41.1101 21.7 41.1101 25.46L41.32 24.28C41.84 21.49 43.94 19.34 46.66 18.8L47.92 18.59Z" fill="#00BF71"/>
<path d="M73.2999 32.93C73.2099 31.42 72.3499 30.26 71.3899 30.33C70.4299 30.4 69.7199 31.68 69.8099 33.2C69.8999 34.71 70.7599 35.87 71.7199 35.8C72.6899 35.72 73.3999 34.44 73.2999 32.93Z" fill="#00764A"/>
<path d="M86.9301 29.74L81.8701 32.41L87.5701 33.88" stroke="#00764A" stroke-miterlimit="10" stroke-linecap="round" stroke-linejoin="round"/>
</g>
<defs>
<clipPath id="clip0">
<rect width="139.48" height="131.47" fill="white" transform="translate(9)"/>
</clipPath>
</defs>
</svg>
