<svg width="158" height="140" viewBox="0 0 158 140" fill="none" xmlns="http://www.w3.org/2000/svg">
<path d="M20.2351 124.478C30.1355 132.824 42.7145 138.184 55.4459 139.572C80.5277 142.307 105.713 131.678 124.974 115.433C141.732 101.302 155.142 81.9813 157.637 60.2463C161.858 23.4653 128.366 -9.90392 90.9825 2.72133C75.264 8.02904 64.9894 21.0859 54.888 33.4591C43.955 46.851 30.281 46.5678 16.1669 54.8695C-2.65314 65.9373 -3.15561 86.7538 5.08139 104.811C8.55361 112.436 13.8347 119.08 20.2351 124.478Z" fill="#D3F4E4" fill-opacity="0.7"/>
<g clip-path="url(#clip0)">
<path d="M24.8501 36.21L13.0601 48.34C13.0601 48.34 27.8301 63 28.2001 68.77C28.2001 68.77 40.8501 60.39 42.0101 58.47C42.0101 58.47 44.7301 50.12 24.8501 36.21Z" fill="white" stroke="#00BF71" stroke-width="1.5"/>
<path d="M38.3598 55.96L22.8198 68.8C22.8198 68.8 25.2698 72.11 27.9198 70.4C30.5698 68.69 41.2198 58.94 41.2198 58.94C41.2198 58.94 39.6498 58.63 38.3598 55.96Z" fill="white" stroke="#00BF71" stroke-width="1.5"/>
<path d="M28.46 39.4699L16.03 51.4499L13.54 48.8599L24.89 37.0499L28.46 39.4699Z" fill="#00BF71"/>
<path d="M29.4203 57.67L26.0003 52.5L25.8403 54.69L24.5303 54.51L24.8803 50.37L25.9603 49.26L30.6503 56.39L29.4203 57.67Z" fill="#00BF71"/>
<path d="M33.0001 53.99L29.5901 48.82L29.4301 51.01L28.1201 50.83L28.4701 46.69L29.5501 45.58L34.2401 52.71L33.0001 53.99Z" fill="#00BF71"/>
<path d="M26.2999 44.66C23.5099 46.81 21.2799 49.9 21.6899 53.59C22.0599 56.9 24.4099 60.06 28.0099 59.93C35.3199 59.65 38.8399 46.97 31.4299 44.14C29.6199 43.45 27.6999 43.88 26.2699 45.15C24.6199 46.61 23.9599 48.8 23.6199 50.91C23.5199 51.54 24.4799 51.81 24.5799 51.18C25.0399 48.36 26.5599 44.32 30.1599 44.84C33.5699 45.33 34.8499 49.04 34.3799 52.05C33.9199 55.02 32.0799 58.11 28.9699 58.81C25.7599 59.54 23.3199 57.1 22.7499 54.1C22.0999 50.61 24.1299 47.59 26.7899 45.54C27.3099 45.14 26.8099 44.27 26.2999 44.66Z" fill="#4851DE"/>
<path d="M145.01 29.12L127.45 20.35C127.45 20.35 116.45 41.83 110.21 44.27C110.21 44.27 123.93 55.3 126.45 55.91C126.45 55.91 136.63 55.98 145.01 29.12Z" fill="white" stroke="#00BF71" stroke-width="1.5"/>
<path d="M127.94 51L108.28 38.34C108.28 38.34 105.48 42.21 108.31 44.53C111.14 46.85 125.82 55.47 125.82 55.47C125.82 55.47 125.44 53.36 127.94 51Z" fill="white" stroke="#00BF71" stroke-width="1.5"/>
<path d="M142.72 34.83L124.89 25.37L127.58 20.59L144.73 29.23L142.72 34.83Z" fill="#00BF71"/>
<path d="M120.68 38.4301L121.76 37.2601C125.57 37.3001 127.58 37.2701 128.13 36.3201C128.41 35.8301 128.08 35.2301 127.37 34.8201C126.63 34.3901 125.92 34.3401 125.33 34.4501L125.32 33.0601C126.22 32.8901 127.32 33.0901 128.21 33.6101C129.6 34.4201 130.44 35.8201 129.69 37.1101C128.91 38.4501 126.83 38.7801 124.02 38.6801L126.78 40.2901L125.77 41.4001L120.68 38.4301Z" fill="#00BF71"/>
<path d="M126.78 41.9801L127.86 40.8101C131.67 40.8501 133.68 40.8201 134.23 39.8701C134.51 39.3801 134.18 38.7801 133.47 38.3701C132.73 37.9401 132.02 37.8901 131.43 38.0001L131.42 36.6101C132.32 36.4401 133.42 36.6401 134.31 37.1601C135.7 37.9701 136.54 39.3701 135.79 40.6601C135.01 42.0001 132.93 42.3301 130.12 42.2301L132.88 43.8401L131.87 44.9501L126.78 41.9801Z" fill="#00BF71"/>
<path d="M135.72 35.0101C132.44 32.2401 128.91 31.1901 125.64 32.1501C123.03 32.9101 120.65 34.8301 120.07 37.4901C119.58 39.7301 120.57 42.1401 122.27 43.6701C123.97 45.2001 126.29 45.9401 128.58 46.0501C131.04 46.1701 133.64 45.5601 135.46 43.9001C137.28 42.2401 138.12 39.4001 137.03 37.1901C136.31 35.7301 134.88 34.7101 133.34 34.2101C131.79 33.7101 130.14 33.6801 128.52 33.7801" stroke="#4851DE" stroke-width="0.75" stroke-miterlimit="10" stroke-linecap="round" stroke-linejoin="round"/>
<path fill-rule="evenodd" clip-rule="evenodd" d="M31.3301 125.83C79.1101 125.15 104.79 130.61 123.81 117.83C153.27 125.69 85.5701 145.3 31.3301 125.83Z" fill="#7FD4B4"/>
<path fill-rule="evenodd" clip-rule="evenodd" d="M54.4501 131.7C90.4401 131.68 138.42 135.32 126.56 85.01C121.55 63.8 103.83 45.96 68.9301 47.78C15.1601 50.55 -0.579941 131.76 54.4501 131.7Z" fill="white" stroke="#00BF71" stroke-width="1.5"/>
<path fill-rule="evenodd" clip-rule="evenodd" d="M125.5 85.01C119.87 120.22 89.7002 129.46 54.9702 130.75C63.4402 130.53 80.6602 131.23 91.1502 129.86C122.12 126.65 132.01 112.77 125.5 85.01Z" fill="#D1F2E5"/>
<path fill-rule="evenodd" clip-rule="evenodd" d="M56.6499 18.67L69.0599 17.77L73.9499 20.96L78.1199 16.97L90.6699 16.03C92.7099 15.86 94.4999 17.42 94.6899 19.5L96.1799 37.47C96.3699 39.55 94.8699 41.36 92.8299 41.52L58.7999 44.16C56.7599 44.33 54.9699 42.77 54.7799 40.69L53.2999 22.72C53.1099 20.64 54.6099 18.84 56.6499 18.67Z" fill="white" stroke="#00BF71" stroke-width="1.5"/>
<path d="M85.0498 73.78L88.4398 63.09L101.48 69.36L96.3998 79L85.0498 73.78Z" fill="#00BF71"/>
<path d="M76.8701 73.53L74.5601 61.91L89.3601 59.26L89.3201 72.44L76.8701 73.53Z" fill="#00BF71"/>
<path d="M89.2302 64.85L88.9902 71.69" stroke="white" stroke-width="0.75" stroke-miterlimit="10" stroke-linecap="round"/>
<path d="M73.3098 71.5101C72.5398 71.5501 71.6998 71.7001 71.1698 72.2601C70.5998 72.8501 70.4998 73.7501 70.4398 74.5701C70.0898 78.8901 69.7498 83.2101 69.3998 87.5301C69.2998 88.8201 69.2298 90.2301 70.0098 91.2601C70.7298 92.2101 71.9998 92.5501 73.1798 92.6801C76.3298 93.0201 87.9098 94.7701 90.3598 95.0301C92.8098 95.2901 97.0498 96.5501 99.0098 95.0601C100.7 93.7801 101.23 89.6301 101.95 87.5201C102.72 85.2601 102.74 83.9101 103.55 81.2301C103.81 80.3801 104.24 78.6201 104.12 77.7401C104 76.8601 103.26 76.3101 102.31 76.2301C102.31 76.2301 78.0698 71.2501 73.3098 71.5101Z" fill="white" stroke="#00BF71" stroke-width="1.5"/>
<path d="M69.8398 78.12C69.8398 78.12 77.6598 78.29 77.9898 79.45C78.3298 80.61 79.3698 86.26 76.2498 86.43C73.1398 86.6 68.5698 86.68 67.0298 85.13C65.4898 83.58 66.6098 77.29 69.8398 78.12Z" fill="white" stroke="#00BF71" stroke-width="1.5"/>
<path d="M103.09 91.86C108.044 91.86 112.06 88.3543 112.06 84.03C112.06 79.7056 108.044 76.2 103.09 76.2C98.1361 76.2 94.1201 79.7056 94.1201 84.03C94.1201 88.3543 98.1361 91.86 103.09 91.86Z" fill="white" stroke="#00BF71" stroke-width="1.5"/>
<path d="M149.46 82.01C148.29 84.51 143.81 84.9 139.45 82.86C135.09 80.83 132.5 77.15 133.67 74.64C134.84 72.14 139.32 71.75 143.68 73.79C148.04 75.82 150.62 79.5 149.46 82.01Z" fill="white" stroke="#00BF71" stroke-width="1.5" stroke-miterlimit="10"/>
<path d="M133.21 75.54L131.18 79.88C131.18 79.88 131.99 84.56 138.52 86.87C145.05 89.18 146.83 87.07 146.83 87.07L148.67 83.42C148.67 83.42 136.53 86.84 133.21 75.54Z" fill="white" stroke="#00BF71" stroke-width="1.5" stroke-miterlimit="10"/>
<path d="M43.6102 8.37001C44.9702 11.36 41.8602 15.7 36.6602 18.07C31.4602 20.44 26.1402 19.94 24.7802 16.95C23.4202 13.96 26.5302 9.62001 31.7302 7.25001C36.9302 4.88001 42.2502 5.38001 43.6102 8.37001Z" fill="white" stroke="#00BF71" stroke-width="1.5" stroke-miterlimit="10"/>
<path d="M25.23 18.04L27.58 23.22C27.58 23.22 32.43 26.1 39.56 21.99C46.69 17.88 46.15 14.64 46.15 14.64L44.27 10.17C44.28 10.16 38 23.76 25.23 18.04Z" fill="white" stroke="#00BF71" stroke-width="1.5" stroke-miterlimit="10"/>
<path d="M32.3 115.47C33.68 118.5 30.52 122.89 25.26 125.29C19.99 127.69 14.61 127.18 13.23 124.15C11.85 121.12 15.01 116.73 20.27 114.33C25.53 111.94 30.92 112.45 32.3 115.47Z" fill="white" stroke="#00BF71" stroke-width="1.5" stroke-miterlimit="10"/>
<path d="M13.6899 125.27L16.0699 130.51C16.0699 130.51 20.9799 133.43 28.1999 129.26C35.4199 125.09 34.8699 121.81 34.8699 121.81L32.9699 117.28C32.9799 117.29 26.6099 131.06 13.6899 125.27Z" fill="white" stroke="#00BF71" stroke-width="1.5" stroke-miterlimit="10"/>
<path d="M87.8802 31.26C87.8702 31.24 86.7002 29.37 85.1202 29.32C84.0802 29.29 82.9902 30.07 81.8902 31.64L80.4702 30.65C81.9302 28.57 83.5102 27.54 85.1802 27.6C87.7002 27.68 89.2902 30.25 89.3602 30.36L87.8802 31.26Z" fill="#00764A"/>
<path d="M69.89 32.62C69.88 32.6 68.71 30.73 67.13 30.68C66.09 30.65 65 31.43 63.9 33L62.48 32.01C63.94 29.93 65.52 28.9 67.19 28.96C69.71 29.04 71.3 31.61 71.37 31.72L69.89 32.62Z" fill="#00764A"/>
</g>
<defs>
<clipPath id="clip0">
<rect width="138.49" height="129.19" fill="white" transform="translate(12 5)"/>
</clipPath>
</defs>
</svg>
