<svg width="158" height="140" viewBox="0 0 158 140" fill="none" xmlns="http://www.w3.org/2000/svg">
<path d="M20.2351 124.478C30.1355 132.824 42.7145 138.184 55.4459 139.572C80.5277 142.307 105.713 131.678 124.974 115.433C141.732 101.302 155.142 81.9813 157.637 60.2463C161.858 23.4653 128.366 -9.90392 90.9825 2.72133C75.264 8.02904 64.9894 21.0859 54.888 33.4591C43.955 46.851 30.281 46.5678 16.1669 54.8695C-2.65314 65.9373 -3.15561 86.7538 5.08139 104.811C8.55361 112.436 13.8347 119.08 20.2351 124.478Z" fill="#D3F4E4" fill-opacity="0.7"/>
<g clip-path="url(#clip0)">
<path d="M91.77 21.79L102.09 38.48C102.09 38.48 119.77 24.09 130.99 26.84C130.99 26.84 123.52 10 121.7 8.15004C121.71 8.15004 113.03 3.35004 91.77 21.79Z" fill="#00BF71"/>
<path fill-rule="evenodd" clip-rule="evenodd" d="M54.9 127.68C54.9 130.24 45.64 134.33 34.97 134.46C24.51 134.59 16.53 131.7 16.53 129.15C16.53 126.59 25.18 124.52 35.86 124.52C46.54 124.52 54.9 125.13 54.9 127.68Z" fill="#7FD4B4"/>
<path fill-rule="evenodd" clip-rule="evenodd" d="M22.8901 121.24C74.1801 120.31 99.8101 127.27 120.29 114.26C151.87 122.04 78.0801 142.3 22.8901 121.24Z" fill="#7FD4B4"/>
<path fill-rule="evenodd" clip-rule="evenodd" d="M47.7401 126.62C86.1901 127.37 137.38 132.29 125.78 78.28C120.88 55.51 102.34 36.07 65.0101 37.27C7.51008 39.07 -11.0499 125.5 47.7401 126.62Z" fill="white" stroke="#00BF71" stroke-width="1.5"/>
<path d="M62.5101 82.2799C61.7201 83.3799 60.9301 84.4799 60.1401 85.5799C60.0301 85.7399 59.9101 85.9 59.8001 86.05C59.6101 86.32 59.7401 86.76 60.0201 86.91C60.3401 87.08 60.6701 86.97 60.8801 86.6899C61.6701 85.59 62.4601 84.4899 63.2501 83.3899C63.3601 83.2299 63.4801 83.0699 63.5901 82.9199C63.7801 82.6499 63.6501 82.2099 63.3701 82.0599C63.0401 81.8799 62.7101 81.9899 62.5101 82.2799Z" fill="#4851DE"/>
<path d="M59.66 87.9099C58.87 89.0099 58.08 90.1099 57.29 91.2099C57.18 91.3699 57.06 91.5299 56.95 91.6799C56.76 91.9499 56.89 92.3899 57.17 92.5399C57.49 92.7099 57.82 92.5999 58.03 92.3199C58.82 91.2199 59.61 90.1199 60.4 89.0199C60.51 88.8599 60.63 88.6999 60.74 88.5499C60.93 88.2799 60.8 87.8399 60.52 87.6899C60.19 87.5199 59.86 87.6299 59.66 87.9099Z" fill="#4851DE"/>
<path d="M62.7601 86.22C62.2501 87.48 61.7501 88.73 61.2401 89.99C61.1701 90.17 61.0901 90.35 61.0201 90.53C60.8901 90.84 61.1601 91.22 61.4601 91.3C61.8201 91.4 62.1001 91.18 62.2301 90.86C62.7401 89.6 63.2401 88.35 63.7501 87.09C63.8201 86.91 63.9001 86.73 63.9701 86.55C64.1001 86.24 63.8301 85.86 63.5301 85.78C63.1801 85.68 62.8901 85.9 62.7601 86.22Z" fill="#4851DE"/>
<path fill-rule="evenodd" clip-rule="evenodd" d="M124.98 78.45C118.21 115.95 93.43 120.9 49.5 126.13C60.71 126.35 77.74 126.31 86.32 126.1C119.49 123.34 131.05 107.7 124.98 78.45Z" fill="#D1F2E5"/>
<path fill-rule="evenodd" clip-rule="evenodd" d="M83.3801 66.14C83.3801 66.14 83.8601 58.44 88.4801 58.66C93.1001 58.88 96.4801 64.74 89.8501 71.79" fill="white"/>
<path d="M83.3801 66.14C83.3801 66.14 83.8601 58.44 88.4801 58.66C93.1001 58.88 96.4801 64.74 89.8501 71.79" stroke="#00BF71" stroke-width="1.5"/>
<path fill-rule="evenodd" clip-rule="evenodd" d="M93.24 77.46C93.24 77.46 89.79 75.26 87.38 79.82C84.97 84.37 89 93.23 78.71 93.34C78.71 93.34 81.89 96.03 85.66 94.23C89.42 92.43 95.57 87.99 95.96 86.45C96.34 84.89 96.22 80.13 93.24 77.46Z" fill="#D1F2E5"/>
<path fill-rule="evenodd" clip-rule="evenodd" d="M83.0402 66.43C83.0402 66.43 70.0502 72.31 69.9902 73.29C69.9302 74.27 76.4102 91.66 78.7002 93.33C81.0002 95.01 83.3602 94.99 85.3002 94.18C87.6402 93.2 95.3102 89.5 96.2902 85.61C97.3902 81.25 85.7002 66.44 84.7302 66.11C83.7802 65.77 83.0402 66.43 83.0402 66.43Z" stroke="#00BF71" stroke-width="1.5"/>
<path d="M100.244 76.9271C105.342 74.6774 107.825 69.1139 105.79 64.5007C103.754 59.8874 97.9708 57.9713 92.8725 60.221C87.7741 62.4706 85.2913 68.0341 87.3269 72.6473C89.3625 77.2606 95.1457 79.1767 100.244 76.9271Z" fill="white" stroke="#00BF71" stroke-width="1.5"/>
<path d="M69.98 73.21C69.98 73.21 65.53 79.98 64.84 82.18C64.15 84.39 71.87 79.49 71.87 79.49" stroke="#00BF71" stroke-width="1.5"/>
<path d="M71.6201 77.61L86.6801 69.36" stroke="#00BF71" stroke-width="1.5"/>
<path d="M58.54 13.74L61.43 9.21C61.91 8.46 62.71 7.99 63.59 7.92L80.47 6.71C82.46 6.57 84.18 8.09 84.27 10.09L85.02 26.42C85.16 29.51 82.72 32.1 79.63 32.14L46.59 32.63C44.29 32.66 42.35 30.93 42.13 28.64L40.65 13.33C40.42 10.96 42.21 8.88 44.58 8.74L52.15 8.3C53.28 8.24 54.37 8.71 55.09 9.58L58.54 13.74Z" fill="white"/>
<path d="M79.9101 32.85C79.8201 32.86 79.7301 32.86 79.6401 32.86L46.6001 33.35C43.9501 33.39 41.6801 31.35 41.4301 28.72L39.9501 13.39C39.8201 12.05 40.2301 10.75 41.1101 9.72998C41.9901 8.70998 43.2101 8.09998 44.5501 8.02998L52.1201 7.58998C53.4701 7.50998 54.7801 8.08998 55.6401 9.11998L58.4701 12.53L60.8301 8.81998C61.4201 7.88998 62.4401 7.28998 63.5401 7.20998L80.4201 5.99998C81.5701 5.91998 82.6901 6.29998 83.5501 7.06998C84.4101 7.83998 84.9201 8.89998 84.9701 10.06L85.7201 26.39C85.8001 28.08 85.2001 29.68 84.0501 30.91C82.9501 32.08 81.4901 32.76 79.9101 32.85ZM44.6301 9.44998C43.6801 9.49998 42.8101 9.92998 42.1901 10.66C41.5701 11.39 41.2801 12.31 41.3701 13.26L42.8501 28.58C43.0301 30.48 44.6801 31.96 46.5901 31.93L79.6301 31.44C80.9301 31.42 82.1401 30.89 83.0301 29.94C83.9201 28.99 84.3801 27.76 84.3201 26.46L83.5601 10.13C83.5201 9.35998 83.1901 8.64998 82.6101 8.13998C82.0301 7.62998 81.2901 7.37998 80.5201 7.42998L63.6401 8.63998C62.9801 8.68998 62.3801 9.04998 62.0301 9.59998L58.6201 14.95L54.5501 10.04C53.9801 9.34998 53.1001 8.96998 52.2001 9.01998L44.6301 9.44998Z" fill="#00BF71"/>
<path fill-rule="evenodd" clip-rule="evenodd" d="M68.66 23.24C69.65 22.99 70.13 21.57 69.75 20.07C69.37 18.57 68.26 17.56 67.28 17.81C66.29 18.06 65.81 19.48 66.19 20.98C66.57 22.48 67.68 23.49 68.66 23.24Z" fill="#00764A"/>
<path fill-rule="evenodd" clip-rule="evenodd" d="M51.2702 24.62C52.2602 24.37 52.7402 22.95 52.3602 21.45C51.9802 19.95 50.8702 18.94 49.8902 19.19C48.9002 19.44 48.4202 20.86 48.8002 22.36C49.1802 23.86 50.2802 24.87 51.2702 24.62Z" fill="#00764A"/>
<path d="M22.58 117.78C22.37 122 29.41 125.66 38.29 125.96C47.18 126.26 54.55 123.09 54.76 118.87C54.97 114.65 47.93 110.99 39.05 110.69C30.17 110.38 22.79 113.56 22.58 117.78Z" fill="white" stroke="#00BF71" stroke-width="1.5" stroke-miterlimit="10"/>
<path d="M54.7601 120.4L54.4001 127.71C54.4001 127.71 49.0901 133.49 36.4001 132.04C23.7101 130.59 22.5901 126.47 22.5901 126.47L22.6701 120.23C22.6601 120.24 39.7001 133.4 54.7601 120.4Z" fill="white" stroke="#00BF71" stroke-width="1.5" stroke-miterlimit="10"/>
<path d="M25.2202 106.68C25.0102 110.9 32.0502 114.56 40.9302 114.86C49.8202 115.16 57.1902 111.99 57.4002 107.77C57.6102 103.55 50.5702 99.89 41.6902 99.59C32.8002 99.29 25.4302 102.46 25.2202 106.68Z" fill="white" stroke="#00BF71" stroke-width="1.5" stroke-miterlimit="10"/>
<path d="M57.3902 109.31L57.0302 116.62C57.0302 116.62 51.7202 122.4 39.0302 120.95C26.3402 119.5 25.2202 115.38 25.2202 115.38L25.3002 109.14C25.3002 109.14 42.3402 122.3 57.3902 109.31Z" fill="white" stroke="#00BF71" stroke-width="1.5" stroke-miterlimit="10"/>
<path d="M56.3001 104.26C56.3001 104.26 53.4001 97.68 48.0001 95.69C42.6001 93.71 37.0101 94.63 34.9501 95.82C32.8901 97.01 26.5901 101.33 25.0801 105.72C25.0801 105.72 23.8601 111.04 30.8301 113.42C37.8001 115.8 45.8501 116.2 50.1601 113.95C54.4701 111.7 59.2101 109.24 56.9901 105.64L56.3001 104.26Z" fill="white" stroke="#00BF71" stroke-width="1.5" stroke-miterlimit="10"/>
<path d="M42.6702 88.8099H41.6802V101.84H42.6702V88.8099Z" fill="#00BF71"/>
<path d="M47.39 100.12C45.78 99.27 43.59 99.06 42.12 100.29C41.42 100.87 41 101.71 40.73 102.57C40.49 103.34 41.69 103.67 41.93 102.9C42.04 102.55 42.16 102.25 42.35 101.93C42.52 101.64 42.61 101.52 42.87 101.28C42.92 101.23 42.98 101.18 43.04 101.13C42.95 101.2 43.08 101.1 43.11 101.08C43.23 101 43.35 100.94 43.47 100.87C43.6 100.81 43.43 100.88 43.53 100.84C43.59 100.82 43.64 100.8 43.7 100.78C43.83 100.74 43.95 100.71 44.08 100.68C44.14 100.67 44.26 100.66 44.13 100.67C44.19 100.66 44.24 100.66 44.3 100.65C44.43 100.64 44.55 100.64 44.68 100.64C44.8 100.64 44.91 100.65 45.03 100.66C45.05 100.66 45.23 100.68 45.13 100.67C45.04 100.66 45.21 100.68 45.25 100.69C45.63 100.76 46.01 100.86 46.37 101C46.44 101.03 46.51 101.06 46.58 101.08C46.65 101.11 46.42 101.01 46.55 101.07C46.57 101.08 46.6 101.09 46.62 101.1C46.67 101.12 46.72 101.15 46.76 101.17C47.47 101.58 48.1 100.5 47.39 100.12Z" fill="#00BF71"/>
<path d="M42.5 101.07C41.63 99.71 40.07 98.63 38.41 98.91C37.63 99.04 36.95 99.51 36.38 100.04C36.13 100.27 36.15 100.69 36.38 100.92C36.63 101.17 37.01 101.15 37.26 100.92C37.54 100.66 37.84 100.44 38.19 100.28C38.26 100.25 38.27 100.24 38.22 100.27C38.26 100.25 38.3 100.24 38.34 100.23C38.42 100.2 38.49 100.18 38.57 100.16C38.65 100.14 38.72 100.13 38.8 100.12C38.66 100.14 38.89 100.12 38.91 100.12C38.98 100.12 39.05 100.12 39.13 100.12C39.16 100.12 39.38 100.15 39.23 100.13C39.37 100.15 39.5 100.18 39.63 100.23C39.69 100.25 39.76 100.27 39.82 100.3C39.67 100.24 39.87 100.33 39.9 100.34C40.01 100.39 40.12 100.46 40.22 100.52C40.32 100.58 40.42 100.65 40.51 100.72C40.38 100.62 40.54 100.75 40.56 100.77C40.61 100.81 40.65 100.85 40.69 100.89C40.85 101.03 40.99 101.18 41.13 101.34C41.19 101.4 41.24 101.47 41.29 101.54C41.39 101.66 41.22 101.44 41.27 101.52C41.29 101.54 41.31 101.57 41.32 101.59C41.35 101.63 41.38 101.68 41.41 101.73C41.59 102.01 41.96 102.13 42.26 101.95C42.56 101.76 42.69 101.35 42.5 101.07Z" fill="#00BF71"/>
<path fill-rule="evenodd" clip-rule="evenodd" d="M42.02 90.4299C42.02 90.4299 41.68 86.9699 38.34 84.1599C35 81.3499 34.66 80.4099 34.46 79.5699C34.26 78.7299 34.71 84.9499 37.31 87.5199C39.91 90.0899 42.02 90.4299 42.02 90.4299Z" fill="#00BF71"/>
<path d="M42.2601 90.43C42.0901 88.76 41.2301 87.1 40.2301 85.79C39.2001 84.44 37.8201 83.46 36.6101 82.29C35.9901 81.69 35.3401 81.04 34.9501 80.25C34.8401 80.02 34.7401 79.21 34.4001 79.25C33.9901 79.3 34.2401 80.29 34.2701 80.51C34.5601 82.63 35.1301 84.89 36.3401 86.69C37.2101 87.99 38.5601 89.04 39.9001 89.81C40.5301 90.17 41.2401 90.53 41.9601 90.65C42.2601 90.7 42.3801 90.24 42.0901 90.19C41.5801 90.1 41.0901 89.88 40.6301 89.65C39.3901 89.03 38.2001 88.14 37.2701 87.11C35.8601 85.54 35.2501 83.27 34.8801 81.24C34.8101 80.84 34.7401 80.44 34.7001 80.03C34.6901 79.91 34.6801 79.79 34.6701 79.67C34.6601 79.48 34.7201 79.52 34.6101 79.64C34.5301 79.66 34.4601 79.68 34.3801 79.7C34.2901 79.68 34.2701 79.5 34.2401 79.6C34.2301 79.63 34.2601 79.69 34.2701 79.72C34.2901 79.81 34.3201 79.91 34.3501 80C34.4201 80.22 34.5201 80.43 34.6301 80.64C35.0301 81.35 35.6201 81.96 36.1901 82.52C37.2601 83.57 38.5001 84.46 39.4801 85.6C40.2901 86.54 40.9401 87.64 41.3701 88.81C41.5501 89.3 41.7401 89.97 41.7901 90.42C41.8201 90.73 42.2901 90.73 42.2601 90.43Z" fill="#00BF71" stroke="#00BF71" stroke-width="0.25" stroke-miterlimit="10"/>
<path fill-rule="evenodd" clip-rule="evenodd" d="M41.78 90.63C41.78 90.63 42.28 85.55 47.19 81.42C52.1 77.29 52.6 75.91 52.89 74.67C53.18 73.44 52.53 82.58 48.71 86.35C44.89 90.12 41.78 90.63 41.78 90.63Z" fill="#00BF71"/>
<path d="M42.1301 90.6299C42.3501 88.4899 43.6001 86.0499 44.9401 84.2699C47.1201 81.3999 50.5101 79.6299 52.4701 76.5599C52.6901 76.2199 52.8701 75.8599 53.0101 75.4799C53.0701 75.3199 53.1201 75.1599 53.1601 74.9999C53.1801 74.9399 53.2201 74.8399 53.2101 74.7899C53.1901 74.5699 53.5101 74.7999 53.0201 74.8899C52.9101 74.8599 52.8001 74.8299 52.6801 74.7999C52.5201 74.6499 52.6401 74.5399 52.5901 74.7599C52.5601 74.9099 52.5701 75.0799 52.5601 75.2299C52.5201 75.7099 52.4501 76.1899 52.3701 76.6599C52.1301 78.0999 51.7901 79.5299 51.3401 80.9099C50.8401 82.4299 50.1801 83.9599 49.2101 85.2399C47.9801 86.8699 46.1701 88.2199 44.4001 89.1999C43.5701 89.6599 42.6401 90.1199 41.6901 90.2799C41.2501 90.3499 41.4401 91.0299 41.8701 90.9499C42.6901 90.8099 43.5101 90.4299 44.2501 90.0599C46.1301 89.1099 47.9801 87.7399 49.3601 86.1399C51.5101 83.6499 52.4801 80.1399 53.0201 76.9599C53.1101 76.4199 53.1901 75.8799 53.2501 75.3399C53.2701 75.0999 53.3501 74.7699 53.2801 74.5299C53.1801 74.1699 52.7901 74.0899 52.6001 74.4299C52.4801 74.6499 52.4601 74.9599 52.3801 75.1999C52.0401 76.1699 51.3501 76.9799 50.6601 77.7199C49.1001 79.3999 47.2201 80.7399 45.6401 82.3899C43.5701 84.5499 41.7601 87.5599 41.4401 90.6199C41.3901 91.0799 42.0801 91.0799 42.1301 90.6299Z" fill="#00BF71" stroke="#00BF71" stroke-width="0.25" stroke-miterlimit="10"/>
<path fill-rule="evenodd" clip-rule="evenodd" d="M38.4901 80.01L37.2301 79.69C34.5101 79.15 32.4101 77.01 31.8901 74.21L31.6801 73.03L31.4701 74.21C30.8401 77 28.7501 79.15 26.1301 79.69L24.8701 80.01C28.6401 80.01 31.6801 83.12 31.6801 86.88L31.8901 85.7C32.4101 82.91 34.5101 80.76 37.2301 80.22L38.4901 80.01Z" fill="#4851DE"/>
<path fill-rule="evenodd" clip-rule="evenodd" d="M31.7802 19.99L30.5202 19.67C27.8002 19.13 25.7002 16.99 25.1802 14.19L24.9702 13.01L24.7602 14.19C24.1302 16.98 22.0402 19.13 19.4202 19.67L18.1602 19.99C21.9302 19.99 24.9702 23.1 24.9702 26.86L25.1802 25.68C25.7002 22.89 27.8002 20.74 30.5202 20.2L31.7802 19.99Z" fill="#00764A"/>
<path d="M102.92 23.2799C103.22 22.3699 103.5 21.7099 103.84 20.8399C103.61 20.8699 103.38 20.8999 103.15 20.9299C103.84 22.0399 104.38 23.2699 105 24.4199C105.7 25.6999 106.32 27.0199 106.99 28.3199C107.21 28.7499 107.86 28.3699 107.64 27.9399C106.97 26.6499 106.34 25.3299 105.65 24.0399C105.02 22.8899 104.49 21.6699 103.8 20.5499C103.62 20.2599 103.23 20.3399 103.11 20.6399C102.8 21.4499 102.48 22.2299 102.19 23.0799C102.04 23.5399 102.77 23.7399 102.92 23.2799Z" fill="white"/>
<path d="M107.76 18.54C106.72 19.63 106.66 21.35 106.82 22.77C106.98 24.23 107.64 25.67 109.12 26.19C109.73 26.41 110.42 26.39 111 26.09C111.6 25.78 111.99 25.19 112.24 24.57C112.8 23.17 112.97 21.39 112.22 20.02C111.45 18.6 109.58 17.83 108.15 18.8C107.75 19.07 108.13 19.72 108.53 19.45C109.54 18.76 110.85 19.24 111.47 20.22C112.15 21.31 112.03 22.66 111.69 23.84C111.4 24.87 110.69 25.84 109.49 25.52C108.29 25.2 107.74 24.04 107.58 22.89C107.41 21.68 107.39 20.02 108.29 19.07C108.62 18.72 108.09 18.19 107.76 18.54Z" fill="white"/>
<path d="M114.23 15.19C113.19 16.28 113.13 18 113.29 19.42C113.45 20.88 114.11 22.32 115.59 22.84C116.2 23.06 116.89 23.04 117.47 22.74C118.07 22.43 118.46 21.84 118.71 21.22C119.27 19.82 119.44 18.04 118.69 16.67C117.92 15.25 116.05 14.48 114.62 15.45C114.22 15.72 114.6 16.37 115 16.1C116.01 15.41 117.32 15.89 117.94 16.87C118.62 17.96 118.5 19.31 118.16 20.49C117.87 21.52 117.16 22.49 115.96 22.17C114.76 21.85 114.21 20.69 114.05 19.54C113.88 18.33 113.86 16.67 114.76 15.72C115.1 15.37 114.57 14.84 114.23 15.19Z" fill="white"/>
<path d="M120.82 10.85C120.82 10.85 114.3 6.47999 95.0901 22.09L103.12 34.99C103.12 34.99 115.01 25.49 125.39 24.59" stroke="#00764A" stroke-width="0.75" stroke-linecap="round" stroke-linejoin="round"/>
<path d="M117.96 11.5L128.03 32.61C128.03 32.61 132.44 30.79 131.26 27.33C130.08 23.87 121.99 8.34998 121.99 8.34998C121.99 8.34998 122.2 11.45 117.96 11.5Z" fill="#00764A"/>
<path fill-rule="evenodd" clip-rule="evenodd" d="M108.24 35.91L107.13 35.63C104.72 35.16 102.87 33.26 102.41 30.79L102.22 29.75L102.03 30.79C101.47 33.26 99.6202 35.16 97.3102 35.63L96.2002 35.91C99.5302 35.91 102.22 38.66 102.22 41.99L102.41 40.95C102.87 38.48 104.73 36.58 107.13 36.11L108.24 35.91Z" fill="#4851DE"/>
</g>
<defs>
<clipPath id="clip0">
<rect width="120.45" height="128.46" fill="white" transform="translate(11 6)"/>
</clipPath>
</defs>
</svg>
